
<svg xmlns="http://www.w3.org/2000/svg" version="1.1" xmlns:xlink="http://www.w3.org/1999/xlink" preserveAspectRatio="none" x="0px" y="0px" width="1000px" height="1000px" viewBox="0 0 1000 1000">
<defs>
<g id="Layer0_0_FILL">
<path fill="#FF00F2" fill-opacity="0.09803921568627451" stroke="none" d="
M 344.45 502.3
Q 344.45 501 344.5 499.65
L 331.2 499.65
Q 331.15 500.95 331.15 502.2 331.15 502.6 331.15 503.15 331.15 508.2 331.45 513.25 333.45 550.1 349.85 580.75 361.4 602.45 380.2 621.3 384.75 625.85 389.45 630 404.95 643.5 422.45 652.45
L 428.3 640.65
Q 412.35 632.35 398.1 620 393.8 616.15 389.6 612 372.3 594.65 361.6 574.65 346.55 546.45 344.7 512.45 344.45 507.85 344.45 503.15 344.45 502.7 344.45 502.3
M 425.55 352.15
L 431.45 364.05
Q 434.15 362.75 436.95 361.5 465.1 349.25 498.4 349.25 499.65 349.25 500.95 349.25 536.05 349.85 565.2 364 565.5 364.05 565.7 364.2
L 571.6 352.25
Q 571.25 352.1 570.95 351.95 539.25 336.6 501.15 336 499.75 336 498.35 336 462.2 336 431.6 349.25 428.5 350.65 425.55 352.15
M 665.4 499.65
L 652.2 499.65
Q 652.2 501 652.2 502.3 652.2 502.7 652.2 503.15 652.2 507.85 652.05 512.45 650.4 543.9 637.25 570.5 626.25 593 607.25 612 605.4 613.65 603.8 615.35 587.95 630.4 569.85 640.05
L 575.75 651.8
Q 595.55 641.4 612.85 624.95 614.6 623.15 616.6 621.3 637.25 600.65 649.2 576.3 663.45 547.4 665.25 513.25 665.4 508.2 665.4 503.15 665.4 502.6 665.4 502.2 665.4 500.95 665.4 499.65 Z"/>

<path fill="#FF00F2" fill-opacity="0.6" stroke="none" d="
M 33.05 500.3
Q 33.05 511.05 33.45 521.5 37.5 623.15 80.65 708.5 113.55 773.65 169.45 829.3 179.35 839.3 189.6 848.6 236.8 891.1 290.45 918.05
L 331.3 836.25
Q 331.2 836.2 331.1 836.2 289.85 815.25 253.4 783.2 243.5 774.5 233.95 764.85 191.15 722 165.1 672.3 129 603.55 125 521.5 124.45 511.1 124.45 500.45 124.45 500.05 124.45 499.65
L 33.05 499.65
Q 33.05 500.05 33.05 500.3
M 872.35 499.65
Q 872.35 500.05 872.35 500.45 872.35 511.1 871.85 521.5 868.05 598.1 836.45 663.15 809.6 718.1 762.8 764.85 758.95 768.75 755.1 772.4 714.4 811.1 667.7 835.15 667.2 835.35 666.8 835.6
L 707.75 917.4
Q 708.25 917.2 708.7 916.95 768.05 886.35 819.6 837 823.4 833.25 827.35 829.3 887.05 769.7 920.5 699.1 959.45 617.6 963.2 521.5 963.6 511.05 963.6 500.3 963.6 500.05 963.6 499.65
L 872.35 499.65
M 707.75 83.35
Q 706.75 82.85 705.75 82.3 700.85 79.85 695.85 77.55 608.35 36.3 504.1 35.15 501.25 35.05 498.4 35.05 397.95 35.05 313 72.1 301.55 77 290.4 82.65
L 331.35 164.65
Q 331.4 164.6 331.5 164.6 340.2 160.1 349.1 156.3 417.5 126.45 498.4 126.45 501.25 126.45 504.1 126.45 588.75 127.6 659.75 161.8 662.35 163.1 664.95 164.4 665.9 164.8 666.75 165.25
L 707.75 83.35 Z"/>

<path fill="#FF00F2" stroke="none" d="
M 18.7 529.95
Q 17.9 515.55 17.9 500.75 17.9 499.8 17.9 499
L 2.95 499
Q 2.95 499.8 2.95 500.75 2.95 515.95 3.7 530.8 9.7 640.65 58.6 731.75 92.95 796.35 148.65 852.4 162.5 865.9 176.25 878.35 222.1 918.35 273.4 944.7 275.8 946.1 278.3 947.35
L 285.05 933.85
Q 282.6 932.7 280.2 931.3 230.45 905.75 186 866.95 172.65 854.9 159.2 841.8 105.25 787.5 71.9 724.8 24.5 636.45 18.7 529.95
M 444.7 379.55
Q 442.5 380.5 440.25 381.55 439.5 381.95 438.75 382.3 437.85 382.8 437.1 383.2 436.75 383.35 436.45 383.55 418.7 392.9 403.35 408.2 401.85 409.65 400.4 411.15 381.2 431.4 372.2 455.8 365.35 474.3 364.2 495 364.1 496.4 364.05 497.8 364.05 498.75 364.05 499.65 364 501.05 364 502.4 364 502.7 364 503.15 364 507.25 364.2 511.25 365.85 540.9 379.05 565.5 388.3 583 403.35 598.1 407.1 601.75 410.8 605.1 423.2 615.9 437.05 623.05 437.8 623.5 438.6 623.85 439.25 624.1 439.8 624.4 439.95 624.5 440.15 624.6 445.3 627.1 450.6 629.1 472.65 637.45 498.35 637.45 499.45 637.45 500.6 637.45 527.7 637.05 550.9 627.2 554.1 625.85 557.3 624.35 557.5 624.2 557.75 624.1 558.45 623.7 559.25 623.35 560.1 622.85 561 622.35 576.65 614.05 590.35 601.05 591.75 599.6 593.4 598.1 609.95 581.5 619.6 561.9 631 538.7 632.5 511.25 632.65 507.25 632.65 503.15 632.65 502.7 632.65 502.4 632.65 501.05 632.65 499.65 632.6 498.75 632.6 497.8 632.55 496.4 632.5 495 631.45 476.35 625.9 459.65 617.3 434.15 598.15 413.2 595.8 410.65 593.4 408.2 578.25 393.05 560.75 383.85 560.45 383.7 560.2 383.55 559.65 383.25 559.1 382.95 558.05 382.3 556.95 381.75 556.8 381.65 556.7 381.6 531.2 369.3 500.6 368.8 499.45 368.8 498.35 368.8 469.3 368.8 444.7 379.55
M 997.55 500.75
Q 997.55 499.8 997.55 499
L 982.45 499
Q 982.45 499.8 982.45 500.75 982.45 515.55 981.95 529.95 976.65 628.55 935.6 711.8 901.05 782.15 841.6 841.8 835.8 847.1 830.7 852.4 781.45 899 725.25 928.95 722 930.75 718.9 932.35 716.2 933.7 713.65 935.15 713.5 935.2 713.4 935.3
L 720.15 948.75
Q 720.25 948.7 720.35 948.65 722.95 947.15 725.8 945.8 729 944.15 732.35 942.25 790.25 911.4 841 863.35 846.25 857.9 852.25 852.4 913.55 790.95 949.25 718.4 991.5 632.5 997 530.8 997.55 515.95 997.55 500.75
M 717.3 51.4
Q 716.75 51 716.4 50.85 622 5.3 508.65 3.45 504.4 3.45 500.45 3.45 392.75 3.45 301.75 43.1 293.5 46.7 285.25 50.65 282.4 52.1 279.6 53.45 276.4 55.15 273.6 56.65 273.1 56.9 272.65 57.15
L 279.4 70.65
Q 279.9 70.35 280.4 70.1 283.15 68.65 286.25 67 288.95 65.65 291.7 64.25 299.75 60.4 307.7 56.95 396 18.45 500.4 18.45 504.25 18.45 508.4 18.45 618.3 20.3 709.85 64.4 710.15 64.6 710.75 65 714.35 66.8 717.65 68.7
L 724.4 55.2
Q 721 53.25 717.3 51.4 Z"/>

<path fill="#FF00F2" fill-opacity="0.14901960784313725" stroke="none" d="
M 302.9 503.35
Q 302.9 502.85 302.9 502.35 302.9 501 302.95 499.65 302.95 499.3 302.95 499
L 293.15 499
Q 293.15 499.3 293.15 499.65 293.1 500.95 293.1 502.2 293.1 502.65 293.1 503.35 293.1 509.6 293.45 515.7 295.9 560.95 316.05 598.6 330.2 625.35 353.3 648.4 358.95 654 364.65 659.05 383.8 675.75 405.25 686.9 406.25 687.35 407.1 687.8 407.5 688 407.85 688.2 408.3 688.4 408.8 688.6
L 413.1 679.95
Q 412.65 679.75 412.25 679.45 411.8 679.25 411.45 679.05 410.55 678.6 409.65 678.2 389.25 667.7 371 651.75 365.55 647 360.15 641.6 338.15 619.65 324.65 594.2 305.5 558.25 303.15 515.15 302.9 509.3 302.9 503.35
M 407.3 318.65
Q 406.2 319.2 405.1 319.85
L 409.5 328.55
Q 410.55 328 411.65 327.45 412.25 327.2 412.85 326.9 416.55 324.95 420.4 323.3 456.15 307.8 498.4 307.8 500.05 307.8 501.65 307.8 546.2 308.45 583.35 326.55 583.75 326.7 584.2 326.9
L 588.5 318.2
Q 587.95 317.9 587.45 317.7 548.5 298.7 501.8 298 500.1 298 498.4 298 453.9 298 416.45 314.35 412.45 316.15 408.45 318.1 407.85 318.4 407.3 318.65
M 703.6 502.2
Q 703.6 500.95 703.6 499.65 703.6 499.3 703.6 499
L 694 499
Q 694 499.3 694 499.65 694 501 694 502.35 694 502.85 694 503.35 694 509.3 693.65 515.15 691.55 555.05 674.95 589 660.95 617.45 636.8 641.6 634.5 643.8 632.35 645.85 612 665.25 588.6 677.5
L 593 686.1
Q 617.5 673.25 638.85 652.8 641.15 650.65 643.6 648.4 669 623 683.6 593.2 701.1 557.6 703.3 515.7 703.6 509.6 703.6 503.35 703.6 502.65 703.6 502.2 Z"/>

<path fill="#FF00F2" fill-opacity="0.4" stroke="none" d="
M 204.1 503.05
Q 204.1 502.5 204.1 502.1
L 144.6 502.1
Q 144.6 502.55 144.6 503.05 144.6 513.9 145.15 524.5 149.35 602.3 184 667.4 208.4 713.35 248.15 753.1 257.95 762.65 267.9 771.35 301.45 800.75 339.2 820 339.8 820.3 340.45 820.65
L 367.15 767.35
Q 366.45 767 365.7 766.65 334.4 750.6 306.65 726.25 298.35 718.95 290.3 711.05 257.2 677.95 236.85 639.75 207.95 585.6 204.6 520.85 204.1 512.05 204.1 503.05
M 851.45 524.5
Q 851.95 513.9 851.95 503.05 851.95 502.5 851.95 502.1
L 792.6 502.1
Q 792.6 502.55 792.6 503.05 792.6 512.05 792.05 520.85 788.85 581 763.85 631.85 742.75 674.65 706.35 711.05 703.05 714.35 699.8 717.45 668.55 747 632.9 765.65 631.95 766.1 631.1 766.55
L 657.8 819.95
Q 658.65 819.4 659.6 819 702.8 796.5 740.5 760.75 744.45 757.05 748.35 753.1 792.25 709.25 817.5 657.85 847.65 596.7 851.45 524.5
M 657.7 186.15
Q 656.3 185.35 654.85 184.7 653.4 183.95 651.85 183.3 584.65 150.5 504.25 149.3 501.25 149.25 498.35 149.25 421.8 149.25 357.1 177.55 349.25 180.9 341.6 184.75 341 185 340.45 185.3
L 367.15 238.65
Q 367.75 238.35 368.35 238.05 374.55 235.05 380.85 232.3 434.6 208.75 498.35 208.75 500.7 208.75 503.2 208.75 570.15 209.8 626.1 237 627.2 237.55 628.3 238.1 629.7 238.8 631.05 239.5
L 657.7 186.15 Z"/>

<path fill="#FF00F2" fill-opacity="0.24705882352941178" stroke="none" d="
M 226.8 499
Q 226.8 499.35 226.8 499.65 226.8 507.5 227.2 515.25 230.4 575 257 625 275.8 660.3 306.35 690.85 313.75 698.2 321.45 704.85 347.65 727.8 377.15 742.65
L 397.65 701.75
Q 373 689.35 351.15 670.25 344.8 664.7 338.65 658.55 313.2 633.15 297.55 603.8 275.45 562.2 272.85 512.5 272.45 506.1 272.4 499.65 272.4 499.35 272.4 499
L 226.8 499
M 389.9 248.9
Q 383.45 251.7 377.15 254.9
L 397.7 295.85
Q 402.85 293.3 408.15 290.95 449.5 272.95 498.35 272.95 500.2 272.95 502.15 272.95 553.5 273.65 596.45 294.55 597.95 295.3 599.55 296.1 599.9 296.3 600.3 296.5
L 620.7 255.5
Q 620.3 255.3 619.9 255.05 618.05 254.2 616.25 253.35 564.6 228.1 502.95 227.25 500.6 227.2 498.35 227.2 439.6 227.2 389.9 248.9
M 724.3 499.65
Q 724.3 506.1 723.95 512.5 721.45 558.65 702.15 597.75 686.05 630.6 658 658.55 655.45 661.1 653.1 663.45 628.5 686.6 600.45 701.1 600.4 701.1 600.35 701.15
L 620.75 742.05
Q 620.85 742 621 742 654.8 724.6 684.25 696.7 687.3 693.9 690.3 690.85 724 657.2 743.45 617.75 766.6 570.7 769.5 515.25 769.9 507.5 769.9 499.65 769.9 499.35 769.9 499
L 724.3 499
Q 724.3 499.35 724.3 499.65 Z"/>
</g>
</defs>

<g transform="matrix( 1, 0, 0, 1, 0,0) ">
<use xlink:href="#Layer0_0_FILL"/>
</g>
</svg>
