<?xml version="1.0" encoding="UTF-8" standalone="no"?>
<svg
   version="1.1"
   preserveAspectRatio="none"
   x="0px"
   y="0px"
   width="3704.9629"
   height="1085.1262"
   viewBox="0 0 3704.9629 1085.1262"
   id="svg276"
   sodipodi:docname="Leopard-Shark-Cropped-3840-1920.svg"
   inkscape:version="1.1 (c68e22c387, 2021-05-23)"
   xmlns:inkscape="http://www.inkscape.org/namespaces/inkscape"
   xmlns:sodipodi="http://sodipodi.sourceforge.net/DTD/sodipodi-0.dtd"
   xmlns:xlink="http://www.w3.org/1999/xlink"
   xmlns="http://www.w3.org/2000/svg"
   xmlns:svg="http://www.w3.org/2000/svg">
  <sodipodi:namedview
     id="namedview278"
     pagecolor="#ffffff"
     bordercolor="#666666"
     borderopacity="1.0"
     inkscape:pageshadow="2"
     inkscape:pageopacity="0.0"
     inkscape:pagecheckerboard="0"
     showgrid="false"
     inkscape:zoom="0.3896453"
     inkscape:cx="1661.7678"
     inkscape:cy="591.56366"
     inkscape:window-width="3440"
     inkscape:window-height="1377"
     inkscape:window-x="-8"
     inkscape:window-y="-8"
     inkscape:window-maximized="1"
     inkscape:current-layer="svg276"
     units="mm"
     fit-margin-top="0"
     fit-margin-left="0"
     fit-margin-right="0"
     fit-margin-bottom="0" />
  <defs
     id="defs258">
    <linearGradient
       id="Gradient_1"
       gradientUnits="userSpaceOnUse"
       x1="741.70001"
       y1="898.63751"
       x2="634.90002"
       y2="830.36249"
       spreadMethod="pad">
      <stop
         offset="7.8431372549019605%"
         stop-color="#666633"
         id="stop2" />
      <stop
         offset="40%"
         stop-color="#666666"
         id="stop4" />
    </linearGradient>
    <linearGradient
       id="Gradient_2"
       gradientUnits="userSpaceOnUse"
       x1="885.90002"
       y1="930.29999"
       x2="807.59998"
       y2="883.59998"
       spreadMethod="pad">
      <stop
         offset="7.8431372549019605%"
         stop-color="#666633"
         id="stop7" />
      <stop
         offset="40%"
         stop-color="#666666"
         id="stop9" />
    </linearGradient>
    <linearGradient
       id="Gradient_3"
       gradientUnits="userSpaceOnUse"
       x1="935.27502"
       y1="890.90002"
       x2="925.02502"
       y2="1013.7"
       spreadMethod="pad">
      <stop
         offset="7.8431372549019605%"
         stop-color="#C6BCA9"
         id="stop12" />
      <stop
         offset="99.2156862745098%"
         stop-color="#666666"
         id="stop14" />
    </linearGradient>
    <linearGradient
       id="Gradient_4"
       gradientUnits="userSpaceOnUse"
       x1="938.25"
       y1="1092.4"
       x2="1295.05"
       y2="1092.4"
       spreadMethod="pad">
      <stop
         offset="1.9607843137254901%"
         stop-color="#FFFFFF"
         id="stop17" />
      <stop
         offset="99.2156862745098%"
         stop-color="#666666"
         id="stop19" />
    </linearGradient>
    <linearGradient
       id="Gradient_5"
       gradientUnits="userSpaceOnUse"
       x1="1068.2875"
       y1="1085.2875"
       x2="1025.9125"
       y2="1069.0125"
       spreadMethod="pad">
      <stop
         offset="7.8431372549019605%"
         stop-color="#666633"
         id="stop22" />
      <stop
         offset="7.8431372549019605%"
         stop-color="#666666"
         id="stop24" />
      <stop
         offset="94.50980392156863%"
         stop-color="#66FF00"
         id="stop26" />
    </linearGradient>
    <linearGradient
       id="Gradient_6"
       gradientUnits="userSpaceOnUse"
       x1="1059.1625"
       y1="934.03748"
       x2="925.63751"
       y2="869.36249"
       spreadMethod="pad">
      <stop
         offset="7.8431372549019605%"
         stop-color="#666633"
         id="stop29" />
      <stop
         offset="40%"
         stop-color="#666666"
         id="stop31" />
    </linearGradient>
    <linearGradient
       id="Gradient_7"
       gradientUnits="userSpaceOnUse"
       x1="597.63751"
       y1="839.86249"
       x2="547.66248"
       y2="783.13751"
       spreadMethod="pad">
      <stop
         offset="7.8431372549019605%"
         stop-color="#666633"
         id="stop34" />
      <stop
         offset="40%"
         stop-color="#666666"
         id="stop36" />
    </linearGradient>
    <linearGradient
       id="Gradient_8"
       gradientUnits="userSpaceOnUse"
       x1="456.73749"
       y1="783.15002"
       x2="396.66251"
       y2="688.15002"
       spreadMethod="pad">
      <stop
         offset="7.8431372549019605%"
         stop-color="#666633"
         id="stop39" />
      <stop
         offset="40%"
         stop-color="#666666"
         id="stop41" />
    </linearGradient>
    <linearGradient
       id="Gradient_9"
       gradientUnits="userSpaceOnUse"
       x1="258.25"
       y1="701.875"
       x2="224.85001"
       y2="681.92499"
       spreadMethod="pad">
      <stop
         offset="7.8431372549019605%"
         stop-color="#666633"
         id="stop44" />
      <stop
         offset="40%"
         stop-color="#666666"
         id="stop46" />
    </linearGradient>
    <linearGradient
       id="Gradient_10"
       gradientUnits="userSpaceOnUse"
       x1="314.61249"
       y1="721.54999"
       x2="256.28751"
       y2="724.65002"
       spreadMethod="pad">
      <stop
         offset="7.8431372549019605%"
         stop-color="#666633"
         id="stop49" />
      <stop
         offset="40%"
         stop-color="#666666"
         id="stop51" />
    </linearGradient>
    <linearGradient
       id="Gradient_11"
       gradientUnits="userSpaceOnUse"
       x1="173.66251"
       y1="675.02502"
       x2="93.837502"
       y2="571.47498"
       spreadMethod="pad">
      <stop
         offset="7.8431372549019605%"
         stop-color="#666633"
         id="stop54" />
      <stop
         offset="40%"
         stop-color="#666666"
         id="stop56" />
    </linearGradient>
    <linearGradient
       id="Gradient_12"
       gradientUnits="userSpaceOnUse"
       x1="433.60001"
       y1="749.45001"
       x2="242.3"
       y2="1112.35"
       spreadMethod="pad">
      <stop
         offset="7.8431372549019605%"
         stop-color="#C6BCA9"
         id="stop59" />
      <stop
         offset="99.2156862745098%"
         stop-color="#666666"
         id="stop61" />
    </linearGradient>
    <linearGradient
       id="Gradient_13"
       gradientUnits="userSpaceOnUse"
       x1="1256.95"
       y1="807.92499"
       x2="923.15002"
       y2="653.47498"
       spreadMethod="pad">
      <stop
         offset="7.8431372549019605%"
         stop-color="#666633"
         id="stop64" />
      <stop
         offset="40%"
         stop-color="#666666"
         id="stop66" />
    </linearGradient>
    <linearGradient
       id="Gradient_14"
       gradientUnits="userSpaceOnUse"
       x1="1229.5875"
       y1="1013.1875"
       x2="1232.8125"
       y2="951.61249"
       spreadMethod="pad">
      <stop
         offset="1.9607843137254901%"
         stop-color="#FFFFFF"
         id="stop69" />
      <stop
         offset="99.2156862745098%"
         stop-color="#666666"
         id="stop71" />
    </linearGradient>
    <linearGradient
       id="Gradient_15"
       gradientUnits="userSpaceOnUse"
       x1="1736"
       y1="1132"
       x2="2046.5"
       y2="1132"
       spreadMethod="pad">
      <stop
         offset="1.9607843137254901%"
         stop-color="#FFFFFF"
         id="stop74" />
      <stop
         offset="99.2156862745098%"
         stop-color="#666666"
         id="stop76" />
    </linearGradient>
    <linearGradient
       id="Gradient_16"
       gradientUnits="userSpaceOnUse"
       x1="1962.6375"
       y1="801.59998"
       x2="1789.2625"
       y2="774.90002"
       spreadMethod="pad">
      <stop
         offset="7.8431372549019605%"
         stop-color="#666633"
         id="stop79" />
      <stop
         offset="40%"
         stop-color="#666666"
         id="stop81" />
    </linearGradient>
    <linearGradient
       id="Gradient_17"
       gradientUnits="userSpaceOnUse"
       x1="1692.175"
       y1="824.29999"
       x2="1552.125"
       y2="807.70001"
       spreadMethod="pad">
      <stop
         offset="7.8431372549019605%"
         stop-color="#666633"
         id="stop84" />
      <stop
         offset="40%"
         stop-color="#666666"
         id="stop86" />
    </linearGradient>
    <linearGradient
       id="Gradient_18"
       gradientUnits="userSpaceOnUse"
       x1="1475.8875"
       y1="878.96252"
       x2="1187.3125"
       y2="808.03748"
       spreadMethod="pad">
      <stop
         offset="7.8431372549019605%"
         stop-color="#666633"
         id="stop89" />
      <stop
         offset="40%"
         stop-color="#666666"
         id="stop91" />
    </linearGradient>
    <linearGradient
       id="Gradient_19"
       gradientUnits="userSpaceOnUse"
       x1="2461.5249"
       y1="699.90002"
       x2="2144.675"
       y2="734.70001"
       spreadMethod="pad">
      <stop
         offset="7.8431372549019605%"
         stop-color="#666633"
         id="stop94" />
      <stop
         offset="40%"
         stop-color="#666666"
         id="stop96" />
    </linearGradient>
    <linearGradient
       id="Gradient_20"
       gradientUnits="userSpaceOnUse"
       x1="2245.0249"
       y1="791.01251"
       x2="1909.775"
       y2="810.28748"
       spreadMethod="pad">
      <stop
         offset="7.8431372549019605%"
         stop-color="#666633"
         id="stop99" />
      <stop
         offset="40%"
         stop-color="#666666"
         id="stop101" />
    </linearGradient>
    <linearGradient
       id="Gradient_21"
       gradientUnits="userSpaceOnUse"
       x1="2152.1875"
       y1="681.23749"
       x2="2062.1125"
       y2="674.86249"
       spreadMethod="pad">
      <stop
         offset="7.8431372549019605%"
         stop-color="#666633"
         id="stop104" />
      <stop
         offset="40%"
         stop-color="#666666"
         id="stop106" />
    </linearGradient>
    <linearGradient
       id="Gradient_22"
       gradientUnits="userSpaceOnUse"
       x1="2224.05"
       y1="538.70001"
       x2="1892.05"
       y2="481.29999"
       spreadMethod="pad">
      <stop
         offset="7.8431372549019605%"
         stop-color="#666633"
         id="stop109" />
      <stop
         offset="40%"
         stop-color="#666666"
         id="stop111" />
    </linearGradient>
    <linearGradient
       id="Gradient_23"
       gradientUnits="userSpaceOnUse"
       x1="2835.4624"
       y1="1051.55"
       x2="2816.3374"
       y2="795.54999"
       spreadMethod="pad">
      <stop
         offset="1.9607843137254901%"
         stop-color="#FFFFFF"
         id="stop114" />
      <stop
         offset="99.2156862745098%"
         stop-color="#666666"
         id="stop116" />
    </linearGradient>
    <linearGradient
       id="Gradient_24"
       gradientUnits="userSpaceOnUse"
       x1="3190.3374"
       y1="737.46252"
       x2="3008.5625"
       y2="729.4375"
       spreadMethod="pad">
      <stop
         offset="7.8431372549019605%"
         stop-color="#666633"
         id="stop119" />
      <stop
         offset="40%"
         stop-color="#666666"
         id="stop121" />
    </linearGradient>
    <linearGradient
       id="Gradient_25"
       gradientUnits="userSpaceOnUse"
       x1="2973"
       y1="780.72498"
       x2="2602.7"
       y2="743.17499"
       spreadMethod="pad">
      <stop
         offset="7.8431372549019605%"
         stop-color="#666633"
         id="stop124" />
      <stop
         offset="40%"
         stop-color="#666666"
         id="stop126" />
    </linearGradient>
    <linearGradient
       id="Gradient_26"
       gradientUnits="userSpaceOnUse"
       x1="2687.325"
       y1="815.33752"
       x2="2365.4751"
       y2="754.0625"
       spreadMethod="pad">
      <stop
         offset="7.8431372549019605%"
         stop-color="#666633"
         id="stop129" />
      <stop
         offset="40%"
         stop-color="#666666"
         id="stop131" />
    </linearGradient>
    <linearGradient
       id="Gradient_27"
       gradientUnits="userSpaceOnUse"
       x1="3527.2876"
       y1="782.38751"
       x2="3495.6125"
       y2="785.71252"
       spreadMethod="pad">
      <stop
         offset="7.8431372549019605%"
         stop-color="#666633"
         id="stop134" />
      <stop
         offset="40%"
         stop-color="#666666"
         id="stop136" />
    </linearGradient>
    <linearGradient
       id="Gradient_28"
       gradientUnits="userSpaceOnUse"
       x1="3453.75"
       y1="764.01251"
       x2="3373.6499"
       y2="759.08752"
       spreadMethod="pad">
      <stop
         offset="7.8431372549019605%"
         stop-color="#666633"
         id="stop139" />
      <stop
         offset="40%"
         stop-color="#666666"
         id="stop141" />
    </linearGradient>
    <linearGradient
       id="Gradient_29"
       gradientUnits="userSpaceOnUse"
       x1="2350.55"
       y1="577.97498"
       x2="2381.75"
       y2="1048.025"
       spreadMethod="pad">
      <stop
         offset="49.411764705882355%"
         stop-color="#C6BCA9"
         id="stop144" />
      <stop
         offset="99.2156862745098%"
         stop-color="#666666"
         id="stop146" />
    </linearGradient>
    <linearGradient
       id="Gradient_30"
       gradientUnits="userSpaceOnUse"
       x1="2144.45"
       y1="947.66248"
       x2="1914.35"
       y2="934.53748"
       spreadMethod="pad">
      <stop
         offset="7.8431372549019605%"
         stop-color="#666633"
         id="stop149" />
      <stop
         offset="40%"
         stop-color="#666666"
         id="stop151" />
    </linearGradient>
    <linearGradient
       id="Gradient_31"
       gradientUnits="userSpaceOnUse"
       x1="1321.8375"
       y1="938.48749"
       x2="1231.7625"
       y2="933.71252"
       spreadMethod="pad">
      <stop
         offset="7.8431372549019605%"
         stop-color="#666633"
         id="stop154" />
      <stop
         offset="40%"
         stop-color="#666666"
         id="stop156" />
    </linearGradient>
    <linearGradient
       id="Gradient_32"
       gradientUnits="userSpaceOnUse"
       x1="1621.95"
       y1="949"
       x2="1503.45"
       y2="909.20001"
       spreadMethod="pad">
      <stop
         offset="7.8431372549019605%"
         stop-color="#666633"
         id="stop159" />
      <stop
         offset="40%"
         stop-color="#666666"
         id="stop161" />
    </linearGradient>
    <linearGradient
       id="Gradient_33"
       gradientUnits="userSpaceOnUse"
       x1="1869.825"
       y1="945.375"
       x2="1721.375"
       y2="923.82501"
       spreadMethod="pad">
      <stop
         offset="7.8431372549019605%"
         stop-color="#666633"
         id="stop164" />
      <stop
         offset="40%"
         stop-color="#666666"
         id="stop166" />
    </linearGradient>
    <linearGradient
       id="Gradient_34"
       gradientUnits="userSpaceOnUse"
       x1="3327.9375"
       y1="742.26251"
       x2="3224.5625"
       y2="747.23749"
       spreadMethod="pad">
      <stop
         offset="7.8431372549019605%"
         stop-color="#666633"
         id="stop169" />
      <stop
         offset="40%"
         stop-color="#666666"
         id="stop171" />
    </linearGradient>
    <linearGradient
       id="Gradient_35"
       gradientUnits="userSpaceOnUse"
       x1="2631.75"
       y1="1209.95"
       x2="3088.6499"
       y2="1209.95"
       spreadMethod="pad">
      <stop
         offset="1.9607843137254901%"
         stop-color="#FFFFFF"
         id="stop174" />
      <stop
         offset="99.2156862745098%"
         stop-color="#666666"
         id="stop176" />
    </linearGradient>
    <image
       id="Bitmap_2"
       x="0"
       y="0"
       width="735"
       height="490"
       xlink:href="images/Bitmap_2.png" />
    <g
       id="Layer2_0_FILL">
      <path
         fill="url(#Gradient_1)"
         stroke="none"
         d="m 683.85,911.15 q 6.04414,8.93984 14.65,8 64.46113,-10.03086 88.6,-43.25 -36.54082,-20.99727 -76.3,-39.85 -52.02754,34.96016 -26.95,75.1 z"
         id="path180" />
      <path
         fill="#000000"
         stroke="none"
         d="m 797.9,882.2 q -5.33262,-3.14473 -10.8,-6.3 -24.13887,33.21914 -88.6,43.25 -8.60586,0.93984 -14.65,-8 -25.07754,-40.13984 26.95,-75.1 -5.13711,-2.40645 -10.35,-4.8 -46.03477,23.16641 -33.9,85.25 6.04355,20.42285 29.95,15.3 54.59531,-12.34805 101.4,-49.6 m 106.55,-8.25 q -6.41113,1.31641 -12.75,2.7 28.90625,87.3873 -26.55,88.5 -55.79121,1.31445 -34.25,-72.75 -7.0627,0.55957 -14.55,-1.5 -6.45039,50.80879 7.1,73.85 12.14043,20.70352 40.4,19.05 18.48789,-0.98262 18.2,-1.7 40.31289,-31.77676 22.4,-108.15 m 182.55,182.7 q -9.2395,0.7898 -19.15,10.6 -9.866,9.8064 -21.35,23.1 -11.4859,13.3037 5.55,22.15 17.0918,8.8498 29.55,8.45 12.4658,-0.4059 1.6,-17.6 -10.865,-17.1936 10.7,-22.75 21.5549,-5.5521 11.95,-15.15 -9.6029,-9.5963 -18.85,-8.8 m -21,17.15 q 6.1947,-6.1504 19.7,-8.35 13.5658,-2.1494 14.05,5.05 0.5342,7.2492 -15.2,11.2 -15.7447,4.0002 -8.9,14.8 6.8063,10.7998 -2.2,15.6 -8.9687,4.8006 -19.15,-3 -10.1687,-7.8006 -2.35,-18.5 7.8563,-10.6498 14.05,-16.8 m -87.9,-123 q 21.4,-17.85 4.55,-38.35 -22.82598,-16.43594 -4.45,-49.2 -4.84258,0.44902 -9.65,0.95 -12.43184,24.65488 0,44.3 13.2834,16.17344 7.25,30 -16.22715,23.20742 -16.25,52.85 -5.90684,7.25879 65.6,5.15 22.0244,-2.23594 33.7,-10.4 l -17.9,-0.6 q -102.47188,16.4266 -62.85,-34.7 m 68.65,-126.15 q -6.0623,2.71797 -11.75,5.4 -34.9266,43.49004 -12.8,64.15 22.1283,20.65898 29,34.65 25.9127,46.9666 -10.25,56.65 l 17.9,0.6 q 18.8131,-13.14199 10.95,-41.6 -12.4557,-31.82031 -45.35,-56 -19.5752,-14.28984 22.3,-63.85 m 176.15,45.95 -1.9,-8.45 q -3.8676,10.96367 1.9,8.45 m 4.05,18.05 -1.85,-8.35 q -2.8855,1.90176 -4.6,7.55 -3.6541,6.97578 6.45,0.8 m -1.85,-8.35 1.85,8.35 q 0.6361,-0.37754 1.3,-0.8 6.0959,-5.2877 1.25,-8.35 -2.4674,-0.44355 -4.4,0.8 m -651,-99.25 q -9.47871,-3.22285 -19.1,-6.35 -62.49961,81.82598 -1.1,103.15 62.66738,8.82578 102.45,-65.9 -9.05039,-3.75137 -18.25,-7.4 -14.78613,68.99062 -82.9,61.3 -42.925,-12.93906 18.9,-84.8 m -153.4,-45 q -8.57988,-2.41914 -16.95,-4.85 -37.79336,57.91641 0,72 21.31797,5.93359 16.2,14.65 -6.29941,36.95938 97.85,-54.7 -7.71191,-2.29199 -15.55,-4.55 -65.50781,74.62363 -81.55,43.9 -50.74414,-17.97988 0,-66.45 m -123.05,-38.2 q -6.0791,-2.09551 -12,-4.2 -20.94238,10.14355 0,64.9 11.19863,17.2002 34.7,0.55 26.43164,-18.73984 40.9,-40.6 -9.55605,-2.95527 -18.8,-5.9 -10.8084,35.94277 -42.45,33.95 -23.31758,-1.11602 -2.35,-48.7 M 267.9,687.3 q -4.46348,-1.62227 -8.85,-3.25 12.81738,42.19766 -13.05,28.5 -21.04551,-8.46484 -5.05,-35.45 -9.15156,-3.59453 -17.75,-7.15 -14.48535,43.85469 22.8,61.9 32.85957,12.14707 21.9,-44.55 M 112.95,605.65 v 7.55 q -9.48633,43.20625 29.75,97.35 28.5502,29.225 73.3,-43.65 -6.86602,-2.9 -13.35,-5.8 -29.24434,53.85898 -54.65,30.1 -33.37227,-30.97461 -25.7,-79.25 -4.65703,-3.15703 -9.35,-6.3 M 1121.5,722.3 q -0.06,3.26113 -0.1,6.6 54.8063,34.61582 15.2,67.7 -14.8393,13.56875 0,38.9 11.6598,23.04844 2.25,28 -17.973,24.23984 16.7,86.8 26.1469,31.08437 68.85,-15.7 9.2244,-7.92871 9,-17.4 -0.1617,-0.98418 -0.4,-1.8 -3.3246,-11.01348 -21.4,18.25 -27.3383,34.13262 -48.9,4.9 -37.6652,-46.39766 -20.2,-69 16.5479,-16.83633 7,-28 -17.8799,-18.07363 -0.15,-42.85 17.7238,-24.77363 12.9,-45.95 -12.1047,-15.225 -40.75,-30.45 m 59.55,-130.1 q -2.1863,-0.72559 -4.25,-1.25 -49.4965,91.00332 -10.45,129 58.45,10.35 54.75,56 -8.2,26.4 7.05,41.2 16.45,23.7 -7.15,45 l 1.9,8.45 q 3.6459,-1.55176 11.1,-8.45 17.7721,-28.45293 1.3,-52.15 -15.2369,-14.78945 -7.05,-41.2 3.6977,-45.65859 -55.4,-57.25 -38.3752,-36.77305 15.45,-116.8 -3.6469,-1.34746 -7.25,-2.55 m 763.1,518.1 q 34.2221,-23.8949 21.45,1.75 -17.8664,35.8133 -11.25,27.55 48.4613,-68.4488 -10.2,-44.2 -19.6016,21.9039 0,14.9 m 25.95,-53.75 q 28.7047,-0.2178 9.35,28.75 33.5965,-38.9928 -9.35,-28.75 m -50.05,98.6 q 29.3936,0.1242 0,10.6 -21.366,12.5906 -8.9,18.15 61.3648,-45.5418 -9.35,-28.75 -0.7414,6.4451 18.25,0 m -62.95,-438.3 q -7.2705,1.14961 -14.55,2.3 60.19,26.31328 50.25,84.35 -8.2924,43.66953 -35.8,61.85 -50.06,33.75 53.7,22 86.8412,-14.52148 74.1,-54.55 -11.2025,-30.17676 -63.5,-66.75 -19.0133,-21.98555 25.25,-35.85 27.7625,-5.93516 -20.2,-24.15 -9.5141,1.46719 -19,2.95 53.3707,14.55 15.6,17.95 -25.1,7.85 -11.05,37.95 53.1,49.2 59.45,66.3 10.1891,31.64238 -44.65,37.45 -77.65,11.25 -49.25,-7.9 15.6,-10.35 20.15,-66 4.75,-57.55 -40.5,-77.9 m -212.65,34.85 q -4.9033,0.83848 -9.8,1.65 -69.4803,102.47363 49.45,175.05 34.6625,15.04238 40.65,-19.05 -2.3672,-30.91016 -38.15,-36.8 -48.0885,-12.26289 26.15,-62.15 30.457,-18.22676 46.2,-77.8 -3.2699,0.54082 -6.55,1.05 -6.2176,53.12813 -71.4,94.55 -48.65,32.65 6.6,48.35 33.1488,9.30215 30.5,32.5 -10.3684,26.0248 -41.4,3.5 -96.3738,-60.61973 -32.25,-160.85 m -257.55,-7 q -5.1482,-5.44277 -10.25,-10.7 34,56.19922 23.25,97.85 -10.75,41.70215 -33.95,60.15 -43.3945,42.76094 42.1,89.25 60.35,16.1 69.6,-37.7 4.05,-23.45 -34.55,-69.8 -35.4457,-53.84336 38.5,-96.75 -4.9322,0.24219 -9.5,0.3 -82.8963,47.00762 -27.25,111.25 37.3771,33.56152 21.45,67.15 -14.3334,41.52422 -69.4,12.25 -55.0242,-29.22305 -17.5,-81.3 20.3707,-24.39023 25.95,-58.75 5.6293,-34.30977 -18.45,-83.2 M 2465.95,526.3 q -6.634,-6.83203 -13.3,-14.05 -2.5328,69.71016 -60.7,85.05 -124.15,18.5 -9.4,145.8 66.2859,52.97148 34.9,62 -40.8998,1.32148 -51.3,19.55 -23.5959,70.48262 39.9,63.9 63.5457,-6.58262 87.2,-17.3 108.05,-73.4 -20.9,-173.25 -69.0281,-41.6207 2.45,-40.05 77.1318,-2.09004 60.6,-70 -7.1545,-5.33008 -14.4,-11.15 19.2459,72.82578 -27.55,65.45 -103.6893,10.14219 -69.2,32.05 113.543,91.78965 100,138.5 -1.8039,46.21484 -92.3,62.8 -73.6285,13.61719 -61.55,-28.2 15.8076,-20.98164 61.55,-32.05 21.7484,-20.48594 -46.15,-94.9 -87.2174,-93.82109 0,-110.25 65.6105,-0.11523 80.15,-83.9 m -347.35,183.25 -6.1,1.65 q 32.8072,40.83652 27.55,79.6 -2.7436,20.18125 -15.8,39.8 -11.1107,23.23379 60.05,10.45 22.3016,1.72285 12.55,18.3 -6.1248,10.4332 -24.95,26.75 -26.601,35.12715 30.7,20.9 1.4988,-0.58496 2.95,-1.2 0.6338,-0.22383 1.25,-0.5 l 1.25,-0.5 q 3.4848,-1.36875 6.75,-2.75 9.8342,-4.33398 17.75,-8.6 -60.8,10.35 -35.1,-16.6 48.75,-42.25 11.5,-45.65 -71.15,12.8 -75.05,2.95 13.9842,-21.00371 15.65,-43.35 2.9107,-38.60859 -30.95,-81.25 m -7.45,-32.2 q -17.3854,-16.81406 27.55,-24.55 18.4611,-1.08906 0,7.85 -18.8,20.75 37.8,33.45 l 7,-1.85 q -54.4301,-14.23906 -37.25,-31.45 14.7232,-12.22402 0,-11.4 -59.5105,7.30859 -45.55,22.8 25.4004,25.1793 21.7,36.35 l 4.25,-1.1 q 1.8924,-13.27793 -15.5,-30.1 m 85.3,11.45 -8.9,2.35 q 39.9043,4.51738 21.55,21.25 -75.6104,34.43008 -39.8,58.8 22.7139,9.6498 40.05,19.6 10.6992,6.11836 19.35,12.35 33.2574,23.98027 36.6,49.65 5.0584,20.32168 -32.75,40.65 -7.9158,4.26602 -17.75,8.6 74.7627,-30.10488 70,-49.25 -3.35,-25.65 -36.6,-49.65 -8.65,-6.25 -19.3,-12.35 -17.4,-9.95 -40.1,-19.6 -35.8,-24.35 39.8,-58.8 18.3455,-16.7459 -32.15,-23.6 m -43.6,-120.15 q -1.043,4.76875 -2.4,9.35 35.7055,-100.31387 75.05,-103.2 123.2141,13.65273 96.65,-9.1 -25.4531,-16.50664 -1.3,-17.15 18.35,2.3 32.55,23.2 24.7924,36.59414 -93.75,40 -56.2479,3.30488 -36.6,45.15 19.6934,41.83477 -15.15,60.8 -64.5383,39.13027 -68.55,-12 -4.7914,9.05566 -10.9,17.25 25.1111,41.88594 94.5,-5.05 27.133,-23.22578 7.4,-60.45 -19.7432,-37.23398 64.4,-42.1 89.3422,-8.22949 64.25,-48.6 -16.2838,-26.19414 -43.75,-29.6 -27.3701,7.88516 0,29.5 24.3918,17.09355 -88.45,0 -47.3477,3.43027 -73.95,102 M 3182.5,675.7 q -3.9082,-0.56953 -7.85,-1.15 40.9299,92.9041 34.1,108.5 -21.6309,49.36484 -83.55,-16.8 -31.748,-7.75508 -15.6,-36.95 10.4521,-10.47422 9.35,-61.9 -2.916,-0.31777 -5.85,-0.65 0.15,50.13926 -11.5,58.8 -16.1518,31.03887 22.4,45.65 66.5598,82.0875 88,10.8 8.8621,-24.79648 -29.5,-106.3 m -348.35,-27.05 q -4.0898,-0.10449 -8.2,-0.2 -51.6271,47.18223 -38.25,87.2 18.1818,49.00391 120.7,91.8 25.8582,17.42617 -29.9,38.15 -51.4172,21.66602 80.5,46.45 40.4906,2.39941 35.05,-16.5 -10.8143,-21.7582 -46.4,-24.75 -24.9014,-3.67324 31.95,-43.75 25.0586,1.03594 30.95,14.85 17.7496,34.73574 29.95,-27.85 15.1912,-34.52324 -43.25,-45.35 -74.7631,-13.61289 14.35,-30 44.9955,-14.09902 0,-50.55 l -35.55,-33.35 q -5.565,-0.33027 -11.2,-0.7 l 47.95,45.4 q 17.1471,22.96094 -2.35,33.5 l -36.95,13.75 q -36.0648,13.3291 1.15,23.4 50.3607,4.00605 57.95,21.95 7.5775,17.95469 -2.95,39.1 -9.825,20.09199 -19.65,0 -8.6555,-14.22793 -37.95,-10.15 -13.4783,2.97109 -45,41.3 -14.0066,15.96562 7.25,17.4 35.1102,-0.71074 45.6,13.75 15.7883,18.31172 -39.3,9.15 -73.3,-13.75 -44.75,-25.8 45.2535,-27.85898 23.7,-50.55 -72.85,-31.25 -104.6,-67.3 -37.8443,-38.15605 19.2,-110.35 m -95.05,-1.4 q -19.0613,-0.0633 -38.5,0 -65.4,13.95 -53.7,22.35 115.6496,44.09941 53.95,53.45 -61.6467,9.41211 -9.1,45.1 32.2,28.15 17.05,58.45 -8.7,41.05 43.75,50.5 83.327,21.10117 -33.85,15.3 -19.2,-2.55 -24.7,-33.75 -26.8,-41.05 -52.9,33.65 -70.368,178.6951 -20.15,-54.05 6.65,-31.2 19.35,-47.6 29.1965,-49.675 -10.65,-84.8 -39.7986,-35.0834 8.75,-65.5 -3.2943,-0.88613 -6.6,-1.9 -42.1668,21.4748 -24.05,54.95 48.149,57.91738 24.45,84.9 -20.2242,26.16172 -30.85,75.95 -30.4057,215.2779 32.15,86.2 41.5773,-119.1291 54.05,-74.65 0.2754,29.3334 30.85,33.45 138.0381,6.29219 54.05,-24.45 -68.7711,-11.61367 -56.6,-50.15 20.3281,-37.325 -36.05,-74.65 -13.1734,-14.15 55.35,-28.3 22.6016,-16.4627 -57.9,-47.6 -18.5816,-13.4125 61.85,-26.85 m 783.8,122.95 q -3.4178,-1.50898 -6.9,-3.05 -3.7541,13.75957 -14.2,22.2 -21.5805,13.62266 14.85,15.45 10.2877,-0.54707 30.55,-23.4 -4.6033,-2.18828 -9.25,-4.35 -5.3248,16.89473 -18.1,17.65 -26.9898,7.28887 -6.9,-8.5 8.2893,-6.37676 9.95,-16 m -66.05,-27.75 q -5.9025,-2.25078 -11.95,-4.5 31.2273,37.38066 13.15,46.8 -48.0629,25.16289 -43.4,0.45 4.7248,-24.72539 -5.6,-59.25 1.5936,0.19219 -7.25,-2.6 9.7004,46.63086 6.35,64.45 -9.8432,33.62363 55.35,0 18.9121,-12.2248 -6.65,-45.35 M 2126.6,980.55 q -2.3223,3.26367 11.55,-0.85 28.9678,-14.22715 21.7,-55.45 -12.9441,-30.82871 -39.8,-31.2 -46.6684,10.65977 -78.05,43.1 -10.6795,27.22051 16.8,46.25 -30.5814,-44.03887 20.05,-63.9 42.6857,-23.87402 64.6,0 22.3926,43.38516 -16.85,62.05 m -824.7,-23.9 q -4.8281,13.53145 8.85,12.15 29.75,-12.35 28,-41.6 -12.15,-32.75 -60.45,-4.55 -5.95,22.95 15.5,24.65 7.6713,-0.80098 8.1,9.35 m 7.75,1.55 q 0.8492,-25.08359 -13.4,-18.6 -12.8809,2.77344 -8.8,-12.95 33.0613,-19.28828 41.35,3.1 1.1885,19.99434 -19.15,28.45 m 326.5,2.3 q 9.5951,-9.87324 5.35,-21.55 -45.5652,-75.09277 -82.05,0 -5.6723,18.73477 20.05,35.85 25.773,17.11699 56.65,-14.3 m -6.2,-20.9 q 3.05,8.35 -3.85,15.4 -22.15,22.5 -40.55,10.25 -18.45,-12.25 -14.4,-25.65 26.15,-53.85 58.8,0 m 192.2,-35.4 q -45.1752,-2.56602 -23.25,62.1 10.4277,17.37715 76.35,-16.9 39.9311,-19.47891 -11.6,-33.3 -26.9352,-9.87207 -41.5,-11.9 m 2.7,6.25 q 11.9,1.7 33.9,9.75 42.05,11.25 9.45,27.15 -53.8,28 -62.3,13.8 -17.95,-52.75 18.95,-50.7 m 1661.35,-59.9 q 8.7443,-19.32734 -2.4,-28.65 -16.8451,1.94395 -26.7,1.85 -14.6488,7.85586 -4.1,26.65 7.6992,1.65 16.9,1.65 8.8516,0 16.3,-1.5 m -22.45,-16.75 q -2.5197,-6.70469 3.7,-5.6 9.1156,12.10703 16.25,17.55 -3.4498,4.86484 -6.9,2.7 l -13.05,-14.65 m -183.6,-141.2 q -4.8164,-0.98945 -9.7,-1.95 14.0004,31.89883 10.05,70.55 0.7258,12.5 8.5,25 22.7191,29.67148 43.1,6.9 20.0037,-27.39688 5.85,-59.05 -8.1621,-14.67441 -8.85,-30.65 -4.2963,-1.0084 -8.65,-2.05 1.7256,16.61367 8.95,31.1 17.3598,30.31992 0,53.2 -21.7596,21.36289 -36.15,-6.4 -3.582,-6.49063 -5.85,-18.05 2.3104,-35.82012 -7.25,-68.6 z"
         id="path182" />
      <path
         fill="url(#Gradient_2)"
         stroke="none"
         d="m 836.45,891.6 q -2.74277,0.61875 -5.55,0.8 -21.54121,74.06445 34.25,72.75 55.45625,-1.1127 26.55,-88.5 -28.30605,6.31074 -55.25,14.95 z"
         id="path184" />
      <path
         fill="url(#Gradient_3)"
         stroke="none"
         d="m 968.55,864.2 q -32.86309,3.48379 -64.1,9.75 17.91289,76.37324 -22.4,108.15 37.66445,10.2332 77.5,9.25 0.0229,-29.64258 16.25,-52.85 6.0334,-13.82656 -7.25,-30 -12.43184,-19.64512 0,-44.3 z"
         id="path186" />
      <path
         fill="url(#Gradient_4)"
         stroke="none"
         d="m 1122.95,1020.65 -51.1,-12.85 q -62.6518,-3.4008 -115.15,4.85 -22.89902,3.6408 -17.35,9 62.9666,11.8793 81.7,29 16.7244,61.0215 18.65,113.2 3.3672,17.3846 18.2,13.4 26.2064,-5.1584 76.65,-37.7 116.3117,-89.4129 160.5,-104.85 l -172.1,-14.05 m -55.1,46.6 q 9.9105,-9.8102 19.15,-10.6 9.2471,-0.7963 18.85,8.8 9.6049,9.5979 -11.95,15.15 -21.565,5.5564 -10.7,22.75 10.8658,17.1941 -1.6,17.6 -12.4582,0.3998 -29.55,-8.45 -17.0359,-8.8463 -5.55,-22.15 11.484,-13.2936 21.35,-23.1 z"
         id="path188" />
      <path
         fill="url(#Gradient_5)"
         stroke="none"
         d="m 1085.7,1065.45 q -13.5053,2.1996 -19.7,8.35 -6.1937,6.1502 -14.05,16.8 -7.8187,10.6994 2.35,18.5 10.1813,7.8006 19.15,3 9.0063,-4.8002 2.2,-15.6 -6.8447,-10.7998 8.9,-14.8 15.7342,-3.9508 15.2,-11.2 -0.4842,-7.1994 -14.05,-5.05 z"
         id="path190" />
      <path
         fill="url(#Gradient_6)"
         stroke="none"
         d="m 1035,830.05 q -36.76211,17.34121 -56.8,33.2 -18.37598,32.76406 4.45,49.2 16.85,20.5 -4.55,38.35 -39.62188,51.1266 62.85,34.7 36.1627,-9.6834 10.25,-56.65 -6.8717,-13.99102 -29,-34.65 -22.1266,-20.65996 12.8,-64.15 z"
         id="path192" />
      <path
         fill="url(#Gradient_7)"
         stroke="none"
         d="m 555.2,865.85 q 68.11387,7.69062 82.9,-61.3 -31.15078,-12.33613 -64,-23.5 -61.825,71.86094 -18.9,84.8 z"
         id="path194" />
      <path
         fill="url(#Gradient_8)"
         stroke="none"
         d="m 473.6,750.7 q -27.44219,-7.38086 -52.9,-14.65 -50.74414,48.47012 0,66.45 16.04219,30.72363 81.55,-43.9 -14.17344,-4.03945 -28.65,-7.9 z"
         id="path196" />
      <path
         fill="url(#Gradient_9)"
         stroke="none"
         d="m 259.05,684.05 q -9.30137,-3.4916 -18.1,-6.95 -15.99551,26.98516 5.05,35.45 25.86738,13.69766 13.05,-28.5 z"
         id="path198" />
      <path
         fill="url(#Gradient_10)"
         stroke="none"
         d="m 297.65,697.85 q -20.96758,47.58398 2.35,48.7 31.6416,1.99277 42.45,-33.95 -23.49375,-7.43281 -44.8,-14.75 z"
         id="path200" />
      <path
         fill="url(#Gradient_11)"
         stroke="none"
         d="m 122.3,611.95 q -7.67227,48.27539 25.7,79.25 25.40566,23.75898 54.65,-30.1 -17.49043,-7.79023 -32.15,-15.4 -24.09238,-17.50215 -48.2,-33.75 z"
         id="path202" />
      <path
         fill="url(#Gradient_12)"
         stroke="none"
         d="m 44.1,562.5 q -19.045508,-9.6748 -14,7.85 10.436328,24.18145 11.1,79.05 8.631445,3.36621 0,8.25 18.726172,81.43516 23.05,169.65 0.200586,7.7248 5.35,5.75 29.678906,-18.97676 86.5,-24.3 31.71406,3.88535 12.35,15.25 -12.06914,4.56074 -10.75,10.75 136.26875,123.90625 259.05,174.2 15.97637,6.7834 28.8,20.15 22.49277,40.2295 -10.25,149.9 -1.66191,6.0385 2.85,7.4 74.59082,6.9813 244.3,-94.55 19.07695,-68.7576 141,-127.1 -13.55039,-23.04121 -7.1,-73.85 -5.55527,-1.50293 -11.35,-4.45 -3.51582,-2.11934 -7.1,-4.25 -46.80469,37.25195 -101.4,49.6 -23.90645,5.12285 -29.95,-15.3 -12.13477,-62.08359 33.9,-85.25 -21.57793,-9.96699 -44.1,-19.3 -39.78262,74.72578 -102.45,65.9 -61.39961,-21.32402 1.1,-103.15 -18.33652,-5.9541 -37.2,-11.55 -104.14941,91.65938 -97.85,54.7 5.11797,-8.71641 -16.2,-14.65 -37.79336,-14.08359 0,-72 -22.01875,-6.40938 -42.5,-12.7 -14.46836,21.86016 -40.9,40.6 -23.50137,16.6502 -34.7,-0.55 -20.94238,-54.75645 0,-64.9 -9.08398,-3.17207 -17.75,-6.35 10.95957,56.69707 -21.9,44.55 -37.28535,-18.04531 -22.8,-61.9 -3.63418,-1.5166 -7.2,-3.05 -44.7498,72.875 -73.3,43.65 -39.23633,-54.14375 -29.75,-97.35 v -7.55 Q 78.526758,582.81172 44.1,562.5 Z"
         id="path204" />
      <path
         fill="url(#Gradient_13)"
         stroke="none"
         d="m 1221.1,775.95 q 3.7,-45.65 -54.75,-56 -39.0465,-37.99668 10.45,-129 -18.5514,-4.52305 -28,8.4 -25.3418,30.14629 -27.3,122.95 28.6453,15.225 40.75,30.45 4.8238,21.17637 -12.9,45.95 -17.7299,24.77637 0.15,42.85 9.5479,11.16367 -7,28 -17.4652,22.60234 20.2,69 21.5617,29.23262 48.9,-4.9 18.0754,-29.26348 21.4,-18.25 l -6.05,-26.75 q -10.1041,6.17578 -6.45,-0.8 1.7145,-5.64824 4.6,-7.55 l -2.2,-9.7 q -5.7676,2.51367 -1.9,-8.45 23.6,-21.3 7.15,-45 -15.25,-14.8 -7.05,-41.2 z"
         id="path206" />
      <path
         fill="url(#Gradient_14)"
         stroke="none"
         d="m 1770.5,1054.15 q -13.6799,-15.5553 -30.45,-31.4 -12.1982,-11.4674 12.3,-13.85 -346.7375,-30.24961 -693.5,-22.8 -11.6756,8.16406 -33.7,10.4 -71.50684,2.10879 -65.6,-5.15 -39.83555,0.9832 -77.5,-9.25 0.28789,0.71738 -18.2,1.7 -28.25957,1.65352 -40.4,-19.05 -121.92305,58.3424 -141,127.1 54.73926,-32.7354 119.35,-76.75 87.8207,-14.3201 137.55,6.55 -5.54902,-5.3592 17.35,-9 52.4982,-8.2508 115.15,-4.85 25.8721,1.4475 53.45,4.85 -27.5779,-3.4025 -53.45,-4.85 l 51.1,12.85 172.1,14.05 q 9.2965,-3.2281 15.4,-3.2 z"
         id="path208" />
      <path
         fill="url(#Gradient_15)"
         stroke="none"
         d="m 1740.05,1022.75 q 16.7701,15.8447 30.45,31.4 99.9678,113.5814 37.3,213 130.283,-0.6988 228.5,-178.15 4.2789,-5.7523 10.15,-10.25 -55.7672,-39.833 -38.8,-46.65 -5.8828,-1.5051 -13.95,-5.2 -36.0359,-15.0217 -72.7,-22.5 -10.0184,-2.0635 -20.1,-3.55 -73.0691,-10.79805 -148.55,8.05 -24.4982,2.3826 -12.3,13.85 m 180,143 q 29.3936,-10.4758 0,-10.6 -18.9914,6.4451 -18.25,0 70.7148,-16.7918 9.35,28.75 -12.466,-5.5594 8.9,-18.15 m 59.4,-80.45 q 19.3547,-28.9678 -9.35,-28.75 42.9465,-10.2428 9.35,28.75 m -13.85,26.75 q 12.7721,-25.6449 -21.45,-1.75 -19.6016,7.0039 0,-14.9 58.6613,-24.2488 10.2,44.2 -6.6164,8.2633 11.25,-27.55 z"
         id="path210" />
      <path
         fill="url(#Gradient_16)"
         stroke="none"
         d="m 1922.95,726.95 q 37.7707,-3.4 -15.6,-17.95 -25.2205,3.90527 -50.25,7.85 45.25,20.35 40.5,77.9 -4.55,55.65 -20.15,66 -28.4,19.15 49.25,7.9 54.8391,-5.80762 44.65,-37.45 -6.35,-17.1 -59.45,-66.3 -14.05,-30.1 11.05,-37.95 z"
         id="path212" />
      <path
         fill="url(#Gradient_17)"
         stroke="none"
         d="m 1752.4,733.65 q -2.3559,0.41543 -4.7,0.8 -52.0572,8.53926 -103.25,17.25 -64.1238,100.23027 32.25,160.85 31.0316,22.5248 41.4,-3.5 2.6488,-23.19785 -30.5,-32.5 -55.25,-15.7 -6.6,-48.35 65.1824,-41.42187 71.4,-94.55 z"
         id="path214" />
      <path
         fill="url(#Gradient_18)"
         stroke="none"
         d="m 1435.85,773.05 q -22.4643,-8.23789 -48.95,-28.35 24.0793,48.89023 18.45,83.2 -5.5793,34.35977 -25.95,58.75 -37.5242,52.07695 17.5,81.3 55.0666,29.27422 69.4,-12.25 15.9271,-33.58848 -21.45,-67.15 -55.6463,-64.24238 27.25,-111.25 -0.4014,-0.003 -0.8,0 -22.6535,0.14941 -35.45,-4.25 z"
         id="path216" />
      <path
         fill="url(#Gradient_19)"
         stroke="none"
         d="m 2521,576.8 q -27.2344,-21.85156 -55.05,-50.5 -14.5395,83.78477 -80.15,83.9 -87.2174,16.42891 0,110.25 67.8984,74.41406 46.15,94.9 -45.7424,11.06836 -61.55,32.05 -12.0785,41.81719 61.55,28.2 90.4961,-16.58516 92.3,-62.8 13.543,-46.71035 -100,-138.5 -34.4893,-21.90781 69.2,-32.05 46.7959,7.37578 27.55,-65.45 z"
         id="path218" />
      <path
         fill="url(#Gradient_20)"
         stroke="none"
         d="m 2126.65,707.45 -4.25,1.1 -3.8,1 q 33.8607,42.64141 30.95,81.25 -1.6658,22.34629 -15.65,43.35 3.9,9.85 75.05,-2.95 37.25,3.4 -11.5,45.65 -25.7,26.95 35.1,16.6 37.8084,-20.32832 32.75,-40.65 -3.3426,-25.66973 -36.6,-49.65 -8.6508,-6.23164 -19.35,-12.35 -17.3361,-9.9502 -40.05,-19.6 -35.8104,-24.36992 39.8,-58.8 18.3543,-16.73262 -21.55,-21.25 l -4.05,1.1 -7,1.85 z"
         id="path220" />
      <path
         fill="url(#Gradient_21)"
         stroke="none"
         d="m 2138.7,652.8 q -44.9354,7.73594 -27.55,24.55 17.3924,16.82207 15.5,30.1 l 49.85,-13.35 q -56.6,-12.7 -37.8,-33.45 18.4611,-8.93906 0,-7.85 z"
         id="path222" />
      <path
         fill="url(#Gradient_22)"
         stroke="none"
         d="m 2150.35,578.4 q -0.063,0.30352 -0.15,0.6 -4.1828,14.15137 -10.85,26.7 4.0117,51.13027 68.55,12 34.8434,-18.96523 15.15,-60.8 -19.6479,-41.84512 36.6,-45.15 118.5424,-3.40586 93.75,-40 -14.2,-20.9 -32.55,-23.2 -24.1531,0.64336 1.3,17.15 26.5641,22.75273 -96.65,9.1 -39.3445,2.88613 -75.05,103.2 -0.026,0.21563 -0.1,0.4 z"
         id="path224" />
      <path
         fill="url(#Gradient_23)"
         stroke="none"
         d="m 3110.2,936.4 -27.5,3.4 q 7.1639,34.83047 15.85,40.75 -8.6861,-5.91953 -15.85,-40.75 l -30.15,3.75 q 9.5771,33.0334 28.05,36.65 -18.4729,-3.6166 -28.05,-36.65 -368.5305,81.2188 -758.75,94.1 -143.6947,6.3535 -372.8,-33.25 36.6641,7.4783 72.7,22.5 8.0672,3.6949 13.95,5.2 5.9074,1.5602 9.65,0.95 -3.7426,0.6102 -9.65,-0.95 -16.9672,6.817 38.8,46.65 29.0555,-22.0855 97.25,-13.35 378.7529,65.1924 901.95,0 432.7707,-48.1412 475.6,-76.9 10.6342,-7.20527 7.25,-15.15 -1.6967,-8.85254 -15.2,-8.85 133.7566,-14.14316 214.05,-81.75 13.6998,-16.89766 -5.8,-22.1 -158.4648,87.28066 -584.1,72.4 8.457,36.2709 25.95,47.5 -17.493,-11.2291 -25.95,-47.5 l -27.25,3.35 q 8.0527,38.23555 23.35,44.15 -15.2973,-5.91445 -23.35,-44.15 z"
         id="path226" />
      <path
         fill="url(#Gradient_24)"
         stroke="none"
         d="m 3109.6,729.3 q -16.148,29.19492 15.6,36.95 61.9191,66.16484 83.55,16.8 6.8299,-15.5959 -34.1,-108.5 -27.1518,-3.82617 -55.7,-7.15 1.1021,51.42578 -9.35,61.9 z"
         id="path228" />
      <path
         fill="url(#Gradient_25)"
         stroke="none"
         d="m 2834.15,648.65 q -57.0443,72.19395 -19.2,110.35 31.75,36.05 104.6,67.3 21.5535,22.69102 -23.7,50.55 -28.55,12.05 44.75,25.8 55.0883,9.16172 39.3,-9.15 -10.4898,-14.46074 -45.6,-13.75 -21.2566,-1.43438 -7.25,-17.4 31.5217,-38.32891 45,-41.3 29.2945,-4.07793 37.95,10.15 9.825,20.09199 19.65,0 10.5275,-21.14531 2.95,-39.1 -7.5893,-17.94395 -57.95,-21.95 -37.2148,-10.0709 -1.15,-23.4 L 3010.45,733 q 19.4971,-10.53906 2.35,-33.5 l -47.95,-45.4 q -62.6906,-3.73809 -130.7,-5.45 z"
         id="path230" />
      <path
         fill="url(#Gradient_26)"
         stroke="none"
         d="m 2629.65,705.85 q 39.8465,35.125 10.65,84.8 -12.7,16.4 -19.35,47.6 -50.218,232.7451 20.15,54.05 26.1,-74.7 52.9,-33.65 5.5,31.2 24.7,33.75 117.177,5.80117 33.85,-15.3 -52.45,-9.45 -43.75,-50.5 15.15,-30.3 -17.05,-58.45 -52.5467,-35.68789 9.1,-45.1 61.6996,-9.35059 -53.95,-53.45 -11.7,-8.4 53.7,-22.35 -30.6924,1.50586 -62.2,-6.9 -48.5486,30.4166 -8.75,65.5 z"
         id="path232" />
      <path
         fill="url(#Gradient_27)"
         stroke="none"
         d="m 3522.9,770.2 q -1.6607,9.62324 -9.95,16 -20.0898,15.78887 6.9,8.5 12.7752,-0.75527 18.1,-17.65 -7.4785,-3.45195 -15.05,-6.85 z"
         id="path234" />
      <path
         fill="url(#Gradient_28)"
         stroke="none"
         d="m 3444.9,737.95 q -12.5379,-4.58437 -35.85,-12 10.3248,34.52461 5.6,59.25 -4.6629,24.71289 43.4,-0.45 18.0773,-9.41934 -13.15,-46.8 z"
         id="path236" />
      <path
         fill="url(#Gradient_29)"
         stroke="none"
         d="m 3289,786.2 q -7.7742,-12.5 -8.5,-25 3.9504,-38.65117 -10.05,-70.55 -41.9502,-8.26348 -87.95,-14.95 38.3621,81.50352 29.5,106.3 -21.4402,71.2875 -88,-10.8 -38.5518,-14.61113 -22.4,-45.65 11.65,-8.66074 11.5,-58.8 -64.9512,-7.33887 -137.05,-11.95 l 35.55,33.35 q 44.9955,36.45098 0,50.55 -89.1131,16.38711 -14.35,30 58.4412,10.82676 43.25,45.35 -12.2004,62.58574 -29.95,27.85 -5.8914,-13.81406 -30.95,-14.85 -56.8514,40.07676 -31.95,43.75 35.5857,2.9918 46.4,24.75 5.4406,18.89941 -35.05,16.5 -131.9172,-24.78398 -80.5,-46.45 55.7582,-20.72383 29.9,-38.15 -102.5182,-42.79609 -120.7,-91.8 -13.3771,-40.01777 38.25,-87.2 -42.401,-0.98262 -86.85,-1.2 -80.4316,13.4375 -61.85,26.85 80.5016,31.1373 57.9,47.6 -68.5234,14.15 -55.35,28.3 56.3781,37.325 36.05,74.65 -12.1711,38.53633 56.6,50.15 83.9881,30.74219 -54.05,24.45 -30.5746,-4.1166 -30.85,-33.45 -12.4727,-44.4791 -54.05,74.65 -62.5557,129.0779 -32.15,-86.2 10.6258,-49.78828 30.85,-75.95 23.699,-26.98262 -24.45,-84.9 -18.1168,-33.4752 24.05,-54.95 -47.275,-14.13535 -96.4,-50.5 16.5318,67.90996 -60.6,70 -71.4781,-1.5707 -2.45,40.05 128.95,99.85 20.9,173.25 -23.6543,10.71738 -87.2,17.3 -63.4959,6.58262 -39.9,-63.9 10.4002,-18.22852 51.3,-19.55 31.3859,-9.02852 -34.9,-62 -114.75,-127.3 9.4,-145.8 58.1672,-15.33984 60.7,-85.05 -67.4479,-70.86855 -195.3,-138.65 -10.11,-7.91309 -22.15,0 l -25.25,28.35 q -36.0428,44.43418 -54.15,149.5 -1.0689,8.85059 -2.95,17.2 26.6023,-98.56973 73.95,-102 112.8418,17.09355 88.45,0 -27.3701,-21.61484 0,-29.5 27.4662,3.40586 43.75,29.6 25.0922,40.37051 -64.25,48.6 -84.1432,4.86602 -64.4,42.1 19.733,37.22422 -7.4,60.45 -69.3889,46.93594 -94.5,5.05 -10.4326,14.18887 -24.7,25.9 l -42,36.85 -42,36.85 q -13.3604,15.04023 0,13.4 l 92.75,-24.75 6.1,-1.65 3.8,-1 q 3.7004,-11.1707 -21.7,-36.35 -13.9605,-15.49141 45.55,-22.8 14.7232,-0.82402 0,11.4 -17.1801,17.21094 37.25,31.45 l 4.05,-1.1 8.9,-2.35 8.85,-2.35 -8.85,2.35 q 50.4955,6.8541 32.15,23.6 -75.6,34.45 -39.8,58.8 22.7,9.65 40.1,19.6 10.65,6.1 19.3,12.35 33.25,24 36.6,49.65 4.7627,19.14512 -70,49.25 -3.2652,1.38125 -6.75,2.75 l -1.25,0.5 q -0.6162,0.27617 -1.25,0.5 -1.4512,0.61504 -2.95,1.2 -57.301,14.22715 -30.7,-20.9 18.8252,-16.3168 24.95,-26.75 9.7516,-16.57715 -12.55,-18.3 -71.1607,12.78379 -60.05,-10.45 13.0564,-19.61875 15.8,-39.8 5.2572,-38.76348 -27.55,-79.6 l -92.75,24.75 q -13.3604,1.64023 0,-13.4 l 42,-36.85 q -68.3732,10.04121 -135.4,20.35 47.9625,18.21484 20.2,24.15 -44.2633,13.86445 -25.25,35.85 52.2975,36.57324 63.5,66.75 12.7412,40.02852 -74.1,54.55 -103.76,11.75 -53.7,-22 27.5076,-18.18047 35.8,-61.85 9.94,-58.03672 -50.25,-84.35 -42.0479,6.66777 -83.6,13.45 -15.743,59.57324 -46.2,77.8 -74.2385,49.88711 -26.15,62.15 35.7828,5.88984 38.15,36.8 -5.9875,34.09238 -40.65,19.05 -118.9303,-72.57637 -49.45,-175.05 -25.8107,4.44453 -51.4,8.9 -62.8525,12.94805 -101.65,14.75 -73.9457,42.90664 -38.5,96.75 38.6,46.35 34.55,69.8 -9.25,53.8 -69.6,37.7 -85.4945,-46.48906 -42.1,-89.25 23.2,-18.44785 33.95,-60.15 10.75,-41.65078 -23.25,-97.85 -5.2246,-5.39766 -10.4,-10.6 -98.7383,-99.29121 -177.95,-128.65 -53.8252,80.02695 -15.45,116.8 59.0977,11.59141 55.4,57.25 -8.1869,26.41055 7.05,41.2 16.4721,23.69707 -1.3,52.15 -7.4541,6.89824 -11.1,8.45 l 2.2,9.7 q 1.9326,-1.24355 4.4,-0.8 4.8459,3.0623 -1.25,8.35 -0.6639,0.42246 -1.3,0.8 l 6.05,26.75 q 0.2383,0.81582 0.4,1.8 0.2244,9.47129 -9,17.4 -42.7031,46.78437 -68.85,15.7 -34.673,-62.56016 -16.7,-86.8 9.4098,-4.95156 -2.25,-28 -14.8393,-25.33125 0,-38.9 39.6063,-33.08418 -15.2,-67.7 -0.3508,29.81504 1.6,65.8 -43.7902,15.4793 -76.25,29.95 -41.8752,49.56016 -22.3,63.85 32.8943,24.17969 45.35,56 7.8631,28.45801 -10.95,41.6 346.7625,-7.44961 693.5,22.8 75.4809,-18.84805 148.55,-8.05 10.0816,1.4865 20.1,3.55 229.1053,39.6035 372.8,33.25 390.2195,-12.8812 758.75,-94.1 -5.8852,-20.30996 -8.4,-51.8 2.5148,31.49004 8.4,51.8 l 30.15,-3.75 q -4.7023,-22.90527 -8.75,-58.4 4.0477,35.49473 8.75,58.4 l 27.5,-3.4 q -4.9244,-23.58535 -7.1,-59.55 2.1756,35.96465 7.1,59.55 l 27.25,-3.35 q -5.4691,-23.70547 -7.1,-58.1 1.6309,34.39453 7.1,58.1 425.6352,14.88066 584.1,-72.4 L 3637,828.7 q -44.1891,-25.7373 -89.8,-47.3 -20.2623,22.85293 -30.55,23.4 -36.4305,-1.82734 -14.85,-15.45 10.4459,-8.44043 14.2,-22.2 -13.124,-5.72832 -26.4,-11.15 -15.793,-6.98379 -32.75,-13.55 25.5621,33.1252 6.65,45.35 -65.1932,33.62363 -55.35,0 3.3504,-17.81914 -6.35,-64.45 -34.3961,-10.70449 -72.7,-19.95 0.6879,15.97559 8.85,30.65 14.1537,31.65312 -5.85,59.05 -20.3809,22.77148 -43.1,-6.9 m 208.8,36.3 q 2.8178,1.23887 4.95,2.6 6.1293,11.57617 -3.7,21.25 -0.6055,0.31953 -1.25,0.6 -5.2971,2.33887 -11.6,3.6 -7.4484,1.5 -16.3,1.5 -9.2008,0 -16.9,-1.65 -5.9777,-1.21992 -11.05,-3.45 -11.55,-5.05 -11.55,-12.2 0,-7.15 11.55,-12.25 1.1502,-0.50078 2.35,-0.95 2.8104,2.13867 12.8,2.2 9.8549,0.0939 26.7,-1.85 4.4533,-0.49863 9.4,-1.15 2.3881,0.78281 4.6,1.75 M 1798.9,966.3 q -21.9252,-64.66602 23.25,-62.1 14.5648,2.02793 41.5,11.9 51.5311,13.82109 11.6,33.3 -65.9223,34.27715 -76.35,16.9 m -157.4,-27.35 q 4.2451,11.67676 -5.35,21.55 -30.877,31.41699 -56.65,14.3 -25.7223,-17.11523 -20.05,-35.85 36.4848,-75.09277 82.05,0 m -330.75,29.85 q -13.6781,1.38145 -8.85,-12.15 -0.4287,-10.15098 -8.1,-9.35 -21.45,-1.7 -15.5,-24.65 48.3,-28.2 60.45,4.55 1.75,29.25 -28,41.6 m 827.4,10.9 q -13.8723,4.11367 -11.55,0.85 l -67.8,1.85 q -27.4795,-19.02949 -16.8,-46.25 31.3816,-32.44023 78.05,-43.1 26.8559,0.37129 39.8,31.2 7.2678,41.22285 -21.7,55.45 z"
         id="path238" />
      <path
         fill="url(#Gradient_30)"
         stroke="none"
         d="m 2126.6,980.55 q 39.2426,-18.66484 16.85,-62.05 -21.9143,-23.87402 -64.6,0 -50.6314,19.86113 -20.05,63.9 z"
         id="path240" />
      <path
         fill="url(#Gradient_31)"
         stroke="none"
         d="m 1296.25,939.6 q 14.2492,-6.48359 13.4,18.6 20.3385,-8.45566 19.15,-28.45 -8.2887,-22.38828 -41.35,-3.1 -4.0809,15.72344 8.8,12.95 z"
         id="path242" />
      <path
         fill="url(#Gradient_32)"
         stroke="none"
         d="m 1626.1,955 q 6.9,-7.05 3.85,-15.4 -32.65,-53.85 -58.8,0 -4.05,13.4 14.4,25.65 18.4,12.25 40.55,-10.25 z"
         id="path244" />
      <path
         fill="url(#Gradient_33)"
         stroke="none"
         d="m 1858.75,920.2 q -22,-8.05 -33.9,-9.75 -36.9,-2.05 -18.95,50.7 8.5,14.2 62.3,-13.8 32.6,-15.9 -9.45,-27.15 z"
         id="path246" />
      <path
         fill="url(#Gradient_34)"
         stroke="none"
         d="m 3287.4,761.2 q 2.268,11.55937 5.85,18.05 14.3904,27.76289 36.15,6.4 17.3598,-22.88008 0,-53.2 -7.2244,-14.48633 -8.95,-31.1 -19.6373,-4.55938 -40.3,-8.75 9.5604,32.77988 7.25,68.6 z"
         id="path248" />
    </g>
    <g
       id="Layer0_0_FILL">
      <path
         fill="url(#Gradient_35)"
         stroke="none"
         d="m 3076.75,1038.75 q 53.2412,-70.72422 -131.35,-72.5 -69.6793,-1.79844 -117.15,31.5 -32.018,21.7895 -137.3,46.6 -51.8764,15.4541 -59.2,39.1 14.1947,7.7262 20,57.75 -4.5484,28.3148 34.65,94.35 34.2932,64.1715 8.9,185.5 -9.6223,42.3855 40.3,29.85 93.0047,-23.1219 137.9,-116.95 27.049,-30.0902 59.7,-86.3 13.3924,-10.3172 28.25,-38.75 79.7668,-157.5797 115.3,-170.15 m -136.05,-36.5 q 6.4928,-3.61094 1.8,14.45 -4.6441,18.1025 7.55,25.05 12.2336,7.0047 -1.3,6.05 -13.5336,-0.9547 -19.8,-7 -6.2055,-5.9984 -6.2,-14 0,-8 2.2,-13.65 2.198,-5.6539 5.7,-6.5 3.5557,-0.7889 10.05,-4.4 m -96.35,12.35 q 2.1,2.1 2.1,5.05 6e-4,2.9547 -6.5,7.85 -6.4523,4.9359 -14.95,8.5 -8.4979,3.5641 -0.7,-4.95 7.8492,-8.4547 7.85,-11.4 0,-2.95 2.1,-5.05 2.1,-2.1 5.05,-2.1 2.95,0 5.05,2.1 m -56.75,136.9 q 5.2047,2.2055 2.85,8.9 -2.3143,6.7334 -18.8,26.15 -16.4359,19.4164 -10.15,-1.4 6.3451,-20.7557 1.15,-22.95 -5.15,-2.2 -5.15,-5.35 0,-3.15 5.15,-5.35 5.2,-2.2 12.5,-2.2 7.3,0 12.45,2.2 m 107.3,-26.5 q 19.5604,8.4455 8.35,7.95 -11.1588,-0.51 -18.1,6.6 -6.8959,7.1141 -10.7,-2.3 -3.751,-9.4055 -5.4,-11.05 -1.65,-1.65 -1.65,-4 0,-2.35 1.65,-4 1.65,-1.65 4,-1.65 2.3465,0 21.85,8.45 z"
         id="path251" />
      <path
         fill="#000000"
         stroke="none"
         d="m 2903.25,1132.95 q 11.2104,0.4955 -8.35,-7.95 -19.5035,-8.4465 -21.85,-8.45 -2.35,0 -4,1.65 -1.65,1.65 -1.65,4 0,2.35 1.65,4 1.649,1.6445 5.4,11.05 3.8041,9.4141 10.7,2.3 6.9412,-7.11 18.1,-6.6 m -112.8,27.45 q 2.3547,-6.6945 -2.85,-8.9 -5.15,-2.2 -12.45,-2.2 -7.3,0 -12.5,2.2 -5.15,2.2 -5.15,5.35 0,3.15 5.15,5.35 5.1951,2.1943 -1.15,22.95 -6.2859,20.8164 10.15,1.4 16.4857,-19.4166 18.8,-26.15 m 56,-140.75 q 0,-2.95 -2.1,-5.05 -2.1,-2.1 -5.05,-2.1 -2.95,0 -5.05,2.1 -2.1,2.1 -2.1,5.05 -8e-4,2.9453 -7.85,11.4 -7.7979,8.5141 0.7,4.95 8.4977,-3.5641 14.95,-8.5 6.5006,-4.8953 6.5,-7.85 m 96.05,-2.95 q 4.6928,-18.06094 -1.8,-14.45 -6.4943,3.6111 -10.05,4.4 -3.502,0.8461 -5.7,6.5 -2.2,5.65 -2.2,13.65 -0.01,8.0016 6.2,14 6.2664,6.0453 19.8,7 13.5336,0.9547 1.3,-6.05 -12.1941,-6.9475 -7.55,-25.05 z"
         id="path253" />
    </g>
    <path
       id="Layer2_0_1_STROKES"
       stroke="#000000"
       stroke-width="1"
       stroke-linejoin="round"
       stroke-linecap="round"
       fill="none"
       d="m 3280.15,692.6 q -4.8164,-0.98945 -9.7,-1.95 14.0004,31.89883 10.05,70.55 0.7258,12.5 8.5,25 22.7191,29.67148 43.1,6.9 20.0037,-27.39688 5.85,-59.05 -8.1621,-14.67441 -8.85,-30.625 -4.2963,-1.0334 -8.65,-2.05 1.7256,16.58867 8.95,31.075 17.3598,30.31992 0,53.2 -21.7596,21.36289 -36.15,-6.4 -3.582,-6.49063 -5.85,-18.05 2.3104,-35.82012 -7.25,-68.6 20.6627,4.19062 40.3,8.775 m 81.35,22 q -34.3961,-10.72949 -72.7,-19.95 m 127.75,39.05 q -5.9025,-2.27578 -11.95,-4.5 31.2273,37.35566 13.15,46.775 -48.0629,25.16289 -43.375,0.45 4.6998,-24.72539 -5.625,-59.25 1.5936,0.19219 -7.25,-2.575 9.7004,46.60586 6.35,64.425 -9.8432,33.62363 55.35,0 18.9121,-12.2248 -6.65,-45.325 16.957,6.54121 32.75,13.525 13.276,5.42168 26.425,11.175 3.4572,1.51602 6.9,3.05 7.5465,3.37305 15.05,6.85 4.6217,2.13672 9.225,4.325 45.6109,21.5627 89.8,47.3 l 84.55,31.95 q 19.4998,5.20234 5.8,22.1 -80.2934,67.60684 -214.05,81.75 13.5033,-0.003 15.2,8.85 3.3842,7.94473 -7.25,15.15 -42.8293,28.7588 -475.6,76.9 -523.1971,65.1924 -901.95,0 -68.1945,-8.7355 -97.225,13.375 -5.8961,4.4727 -10.175,10.225 -98.217,177.4512 -228.5,178.15 62.6678,-99.4186 -37.275,-212.975 L 1310.45,1031.5 q -6.1035,-0.028 -15.4,3.225 -44.1883,15.4121 -160.5,104.825 -50.4436,32.5416 -76.65,37.7 -14.8328,3.9846 -18.2,-13.4 -1.9256,-52.1785 -18.65,-113.2 -18.7334,-17.1207 -81.7,-29 -49.7293,-20.8701 -137.55,-6.55 -64.61074,44.0146 -119.325,76.75 -169.73418,101.5313 -244.325,94.55 -4.51191,-1.3615 -2.85,-7.4 32.74277,-109.6705 10.25,-149.9 -12.82363,-13.3666 -28.8,-20.15 -122.78125,-50.29375 -259.05,-174.2 -1.31914,-6.18926 10.75,-10.75 19.36406,-11.36465 -12.35,-15.25 -56.821094,5.32324 -86.5,24.3 -5.149414,1.9748 -5.35,-5.75 -4.323828,-88.21484 -23.05,-169.65 8.631445,-4.88379 0,-8.25 -0.663672,-54.86855 -11.1,-79.05 -5.045508,-17.5248 14,-7.85 34.426758,20.31172 68.85,43.175 4.69297,3.11797 9.375,6.275 24.08262,16.24785 48.175,33.75 14.65957,7.60977 32.15,15.4 6.48398,2.9 13.35,5.825 3.56582,1.5084 7.225,3.025 8.57344,3.55547 17.725,7.15 8.79863,3.4584 18.125,6.95 4.36152,1.62773 8.85,3.275 8.64102,3.15293 17.725,6.35 5.9209,2.07949 12.025,4.175 21.28125,7.31719 44.8,14.775 9.21895,2.91973 18.775,5.875 20.48125,6.29062 42.525,12.7 8.34512,2.43086 16.925,4.875 25.45781,7.24414 52.9,14.625 14.47656,3.86055 28.675,7.925 7.81309,2.23301 15.55,4.525 18.83848,5.5959 37.175,11.55 9.62129,3.12715 19.1,6.35 32.84922,11.16387 64,23.5 9.19961,3.64863 18.25,7.4 22.52207,9.33301 44.125,19.3 5.18789,2.39355 10.325,4.825 39.75918,18.82773 76.325,39.85 5.44238,3.13027 10.8,6.3 3.55918,2.10566 7.075,4.225 5.79473,2.94707 11.35,4.475 7.4873,2.03457 14.55,1.5 2.80723,-0.20625 5.55,-0.825 26.94395,-8.63926 55.25,-14.925 6.33887,-1.40859 12.75,-2.7 31.23691,-6.29121 64.1,-9.775 4.80742,-0.50098 9.65,-0.95 20.03789,-15.85879 56.8,-33.2 5.6877,-2.68203 11.775,-5.4 32.4348,-14.4707 76.225,-29.95 -1.9508,-35.98496 -1.6,-65.8 0.04,-3.33887 0.1,-6.6 1.9582,-92.80371 27.3,-122.95 9.4486,-12.92305 28,-8.375 2.0637,0.49941 4.25,1.225 3.6031,1.20254 7.25,2.55 79.2117,29.35879 177.95,128.65 5.1754,5.20234 10.4,10.6 5.1018,5.25723 10.25,10.7 26.4857,20.11211 48.95,28.35 12.7965,4.39941 35.45,4.25 0.3986,-0.003 0.8,0 4.5678,-0.0578 9.525,-0.3 38.7725,-1.80195 101.625,-14.75 25.5893,-4.45547 51.4,-8.875 4.8967,-0.83652 9.8,-1.675 51.1928,-8.71074 103.25,-17.25 2.3441,-0.38457 4.7,-0.775 3.2801,-0.53418 6.575,-1.075 41.5271,-6.78223 83.6,-13.45 7.2545,-1.15039 14.525,-2.3 25.0295,-3.94473 50.25,-7.85 9.4859,-1.48281 19,-2.95 67.0268,-10.30879 135.4,-20.35 l 42,-36.85 q 14.2674,-11.71113 24.725,-25.875 6.0836,-8.21934 10.875,-17.275 6.6672,-12.54863 10.85,-26.7 0.087,-0.29648 0.175,-0.6 0.049,-0.18437 0.1,-0.375 1.332,-4.60625 2.4,-9.375 1.8561,-8.34941 2.925,-17.2 18.1072,-105.06582 54.15,-149.5 l 25.25,-28.35 q 12.04,-7.91309 22.15,0 127.8521,67.78145 195.3,138.65 6.666,7.21797 13.3,14.05 27.8156,28.64844 55.075,50.525 7.2205,5.79492 14.4,11.125 -0.5521,-2.28828 -1.175,-4.65 m 910.65,154.675 q -12.5379,-4.60937 -35.85,-12.025 m 113.875,44.275 q -1.6857,9.59824 -9.975,15.975 -20.0898,15.78887 6.9,8.5 12.7752,-0.75527 18.125,-17.625 m -21.95,-9.9 q -3.7791,13.73457 -14.225,22.175 -21.5805,13.62266 14.85,15.45 10.2877,-0.54707 30.55,-23.4 M 2739.1,647.275 q -19.0613,-0.0883 -38.5,-0.025 -65.4,13.95 -53.7,22.35 115.6496,44.09941 53.975,53.475 -61.6717,9.38711 -9.125,45.075 32.2,28.15 17.05,58.45 -8.7,41.05 43.75,50.5 83.327,21.10117 -33.85,15.3 -19.2,-2.55 -24.7,-33.75 -26.8,-41.05 -52.9,33.65 -70.368,178.6951 -20.15,-54.05 6.65,-31.2 19.35,-47.6 29.1965,-49.675 -10.625,-84.775 -39.8236,-35.1084 8.725,-65.525 -3.2943,-0.88613 -6.6,-1.875 -42.1668,21.4498 -24.05,54.925 48.149,57.91738 24.45,84.9 -20.2242,26.16172 -30.85,75.95 -30.4057,215.2779 32.15,86.2 41.5773,-119.1291 54.05,-74.65 0.2754,29.3334 30.85,33.45 138.0381,6.29219 54.05,-24.45 -68.7711,-11.61367 -56.6,-50.15 20.3281,-37.325 -36.05,-74.65 -13.1734,-14.15 55.35,-28.3 22.6016,-16.4627 -57.9,-47.6 -18.5816,-13.4125 61.85,-26.825 44.449,0.19238 86.85,1.175 4.1102,0.0955 8.2,0.2 68.0094,1.71191 130.7,5.475 5.635,0.34473 11.225,0.7 72.0738,4.58613 137.025,11.925 2.934,0.33223 5.85,0.675 28.5482,3.29883 55.7,7.15 3.9418,0.55547 7.85,1.125 45.9998,6.68652 87.95,14.95 m -569.85,-43.4 q -30.6924,1.50586 -62.2,-6.9 m 195.75,8.3 q -57.0443,72.19395 -19.2,110.35 31.75,36.05 104.6,67.3 21.5535,22.69102 -23.7,50.55 -28.55,12.05 44.75,25.8 55.0883,9.16172 39.3,-9.15 -10.4898,-14.46074 -45.6,-13.75 -21.2566,-1.43438 -7.25,-17.4 31.5217,-38.32891 45,-41.3 29.2945,-4.07793 37.95,10.15 9.825,20.09199 19.65,0 10.5275,-21.14531 2.95,-39.1 -7.5893,-17.94395 -57.95,-21.95 -37.2148,-10.0709 -1.15,-23.4 L 3010.45,733 q 19.4971,-10.53906 2.35,-33.5 l -47.95,-45.375 m -138.9,-5.675 q -51.6271,47.18223 -38.25,87.2 18.1818,49.00391 120.7,91.8 25.8582,17.42617 -29.9,38.15 -51.4172,21.66602 80.5,46.45 40.4906,2.39941 35.05,-16.5 -10.8143,-21.7582 -46.4,-24.75 -24.9014,-3.67324 31.95,-43.75 25.0586,1.03594 30.95,14.85 17.7496,34.73574 29.95,-27.85 15.1912,-34.52324 -43.25,-45.35 -74.7631,-13.61289 14.35,-30 44.9955,-14.09902 0,-50.55 l -35.525,-33.325 m 142.875,12.6 q 1.1021,51.40078 -9.35,61.875 -16.148,29.19492 15.6,36.95 61.9191,66.16484 83.55,16.8 6.8299,-15.5959 -34.1,-108.475 m -61.55,-7.825 q 0.15,50.13926 -11.5,58.8 -16.1518,31.03887 22.4,45.65 66.5598,82.0875 88,10.8 8.8621,-24.79648 -29.5,-106.3 m -99.775,264.125 q 7.1389,34.80547 15.825,40.725 m 35,0 q -15.2973,-5.91445 -23.325,-44.125 -4.9494,-23.61035 -7.125,-59.575 m 60.3,103.7 q -17.493,-11.2291 -25.925,-47.5 -5.4941,-23.70547 -7.125,-58.1 m -86.2,16.8 q 2.5148,31.49004 8.4,51.825 m 21.4,-62.175 q 4.0477,35.49473 8.775,58.425 m -30.175,3.75 q 9.5771,33.0084 28.05,36.625 m 403.2,-158.275 q 4.4533,-0.52363 9.4,-1.175 2.3881,0.78281 4.6,1.75 2.8178,1.23887 4.95,2.6 6.1293,11.57617 -3.7,21.275 -0.6055,0.29453 -1.25,0.575 -5.2971,2.33887 -11.6,3.6 -7.4484,1.5 -16.3,1.5 -9.2008,0 -16.9,-1.625 -5.9777,-1.24492 -11.05,-3.475 -11.55,-5.05 -11.55,-12.2 0,-7.15 11.55,-12.25 1.1502,-0.50078 2.35,-0.95 2.8104,2.13867 12.8,2.225 9.8549,0.0689 26.7,-1.85 11.1443,9.29766 2.4,28.625 m -18.75,-22.35 q 9.1156,12.10703 16.25,17.55 -3.4498,4.86484 -6.9,2.7 l -13.05,-14.65 q -2.5197,-6.70469 3.7,-5.6 z m -10.35,-4.425 q -14.6488,7.83086 -4.1,26.65 m -1302.525,-272.4 q 35.6805,-100.33887 75.025,-103.225 123.2141,13.65273 96.65,-9.1 -25.4531,-16.50664 -1.3,-17.15 18.35,2.3 32.55,23.2 24.7924,36.59414 -93.75,40 -56.2479,3.30488 -36.575,45.15 19.6684,41.83477 -15.175,60.8 -64.5383,39.13027 -68.55,-12 m 13.525,-37.05 q 26.5773,-98.56973 73.925,-102 112.8418,17.09355 88.45,0 -27.3701,-21.61484 0,-29.5 27.4662,3.40586 43.75,29.6 25.0922,40.37051 -64.25,48.6 -84.1432,4.86602 -64.4,42.1 19.733,37.22422 -7.4,60.45 -69.3889,46.93594 -94.475,5.075 m -15.975,88.225 -92.75,24.75 q -13.3604,1.64023 0,-13.4 l 42,-36.85 m 153.075,216.35 q 74.7377,-30.10488 69.975,-49.25 -3.35,-25.65 -36.6,-49.65 -8.65,-6.25 -19.3,-12.35 -17.4,-9.95 -40.1,-19.6 -35.8,-24.35 39.8,-58.8 18.3455,-16.7459 -32.125,-23.6 l -8.9,2.375 q 39.8793,4.49238 21.525,21.225 -75.6104,34.43008 -39.8,58.8 22.7139,9.6498 40.075,19.6 10.6742,6.11836 19.325,12.35 33.2574,23.98027 36.6,49.65 5.0584,20.32168 -32.725,40.65 -7.9408,4.26602 -17.75,8.6 -3.2902,1.38125 -6.775,2.775 l -1.25,0.5 q -0.6162,0.25117 -1.25,0.5 -1.4512,0.59004 -2.95,1.175 -57.301,14.22715 -30.7,-20.9 18.8252,-16.3168 24.95,-26.75 9.7516,-16.57715 -12.55,-18.3 -71.1607,12.78379 -60.05,-10.45 13.0564,-19.61875 15.8,-39.8 5.2572,-38.76348 -27.55,-79.6 l 6.125,-1.625 3.775,-1 q 3.7004,-11.1957 -21.7,-36.375 -13.9605,-15.49141 45.55,-22.8 14.7232,-0.82402 0,11.4 -17.1801,17.21094 37.25,31.45 l 4.075,-1.075 m 17.725,-4.725 -8.825,2.35 m -69.825,18.65 q 1.8924,-13.27793 -15.5,-30.1 -17.3854,-16.81406 27.55,-24.55 18.4611,-1.08906 0,7.85 -18.8,20.75 37.8,33.475 l 7,-1.875 m -56.85,15.2 -4.25,1.125 m -3.775,1 q 33.8357,42.61641 30.925,81.225 -1.6658,22.34629 -15.65,43.35 3.9,9.85 75.05,-2.95 37.25,3.4 -11.5,45.65 -25.7,26.95 35.125,16.6 M 2176.5,694.125 2126.65,707.45 m 339.3,-181.15 q -14.5395,83.78477 -80.15,83.9 -87.2174,16.42891 0,110.25 67.8984,74.41406 46.15,94.9 -45.7424,11.06836 -61.55,32.05 -12.0785,41.81719 61.55,28.2 90.4961,-16.58516 92.3,-62.8 13.543,-46.71035 -100,-138.5 -34.4893,-21.90781 69.2,-32.05 46.7959,7.37578 27.575,-65.425 M 2452.65,512.25 q -2.5328,69.71016 -60.7,85.05 -124.15,18.5 -9.4,145.8 66.2859,52.97148 34.9,62 -40.8998,1.32148 -51.3,19.55 -23.5959,70.48262 39.925,63.9 63.5207,-6.58262 87.175,-17.3 108.05,-73.4 -20.9,-173.25 -69.0281,-41.6207 2.45,-40.05 77.1318,-2.09004 60.625,-70 49.1,36.36465 96.375,50.525 m -774.7,78.375 q 45.25,20.35 40.5,77.9 -4.55,55.65 -20.15,66 -28.4,19.15 49.25,7.9 54.8391,-5.80762 44.65,-37.45 -6.35,-17.1 -59.45,-66.3 -14.05,-30.1 11.05,-37.95 37.7707,-3.4 -15.6,-17.95 m -82.5,201.45 q -36.9,-2.05 -18.95,50.7 8.5,14.2 62.3,-13.8 32.6,-15.9 -9.45,-27.15 -22,-8.05 -33.9,-9.75 z m -2.7,-6.25 q -45.1752,-2.56602 -23.25,62.1 10.4277,17.37715 76.35,-16.9 39.9311,-19.47891 -11.6,-33.3 -26.9352,-9.87207 -41.5,-11.9 z m 20.425,-185.05 q 60.165,26.31328 50.225,84.35 -8.2924,43.66953 -35.8,61.85 -50.06,33.75 53.7,22 86.8412,-14.52148 74.1,-54.55 -11.2025,-30.17676 -63.5,-66.75 -19.0133,-21.98555 25.25,-35.85 27.7625,-5.93516 -20.2,-24.15 m -281.9,45.65 q -64.1238,100.23027 32.25,160.85 31.0316,22.5248 41.4,-3.5 2.6488,-23.19785 -30.5,-32.5 -55.25,-15.7 -6.6,-48.35 65.1824,-41.42187 71.4,-94.525 M 1571.15,939.6 q 26.15,-53.85 58.8,0 3.05,8.35 -3.85,15.4 -22.15,22.5 -40.55,10.25 -18.45,-12.25 -14.4,-25.65 z m -11.7,-0.65 q 36.4848,-75.09277 82.05,0 4.2451,11.67676 -5.35,21.55 -30.877,31.41699 -56.625,14.3 -25.7473,-17.11523 -20.075,-35.85 z m 75.2,-185.575 q -69.4803,102.44863 49.45,175.025 34.6625,15.04238 40.65,-19.05 -2.3672,-30.91016 -38.15,-36.8 -48.0885,-12.26289 26.15,-62.15 30.457,-18.22676 46.225,-77.8 m -6.625,276.3 q -24.4982,2.3826 -12.3,13.85 16.7701,15.8447 30.475,31.425 m 150.5,-49.775 q -10.0434,-2.0635 -20.125,-3.55 -73.0691,-10.79805 -148.55,8.05 m -693.475,-22.8 q -11.7006,8.16406 -33.725,10.4 -71.50684,2.10879 -65.6,-5.15 m -77.5,-9.25 q 0.28789,0.71738 -18.2,1.7 -28.25957,1.65352 -40.4,-19.05 m 1078.35,190.4 q 70.7148,-16.7918 9.35,28.75 -12.466,-5.5594 8.9,-18.15 29.3936,-10.4758 0,-10.6 -18.9914,6.4451 -18.25,0 z M 1386.9,744.7 q 24.0793,48.89023 18.475,83.225 -5.6043,34.33477 -25.975,58.725 -37.5242,52.07695 17.525,81.325 55.0416,29.24922 69.375,-12.275 15.9271,-33.58848 -21.45,-67.15 -55.6463,-64.24238 27.25,-111.25 m -193.8,145.35 q 48.3,-28.2 60.45,4.55 1.75,29.25 -28,41.6 -13.6781,1.38145 -8.85,-12.15 -0.4287,-10.15098 -8.1,-9.35 -21.45,-1.7 -15.5,-24.65 z m 9.15,4 q 33.0613,-19.28828 41.35,3.1 1.1885,19.99434 -19.15,28.45 0.8492,-25.08359 -13.4,-18.6 -12.8809,2.77344 -8.8,-12.95 z M 1376.65,734 q 34,56.19922 23.25,97.875 -10.75,41.67715 -33.95,60.125 -43.3945,42.76094 42.1,89.25 60.35,16.1 69.6,-37.7 4.05,-23.45 -34.55,-69.8 -35.4457,-53.84336 38.525,-96.75 M 2058.8,982.4 q -27.4795,-19.02949 -16.8,-46.25 31.3816,-32.44023 78.05,-43.1 26.8559,0.37129 39.8,31.2 7.2678,41.22285 -21.7,55.45 -13.8723,4.11367 -11.55,0.85 m -67.8,1.85 q -30.5814,-44.03887 20.05,-63.9 42.6857,-23.87402 64.6,0 22.3926,43.38516 -16.85,62.05 m -118.925,51.575 q -5.9078,-1.5301 -13.975,-5.225 -36.0359,-15.0217 -72.675,-22.5 m 96.275,28.65 q -3.7426,0.6102 -9.625,-0.925 m -28.225,53.175 q 33.5965,-38.9928 -9.35,-28.75 28.7047,-0.2178 9.35,28.75 z m -35.3,10.1 q 58.6613,-24.2488 10.2,44.2 -6.6164,8.2633 11.25,-27.55 12.7721,-25.6449 -21.45,-1.75 -19.6016,7.0039 0,-14.9 z M 1188.3,594.75 q -53.8252,80.02695 -15.45,116.8 59.0977,11.59141 55.4,57.25 -8.1869,26.41055 7.05,41.2 16.4721,23.69707 -1.3,52.15 -7.4541,6.89824 -11.1,8.475 l 2.2,9.7 q 1.9326,-1.26855 4.4,-0.825 4.8459,3.0623 -1.25,8.35 -0.6639,0.42246 -1.275,0.8 l 6.025,26.775 q 0.2383,0.79082 0.4,1.775 0.2244,9.47129 -9,17.4 -42.7031,46.78437 -68.85,15.7 -34.673,-62.56016 -16.7,-86.8 9.4098,-4.95156 -2.25,-28 -14.8393,-25.33125 0,-38.9 39.6063,-33.08418 -15.2,-67.7 m 55.4,-137.925 q -49.4965,90.97832 -10.45,128.975 58.45,10.35 54.75,56 -8.2,26.4 7.05,41.2 16.45,23.7 -7.15,45 l 1.9,8.475 q -5.7676,2.48867 -1.9,-8.475 M 1121.5,722.3 q 28.6453,15.225 40.75,30.45 4.8238,21.17637 -12.9,45.95 -17.7299,24.77637 0.15,42.85 9.5479,11.16367 -7,28 -17.4652,22.60234 20.2,69 21.5617,29.23262 48.9,-4.9 18.0754,-29.26348 21.4,-18.225 M 112.95,605.675 v 7.525 q -9.48633,43.20625 29.75,97.35 28.5502,29.225 73.3,-43.625 M 202.65,661.1 Q 173.40566,714.95898 148,691.2 114.62773,660.22539 122.325,611.95 m 163.325,81.725 q -20.94238,10.11855 0,64.875 11.19863,17.2002 34.7,0.55 26.43164,-18.73984 40.9,-40.6 m -18.775,-5.875 Q 331.6416,748.54277 300,746.55 q -23.31758,-1.11602 -2.325,-48.7 m -38.6,-13.8 q 12.79238,42.19766 -13.075,28.5 -21.04551,-8.46484 -5.05,-35.45 m 26.975,10.225 Q 278.85957,743.99707 246,731.85 208.71465,713.80469 223.225,669.95 M 574.1,781.05 q -61.825,71.86094 -18.9,84.8 68.11387,7.69062 82.9,-61.3 M 403.775,731.2 q -37.81836,57.91641 -0.025,72 21.31797,5.93359 16.2,14.65 -6.29941,36.95938 97.875,-54.7 m 707.275,117.175 1.875,8.325 q -10.1291,6.17578 -6.475,-0.8 1.7145,-5.64824 4.6,-7.525 z M 1058.875,986.1 q 18.7881,-13.14199 10.925,-41.6 -12.4557,-31.82031 -45.35,-56 -19.5752,-14.28984 22.325,-63.85 m -68.575,38.6 q -18.37598,32.76406 4.45,49.2 16.85,20.5 -4.55,38.35 -39.62188,51.1266 62.85,34.7 36.1627,-9.6834 10.25,-56.65 -6.8717,-13.99102 -29,-34.65 -22.1266,-20.65996 12.8,-64.15 m 23.875,156.05 -17.925,-0.6 m 43.6,96.225 q -15.7447,3.9752 -8.9,14.775 6.8063,10.7998 -2.175,15.6 -8.9937,4.8006 -19.175,-3 -10.1687,-7.8006 -2.325,-18.475 7.8313,-10.6748 14.025,-16.825 6.1947,-6.1504 19.725,-8.325 13.5408,-2.1744 14.05,5.05 0.5092,7.2242 -15.225,11.2 z m 9.35,-1.125 q -21.565,5.5564 -10.7,22.75 10.8658,17.1941 -1.6,17.6 -12.4582,0.3998 -29.525,-8.45 -17.0609,-8.8463 -5.575,-22.15 11.484,-13.2936 21.375,-23.1 9.8855,-9.8102 19.125,-10.6 9.2471,-0.7963 18.85,8.8 9.6049,9.5979 -11.95,15.15 z m -22.025,-72.775 q -62.6768,-3.4258 -115.175,4.825 -22.89902,3.6408 -17.35,9 m 132.525,-13.825 q 25.8471,1.4225 53.425,4.825 M 891.7,876.675 q 28.90625,87.3623 -26.55,88.475 -55.79121,1.31445 -34.25,-72.725 m 51.15,89.675 q 40.31289,-31.77676 22.4,-108.125 m -88.1,16.95 q -6.45039,50.78379 7.1,73.825 M 968.55,864.2 q -12.43184,24.65488 0,44.3 13.2834,16.17344 7.25,30 -16.22715,23.20742 -16.25,52.85 M 710.8,836.075 q -52.02754,34.93516 -26.95,75.075 6.04414,8.93984 14.65,8 64.46113,-10.03086 88.625,-43.225 m 10.8,6.3 Q 751.09531,919.45195 696.5,931.8 q -23.90645,5.12285 -29.95,-15.3 -12.13477,-62.08359 33.925,-85.25 M 420.7,736.075 q -50.74414,48.44512 0,66.425 16.04219,30.72363 81.575,-43.875 M 656.35,811.95 Q 616.56738,886.67578 553.9,877.85 492.50039,856.52598 555,774.7" />
    <path
       id="Layer0_0_1_STROKES"
       stroke="#000000"
       stroke-width="1"
       stroke-linejoin="round"
       stroke-linecap="round"
       fill="none"
       d="m 2942.525,1016.725 q -4.6691,18.0775 7.55,25.05 12.2086,6.9797 -1.325,6.025 -13.5336,-0.9547 -19.775,-6.975 -6.2305,-6.0234 -6.225,-14.025 0,-8 2.2,-13.65 2.198,-5.6539 5.725,-6.475 3.5307,-0.8139 10.025,-4.425 6.4928,-3.61094 1.825,14.475 z m 2.875,-50.475 q 184.5912,1.77578 131.35,72.5 -35.5332,12.5703 -115.3,170.15 -14.8576,28.4328 -28.25,38.75 -32.651,56.2098 -59.7,86.3 -44.8953,93.8281 -137.9,116.95 -49.9223,12.5355 -40.3,-29.85 25.3932,-121.3285 -8.9,-185.5 -39.1984,-66.0352 -34.65,-94.35 -5.8053,-50.0238 -20,-57.75 7.3236,-23.6459 59.2,-39.1 105.282,-24.8105 137.3,-46.6 47.4707,-33.29844 117.15,-31.5 z m -98.95,53.4 q 6e-4,2.9547 -6.475,7.875 -6.4773,4.9109 -14.975,8.475 -8.4979,3.5641 -0.675,-4.925 7.8242,-8.4797 7.825,-11.425 0,-2.95 2.1,-5.05 2.1,-2.1 5.05,-2.1 2.95,0 5.05,2.1 2.1,2.1 2.1,5.05 z m -55.975,140.775 q -2.3393,6.7084 -18.8,26.125 -16.4609,19.4164 -10.15,-1.375 6.3201,-20.7807 1.125,-22.975 -5.15,-2.2 -5.15,-5.35 0,-3.15 5.15,-5.35 5.2,-2.2 12.5,-2.2 7.3,0 12.45,2.2 5.2047,2.2055 2.875,8.925 z m 112.8,-27.475 q -11.1838,-0.51 -18.1,6.6 -6.9209,7.1141 -10.7,-2.3 -3.776,-9.4055 -5.425,-11.05 -1.65,-1.65 -1.65,-4 0,-2.35 1.65,-4 1.65,-1.65 4,-1.65 2.3465,0 21.875,8.45 19.5354,8.4455 8.35,7.95 z" />
  </defs>
  <g
     id="g264"
     transform="translate(-28.542754,-369.14346)">
    <use
       xlink:href="#Layer2_0_FILL"
       id="use260"
       x="0"
       y="0"
       width="100%"
       height="100%" />
    <use
       xlink:href="#Layer2_0_1_STROKES"
       id="use262"
       x="0"
       y="0"
       width="100%"
       height="100%" />
  </g>
  <g
     id="g274"
     transform="translate(-28.542754,-369.14346)">
    <use
       xlink:href="#Layer0_0_FILL"
       id="use270"
       x="0"
       y="0"
       width="100%"
       height="100%" />
    <use
       xlink:href="#Layer0_0_1_STROKES"
       id="use272"
       x="0"
       y="0"
       width="100%"
       height="100%" />
  </g>
</svg>
