
<svg xmlns="http://www.w3.org/2000/svg" version="1.1" xmlns:xlink="http://www.w3.org/1999/xlink" preserveAspectRatio="none" x="0px" y="0px" width="4000px" height="4000px" viewBox="0 0 4000 4000">
<defs>
<radialGradient id="Gradient_1" gradientUnits="userSpaceOnUse" cx="0" cy="0" r="2389.475" fx="0" fy="0" gradientTransform="matrix( 1, 0, 0, 1, 880.15,3866.5) " spreadMethod="pad">
<stop  offset="0%" stop-color="#FFFFFF"/>

<stop  offset="100%" stop-color="#000000"/>
</radialGradient>

<radialGradient id="Gradient_2" gradientUnits="userSpaceOnUse" cx="0" cy="0" r="2264.6500000000005" fx="0" fy="0" gradientTransform="matrix( 0.9999999999999999, 0, 0, 0.9999999999999999, 3006.55,98.35) " spreadMethod="pad">
<stop  offset="0%" stop-color="#FFFFFF"/>

<stop  offset="100%" stop-color="#000000"/>
</radialGradient>

<radialGradient id="Gradient_3" gradientUnits="userSpaceOnUse" cx="0" cy="0" r="5507.0625" fx="0" fy="0" gradientTransform="matrix( 1, 0, 0, 1, -105.05,253.8) " spreadMethod="pad">
<stop  offset="0%" stop-color="#FFFFFF"/>

<stop  offset="100%" stop-color="#000000"/>
</radialGradient>

<g id="Layer3_0_FILL">
<path fill="url(#Gradient_1)" stroke="none" d="
M 824.25 3848.15
L 740.6 3913.55 3269.2 3913.55 3185.55 3848.15 824.25 3848.15 Z"/>

<path fill="url(#Gradient_2)" stroke="none" d="
M 3185 158.35
L 3264.85 90.7 741.95 90.8 821.85 158.35 3185 158.35 Z"/>

<path fill="url(#Gradient_3)" stroke="none" d="
M 3964.85 39.35
Q 3948.7 23.15 3925.8 23.15
L 3344.7 23.15 3264.85 90.7 3185 158.35 821.85 158.35 741.95 90.8 662 23.15 80.5 23.15
Q 57.6 23.15 41.45 39.35 25.25 55.5 25.25 78.4
L 25.25 3923.7
Q 25.25 3946.6 41.45 3962.75 57.6 3978.95 80.5 3978.95
L 656.95 3978.95 740.6 3913.55 824.25 3848.15 3185.55 3848.15 3269.2 3913.55 3352.8 3978.95 3925.8 3978.95
Q 3948.7 3978.95 3964.85 3962.75 3981.05 3946.6 3981.05 3923.7
L 3981.05 78.4
Q 3981.05 55.5 3964.85 39.35
M 1451.05 3818.7
L 1451.05 3815.4 820.35 3815.4 820.3 3818.7 820.35 3815.4 504.35 3815.4 504.35 3818.7 504.35 3815.4 347.6 3815.4 347.5 3818.7 347.6 3815.4 190.3 3815.4 190.3 186.1 3819.35 186.1 3819.35 3815.4 1451.05 3815.4 1451.05 3818.7 Z"/>

<path fill="#00CC66" fill-opacity="0.24705882352941178" stroke="none" d="
M 347.6 3815.4
L 504.35 3815.4 820.35 3815.4 1451.05 3815.4 3819.35 3815.4 3819.35 186.1 190.3 186.1 190.3 3815.4 347.6 3815.4 Z"/>
</g>

<g id="Layer2_0_FILL">
<path fill="#009900" stroke="none" d="
M 3805.1 3685.05
Q 3779.2 3704.7 3805.1 3722.2
L 3805.1 3685.05
M 2597.4 2482.8
Q 2592.05 2507.75 2663.7 2507.6 2694.7 2561.25 2753.3 2609.1 2780.85 2630.05 2775.95 2654.4 2752.85 2687.15 2776.65 2707.35 2786 2765.25 2836.3 2804.65 2842.1 2879.3 2886.5 2949.8 2931.3 2987.05 2928.45 3027.55 2930.3 3052.55 2957.85 3074.5 2956.25 3102.05 2967 3119.8
L 2987.1 3161.6
Q 3023.4 3192.45 3052.45 3194.05 3072.85 3199.4 3076.35 3209.1 3096.95 3230.7 3114.55 3252.1 3261.6 3450 3070.35 3446.45 3036.65 3460.95 3070.35 3481.7 3106.95 3481.4 3131.35 3518.7 3135.85 3541.75 3157.75 3559.05
L 3260 3607.7
Q 3308.45 3589.65 3309.5 3607.7 3343.6 3667.85 3403.55 3688.35
L 3531.6 3824.05 3608.3 3824.05 3545.4 3678.35 3438.2 3537.15 3365.6 3446.45 3327.65 3325.5 3103.3 3059.95
Q 3116.6 3037.5 3103.3 3009.45
L 3073.65 2923.8
Q 3063.5 2879.15 3085.25 2865.1 3099.2 2805.75 3175.9 2871.7 3222.15 2852.45 3286.45 2912.1 3320.85 2938.4 3317.8 2975.95 3311 3009.65 3349.1 3026.35 3364 3053.25 3349.1 3080.1 3337.35 3100.45 3397 3167.45 3455 3227.25 3397 3251.55 3374.85 3304.9 3494.3 3317.05 3529 3369.5 3601.45 3434.7 3655.8 3441.3 3665.8 3480.05 3630 3499.75 3703.75 3552.25 3750.25 3534.5 3744.95 3582.55 3736.5 3597.95 3771.4 3619.45 3799.55 3621.45 3813.85 3633.2
L 3813.9 188.1 1846.5 188
Q 1876.15 417.15 1842.3 701.1 1831.4 842 1791.95 911.95 1780.9 939.05 1791.95 959.65 1808.6 987.45 1803.7 1017.8 1802.55 1058.75 1834.75 1089.55 1821.8 1139.5 1849.8 1176.65 1848.6 1265.5 1812.95 1332 1811.3 1404.5 1835.2 1430.5
L 1885.85 1485.7 1900.95 1635.05 2000.65 1760.55 2000.65 1799.9
Q 2014.3 1806.6 2021.65 1799.9 2030.8 1811.8 2056.05 1823.75 2077.6 1757.15 2088.65 1764.8 2054.7 1875.8 2072.8 1902.3 2070.95 1947.05 2113.8 1971.45
L 2131.5 1985.15
Q 2150.5 1979.15 2150.75 2002.3 2154.05 2029.5 2138.1 2037.25 2140.1 2093.35 2184.2 2136.25
L 2279.75 2236.95 2288.95 2270.25 2315.8 2298.4 2315.8 2385.45
Q 2327.1 2398.6 2351 2405.1 2418.85 2422.5 2471.7 2418.8 2508.15 2474.45 2597.4 2482.8 Z"/>
</g>

<g id="Layer0_0_FILL">
<path fill="#33FF00" stroke="none" d="
M 828.5 824.65
Q 822.1 830.9 815.8 837.2 789.6 863.35 764.9 890.15
L 1996.3 1992.75 828.5 824.65 Z"/>
</g>

<path id="Layer3_0_1_STROKES" stroke="#2E2E2E" stroke-width="5" stroke-linejoin="round" stroke-linecap="round" fill="none" d="
M 3264.85 90.7
L 3344.7 23.15 3925.8 23.15
Q 3948.7 23.15 3964.85 39.35 3981.05 55.5 3981.05 78.4
L 3981.05 3923.7
Q 3981.05 3946.6 3964.85 3962.75 3948.7 3978.95 3925.8 3978.95
L 3352.8 3978.95 3269.2 3913.55 740.6 3913.55 656.95 3978.95 80.5 3978.95
Q 57.6 3978.95 41.45 3962.75 25.25 3946.6 25.25 3923.7
L 25.25 78.4
Q 25.25 55.5 41.45 39.35 57.6 23.15 80.5 23.15
L 662 23.15 741.95 90.8 3264.85 90.7 Z
M 1451.05 3818.7
L 1451.05 3815.4
M 820.3 3818.7
L 820.35 3815.4
M 347.5 3818.7
L 347.6 3815.4
M 504.35 3818.7
L 504.35 3815.4"/>

<path id="Layer1_0_1_STROKES" stroke="#2E2E2E" stroke-width="15" stroke-linejoin="miter" stroke-linecap="square" stroke-miterlimit="3" fill="none" d="
M 3750.85 501.15
L 3819.35 501.1 3819.35 343.2 3750.85 343.2
M 3819.35 343.2
L 3819.35 186.1 3661.4 186.1 3661.4 254.6
M 3503.45 254.6
L 3503.5 186.1 3345.45 186.1 3345.45 254.6
M 3750.85 817.1
L 3819.35 817 3819.35 659.15 3750.85 659.15
M 3819.35 501.1
L 3819.35 659.15
M 3661.4 186.1
L 3503.5 186.1
M 3187.5 254.6
L 3187.6 186.1 3029.65 186.1 3029.55 254.6
M 2872.7 254.6
L 2872.75 186.1 2714.75 186.1 2714.75 254.6
M 3029.65 186.1
L 2872.75 186.1
M 3750.85 1131.9
L 3819.35 1131.85 3819.35 974.95 3750.85 975.05
M 3819.35 817
L 3819.35 974.95
M 3750.85 1447.85
L 3819.35 1447.75 3819.35 1289.85 3750.85 1289.85
M 3819.35 1131.85
L 3819.35 1289.85
M 3345.45 186.1
L 3187.6 186.1
M 3819.35 1447.75
L 3819.35 1605.8 3819.35 1763.7 3819.35 1921.65 3819.35 2078.5 3819.35 2237.65 3819.35 2394.45 3819.35 2552.45 3819.35 2710.35 3819.35 2868.4 3819.35 3026.3 3819.35 3184.25 3819.35 3341.1 3819.35 3500.25 3819.35 3657.05 3819.35 3815.4 3661.4 3815.4 3503.5 3815.4 3345.45 3815.4 3187.6 3815.4 3029.65 3815.4 2872.75 3815.4 2714.75 3815.4 2556.85 3815.4 2398.8 3815.4 2240.9 3815.4 2082.95 3815.4 1926.1 3815.4 1766.95 3815.4 1610.15 3815.4 1452.15 3815.4 1294.25 3815.4 1136.2 3815.4 978.3 3815.4 820.35 3815.4 663.5 3815.4 504.35 3815.4 347.6 3815.4 190.3 3815.4 190.3 3656.4 190.3 3498.5 190.3 3340.45 190.3 3182.6 190.3 3024.6 190.3 2867.75 190.3 2709.7 190.3 2551.85 190.3 2393.8 190.3 2235.9 190.3 2077.95 190.3 1921.1 190.3 1761.95 190.3 1605.15 190.3 1447.15 190.3 1289.25 190.3 1131.2 190.3 973.3 190.3 815.35 190.3 658.5 190.3 499.35 190.3 342.55 190.3 186.1 347.6 186.1 504.35 186.1 663.5 186.1 820.35 186.1 978.3 186.1 1136.2 186.1 1294.25 186.1 1452.15 186.1 1610.15 186.1 1766.95 186.1 1926.1 186.1 2082.95 186.1 2240.9 186.1 2398.8 186.1 2556.85 186.1 2714.75 186.1
M 3819.35 1763.7
L 3750.85 1763.75
M 3819.35 1605.8
L 3750.85 1605.8
M 3819.35 1921.65
L 3750.85 1921.7
M 3819.35 2078.5
L 3750.85 2078.6
M 3819.35 2237.65
L 3750.85 2237.65
M 3819.35 2552.45
L 3750.85 2552.45
M 3819.35 2394.45
L 3750.85 2394.5
M 3819.35 2710.35
L 3750.85 2710.45
M 3819.35 2868.4
L 3750.85 2868.4
M 3819.35 3026.3
L 3750.85 3026.35
M 2556.85 186.1
L 2556.75 254.6
M 2398.8 186.1
L 2398.8 254.6
M 2082.95 186.1
L 2082.9 254.6
M 2240.9 186.1
L 2240.85 254.6
M 1926.1 186.1
L 1926 254.6
M 1766.95 186.1
L 1766.95 254.6
M 1452.15 186.1
L 1452.15 254.6
M 1610.15 186.1
L 1610.1 254.6
M 978.3 186.1
L 978.25 254.6
M 1136.2 186.1
L 1136.2 254.6
M 1294.25 186.1
L 1294.15 254.6
M 663.5 186.1
L 663.4 254.6
M 820.35 186.1
L 820.3 254.6
M 504.35 186.1
L 504.35 254.6
M 347.6 186.1
L 347.5 254.6
M 190.3 342.55
L 258.8 342.5
M 190.3 499.35
L 258.8 499.35
M 190.3 658.5
L 258.8 658.4
M 190.3 815.35
L 258.8 815.3
M 190.3 973.3
L 258.8 973.25
M 190.3 1131.2
L 258.8 1131.2
M 190.3 1289.25
L 258.8 1289.15
M 190.3 1447.15
L 258.8 1447.15
M 190.3 1761.95
L 258.8 1761.95
M 190.3 1605.15
L 258.8 1605.1
M 190.3 1921.1
L 258.8 1921
M 190.3 2077.95
L 258.8 2077.85
M 190.3 2235.9
L 258.8 2235.85
M 190.3 2393.8
L 258.8 2393.8
M 190.3 2551.85
L 258.8 2551.75
M 190.3 2709.7
L 258.8 2709.7
M 190.3 2867.75
L 258.8 2867.7
M 190.3 3024.6
L 258.8 3024.55
M 2240.9 3815.4
L 2240.85 3746.9
M 2082.95 3815.4
L 2082.9 3746.9
M 2398.8 3815.4
L 2398.8 3746.9
M 2556.85 3815.4
L 2556.75 3746.9
M 1452.15 3815.4
L 1452.15 3746.9
M 1610.15 3815.4
L 1610.1 3746.9
M 1766.95 3815.4
L 1766.95 3746.9
M 1926.1 3815.4
L 1926 3746.9
M 663.5 3815.4
L 663.4 3746.9
M 820.35 3815.4
L 820.3 3746.9
M 1136.2 3815.4
L 1136.2 3746.9
M 978.3 3815.4
L 978.25 3746.9
M 1294.25 3815.4
L 1294.15 3746.9
M 190.3 3340.45
L 258.8 3340.45
M 190.3 3182.6
L 258.8 3182.5
M 190.3 3498.5
L 258.8 3498.45
M 190.3 3656.4
L 258.8 3656.4
M 347.6 3815.4
L 347.5 3746.9
M 504.35 3815.4
L 504.35 3746.9
M 3819.35 3341.1
L 3750.85 3341.2
M 3819.35 3184.25
L 3750.85 3184.3
M 3819.35 3500.25
L 3750.85 3500.25
M 3345.45 3815.4
L 3345.45 3746.9
M 3503.5 3815.4
L 3503.45 3746.9
M 3819.35 3657.05
L 3750.85 3657.1
M 3661.4 3815.4
L 3661.4 3746.9
M 2872.75 3815.4
L 2872.7 3746.9
M 2714.75 3815.4
L 2714.75 3746.9
M 3029.65 3815.4
L 3029.55 3746.9
M 3187.6 3815.4
L 3187.5 3746.9"/>

<path id="Layer1_0_2_STROKES" stroke="#006600" stroke-width="10" stroke-linejoin="round" stroke-linecap="round" fill="none" d="
M 3184.6 2002.15
Q 3184.6 2490.85 2838.85 2836.6 2493.1 3182.35 2004.35 3182.35 1515.75 3182.35 1170 2836.6 824.25 2490.85 824.25 2002.15 824.25 1513.5 1170 1167.75 1515.75 822 2004.35 822 2493.1 822 2838.85 1167.75 3184.6 1513.5 3184.6 2002.15 Z
M 3500.85 2002.7
Q 3500.85 2622.15 3062.55 3060.45 2624.25 3498.75 2004.75 3498.75 1385.3 3498.75 947 3060.45 508.75 2622.15 508.75 2002.7 508.75 1383.2 947 945 1385.3 506.7 2004.75 506.7 2624.25 506.7 3062.55 945 3500.85 1383.2 3500.85 2002.7 Z
M 2871.25 2001.8
Q 2871.25 2360.8 2617.3 2614.9 2363.2 2868.85 2004.2 2868.85 1645.2 2868.85 1391.15 2614.9 1137.15 2360.8 1137.15 2001.8 1137.15 1642.8 1391.15 1388.75 1645.2 1134.75 2004.2 1134.75 2363.2 1134.75 2617.3 1388.75 2871.25 1642.8 2871.25 2001.8 Z
M 2241.95 2001.65
Q 2241.95 2100.1 2172.25 2169.8 2102.6 2239.45 2004.15 2239.45 1905.65 2239.45 1836 2169.8 1766.3 2100.1 1766.3 2001.65 1766.3 1903.2 1836 1833.5 1905.65 1763.85 2004.15 1763.85 2102.6 1763.85 2172.25 1833.5 2241.95 1903.2 2241.95 2001.65 Z
M 2555.6 2001.65
Q 2555.6 2230 2394.05 2391.5 2232.5 2553.1 2004.15 2553.1 1775.85 2553.1 1614.3 2391.5 1452.75 2230 1452.75 2001.65 1452.75 1773.3 1614.3 1611.8 1775.85 1450.2 2004.15 1450.2 2232.5 1450.2 2394.05 1611.8 2555.6 1773.3 2555.6 2001.65 Z"/>

<path id="Layer0_0_1_STROKES" stroke="#006600" stroke-width="0.1" stroke-linejoin="miter" stroke-linecap="square" stroke-miterlimit="3" fill="none" d="
M 220 3785.7
L 190.3 3815.4"/>

<path id="Layer0_0_2_STROKES" stroke="#006600" stroke-width="20" stroke-linejoin="miter" stroke-linecap="square" stroke-miterlimit="3" fill="none" d="
M 3660.3 2010.95
Q 3660.3 2703 3170.95 3192.3 2681.65 3681.65 1989.6 3681.65 1297.55 3681.65 808.2 3192.3 318.95 2703 318.95 2010.95 318.95 1356.4 756.7 883.2 781.7 856.05 808.2 829.55 814.6 823.15 821.05 816.85 1306.65 340.3 1989.6 340.3 2681.65 340.3 3170.95 829.55 3660.3 1318.9 3660.3 2010.95 Z"/>
</defs>

<g transform="matrix( 1, 0, 0, 1, 0,0) ">
<use xlink:href="#Layer3_0_FILL"/>

<use xlink:href="#Layer3_0_1_STROKES"/>
</g>

<g transform="matrix( 1, 0, 0, 1, 0,0) ">
<use xlink:href="#Layer2_0_FILL"/>
</g>

<g transform="matrix( 1, 0, 0, 1, 0,0) ">
<use xlink:href="#Layer1_0_1_STROKES"/>

<use xlink:href="#Layer1_0_2_STROKES"/>
</g>

<g transform="matrix( 1, 0, 0, 1, 0,0) ">
<use xlink:href="#Layer0_0_FILL"/>

<use xlink:href="#Layer0_0_1_STROKES"/>

<use xlink:href="#Layer0_0_2_STROKES"/>
</g>
</svg>
