
<svg xmlns="http://www.w3.org/2000/svg" version="1.1" xmlns:xlink="http://www.w3.org/1999/xlink" preserveAspectRatio="none" x="0px" y="0px" width="451px" height="451px" viewBox="0 0 451 451">
<defs>
<linearGradient id="Gradient_1" gradientUnits="userSpaceOnUse" x1="320.1875" y1="152.525" x2="221.01250000000002" y2="151.17499999999998" spreadMethod="pad">
<stop  offset="0%" stop-color="#008080"/>

<stop  offset="100%" stop-color="#FFFFFF"/>
</linearGradient>

<linearGradient id="Gradient_2" gradientUnits="userSpaceOnUse" x1="224.1125" y1="134.4" x2="248.4875" y2="132.6" spreadMethod="pad">
<stop  offset="0%" stop-color="#008080"/>

<stop  offset="100%" stop-color="#FFFFFF"/>
</linearGradient>



<g id="Layer2_0_FILL">
<path fill="url(#Gradient_1)" stroke="none" d="
M 362.9 154.4
Q 348.37734375 126.8263671875 324.1 107.7 319.780859375 104.27890625 315.1 101.1 306.0279296875 94.971875 295.75 89.85 239.9 62 180.65 80.7 179.2 81.1 177.7 81.6 163.05 86.5 150.25 93.65
L 223.65 229.3
Q 223.855859375 229.3203125 225.1 228.55 225.1248046875 228.5646484375 225.15 228.55
L 362.9 154.4 Z"/>
</g>

<g id="Layer0_0_FILL">
<path fill="url(#Gradient_2)" stroke="none" d="
M 210.5 142.1
Q 210.9 144.25 208.85 145
L 199.5 147.65
Q 199.75 147.9 199.35 148.2 198.95 148.25 198.5 148.25 195.4 145.85 193.6 144.9 192.4 144.25 191.7 144.2 191.1 144.15 191.7 144.95 197.05 149 191.95 152.6 190.8 153.8 192.5 153.3 193.05 153.1 193.7 152.75 195.1 152.05 196.95 150.75 197.4 150.4 197.9 150.05 198.05 149.95 198.25 149.85 198.8 149.6 199.7 149.7 199.2 149.85 199.4 150.2 202 151.05 204.9 152.85 205.7 153.55 205.35 154.6
L 205.35 154.7
Q 205.4 154.75 205.7 154.55 206.4 154.25 207 153.55 207.35 153.15 207.8 153.25 208.1 153.3 208.95 153.65 213.7 155.35 217.85 154.1 218.05 155.5 217.55 156.45 217.15 157.15 218.1 156.75 219.35 156.1 219.95 155.05 220.4 154.1 220.9 153.8 224.05 153.4 226.45 152.85 229.75 152 231.75 150.8 231.9 150.3 231.6 150.1 231.25 150.05 230.5 150.25 230.55 150 230.8 149.85 230.9 149.8 231.05 149.75 231.7 149.55 231.05 149.05 231 149.05 230.95 149
L 230.9 148.95
Q 225.45 145.45 218.45 145.05 218.35 145.05 218.25 145 218.2 145 218.15 145 218.05 145 217.95 145
L 217.85 145
Q 217.75 145 217.6 145 217.55 145 217.5 145 217.35 145 217.15 145
L 217 145
Q 216.9 145 216.55 145
L 216.45 145
Q 216.35 145 216.1 145 216 145 215.95 145
L 215.8 145
Q 215.65 145 215.4 145 215.35 145 215.3 145 215.15 145 214.95 145
L 214.9 145.05 214.85 145.05
Q 214.6 145.05 214.4 145.05 214.15 145.1 213.9 145.1 212.4 143.15 210.5 142.1
M 231.75 114.05
Q 231.25 114.65 231.35 116.9 229.85 117.4 229.25 117.9 228.2 118 227.25 118.3 227 118.35 226.75 118.2 224.75 117 222 116.25 218.95 115.45 217.6 114.75 216.7 114.1 215.75 113.55 215.5 113.4 215.55 113.65 215.7 114 215.7 114.8 215.85 114.85 215.7 114.9 216 116.1 216.05 117.35 216.05 117.5 216.15 117.45 216.55 117.15 217.4 117.1 217.85 117.15 217.55 117.3 217.4 117.4 217.4 117.5 219.4 119.25 221.15 120 221.4 120.1 221.6 120.3 221.9 120.85 221.4 122.45 221.4 122.55 221.45 122.55 222.9 122.7 226.75 120.1 228 119.85 228.7 120.2 229.6 120.35 229.9 120.6 230.15 121.5 230.15 122.25 230.25 122.5 230.45 122.45 230.8 122.35 231.55 121.9 233.6 120.3 234.1 120.3
L 240.75 120.65
Q 242.2 122.3 241.3 123.75 243.2 123.7 244.6 121.15 244.95 120.65 246.15 120.8 249.4 121.35 253.35 121.25 253.45 121.5 253.5 121.9 253.45 122.3 254 123.25 254.5 124.2 254.15 125.95 254 126.6 254.7 126.4 256.05 126.05 256.75 124.7 257.1 124.25 257.6 123.45 257.8 123.3 258 122.9 258.75 121.4 259.25 120.8 265.5 120.1 266.1 119.7 266.25 119.6 266.2 119.5 266.2 119.35 266 119.35 267.95 119.15 269.05 118.15 269.3 117.9 269 117.85
L 267.75 117.4
Q 266.75 116.8 265.65 116.35 262 114.75 254.2 114.75 252.5 114.85 250.6 112.8 249.65 111.8 247.8 110.8 247.65 110.65 247.45 110.8
L 247.1 111.2
Q 246.6 111.85 246.35 113.4 246.25 114.25 245.6 114.8
L 244.95 115.3
Q 241.35 115.85 238.05 116.45 236.45 116.75 235.9 116.6 235.55 116.45 235.2 116.15 233.5 114.4 232.2 113.95 231.9 113.85 231.75 114.05
M 294.3 135.9
Q 294.05 135.9 293.9 135.75
L 291.5 133.4
Q 290.55 132.6 290.3 133.4 289.5 135.55 288.4 136.9 287.6 137.85 289.55 137.4
L 289.6 137.4
Q 286.25 138.7 283.75 137.4
L 279.55 135.35
Q 278.4 134.9 278.75 135.95 280 140.4 279.05 143.4 278.7 144.8 280 144.2 281.9 143.4 283.9 142 284.65 141 289.15 141.5 288.8 141.6 287.8 141.55 287.2 141.6 287.55 142 289 143.25 289.7 145.15 289.85 146.05 290.75 145.3 291.9 144.2 292.75 142.95 295.8 143.85 299.1 143.65 298.1 144.15 298.25 144.8 298.85 146.55 299.85 147.25 300.25 146.8 300.5 145.95 300.65 145.4 300.85 145.65 301.15 145.75 301.45 143.4 301.5 143.35 301.6 143.35 304.2 142.85 306.1 142.25 309 141.35 310.2 140.15 310.55 139.5 309.95 139.55 310 139.15 308.25 138.35 304.9 136.2 300.45 135.75
L 300.3 135
Q 300.3 135.25 300.2 135.1 300.1 134.95 299.95 134.2 299.85 134.8 299.65 134.35 299.6 134.15 299.5 133.85 299.2 133.15 298.8 132.55 298.6 133.15 297.65 132.2 298.2 133.75 296.8 132.7 297.15 133.85 296.2 133.5 296.6 134.45 295.55 134.25 295.95 135.25 294.95 135.05 295.55 135.85 294.5 135.7
L 294.75 135.85
Q 294.5 135.95 294.3 135.9 Z"/>
</g>
</defs>

<g transform="matrix( 1, 0, 0, 1, 0,0) ">
<use xlink:href="#Layer3_0_FILL"/>
</g>

<g transform="matrix( 1, 0, 0, 1, 0,0) ">
<use xlink:href="#Layer2_0_FILL"/>
</g>

<g transform="matrix( 1, 0, 0, 1, 0,0) ">
<use xlink:href="#Layer0_0_FILL"/>
</g>
</svg>
