
<svg xmlns="http://www.w3.org/2000/svg" version="1.1" xmlns:xlink="http://www.w3.org/1999/xlink" preserveAspectRatio="none" x="0px" y="0px" width="3840px" height="1920px" viewBox="0 0 3840 1920">
<defs/>

<g id="Layer_1">
<g id="Layer_1" transform="matrix( 19.554244995117188, 0, 0, 19.554244995117188, 24,57.6) ">
<g>
<g>
<g>
<path fill="#FFFFFF" stroke="none" d="
M 98.55 75.05
Q 98.4 75.05 98.35 75.05 98.35 75.25 98.6 75.4 98.8 75.25 98.85 75.15 98.7 75.05 98.55 75.05
M 145.7 27.5
Q 145.7 27.75 145.95 27.85 146.15 27.75 146.2 27.6 146 27.5 145.7 27.5
M 98.65 73.3
L 98.6 73.3
Q 98.35 73.35 97.95 73.5 97.4 73.65 96.75 74.05 96.4 74.25 96.15 74.45 95.25 75 95.25 75.15 95.25 75.3 95.3 75.35 95.05 75.5 95.05 75.55 95.05 76.05 95.15 75.8 95.25 75.75 95.3 75.75 95.25 75.8 95.25 75.85 94.9 76.25 94.85 76.5
L 95.1 76.6
Q 96.6 75.75 97.7 74.9 98.9 74.15 99.1 73.75 99.2 73.65 99.25 73.5 99.2 73.4 98.95 73.35 99.05 73.3 99.1 73.3 98.9 73.25 98.65 73.3
M 33.65 58.6
Q 33.1 57.85 32.9 57.6 32.7 59.55 31.4 61.75
L 31 61.75
Q 30.45 59.15 30.1 55.7 29.7 57.05 29.3 57.8 28.65 59.15 27.7 59.15 26.9 59.15 25.75 58.55 24.55 57.95 24.4 57.4 24.25 57.5 23.45 58.55 22.8 59.3 22.2 59.55 21.55 59.45 21.35 59 21.25 58.5 21.1 58.3 21.05 58.45 20.5 59.5 20 60.35 19.95 60.55
L 19.4 60.45
Q 19.25 60.35 19.25 59.85 19.25 59.45 19.55 57.9 19.9 56.4 19.9 56 19.9 55.55 19.75 54.95 19.55 54.4 19.55 54.2 19.55 53.95 19.4 53.8 18.5 55.95 18 57.05 17.15 59 15.9 60.15 15.7 58.9 15.7 56.5
L 15.6 56.35
Q 14.3 58.8 13.2 59.85 12.75 59.8 12.65 59.7 12.5 59.5 12.5 58.95 12.5 58.65 13.1 57.3 13.65 56.1 13.5 55.5 12.75 56.65 12.15 57.35 11.2 58.5 10.05 58.8 10 59.5 9.8 60.25
L 9.85 60.35
Q 9.95 60.5 10.1 60.6 10.15 60.6 10.9 60.1 11.35 59.75 11.8 59.8 12.25 60.3 12.5 61.35 12.7 61.95 13 63.2
L 12.95 63.3
Q 13.05 63.4 13.55 63.4 14.65 63.4 15.95 62.2 17.25 61 17.4 61 17.9 61 18.05 61.35 18.15 61.45 18.15 61.8 18.2 61.8 18.75 61.45 19.3 61.1 19.75 61.1 20.75 61.1 21.35 61.95 21.65 62.4 22 63.25 22.9 62.95 24.9 61.55 26.6 60.4 27.4 60.4 32.5 62.85 32.9 62.85 33.3 62.85 34.3 62.6 35.35 62.3 35.7 62.3 36.55 62.3 36.9 62.75 37.2 63.2 38.7 63.2 39.1 63.2 39.75 62.8 40.4 62.4 40.8 62.4 41.55 62.4 41.8 62.85 41.9 63.15 41.95 63.5 42.85 63.4 43.95 62.85 44.95 62.3 45.7 62.3 49.2 62.3 50.05 63.2 50.25 63.45 50.5 63.85 50.7 64.15 51.3 64.15 52 64.15 52.75 63.2 53.45 62.3 54.05 62.3 54.15 62.3 55.8 62.45 57.45 62.65 57.9 62.65 58.3 62.65 59.6 62.95 60.9 63.25 61.3 63.25 62.25 63.25 63.85 62.45 65.4 61.65 67.25 61.65 72 62.85 72.15 62.85 73.15 62.85 74 62.35 74.45 62.05 74.95 61.65 77.35 61.45 77.95 62.15 78.1 62.3 78.3 62.65 78.6 62.85 79.2 62.85 80 62.85 80.55 62.4
L 80.5 62.4
Q 80.05 61.75 79.7 60.6 79.45 60 79.35 59.55 79.05 59.8 78.65 60.15 77.45 61.1 77.15 61.1 75.45 61.1 75.2 58.7 75.15 55.9 74.8 55.05 73.55 56.65 72.3 57.85 69.9 60.25 67.85 60.25 67.2 60.25 66.85 59.95 66.45 59.5 66 59.25 65.45 59.8 64.85 60.25 64.3 60.65 63.55 61.4 62.4 61 62.15 59.85 61.75 58.15 61.65 58.05
L 61.5 58.05
Q 61.5 58.65 60.8 60.25 60.1 61.8 59.85 61.8 58.5 61.8 57.8 60.05 57.4 58.15 57.25 57.9 56.65 58.45 56.4 59.5 56.05 60.95 55.85 61.4 55 61.15 54.7 60.2 54.35 58.8 54.3 58.75 54.15 58.9 53.3 60.15 52.55 61.15 52.1 61.15 50.35 61.15 50.25 60.05 50.45 58.75 50.45 58.45
L 50.35 58.3
Q 50.1 58.9 49.4 60.2 48.7 61.45 48.3 62.1 47.2 61.7 47.2 60.85 47.35 59.85 47.2 59.4
L 47.15 59.25
Q 46.45 59.95 45.1 60.7 43.5 61.6 42.8 62.1 41.6 60.8 41.55 58.7 41.75 56.25 41.7 55.05 40.6 57.15 39.85 58.35 38.55 60.55 36.45 61.75 35.95 60.9 35.95 59.65 34.35 59.3 33.65 58.6
M 12.9 35.15
Q 12.9 35.3 13 35.7
L 12.95 35.75
Q 13.65 36.4 14.15 37.85 14.25 38.1 14.35 38.35 14.45 36.5 14.45 35.4
L 15 35.4
Q 15.25 36.25 16.05 38.4 16.7 40.35 16.55 41.65
L 16.7 41.65
Q 16.7 37.55 17.1 35.6 18.75 38.25 18.8 39.75
L 18.95 39.75
Q 19.1 39.15 19.25 37.75 19.4 36.55 19.6 35.8 18.8 35.75 18.4 34.75 18.05 33.75 17.8 33.75 17.15 33.75 16.3 34.3 15.5 34.85 15.45 34.85 14.65 34.85 14.4 34.65 13.45 34.1 13.2 34 12.9 34.8 12.9 35.15
M 82.9 42.65
Q 82.9 42.45 82.9 42.2 82.9 40.6 77.85 40.6 76.75 40.6 76.25 40 75.65 39.3 75.5 39.25 74.35 39.6 72.9 39.55 71.35 39.5 70.6 39 66.2 36.35 64.5 36.35 64.1 36.35 63.9 36.8 63.65 37.3 63.55 37.3 62.05 37.3 61.2 37.7 60.5 38.2 60.35 38.25
L 58.3 38.25
Q 58 38.1 57.65 37.45 57.1 36.45 57 36.35 56.5 36.6 56.15 36.75 55.45 37 54.95 37 53.25 37 52.2 35.9 51.65 35.3 51.4 34.55 51.25 34.55 48.05 35.95 44.9 37.3 44.85 37.3 43.35 37.3 43.1 36.8 43.1 36.1 43.05 35.85
L 40.6 35.7
Q 40.3 35.2 40.2 34.65 40.15 34.3 40.15 33.6 39.3 33.3 38.55 33.3 37.55 33.3 36.4 34.2 35.25 35.05 35.1 35.05 34.7 35.05 34.75 34.65 34.8 34.25 34.4 34.25 33.6 34.25 32.65 35 31.7 35.8 31.55 35.8 29.7 35.8 29.35 34.4 29.25 33.75 29.15 33.5 28.95 33.05 28.5 33.05 28.1 33.05 27.35 33.4 26.55 33.75 26.15 33.75 25.75 33.75 25.75 33.45 25.75 33.15 25.4 33.15 25.3 33.15 22.5 34.45 20.05 35.6 19.7 35.75 20.05 36.5 20.75 37.75 21.35 39 21.05 39.95
L 21.1 40.05
Q 21.15 39.9 21.7 38.3 22.05 37.2 22.55 36.55
L 22.85 36.65
Q 23 36.7 23.15 36.8 23.15 36.75 23.15 36.7 23.15 36.2 23.15 36
L 23.2 35.85
Q 23.25 35.85 23.3 35.75 23.4 35.6 23.85 35.6 24.3 35.6 24.9 37 25.55 38.35 25.55 39.05
L 25.7 39.05
Q 25.95 37.6 26.25 36.75 26.85 35.15 27.85 35.05
L 28 35
Q 28.1 35.05 28.1 35.55 28.1 35.75 28.05 36.05 28.15 36.15 28.3 36.3 28.3 36.25 28.35 36.25 29.15 36.5 30.1 37.65 31 38.65 31.05 39.05 31.15 38.2 31.2 37.75 31.35 37 32.35 36.65 32.8 36.9 33.1 37.85 33.45 38.9 33.55 39.05 34.1 38.85 34.75 37.4 35.1 36.65 35.5 35.7 36.1 36.05 36.85 37.25 37.05 37.65 37.75 39.05 37.9 38.8 38.15 38.35 38.3 38 38.7 37.65 39.2 37.65 39.6 38.1 39.8 38.35 40 38.75 40.5 38.75 41.1 38.05 41.4 37.65 41.95 37 43.1 37.6 43.4 39.35 43.6 40.35 43.85 42.3 44 42.3 44.1 42.45 44.2 42.5 44.25 42.6 44.35 42.55 45.5 41.5 46.65 40.5 47.3 40.1 47.9 40.75 48 40.95 48 41 48 41.3 48.4 41.15 48.9 39.95 49.45 38.7 50.35 38.25 51.25 39.15 51.55 40.9 51.6 41.15 51.9 43.55 52.2 43.4 52.75 42.4 53.5 41.1 54.05 40.45 54.15 40.55 55 41.45 55.65 42.2 56.4 42.55 57.05 41.25 57.4 40.8 58.2 39.8 59.35 39.25 59.9 41.55 60.1 42.05 60.85 40.85 60.95 40.8 61.4 40.35 62.5 40.35
L 62.85 39.75
Q 63.25 39.05 63.7 38.8 64.3 39.25 64.65 39.7 65.1 40.4 65.3 40.6 65.55 40.25 65.85 39.65 66.25 39.1 67.1 38.6 67.6 40.15 70.15 43.3 72.3 42.95 72.3 42.75 72.35 42.65 72.2 42.6 72.25 42.6 73 42.1 73.8 41.6 74.15 41.45 74.5 42.6 75.1 43.75 75.95 45.25 77.05 46.25 77.5 46.05 78.1 44.8 78.65 43.6 79.45 43.3
L 79.8 43.2
Q 80.15 43.15 80.15 43.65 80.15 44 79.85 45.45 79.7 46.05 79.6 46.55 79.85 45.95 80.35 45.1 81.45 43.35 82.9 42.65
M 49.3 9.3
Q 48.95 9.4 48.6 9.5 45.4 10.65 40.05 13.6 34.2 16.9 31.6 18 30.55 18.4 29.5 18.75 29.75 19.05 30.7 20.15 31.5 21.1 32.9 21.1 41.45 21.1 45.25 18.4 47.05 17.2 47.55 15.45 47.65 15 48.35 11.8 48.7 10.15 49.3 9.3
M 37.4 17.65
Q 37.45 17.6 37.65 17.6
L 38.1 17.7
Q 38.55 17.8 38.7 17.95 38.6 18.2 38.15 18.7
L 37.4 18.7
Q 37.4 18.75 37.35 18.7 37.25 18.65 37.25 18.15 37.25 17.65 37.4 17.65 Z"/>

<path fill="#000000" stroke="none" d="
M 193.3 56.65
Q 194 55.05 194 54.65 194 53.8 193.1 52.7
L 191 52.65
Q 189.7 53.2 189 54.2 188.75 54.55 188.05 56.1 186.9 58.75 183.6 59.85 183.05 59.9 182.55 59.9 179.5 59.7 177.45 58.3 177.2 58.1 177 57.95 176.65 57.45 176.25 56.9 174 52.65 172.6 50.2 170.05 45.75 166.95 43.5 162.8 40.45 156.6 40.45 154.45 40.45 152.7 42.1 152.3 42.45 149.7 45.7 147.7 48.2 145.7 49.35 142.95 51 139 51 135.6 51 131.8 49.4 127.8 47.7 124.45 44.6 116.45 37.2 115.85 25.75
L 115.7 25.75
Q 115.1 22.25 112.15 19.8 107.3 15.8 94 12.1 93.85 12 92.45 11.85
L 91.1 11.75
Q 80.45 9.4 67 5.6 53.05 1.65 45.9 0.05 40.55 -0.05 40.55 0.1 25.65 4.2 20.65 8.2 20.55 8.15 20.5 8.05 19.2 7.95 18.4 7.95 14.85 7.95 12.6 10.7 10.9 12.75 10.9 14.15 10.9 14.25 10.8 15.25 10.8 16.35 11.55 17.25 12.05 17.85 12.85 18.3 12.8 18.4 12.8 18.45 13.9 19.35 13.9 19.85 13.9 20.5 12.5 21.85 11.35 22.95 10.3 23.65 7.85 23.95 6.7 24.85 5.45 25.85 5.45 27.9 5.45 29 6.35 29.9 7.6 31.1 10.35 31.05 10.25 31.5 10.25 32.05 10.25 32.6 10.6 33.1 11.05 33.85 11.95 34.05 11.85 34.3 11.85 34.55 11.85 34.95 12 35.3 11.8 35.3 11.55 35.3 12.85 36.65 13.35 39.45 14 42.9 14.2 43.4 14.3 43.3 14.4 43.25 14.45 43.3 14.5 43.4
L 14.85 43.25
Q 14.85 43 14.9 42.65 14.9 42.5 14.9 42.35 14.95 41.8 15.05 41.1 15.25 39.65 15.3 39 15.55 40.1 15.7 42 15.9 44.9 15.9 45
L 16.3 45
Q 17.65 42.7 17.5 38.75
L 17.65 38.75
Q 17.9 39.7 18.1 40.9 18.3 42.15 18.3 42.75 18.3 43.1 18.25 44.3 18.15 45.45 18.15 45.95 19.35 44.85 19.65 42.4 20 38.8 20.05 38.65
L 20.2 38.8
Q 20.2 39.55 20.4 40.65 20.7 42.25 20.7 42.45
L 21.1 42.45
Q 21.45 41.35 22.2 39.55 22.85 38 23.15 37.25 23.2 37.25 23.3 37.3 24.2 37.2 24.7 38.8 25.3 40.9 25.55 41.15 26.45 40.3 27.35 38.2 27.75 37.1 27.95 36.4
L 28.05 36.5 28 36.5 27.95 36.65
Q 28.45 37.3 31.4 41.45 32.15 41 32.3 40 32.3 39.95 32.3 38.35 32.55 38.6 32.6 39.45 32.65 40.1 33.8 40.3 35.1 39.1 35.9 37.1 36 37.9 36.75 39.25 37.15 39.95 38 41.25 38.35 41 38.75 40.2 38.9 39.75 39.2 39.05 39.2 39.25 39.75 39.45 40.25 39.65 40.85 39.65 41.4 39.65 41.75 39
L 42.3 38.05
Q 42.5 40.25 43.35 44.05
L 44.25 44.05
Q 45.25 43.05 47.15 41.25
L 47.2 41.45
Q 47.2 42.95 47.4 43.4 48.3 42.85 49.15 41.45 49.45 40.95 50 39.65 50.35 40.15 50.7 42.4 50.95 44.15 52.1 44.8 52.55 44.45 53.15 43.4 53.65 42.45 54.2 42.2 54.6 42.55 55.2 42.85 56.05 43.35 56.95 43.5 57.15 43.2 57.55 42.3 58 41.4 58.7 40.9 59 41.45 59.25 42.75 59.6 43.8 60.5 44.15 60.8 44 60.9 43.7 60.9 42.8 61.5 41.3 61.6 41.5 61.75 41.95 61.9 42.3 62.25 42.45 62.95 41.8 63.9 40.05 63.9 40.95 63.95 40.95 64.15 41.45 65.25 41.45 66.1 41.45 66.45 40.9 66.65 40.6 66.75 40.05 66.9 40.95 68.05 42.6 69.4 44.45 70.45 44.45 72.2 44.45 72.45 44.15 73.15 43.1 73.7 42.7 74 43.3 74.65 45.45 75.5 47.25 77.15 47.25 78.1 47.25 78.4 46.7 78.6 46.35 78.75 45.8 78.75 46.55 78.8 46.9 78.85 47.5 79.15 47.9
L 79.4 47.8
Q 79.4 48.05 79.55 48.05 79.6 48.05 80.1 48 81.75 46.8 83.7 42.95 83.7 42.7 83.7 42.55
L 83.7 42.5
Q 83.85 42.45 83.95 42.35 84.4 43.4 84.85 44.6 87.05 50.4 87.05 51.5 87.05 52.25 85.45 56.85 84.9 58.6 84.3 60.25 84 60.55 83.55 61.25 83.15 61.3 82.7 61.45 82.25 61.6 81.85 61.8 81.8 61.75 81.65 61.75
L 81.4 61.65
Q 81.35 61.65 81.15 61.85 81.15 61.7 81.15 61.4 81.15 60.6 80.5 59.55 80.15 59 79.85 58.8 79.8 58.45 79.65 58.4
L 79.45 58.45
Q 78.7 58.9 77.85 59.6 77.2 60.2 76.95 60.25 76.7 59.65 76.3 56.95 76 55.05 74.65 53.95 72.75 55.95 71.8 56.85 70.1 58.55 67.3 59.25 67.2 59.05 67 58.55 66.8 58.05 66.55 57.8 65.95 58.15 65.4 58.65 64.95 59 64.8 59 64.4 59 63.9 58.75 63.5 58.55 63.35 58.6 63.35 58.7 63.25 59.05 63.2 59.3 63.05 59.3 62.85 58.5 62.65 57.95 62.3 56.85 61.45 56.85 60.95 56.85 60.85 57.05
L 60.75 57.2
Q 60.65 58.25 60.15 59.3 59.7 60.15 59.25 60.6 58.75 59.1 58.45 58.25 57.9 56.7 57 56.3 56.45 56.8 56 58.2 55.7 59.05 55.5 59.95 55.5 59.3 55.3 58.8 54.95 57.8 53.75 57.8 53.45 57.8 52.75 58.85 52.05 59.95 51.7 60.05
L 51.25 59.65
Q 51.25 57.2 51 56.3 50.4 56.75 49.4 58.35 48.4 60.15 48.15 60.6
L 48 60.55 48.05 59.05
Q 48.1 58.2 47.3 57.8
L 45.45 59.4
Q 44.85 59.4 44.55 59 44.3 58.6 44.1 58.45 43.4 58.8 43.05 59.4 42.8 60.05 42.65 60.3
L 42.55 60.25 42.55 54.65
Q 43.2 52.3 43.2 51.3 43.2 50.8 43.05 50.75
L 42.95 50.85 42.55 50.85
Q 41.2 54.6 37.2 60.6
L 37.05 60.55
Q 37 60.4 36.75 59.3 36.6 58.55 36.35 58.15 34.7 58.6 34.1 57.2 33.75 55.5 33.65 54.95
L 33.15 55.05
Q 32.7 55.85 32.1 57.25 31.75 58 31.3 59 31 56.65 31 52.1
L 30.35 52.1
Q 30.2 53.4 29.45 55.1 28.6 56.95 27.55 58.05 26.25 57.4 25.7 56.65 25.1 55.65 24.45 54.9 24.1 55.35 23.2 56.65 22.45 57.85 22.15 58.15 21.6 57.15 20.85 54.4 20.1 51.9 19.35 50.7 18.9 51.85 18 54.3 17.2 56.55 16.55 57.75 16.75 56.5 16.95 54.75 17.15 53.05 17.15 52.4 17.15 51.9 17.1 51.85 16.9 51.8 16.75 51.7 16.15 52.15 16.05 52.15 15.95 53.4 15.25 54.85 14.1 57.25 14.05 57.4
L 13.95 57.3
Q 14 57.2 14.65 54.6 15.25 52.45 15.25 51.75 15.25 51.2 15.2 51.1 15.15 51 15 50.85
L 14.5 50.85
Q 14.3 53.7 11.95 56.25 10.5 57.45 9.95 57.95 9.9 57.75 9.85 57.55
L 9.4 57.55
Q 9.35 57.7 9.35 57.95 7.55 57.7 6.55 60.15 5.8 61.95 5.75 63.6 2.4 62.8 0.9 65.4 0 66.95 0 68.7 0 69.9 0.05 70.1 0.2 70.55 1.1 71.35
L 4.25 71.45
Q 5.25 71.45 6.05 71.5 6.1 72.9 6.7 73.65 7.35 74.5 7.35 75.15 7.35 76.05 6.9 77.35 6.8 77.6 6.45 78.4 5.5 78.5 4.55 80.05 3.5 81.65 3.5 82.45 3.5 83 3.9 83.45 4.85 84.65 4.95 84.85 5.95 86.35 7.8 86.1 10.15 85.8 10.95 86.25 12.7 87.2 13.8 88.7 15.45 90.85 15.9 91.3
L 19.35 91.4
Q 20.6 91.4 21.35 90.7 22.3 89.85 23.2 89.6 24.65 89.3 27 88.55 29.25 87.95 31.8 87.95 31.8 88.1 31.85 88.15 31.95 88.2 31.95 88.1 32.1 88.05 32.25 88 32.35 88 32.4 88.05 32.55 88.1 32.6 88.1
L 32.6 87.85
Q 34.4 86.95 36.45 85.15 39.25 83.35 45.3 82.8 46 82.9 52.05 84.3 58.7 85.6 63.35 85.6 75.2 85.6 81.45 84.55 88.1 83.35 89.5 80.75 91.05 77.8 96 74.3 96.1 74.25 96.15 74.15 96.15 74.3 96.15 74.45 96.4 74.25 96.75 74.05 97.4 73.65 97.95 73.5 98.4 72.95 99.15 72.65 102.6 71.05 119 69.7 123.9 69.35 128 67.55 130.4 66.55 134.6 64.3 137.55 62.85 148.65 56.1 154.15 52.75 159.1 49.7 162.35 49.7 164.75 52.2 165.8 53.3 168.6 57.8 171.05 61.65 173.3 63.4 176.6 65.9 181.45 65.9 187.2 65.9 191.15 60.5 192.4 58.7 193.3 56.65
M 168.35 45.6
Q 169.5 46.9 170.8 48.85 172 50.8 172.25 51.05 173.15 52 173.55 53.6 174.1 55.6 174.4 56.2 174.8 56.95 175.7 57.65 176.1 58.25 177.05 58.9 179 60.1 182.55 60.55 183.2 60.7 183.9 60.85 185.1 60.15 188.55 56.75 191.8 53.65 191.95 53.65 192.4 53.65 192.7 53.75 193.05 53.85 193.1 53.85
L 193.1 54
Q 193.15 54.2 193.15 54.7 192.7 57.3 190.5 59.8 186.15 64.8 177.6 64.8 175.1 64.8 172.95 62.3 172.1 61.3 169.3 56.8 166.95 53 164.95 51.3 162 48.8 158.2 48.8 154.3 51.3 149.5 54.35 139.8 60.5 135.05 63.1 128.85 66.55 121 68.2 116.4 69.15 108.5 69.85 104.45 70.2 102.05 70.55 104.55 69.25 107.3 68.1 115.7 64.65 125.2 63.25 114.85 64 107.05 67.1 103.45 68.55 98.8 71.4 97.85 71.8 97.2 72.4 96.7 72.7 96.15 73.05 93.8 74.6 91.85 76.4 90.15 78.05 89 79.6 87.35 81.9 81.9 83.1 74.45 84.7 58.95 84.7 58.2 84.7 52.5 83.3 46.75 81.9 41.85 81.9 40.55 81.9 36.05 84.7 33.1 86.55 32.2 87.2 31.8 87.15 31.15 87.1 30.2 87.05 29.3 87.05 28.1 87.05 22.95 88.7 17.65 90.4 16.55 90.5 15.7 90.15 14.7 88.5 13.7 86.75 12.75 86.15 10.8 85 6.95 84.25 5.55 83.95 5.05 83.7 4.35 83.3 4.35 82.55 4.35 82.2 5.65 80.6 6.25 79.9 6.95 79.05 7.85 78.3 8.05 77.35 8.15 76.95 8.15 75.05 8.35 72.85 8.2 72.15 8.1 71.8 7.9 71.6 9.05 71.7 9.75 71.9 10.55 72.15 10.75 72.35 11.25 72.35 11.4 72.25 11.45 72.15 11.4 72.1
L 11.4 71.35
Q 10.85 70.8 10.25 70.5 9.2 70 6.15 70 5.85 70 4.45 70.3 2.95 70.55 1.7 70.55 1.05 70.3 0.85 69.55 0.75 69.3 0.75 68.6 0.75 68.35 0.85 67.9 1.05 67.1 1.4 66.5 2.6 64.45 5.45 64.45 5.8 64.45 6 64.65 6.15 65.05 6.45 65.35 8.25 64.7 10.05 66.35 11.2 67.35 11.55 67.6 12.5 68.25 13.55 68.25 14.15 68.25 16.15 67.9 18.1 67.55 18.4 67.45
L 27.25 67.35
Q 27.45 67.55 29.9 67.7 30 67.8 31.55 67.9 32.35 67.95 33.1 68 33.85 68.8 35.8 68.9 36.75 68.95 37.65 68.9 37.95 68.9 39.25 68.45 40.6 68 41.1 68 42.6 68 45.25 68.95 47.85 69.85 52.1 69.85 53.3 69.85 57.15 68.3 61.55 66.6 62.1 66.45
L 71 66.4
Q 72.75 68.15 75.6 67.65 77 67.35 80.4 65.85 81.85 65.2 83.1 63.9 83.2 63.7 84.5 62.5 85.55 61.45 85.95 60.4 85.85 60.25 85.55 60.15 86.1 58.7 86.8 56.1 87.9 52.1 87.9 51.2 87.9 50.1 85.25 43.75 84.65 42.35 84.15 41.25 84.15 41.15 84.2 41.05 84.35 40.4 84.35 40 84.35 39.35 83.2 38.6 81 37.95 80.25 37.3
L 80.3 37.25
Q 80.15 37.15 80 37.1 79.9 37.05 79.85 37 77.3 36 73.4 34.9 63.35 32.05 59.85 32.05 59.45 32.05 58.3 32.35 57.1 32.65 56.7 32.65 56.1 32.65 53.3 31.75 51.85 31.25 50.95 31
L 50.95 30.8
Q 49.9 29.8 47 29.25 45.8 29 42 28.65 38.75 28.45 37.1 29.05 35.35 29.75 34.55 29.75 33.45 29.45 32.15 29.15 29.45 28.55 27.05 28.55 26.5 28.55 25.2 29.3 23.9 30.1 23.45 30.1 23.15 30.1 22.8 29.55 22.35 28.9 21.75 28.65 20.1 28.55 19.35 28.55 18.1 28.55 16.8 29.2 15.45 29.9 14.6 29.9 14.2 29.9 13.65 29.6 13.15 29.25 12.75 29.25 12.65 29.25 12.6 29.25 12.6 29.2 12.55 29.2
L 12.4 29.25
Q 12.35 29.25 12.25 29.3 11.45 29.4 11 29.85 10.15 30.1 8.45 30.1 7.45 30.1 6.9 29.3 6.45 28.6 6.45 27.7 6.45 26.2 7.05 25.45 7.45 24.85 10 24.45 10.7 24.35 11.3 24.25 11.3 24.35 11.35 24.35 11.45 24.4 11.45 24.45 14 24.55 15.4 24.95 16.15 25.15 17.15 25.75
L 19.65 25.8
Q 19.7 25.8 25.75 25.2 32.1 24.6 33.7 24.6 33.75 24.6 35.55 25.35 36.65 25.8 37.25 26 37.25 25.6 37.5 25.25 37 24.9 36.55 24.65 34.5 23.75 28.65 23.75 26.8 23.75 23.55 24.3 20.35 24.9 17.8 24.9 17.75 24.9 15.95 24.15 14.45 23.55 13.05 23.45 13.5 22.9 13.95 22.1 14.9 20.4 14.9 19.95 14.9 19.7 14.3 19 14.26328125 19 14.25 18.95 14.2265625 18.96171875 14.2 18.95 13.65 18.65 13.2 18.1 12.75 17.55 12.4 16.75 11.7 15.1 11.7 13.95 11.7 13.75 12.05 13.1 12.5 12.15 13.25 11.35 15.6 8.85 19.9 8.85 19.05 9.6 18.6 10.4 18.8 10.6 19.65 10.7 22.95 7.35 28.05 5.2 34.35 2.55 45.3 0.8 47.95 1.55 64.7 6.5 76.5 10.05 83.25 11.4 83.35 11.55 84.6 11.65 85.2 11.7 85.8 11.75 85.9 11.9 87.35 12.1 88.75 12.3 90.3 12.4 90.4 12.5 91.8 12.6 92.5 12.65 93.2 12.7 99.75 13.7 104.3 16.1 106.9 17.45 110.95 20.2 113.25 21.4 114.1 24.35 114.3 25.1 114.65 26.55 114.7 26.65 114.75 26.75 114.8 29.2 115.75 32.4 117.05 36.6 119.45 40.2 126 50 138.2 51.6 138.3 51.7 139.8 51.8 140.95 51.85 141.8 51.85 144.65 51.85 146.85 50.2 147.95 49.3 150.15 46.6 152.25 44 153.8 42.95 156.3 41.3 159.75 41.3 164.6 41.3 168.35 45.6
M 83.15 40.55
L 83.15 40.6
Q 82.05 39.55 79.25 39.55 77 39.55 76.7 38.9 76.55 38.5 76.45 38.4 76.15 38.2 75.25 38.2 71.55 38.2 69 37.05 67.1 35.95 66.55 35.95 65.7 35.95 65.5 35.6 65.3 35.3 64.7 35.3 64.3 35.3 62 36.35 59.7 37.4 58.65 37.5 58.65 36.45 58.45 36.05 58.05 35.4 56.9 35.4 56.5 35.4 55.85 35.8 55.15 36.15 54.75 36.15 53.1 36.15 52.5 34.95 52.15 34.25 52.05 34.15 51.7 33.75 51.1 33.75 50.4 33.75 47.5 35.15 44.65 36.45 44.4 36.4 44.1 36.1 44.1 35.55 44.05 34.85 44.05 34.8 43.8 34.2 40.95 34.9
L 40.95 32.8
Q 40.3 32.75 39.25 32.6 38.45 32.45 37.65 32.4
L 35.15 33.6
Q 33.2 32.9 32.25 33.55 31.45 34.55 30.9 34.85 30.6 34.55 30.5 34.05 30.4 33.4 30.35 33.15 30 32.05 28 32.05 27.65 32.05 27.25 32.35 26.9 32.65 26.5 32.65 25.8 32.65 24.5 33.3 23.2 33.9 22.55 33.9 22.45 33.9 22 34.05 21.2 34.3 19.5 34.55 19 34.3 18.8 33.35 18.6 32.5 17.7 32.5 16.9 32.5 15.9 33.05 15.05 33.6 15 33.6 14.6 33.6 14.35 33.2 14.1 32.8 13.75 32.8 13.1 32.8 12.7 33.1
L 11.7 32.1
Q 11.4 31.75 11.4 31.65 11.4 31.1 11.5 30.95
L 11.5 30.9
Q 11.85 30.8 12.2 30.5 12.25 30.45 12.3 30.4 12.4 30.35 12.6 30.35 12.7 30.35 13.6 30.7 14.4 30.95 14.85 30.95 15.95 30.95 16.9 30.25 17.8 29.5 20.45 29.5 21.55 29.5 22.15 30.4 22.75 31.3 23.5 31.3 23.85 31.3 25.3 30.35 27.2 29.4 29.9 29.4 31.3 29.4 32.75 30.05 34.25 30.65 35.1 30.65 35.45 30.65 36.95 29.95 38.45 29.25 38.7 29.25 39.5 29.25 41.45 29.4 43.7 29.65 46.3 30.6 47.9 31.2 49.55 31.4 49.55 31.45 49.6 31.45 49.7 31.7 49.7 31.85 52 31.95 53.55 32.8 55 33.55 58.55 33.55 59.65 33.55 62.1 33.95 63.75 34.25 69.4 35.2 69.5 35.3 71.05 35.45 71.85 35.5 72.6 35.55 73.75 35.7 78.25 37.4 81.4 38.6 82.55 39.35 82.85 39.85 83.15 40.55
M 82.9 42.2
Q 82.9 42.45 82.9 42.65 81.45 43.35 80.35 45.1 79.85 45.95 79.6 46.55 79.7 46.05 79.85 45.45 80.15 44 80.15 43.65 80.15 43.15 79.8 43.2
L 79.45 43.3
Q 78.65 43.6 78.1 44.8 77.5 46.05 77.05 46.25 75.95 45.25 75.1 43.75 74.5 42.6 74.15 41.45 73.8 41.6 73 42.1 72.25 42.6 72.2 42.6 72.35 42.65 72.3 42.75 72.3 42.95 70.15 43.3 67.6 40.15 67.1 38.6 66.25 39.1 65.85 39.65 65.55 40.25 65.3 40.6 65.1 40.4 64.65 39.7 64.3 39.25 63.7 38.8 63.25 39.05 62.85 39.75
L 62.5 40.35
Q 61.4 40.35 60.95 40.8 60.85 40.85 60.1 42.05 59.9 41.55 59.35 39.25 58.2 39.8 57.4 40.8 57.05 41.25 56.4 42.55 55.65 42.2 55 41.45 54.15 40.55 54.05 40.45 53.5 41.1 52.75 42.4 52.2 43.4 51.9 43.55 51.6 41.15 51.55 40.9 51.25 39.15 50.35 38.25 49.45 38.7 48.9 39.95 48.4 41.15 48 41.3 48 41 48 40.95 47.9 40.75 47.3 40.1 46.65 40.5 45.5 41.5 44.35 42.55 44.25 42.6 44.2 42.5 44.1 42.45 44 42.3 43.85 42.3 43.6 40.35 43.4 39.35 43.1 37.6 41.95 37 41.4 37.65 41.1 38.05 40.5 38.75 40 38.75 39.8 38.35 39.6 38.1 39.2 37.65 38.7 37.65 38.3 38 38.15 38.35 37.9 38.8 37.75 39.05 37.05 37.65 36.85 37.25 36.1 36.05 35.5 35.7 35.1 36.65 34.75 37.4 34.1 38.85 33.55 39.05 33.45 38.9 33.1 37.85 32.8 36.9 32.35 36.65 31.35 37 31.2 37.75 31.15 38.2 31.05 39.05 31 38.65 30.1 37.65 29.15 36.5 28.35 36.25 28.3 36.25 28.3 36.3 28.15 36.15 28.05 36.05 28.1 35.75 28.1 35.55 28.1 35.05 28 35
L 27.85 35.05
Q 26.85 35.15 26.25 36.75 25.95 37.6 25.7 39.05
L 25.55 39.05
Q 25.55 38.35 24.9 37 24.3 35.6 23.85 35.6 23.4 35.6 23.3 35.75 23.25 35.85 23.2 35.85
L 23.15 36
Q 23.15 36.2 23.15 36.7 23.15 36.75 23.15 36.8 23 36.7 22.85 36.65
L 22.55 36.55
Q 22.05 37.2 21.7 38.3 21.15 39.9 21.1 40.05
L 21.05 39.95
Q 21.35 39 20.75 37.75 20.05 36.5 19.7 35.75 20.05 35.6 22.5 34.45 25.3 33.15 25.4 33.15 25.75 33.15 25.75 33.45 25.75 33.75 26.15 33.75 26.55 33.75 27.35 33.4 28.1 33.05 28.5 33.05 28.95 33.05 29.15 33.5 29.25 33.75 29.35 34.4 29.7 35.8 31.55 35.8 31.7 35.8 32.65 35 33.6 34.25 34.4 34.25 34.8 34.25 34.75 34.65 34.7 35.05 35.1 35.05 35.25 35.05 36.4 34.2 37.55 33.3 38.55 33.3 39.3 33.3 40.15 33.6 40.15 34.3 40.2 34.65 40.3 35.2 40.6 35.7
L 43.05 35.85
Q 43.1 36.1 43.1 36.8 43.35 37.3 44.85 37.3 44.9 37.3 48.05 35.95 51.25 34.55 51.4 34.55 51.65 35.3 52.2 35.9 53.25 37 54.95 37 55.45 37 56.15 36.75 56.5 36.6 57 36.35 57.1 36.45 57.65 37.45 58 38.1 58.3 38.25
L 60.35 38.25
Q 60.5 38.2 61.2 37.7 62.05 37.3 63.55 37.3 63.65 37.3 63.9 36.8 64.1 36.35 64.5 36.35 66.2 36.35 70.6 39 71.35 39.5 72.9 39.55 74.35 39.6 75.5 39.25 75.65 39.3 76.25 40 76.75 40.6 77.85 40.6 82.9 40.6 82.9 42.2
M 82.8 62.4
Q 82.2 63.35 81.6 63.9 78.15 67.35 71.8 65.75 71.6 65.6 61.75 65.5 59.4 66.55 56.95 67.35 52.25 68.95 49 68.95
L 44.55 68.05
Q 40.15 67.15 39.9 67.15 39.5 67.15 38.7 67.45 37.9 67.75 37.5 67.75 37.2 67.75 36.2 67.65 35.05 67.45 33.55 67.35 33.4 67.3 32.05 67.15
L 30.65 67.05
Q 30.55 66.95 29.15 66.8
L 27.8 66.7
Q 27.55 66.55 18.05 66.45 17.85 66.55 17.1 66.7
L 16.45 66.8
Q 16.25 66.9 14.9 67.1 13.6 67.3 13 67.3 12.15 67.3 10.15 65.6 8.25 64 6.6 64.15
L 6.6 63.9
Q 6.65 63.6 6.85 62.3 6.95 61.3 7.2 60.8 7.6 59.95 8.65 59.2 8.95 59 9.2 58.8 9.2 58.85 9.15 58.95 9 59.75 9 60.2 9 60.3 9 60.95 9.3 61.5 10.95 61.5 11.45 61.5 11.5 61.35 11.65 61.85 11.85 63.1 12.2 64.3 13.35 64.3 14.1 64.3 15.7 63.4 16.55 62.95 17.25 62.5 18.25 62.5 18.6 62.3 18.9 62.1 19.8 62.1 20.25 62.1 20.85 63.25 21.45 64.35 22.55 64.35 22.7 64.35 23.95 63.2 25.25 62.05 25.85 62.05 26.25 62.05 26.75 61.75 27.25 61.5 27.65 61.5 27.9 61.5 30.1 62.6 32.35 63.75 35.1 63.75 35.5 63.75 37.5 63.9 39.5 64.05 39.9 64.05 40.4 64.05 40.45 63.85 40.5 63.45 40.55 63.4 40.65 63.5 41.45 64.1 41.75 64.35 42.8 64.35 43.15 64.35 44.4 63.85 45.05 63.55 45.7 63.25
L 48.3 63.25
Q 48.8 63.5 49.65 64.55 50.25 65.3 51.25 65.3 51.95 65.3 52.3 65 52.55 64.85 52.9 64.4 53.8 63.5 56.45 63.5 57.65 63.5 58.95 63.95 60.25 64.35 61.45 64.35 61.65 64.35 63.85 63.55 66 62.7 67.65 62.7 68.7 62.7 70.45 63.25 72.2 63.75 73.3 63.75 73.9 63.75 74.35 63.15 74.85 62.55 76.5 62.55 76.7 62.55 77.65 63.1 78.65 63.65 79.4 63.65 81 63.65 81.7 62.8 81.9 62.7 82.8 62.4
M 13 35.7
Q 12.9 35.3 12.9 35.15 12.9 34.8 13.2 34 13.45 34.1 14.4 34.65 14.65 34.85 15.45 34.85 15.5 34.85 16.3 34.3 17.15 33.75 17.8 33.75 18.05 33.75 18.4 34.75 18.8 35.75 19.6 35.8 19.4 36.55 19.25 37.75 19.1 39.15 18.95 39.75
L 18.8 39.75
Q 18.75 38.25 17.1 35.6 16.7 37.55 16.7 41.65
L 16.55 41.65
Q 16.7 40.35 16.05 38.4 15.25 36.25 15 35.4
L 14.45 35.4
Q 14.45 36.5 14.35 38.35 14.25 38.1 14.15 37.85 13.65 36.4 12.95 35.75
L 13 35.7
M 32.9 57.6
Q 33.1 57.85 33.65 58.6 34.35 59.3 35.95 59.65 35.95 60.9 36.45 61.75 38.55 60.55 39.85 58.35 40.6 57.15 41.7 55.05 41.75 56.25 41.55 58.7 41.6 60.8 42.8 62.1 43.5 61.6 45.1 60.7 46.45 59.95 47.15 59.25
L 47.2 59.4
Q 47.35 59.85 47.2 60.85 47.2 61.7 48.3 62.1 48.7 61.45 49.4 60.2 50.1 58.9 50.35 58.3
L 50.45 58.45
Q 50.45 58.75 50.25 60.05 50.35 61.15 52.1 61.15 52.55 61.15 53.3 60.15 54.15 58.9 54.3 58.75 54.35 58.8 54.7 60.2 55 61.15 55.85 61.4 56.05 60.95 56.4 59.5 56.65 58.45 57.25 57.9 57.4 58.15 57.8 60.05 58.5 61.8 59.85 61.8 60.1 61.8 60.8 60.25 61.5 58.65 61.5 58.05
L 61.65 58.05
Q 61.75 58.15 62.15 59.85 62.4 61 63.55 61.4 64.3 60.65 64.85 60.25 65.45 59.8 66 59.25 66.45 59.5 66.85 59.95 67.2 60.25 67.85 60.25 69.9 60.25 72.3 57.85 73.55 56.65 74.8 55.05 75.15 55.9 75.2 58.7 75.45 61.1 77.15 61.1 77.45 61.1 78.65 60.15 79.05 59.8 79.35 59.55 79.45 60 79.7 60.6 80.05 61.75 80.5 62.4
L 80.55 62.4
Q 80 62.85 79.2 62.85 78.6 62.85 78.3 62.65 78.1 62.3 77.95 62.15 77.35 61.45 74.95 61.65 74.45 62.05 74 62.35 73.15 62.85 72.15 62.85 72 62.85 67.25 61.65 65.4 61.65 63.85 62.45 62.25 63.25 61.3 63.25 60.9 63.25 59.6 62.95 58.3 62.65 57.9 62.65 57.45 62.65 55.8 62.45 54.15 62.3 54.05 62.3 53.45 62.3 52.75 63.2 52 64.15 51.3 64.15 50.7 64.15 50.5 63.85 50.25 63.45 50.05 63.2 49.2 62.3 45.7 62.3 44.95 62.3 43.95 62.85 42.85 63.4 41.95 63.5 41.9 63.15 41.8 62.85 41.55 62.4 40.8 62.4 40.4 62.4 39.75 62.8 39.1 63.2 38.7 63.2 37.2 63.2 36.9 62.75 36.55 62.3 35.7 62.3 35.35 62.3 34.3 62.6 33.3 62.85 32.9 62.85 32.5 62.85 27.4 60.4 26.6 60.4 24.9 61.55 22.9 62.95 22 63.25 21.65 62.4 21.35 61.95 20.75 61.1 19.75 61.1 19.3 61.1 18.75 61.45 18.2 61.8 18.15 61.8 18.15 61.45 18.05 61.35 17.9 61 17.4 61 17.25 61 15.95 62.2 14.65 63.4 13.55 63.4 13.05 63.4 12.95 63.3
L 13 63.2
Q 12.7 61.95 12.5 61.35 12.25 60.3 11.8 59.8 11.35 59.75 10.9 60.1 10.15 60.6 10.1 60.6 9.95 60.5 9.85 60.35
L 9.8 60.25
Q 10 59.5 10.05 58.8 11.2 58.5 12.15 57.35 12.75 56.65 13.5 55.5 13.65 56.1 13.1 57.3 12.5 58.65 12.5 58.95 12.5 59.5 12.65 59.7 12.75 59.8 13.2 59.85 14.3 58.8 15.6 56.35
L 15.7 56.5
Q 15.7 58.9 15.9 60.15 17.15 59 18 57.05 18.5 55.95 19.4 53.8 19.55 53.95 19.55 54.2 19.55 54.4 19.75 54.95 19.9 55.55 19.9 56 19.9 56.4 19.55 57.9 19.25 59.45 19.25 59.85 19.25 60.35 19.4 60.45
L 19.95 60.55
Q 20 60.35 20.5 59.5 21.05 58.45 21.1 58.3 21.25 58.5 21.35 59 21.55 59.45 22.2 59.55 22.8 59.3 23.45 58.55 24.25 57.5 24.4 57.4 24.55 57.95 25.75 58.55 26.9 59.15 27.7 59.15 28.65 59.15 29.3 57.8 29.7 57.05 30.1 55.7 30.45 59.15 31 61.75
L 31.4 61.75
Q 32.7 59.55 32.9 57.6
M 61.5 70.35
L 61.3 70.1
Q 59.9 70.1 58.95 70.55 58.5 70.7 57.45 71.45 55.45 72.8 52.2 72.8 43.45 70.7 42.5 70.65
L 42.1 70.75 42.1 71.15
Q 42.35 71.15 47.35 72.45 52.45 73.7 53.4 73.7 55.9 73.7 58.7 72.3 60.8 71.2 61.5 70.35
M 19.75 84.35
Q 19.85 84.35 19.95 84.25
L 21.05 83.35 21.2 83.55
Q 21.2 84 21.35 84.25 21.95 84 24.9 81.55 25.55 81 26.1 80.55 26 80.75 26 81.05 26 81.55 26.05 81.55 26.05 81.6 26.15 81.65
L 26.55 81.65
Q 26.65 81.6 27 80.9 27.35 80.15 27.45 79.95
L 27.2 79.75
Q 27.1 79.75 27 79.8 27.8 79.05 27.8 78.95 27.8 78.45 27.65 78.4
L 27.55 78.45
Q 27 78.5 25.35 80.05 23.3 82 22.75 82.4
L 22.75 82.3
Q 22.95 82.05 22.95 81.35
L 22.2 81.3
Q 21.05 81.75 20.3 82.6 19.55 83.35 19.55 83.85 19.55 84.35 19.75 84.35
M 14.3 77.15
Q 14 76.2 13.8 75.55 13.45 74.4 12.6 74.2 12.6 74.25 12.4 74.35 12.2 74.45 12.2 74.6 12.5 75.65 12.8 76.2 13.1 76.85 13.65 77.5 14.2 77.4 14.3 77.15
M 13.8 74.85
Q 13.8 74.95 13.8 75 14.2 75.45 14.35 76.85 14.45 77.95 15.15 78.2 15.4 78.1 15.55 77.7 15.5 77.65 15.1 75.9 14.85 74.75 13.95 74.6 13.85 74.7 13.8 74.85
M 70.25 12.2
Q 71.75 13.25 73.1 13.85 73.7 13.75 73.75 13.5 72.35 12.9 71.1 11.9 69.3 10.4 69 10.2 66.1 8.3 58.95 7.6 58.8 7.5 55.95 7.45 53.1 7.45 53.1 7.5 46.2 9.6 40.95 12.15 36 14.8 33.95 15.85 30.55 17.55 27.05 18.25 22.65 19.15 15.25 19.15 14.958203125 19.15 14.7 19.1 17.4912109375 20 22.2 20 25.65 20 29.3 18.85 29.2 19.05 29.2 19.4 29.35 19.65 29.55 20.3 29.7 20.85 29.95 21.1 30.75 21.95 34.1 21.95 44.45 21.95 48.4 16 50.35 13 50.25 9.5 50.25 9.15 50.15 9 54.25 7.85 58.15 8.2 64.65 8.85 67.85 10.6 68.45 10.95 70.25 12.2
M 48.6 9.5
Q 48.95 9.4 49.3 9.3 48.7 10.15 48.35 11.8 47.65 15 47.55 15.45 47.05 17.2 45.25 18.4 41.45 21.1 32.9 21.1 31.5 21.1 30.7 20.15 29.75 19.05 29.5 18.75 30.55 18.4 31.6 18 34.2 16.9 40.05 13.6 45.4 10.65 48.6 9.5
M 37.65 17.6
Q 37.45 17.6 37.4 17.65 37.25 17.65 37.25 18.15 37.25 18.65 37.35 18.7 37.4 18.75 37.4 18.7
L 38.15 18.7
Q 38.6 18.2 38.7 17.95 38.55 17.8 38.1 17.7
L 37.65 17.6 Z"/>

<path fill="#FFCCFF" stroke="none" d="
M 81.6 63.9
Q 82.2 63.35 82.8 62.4 81.9 62.7 81.7 62.8 81 63.65 79.4 63.65 78.65 63.65 77.65 63.1 76.7 62.55 76.5 62.55 74.85 62.55 74.35 63.15 73.9 63.75 73.3 63.75 72.2 63.75 70.45 63.25 68.7 62.7 67.65 62.7 66 62.7 63.85 63.55 61.65 64.35 61.45 64.35 60.25 64.35 58.95 63.95 57.65 63.5 56.45 63.5 53.8 63.5 52.9 64.4 52.55 64.85 52.3 65 51.95 65.3 51.25 65.3 50.25 65.3 49.65 64.55 48.8 63.5 48.3 63.25
L 45.7 63.25
Q 45.05 63.55 44.4 63.85 43.15 64.35 42.8 64.35 41.75 64.35 41.45 64.1 40.65 63.5 40.55 63.4 40.5 63.45 40.45 63.85 40.4 64.05 39.9 64.05 39.5 64.05 37.5 63.9 35.5 63.75 35.1 63.75 32.35 63.75 30.1 62.6 27.9 61.5 27.65 61.5 27.25 61.5 26.75 61.75 26.25 62.05 25.85 62.05 25.25 62.05 23.95 63.2 22.7 64.35 22.55 64.35 21.45 64.35 20.85 63.25 20.25 62.1 19.8 62.1 18.9 62.1 18.6 62.3 18.25 62.5 17.25 62.5 16.55 62.95 15.7 63.4 14.1 64.3 13.35 64.3 12.2 64.3 11.85 63.1 11.65 61.85 11.5 61.35 11.45 61.5 10.95 61.5 9.3 61.5 9 60.95 9 60.3 9 60.2 9 59.75 9.15 58.95 9.2 58.85 9.2 58.8 8.95 59 8.65 59.2 7.6 59.95 7.2 60.8 6.95 61.3 6.85 62.3 6.65 63.6 6.6 63.9
L 6.6 64.15
Q 8.25 64 10.15 65.6 12.15 67.3 13 67.3 13.6 67.3 14.9 67.1 16.25 66.9 16.45 66.8
L 17.1 66.7
Q 17.85 66.55 18.05 66.45 27.55 66.55 27.8 66.7
L 29.15 66.8
Q 30.55 66.95 30.65 67.05
L 32.05 67.15
Q 33.4 67.3 33.55 67.35 35.05 67.45 36.2 67.65 37.2 67.75 37.5 67.75 37.9 67.75 38.7 67.45 39.5 67.15 39.9 67.15 40.15 67.15 44.55 68.05
L 49 68.95
Q 52.25 68.95 56.95 67.35 59.4 66.55 61.75 65.5 71.6 65.6 71.8 65.75 78.15 67.35 81.6 63.9
M 83.15 40.6
L 83.15 40.55
Q 82.85 39.85 82.55 39.35 81.4 38.6 78.25 37.4 73.75 35.7 72.6 35.55 71.85 35.5 71.05 35.45 69.5 35.3 69.4 35.2 63.75 34.25 62.1 33.95 59.65 33.55 58.55 33.55 55 33.55 53.55 32.8 52 31.95 49.7 31.85 49.7 31.7 49.6 31.45 49.55 31.45 49.55 31.4 47.9 31.2 46.3 30.6 43.7 29.65 41.45 29.4 39.5 29.25 38.7 29.25 38.45 29.25 36.95 29.95 35.45 30.65 35.1 30.65 34.25 30.65 32.75 30.05 31.3 29.4 29.9 29.4 27.2 29.4 25.3 30.35 23.85 31.3 23.5 31.3 22.75 31.3 22.15 30.4 21.55 29.5 20.45 29.5 17.8 29.5 16.9 30.25 15.95 30.95 14.85 30.95 14.4 30.95 13.6 30.7 12.7 30.35 12.6 30.35 12.4 30.35 12.3 30.4 12.25 30.45 12.2 30.5 11.85 30.8 11.5 30.9
L 11.5 30.95
Q 11.4 31.1 11.4 31.65 11.4 31.75 11.7 32.1
L 12.7 33.1
Q 13.1 32.8 13.75 32.8 14.1 32.8 14.35 33.2 14.6 33.6 15 33.6 15.05 33.6 15.9 33.05 16.9 32.5 17.7 32.5 18.6 32.5 18.8 33.35 19 34.3 19.5 34.55 21.2 34.3 22 34.05 22.45 33.9 22.55 33.9 23.2 33.9 24.5 33.3 25.8 32.65 26.5 32.65 26.9 32.65 27.25 32.35 27.65 32.05 28 32.05 30 32.05 30.35 33.15 30.4 33.4 30.5 34.05 30.6 34.55 30.9 34.85 31.45 34.55 32.25 33.55 33.2 32.9 35.15 33.6
L 37.65 32.4
Q 38.45 32.45 39.25 32.6 40.3 32.75 40.95 32.8
L 40.95 34.9
Q 43.8 34.2 44.05 34.8 44.05 34.85 44.1 35.55 44.1 36.1 44.4 36.4 44.65 36.45 47.5 35.15 50.4 33.75 51.1 33.75 51.7 33.75 52.05 34.15 52.15 34.25 52.5 34.95 53.1 36.15 54.75 36.15 55.15 36.15 55.85 35.8 56.5 35.4 56.9 35.4 58.05 35.4 58.45 36.05 58.65 36.45 58.65 37.5 59.7 37.4 62 36.35 64.3 35.3 64.7 35.3 65.3 35.3 65.5 35.6 65.7 35.95 66.55 35.95 67.1 35.95 69 37.05 71.55 38.2 75.25 38.2 76.15 38.2 76.45 38.4 76.55 38.5 76.7 38.9 77 39.55 79.25 39.55 82.05 39.55 83.15 40.6 Z"/>

<path fill="#FF0000" stroke="none" d="
M 170.8 48.85
Q 169.5 46.9 168.35 45.6 164.6 41.3 159.75 41.3 156.3 41.3 153.8 42.95 152.25 44 150.15 46.6 147.95 49.3 146.85 50.2 144.65 51.85 141.8 51.85 140.95 51.85 139.8 51.8 138.3 51.7 138.2 51.6 126 50 119.45 40.2 117.05 36.6 115.75 32.4 114.8 29.2 114.75 26.75 114.7 26.65 114.65 26.55 114.3 25.1 114.1 24.35 113.25 21.4 110.95 20.2 106.9 17.45 104.3 16.1 99.75 13.7 93.2 12.7 92.5 12.65 91.8 12.6 90.4 12.5 90.3 12.4 88.75 12.3 87.35 12.1 85.9 11.9 85.8 11.75 85.2 11.7 84.6 11.65 83.35 11.55 83.25 11.4 76.5 10.05 64.7 6.5 47.95 1.55 45.3 0.8 34.35 2.55 28.05 5.2 22.95 7.35 19.65 10.7 18.8 10.6 18.6 10.4 19.05 9.6 19.9 8.85 15.6 8.85 13.25 11.35 12.5 12.15 12.05 13.1 11.7 13.75 11.7 13.95 11.7 15.1 12.4 16.75 12.75 17.55 13.2 18.1 13.65 18.65 14.2 18.95 14.2265625 18.96171875 14.25 18.95 14.26328125 19 14.3 19 14.9 19.7 14.9 19.95 14.9 20.4 13.95 22.1 13.5 22.9 13.05 23.45 14.45 23.55 15.95 24.15 17.75 24.9 17.8 24.9 20.35 24.9 23.55 24.3 26.8 23.75 28.65 23.75 34.5 23.75 36.55 24.65 37 24.9 37.5 25.25 37.25 25.6 37.25 26 36.65 25.8 35.55 25.35 33.75 24.6 33.7 24.6 32.1 24.6 25.75 25.2 19.7 25.8 19.65 25.8
L 17.15 25.75
Q 16.15 25.15 15.4 24.95 14 24.55 11.45 24.45 11.45 24.4 11.35 24.35 11.3 24.35 11.3 24.25 10.7 24.35 10 24.45 7.45 24.85 7.05 25.45 6.45 26.2 6.45 27.7 6.45 28.6 6.9 29.3 7.45 30.1 8.45 30.1 10.15 30.1 11 29.85 11.45 29.4 12.25 29.3 12.35 29.25 12.4 29.25
L 12.55 29.2
Q 12.6 29.2 12.6 29.25 12.65 29.25 12.75 29.25 13.15 29.25 13.65 29.6 14.2 29.9 14.6 29.9 15.45 29.9 16.8 29.2 18.1 28.55 19.35 28.55 20.1 28.55 21.75 28.65 22.35 28.9 22.8 29.55 23.15 30.1 23.45 30.1 23.9 30.1 25.2 29.3 26.5 28.55 27.05 28.55 29.45 28.55 32.15 29.15 33.45 29.45 34.55 29.75 35.35 29.75 37.1 29.05 38.75 28.45 42 28.65 45.8 29 47 29.25 49.9 29.8 50.95 30.8
L 50.95 31
Q 51.85 31.25 53.3 31.75 56.1 32.65 56.7 32.65 57.1 32.65 58.3 32.35 59.45 32.05 59.85 32.05 63.35 32.05 73.4 34.9 77.3 36 79.85 37 79.9 37.05 80 37.1 80.15 37.15 80.3 37.25
L 80.25 37.3
Q 81 37.95 83.2 38.6 84.35 39.35 84.35 40 84.35 40.4 84.2 41.05 84.15 41.15 84.15 41.25 84.65 42.35 85.25 43.75 87.9 50.1 87.9 51.2 87.9 52.1 86.8 56.1 86.1 58.7 85.55 60.15 85.85 60.25 85.95 60.4 85.55 61.45 84.5 62.5 83.2 63.7 83.1 63.9 81.85 65.2 80.4 65.85 77 67.35 75.6 67.65 72.75 68.15 71 66.4
L 62.1 66.45
Q 61.55 66.6 57.15 68.3 53.3 69.85 52.1 69.85 47.85 69.85 45.25 68.95 42.6 68 41.1 68 40.6 68 39.25 68.45 37.95 68.9 37.65 68.9 36.75 68.95 35.8 68.9 33.85 68.8 33.1 68 32.35 67.95 31.55 67.9 30 67.8 29.9 67.7 27.45 67.55 27.25 67.35
L 18.4 67.45
Q 18.1 67.55 16.15 67.9 14.15 68.25 13.55 68.25 12.5 68.25 11.55 67.6 11.2 67.35 10.05 66.35 8.25 64.7 6.45 65.35 6.15 65.05 6 64.65 5.8 64.45 5.45 64.45 2.6 64.45 1.4 66.5 1.05 67.1 0.85 67.9 0.75 68.35 0.75 68.6 0.75 69.3 0.85 69.55 1.05 70.3 1.7 70.55 2.95 70.55 4.45 70.3 5.85 70 6.15 70 9.2 70 10.25 70.5 10.85 70.8 11.4 71.35
L 11.4 72.1
Q 11.45 72.15 11.4 72.25 11.25 72.35 10.75 72.35 10.55 72.15 9.75 71.9 9.05 71.7 7.9 71.6 8.1 71.8 8.2 72.15 8.35 72.85 8.15 75.05 8.15 76.95 8.05 77.35 7.85 78.3 6.95 79.05 6.25 79.9 5.65 80.6 4.35 82.2 4.35 82.55 4.35 83.3 5.05 83.7 5.55 83.95 6.95 84.25 10.8 85 12.75 86.15 13.7 86.75 14.7 88.5 15.7 90.15 16.55 90.5 17.65 90.4 22.95 88.7 28.1 87.05 29.3 87.05 30.2 87.05 31.15 87.1 31.8 87.15 32.2 87.2 33.1 86.55 36.05 84.7 40.55 81.9 41.85 81.9 46.75 81.9 52.5 83.3 58.2 84.7 58.95 84.7 74.45 84.7 81.9 83.1 87.35 81.9 89 79.6 90.15 78.05 91.85 76.4 93.8 74.6 96.15 73.05 96.7 72.7 97.2 72.4 97.85 71.8 98.8 71.4 103.45 68.55 107.05 67.1 114.85 64 125.2 63.25 115.7 64.65 107.3 68.1 104.55 69.25 102.05 70.55 104.45 70.2 108.5 69.85 116.4 69.15 121 68.2 128.85 66.55 135.05 63.1 139.8 60.5 149.5 54.35 154.3 51.3 158.2 48.8 162 48.8 164.95 51.3 166.95 53 169.3 56.8 172.1 61.3 172.95 62.3 175.1 64.8 177.6 64.8 186.15 64.8 190.5 59.8 192.7 57.3 193.15 54.7 193.15 54.2 193.1 54
L 193.1 53.85
Q 193.05 53.85 192.7 53.75 192.4 53.65 191.95 53.65 191.8 53.65 188.55 56.75 185.1 60.15 183.9 60.85 183.2 60.7 182.55 60.55 179 60.1 177.05 58.9 176.1 58.25 175.7 57.65 174.8 56.95 174.4 56.2 174.1 55.6 173.55 53.6 173.15 52 172.25 51.05 172 50.8 170.8 48.85
M 73.1 13.85
Q 71.75 13.25 70.25 12.2 68.45 10.95 67.85 10.6 64.65 8.85 58.15 8.2 54.25 7.85 50.15 9 50.25 9.15 50.25 9.5 50.35 13 48.4 16 44.45 21.95 34.1 21.95 30.75 21.95 29.95 21.1 29.7 20.85 29.55 20.3 29.35 19.65 29.2 19.4 29.2 19.05 29.3 18.85 25.65 20 22.2 20 17.4912109375 20 14.7 19.1 14.958203125 19.15 15.25 19.15 22.65 19.15 27.05 18.25 30.55 17.55 33.95 15.85 36 14.8 40.95 12.15 46.2 9.6 53.1 7.5 53.1 7.45 55.95 7.45 58.8 7.5 58.95 7.6 66.1 8.3 69 10.2 69.3 10.4 71.1 11.9 72.35 12.9 73.75 13.5 73.7 13.75 73.1 13.85
M 13.8 75
Q 13.8 74.95 13.8 74.85 13.85 74.7 13.95 74.6 14.85 74.75 15.1 75.9 15.5 77.65 15.55 77.7 15.4 78.1 15.15 78.2 14.45 77.95 14.35 76.85 14.2 75.45 13.8 75
M 13.8 75.55
Q 14 76.2 14.3 77.15 14.2 77.4 13.65 77.5 13.1 76.85 12.8 76.2 12.5 75.65 12.2 74.6 12.2 74.45 12.4 74.35 12.6 74.25 12.6 74.2 13.45 74.4 13.8 75.55
M 19.95 84.25
Q 19.85 84.35 19.75 84.35 19.55 84.35 19.55 83.85 19.55 83.35 20.3 82.6 21.05 81.75 22.2 81.3
L 22.95 81.35
Q 22.95 82.05 22.75 82.3
L 22.75 82.4
Q 23.3 82 25.35 80.05 27 78.5 27.55 78.45
L 27.65 78.4
Q 27.8 78.45 27.8 78.95 27.8 79.05 27 79.8 27.1 79.75 27.2 79.75
L 27.45 79.95
Q 27.35 80.15 27 80.9 26.65 81.6 26.55 81.65
L 26.15 81.65
Q 26.05 81.6 26.05 81.55 26 81.55 26 81.05 26 80.75 26.1 80.55 25.55 81 24.9 81.55 21.95 84 21.35 84.25 21.2 84 21.2 83.55
L 21.05 83.35 19.95 84.25
M 61.3 70.1
L 61.5 70.35
Q 60.8 71.2 58.7 72.3 55.9 73.7 53.4 73.7 52.45 73.7 47.35 72.45 42.35 71.15 42.1 71.15
L 42.1 70.75 42.5 70.65
Q 43.45 70.7 52.2 72.8 55.45 72.8 57.45 71.45 58.5 70.7 58.95 70.55 59.9 70.1 61.3 70.1 Z"/>
</g>
</g>
</g>
</g>
</g>
</svg>
