
<svg xmlns="http://www.w3.org/2000/svg" version="1.1" xmlns:xlink="http://www.w3.org/1999/xlink" preserveAspectRatio="none" x="0px" y="0px" width="3840px" height="1920px" viewBox="0 0 3840 1920">
<defs>
<g id="Layer5_0_FILL">
<path fill="#58501F" stroke="none" d="
M 1432.5 1397.1
Q 1496.2603515625 1360.4701171875 1508.3 1408.9 1606.713671875 1337.2369140625 1605.15 1395.4 1626.8126953125 1391.8349609375 1677.85 1311.2
L 1262.85 1071.95
Q 1173.88203125 1160.83046875 1112.45 1136.85 1064.903515625 1159.4818359375 1051 1188.25 1111.480859375 1235.896875 1083.8 1302.85 1125.764453125 1353.9685546875 1140.25 1405.5 1185.994921875 1427.16796875 1237.95 1418.15 1316.275 1453.173828125 1394.6 1381.1 1420.805078125 1376.21171875 1432.5 1397.1
M 2627.2 1569.25
L 2722.45 1403
Q 2530.125 1455.4126953125 2337.8 1452.85
L 2305.6 1553.15
Q 2315.7365234375 1603.8 2305.6 1654.45 2298.3802734375 1778.4515625 2273.45 1815.25 2254.9142578125 1840.1986328125 2280.05 1834.5 2478.45 1793.7 2627.2 1569.25 Z"/>
</g>

<g id="Layer4_0_FILL">
<path fill="#8C7434" stroke="none" d="
M 644.15 952.85
Q 642.95 952.5 641.7 952.5 641.340234375 952.217578125 640.95 951.9 649.409375 967.422265625 657.75 981.2
L 656.85 975.2 651.8 960.05
Q 651.8 958.8 651.2 958.05 647.65 953.8 644.15 952.85
M 532.75 704.35
Q 531.8 704.9 530.55 704.9 525.45 716.25 519.65 727.15 517.1 731.9 517.9 740.25 520.4 740.25 522.5 741.25 527.2 743.3 530.55 750.35 533.95 788 519.85 818.3 519.15 819.8 517.9 821.1
L 555.8 836.25 568.45 846.35 570.95 861.5 555.8 876.7
Q 549.95 899.35 549.2 924.65 548.95 932.8 553.3 934.8
L 522.95 934.8 512.85 967.65
Q 521.3 981.95 524.5 1000.7 525.35 1005.6 525.5 1010.6 524.6 1019.7 529.65 1011.65 533.75 1005.1 535.6 1000.5 543.25 1000.55 550.25 1002.4 558.7 1004.55 568.45 1005.55
L 560.85 1023.2
Q 565.55 1028 576 1028.15 583.55 1028.3 591.2 1028.25
L 601.3 1035.85 603.8 1056.05
Q 592.85 1062.7 574.3 1068.65 568.45 1070.5 560.85 1068.7
L 550.75 1076.25
Q 541.55 1119.85 558.35 1147 563.65 1143.4 568.5 1136.1 572.6 1129.85 570.95 1121.75
L 601.3 1101.55 613.9 1101.55
Q 623.85 1107.45 631.85 1116.45 635.55 1120.7 634.15 1126.8 607.95 1140.85 620.1 1177 620.2 1177.35 621.5 1177.35 624.25 1181.35 622.55 1182.15 615.05 1185.6 611.4 1192.5
L 613.9 1212.7
Q 668.75 1222.6 707.4 1177.35
L 684.65 1159.65 682.15 1139.45
Q 707.35 1121.1 727.6 1101.55
L 727.6 1083.85
Q 714.4 1080.2 705.35 1070.7 699.6 1064.65 692.25 1061.1
L 661.9 1008.05 657.75 981.2
Q 649.409375 967.422265625 640.95 951.9 620.8990234375 936.065625 601.3 914.6
L 601.3 859 588.65 833.75
Q 580.6 757.95 572.1 693.1 571.75 690.6 570.95 694.8
L 570.95 692.25
Q 548.45 695.65 532.75 704.35
M 1092.3 665.3
L 1072.65 668.1
Q 1087.6498046875 679.609765625 1097.05 700.05
L 1141.95 700.05 1156.85 710
Q 1159.4 716.65 1166.9 724.75 1187.1 746.7 1196.55 764.6 1199 764.6 1200.35 765.9 1219.2044921875 782.9099609375 1240.35 789.65 1228.6599609375 780.31796875 1219.8 765.25 1205.1755859375 746.512109375 1219.8 713.15 1228.9287109375 657.3140625 1183 642.35 1134.328515625 649.44375 1092.3 665.3
M 1886.65 820.5
Q 1907.14140625 833.191796875 1926.3 848.9 1900.23203125 801.6736328125 1886.65 820.5
M 1696.75 581.15
Q 1682.37421875 577.7212890625 1668.05 575.15 1655.2505859375 583.7060546875 1678.45 600.8 1755.4296875 633.083203125 1705.7 680.1 1635.23671875 732.241796875 1588.9 792.35 1605.511328125 795.376171875 1623.55 794.4
L 1648.35 769.55
Q 1687.1404296875 765.9662109375 1723.2 768.6 1716.8787109375 711.1611328125 1758.6 645.4 1778.9880859375 631.959765625 1812.55 625.75 1812.371484375 625.6705078125 1812.2 625.6
L 1767.5 610.7 1762.55 600.75 1722.85 580.9
Q 1708.1 584 1696.75 581.15
M 1366.5 724.35
Q 1409.2501953125 722.5017578125 1448.65 725.95 1468.128125 705.7212890625 1466.9 672.7 1479.8173828125 631.9337890625 1518.1 619.8 1514.835546875 607.4458984375 1506.35 599.45
L 1459.7 630.55 1419.95 630.55
Q 1401.084375 641.0685546875 1375.75 642.3 1375.28828125 658.8505859375 1382.6 678.45 1376.090625 703.70234375 1366.5 724.35
M 2533.2 703.75
Q 2563.4279296875 752.40390625 2569.1 782.9 2561.4015625 695.5681640625 2597.5 646.8 2628.656640625 579.2978515625 2534.65 561.75 2505.8486328125 656.18828125 2533.2 703.75
M 2393.1 665.3
Q 2390.05 653.55 2377.15 647.85 2337.127734375 630.3849609375 2308.9 608.95 2302.7013671875 623.2697265625 2303.55 645.95 2327.3646484375 723.992578125 2333.7 767.2
L 2343.45 759.65
Q 2345.9 759.65 2348.4 759.6 2374.7796875 759.0732421875 2399.9 763.2 2428.246875 731.9857421875 2444.65 706.65 2437.6943359375 698.7876953125 2432 690.7 2419.4 672.75 2393.1 665.3
M 2080.3 754.65
Q 2092.77578125 763.6115234375 2105.75 770.9 2165.611328125 706.582421875 2153.15 682.6 2109.686328125 639.012890625 2009.85 682.6 1979.2318359375 697.1375 1988.35 722.25 2043.9970703125 766.9158203125 2032.15 782.6 2003.8861328125 824.43828125 1982.35 845
L 1995.9 844.05
Q 2017.65 792.05 2080.3 754.65
M 2625.9 648.85
Q 2611.121484375 789.56875 2668.2 786.55 2685.9994140625 781.3076171875 2712.25 776.05 2785.7751953125 727.434375 2779.75 695.6 2792.8513671875 657.4044921875 2887.45 695.6 2868.573046875 656.9103515625 2871.1 635.35 2810.2125 573.2787109375 2810.4 614.35 2806.6689453125 660.5337890625 2784.05 640.7 2742.865234375 575.22578125 2670.5 588 2626.954296875 592.4076171875 2625.9 648.85
M 3525.95 755.3
Q 3507.69140625 682.2021484375 3457.2 682.6
L 3299.4 698.9
Q 3222.356640625 676.896875 3206.7 624.2 3177.803125 605.6501953125 3101.6 661.85 3027.66328125 684.4798828125 2995.2 607.35 2957.075 598.225 2943.25 657.95
L 2912.15 735.85
Q 2906.4642578125 803.891015625 2987.05 812.15 3037.5271484375 817.5828125 3073.05 735.85 3116.2046875 731.224609375 3104.2 852.65 3093.165625 893.824609375 3128.25 881.1 3190.9396484375 817.3548828125 3227.65 811.85 3266.741796875 776.7787109375 3394 1003.35 3490.1076171875 884.4978515625 3613.8 793.6 3537.7791015625 766.92265625 3525.95 755.3 Z"/>

<path fill="#4B3519" stroke="none" d="
M 530.55 704.9
Q 531.8 704.9 532.75 704.35 548.45 695.65 570.95 692.25
L 570.95 694.8
Q 571.75 690.6 572.1 693.1 580.6 757.95 588.65 833.75
L 601.3 859 601.3 914.6
Q 620.8990234375 936.065625 640.95 951.9 640.0658203125 950.251953125 639.15 948.55 542.4662109375 692.80390625 736.45 624.75 325.249609375 564.3126953125 41.05 735.6 157.208203125 820.4333984375 203.5 940.2 230.7169921875 1055.742578125 230.2 1143.65 229.4833984375 1268.8728515625 377.6 1401.3 532.27734375 1419.527734375 836.75 1076.35 751.2236328125 1135.1994140625 657.75 981.2
L 661.9 1008.05 692.25 1061.1
Q 699.6 1064.65 705.35 1070.7 714.4 1080.2 727.6 1083.85
L 727.6 1101.55
Q 707.35 1121.1 682.15 1139.45
L 684.65 1159.65 707.4 1177.35
Q 668.75 1222.6 613.9 1212.7
L 611.4 1192.5
Q 615.05 1185.6 622.55 1182.15 624.25 1181.35 621.5 1177.35 620.2 1177.35 620.1 1177 607.95 1140.85 634.15 1126.8 635.55 1120.7 631.85 1116.45 623.85 1107.45 613.9 1101.55
L 601.3 1101.55 570.95 1121.75
Q 572.6 1129.85 568.5 1136.1 563.65 1143.4 558.35 1147 541.55 1119.85 550.75 1076.25
L 560.85 1068.7
Q 568.45 1070.5 574.3 1068.65 592.85 1062.7 603.8 1056.05
L 601.3 1035.85 591.2 1028.25
Q 583.55 1028.3 576 1028.15 565.55 1028 560.85 1023.2
L 568.45 1005.55
Q 558.7 1004.55 550.25 1002.4 543.25 1000.55 535.6 1000.5 533.75 1005.1 529.65 1011.65 524.6 1019.7 525.5 1010.6 525.35 1005.6 524.5 1000.7 521.3 981.95 512.85 967.65
L 522.95 934.8 553.3 934.8
Q 548.95 932.8 549.2 924.65 549.95 899.35 555.8 876.7
L 570.95 861.5 568.45 846.35 555.8 836.25 517.9 821.1
Q 519.15 819.8 519.85 818.3 533.95 788 530.55 750.35 527.2 743.3 522.5 741.25 520.4 740.25 517.9 740.25 517.1 731.9 519.65 727.15 525.45 716.25 530.55 704.9 Z"/>

<path fill="#000000" stroke="none" d="
M 1057.55 670.25
Q 1050 682.75 1058.65 684.6 1070.8 686.85 1072.45 695.1 1070.9 710.9 1047.25 708.1 1017.8 704.95 988.05 705 994.15 711.4 999.1 722.05 1000.45 724.9 1007.9 724.9 1009.35 735.8 1022.8 734.8 1032.8 734.85 1042.65 734.8 1044.15 723.9 1055.4 719.4 1073 712.55 1092.3 700.05
L 1097.05 700.05
Q 1087.6498046875 679.609765625 1072.65 668.1
L 1057.55 670.25
M 1375.75 642.3
Q 1363.7837890625 642.8943359375 1350.35 641.4 1258.6505859375 631.2990234375 1183 642.35 1228.9287109375 657.3140625 1219.8 713.15 1205.1755859375 746.512109375 1219.8 765.25 1228.6599609375 780.31796875 1240.35 789.65 1268.5384765625 798.6431640625 1300.8 789.45
L 1335.55 734.8 1355.45 724.9
Q 1361.00859375 724.57578125 1366.5 724.35 1376.090625 703.70234375 1382.6 678.45 1375.28828125 658.8505859375 1375.75 642.3
M 1529.2 580.9
L 1519.25 590.85 1506.35 599.45
Q 1514.835546875 607.4458984375 1518.1 619.8 1479.8173828125 631.9337890625 1466.9 672.7 1468.128125 705.7212890625 1448.65 725.95 1480.060546875 728.69375 1509.35 734.8 1510.7 748.3 1520.55 755.1 1535.1 765.15 1544.1 774.55 1546.55 777 1549.5 778.65 1568.078515625 788.6345703125 1588.9 792.35 1635.23671875 732.241796875 1705.7 680.1 1755.4296875 633.083203125 1678.45 600.8 1655.2505859375 583.7060546875 1668.05 575.15 1600.2267578125 563.1033203125 1534.15 570.95
L 1529.2 580.9
M 2447.7 710
Q 2446.1623046875 708.3400390625 2444.65 706.65 2428.246875 731.9857421875 2399.9 763.2 2421.9216796875 766.826171875 2442.95 774 2443.0154296875 771.870703125 2442.75 769.55
L 2477.5 764.6
Q 2477.5 762.1 2478.75 760.85 2482.35 757.1 2487.65 755.45 2489.9 754.65 2492.4 754.65
L 2487.4 710 2447.7 710
M 2224.3 556.1
L 2189.5 556.1
Q 2171.75 569.1 2156.8 582.6 2016.5677734375 709.4435546875 1812.55 625.75 1778.9880859375 631.959765625 1758.6 645.4 1716.8787109375 711.1611328125 1723.2 768.6 1813.3921875 775.1626953125 1886.65 820.5 1900.23203125 801.6736328125 1926.3 848.9 1926.3455078125 848.9552734375 1926.4 849
L 1982.35 845
Q 2003.8861328125 824.43828125 2032.15 782.6 2043.9970703125 766.9158203125 1988.35 722.25 1979.2318359375 697.1375 2009.85 682.6 2109.686328125 639.012890625 2153.15 682.6 2165.611328125 706.582421875 2105.75 770.9 2190.9904296875 818.6501953125 2298.75 794.4
L 2333.7 767.2
Q 2327.3646484375 723.992578125 2303.55 645.95 2302.7013671875 623.2697265625 2308.9 608.95 2303.6337890625 604.921484375 2298.75 600.75
L 2273.95 580.9 2249.1 566
Q 2241.6 566.1 2235.25 563.45 2229.25 561.05 2224.3 556.1 Z"/>

<path fill="#DBCB87" stroke="none" d="
M 1072.65 668.1
L 1092.3 665.3
Q 1134.328515625 649.44375 1183 642.35 1173.865234375 639.36171875 1162.55 638 1129.43984375 651.7046875 1081.35 660.4 1073.458984375 661.8271484375 1065.15 663.1 1069.0671875 665.359375 1072.65 668.1
M 1668.05 575.15
Q 1682.37421875 577.7212890625 1696.75 581.15 1708.1 584 1722.85 580.9
L 1762.55 600.75 1767.5 610.7 1812.2 625.6
Q 1812.371484375 625.6705078125 1812.55 625.75 1847.1642578125 619.3271484375 1895.8 620.6 1927.3451171875 593.7501953125 1882.55 566.9 1822.234765625 548.558203125 1714.8 566.9 1678.815234375 568.0375 1668.05 575.15
M 1375.75 642.3
Q 1401.084375 641.0685546875 1419.95 630.55
L 1459.7 630.55 1506.35 599.45
Q 1480.1216796875 574.7732421875 1404.05 591.7 1376.6634765625 611.8095703125 1375.75 642.3
M 2377.15 647.85
Q 2390.05 653.55 2393.1 665.3 2419.4 672.75 2432 690.7 2437.6943359375 698.7876953125 2444.65 706.65 2484.3861328125 645.524609375 2454.6 618.8 2332.25078125 555.41875 2308.9 608.95 2337.127734375 630.3849609375 2377.15 647.85
M 2621.85 1009.75
Q 2651.0490234375 993.818359375 2673.9 1056.3 2668.9021484375 946.803125 2570.4 795.45 2570.94375 849.8091796875 2468.5 828.15 2417.698046875 819.8775390625 2399.8 804.3 2398.087109375 802.80859375 2396.65 801.25 2384.0154296875 787.244921875 2395.65 767.85 2397.809765625 765.5109375 2399.9 763.2 2374.7796875 759.0732421875 2348.4 759.6 2345.9 759.65 2343.45 759.65
L 2333.7 767.2
Q 2337.33125 791.6494140625 2335.35 804.95 2305.4169921875 931.7509765625 2204.2 844.7 2055.68203125 838.6494140625 2086.25 791.05 2096.8234375 780.521875 2105.75 770.9 2092.77578125 763.6115234375 2080.3 754.65 2017.65 792.05 1995.9 844.05
L 1982.35 845
Q 1945.9037109375 879.899609375 1928.85 853.65 1927.5564453125 851.203125 1926.3 848.9 1907.14140625 833.191796875 1886.65 820.5 1884.928515625 822.9189453125 1883.4 826.4 1858.1998046875 866.7642578125 1833 866.9 1753.6423828125 867.6806640625 1728.05 792.5 1724.562109375 780.7328125 1723.2 768.6 1687.1404296875 765.9662109375 1648.35 769.55
L 1623.55 794.4
Q 1605.511328125 795.376171875 1588.9 792.35 1585.6919921875 796.5482421875 1582.6 800.75 1527.4248046875 847.106640625 1515.65 827.2 1503.5974609375 803.8322265625 1485.05 799.95
L 1453.65 799.95
Q 1368.72890625 786.66328125 1411.5 747.9 1435.0875 740.0216796875 1448.65 725.95 1409.2501953125 722.5017578125 1366.5 724.35 1338.93046875 783.7541015625 1285.9 804.9 1259.3794921875 804.8275390625 1240.35 789.65 1219.2044921875 782.9099609375 1200.35 765.9 1199 764.6 1196.55 764.6 1187.1 746.7 1166.9 724.75 1159.4 716.65 1156.85 710
L 1141.95 700.05 1097.05 700.05
Q 1100.4052734375 707.376171875 1103.05 715.85 1106.88125 762.825 1068.8 790.5 1021.9736328125 811.9958984375 988.1 762.25 992.82265625 724.26171875 945.8 705.8 917.4833984375 692.733984375 834.85 727.95 747.8982421875 723.4802734375 781.9 632.05 759.0029296875 628.046875 736.45 624.75 542.4662109375 692.80390625 639.15 948.55 640.0658203125 950.251953125 640.95 951.9 641.340234375 952.217578125 641.7 952.5 642.95 952.5 644.15 952.85 647.65 953.8 651.2 958.05 651.8 958.8 651.8 960.05
L 656.85 975.2 657.75 981.2
Q 751.2236328125 1135.1994140625 836.75 1076.35 1030.9689453125 955.108203125 1271.75 1076.35 2149.2837890625 1708.333203125 3064.3 1279.5
L 3129.9 1252.2
Q 3060.3076171875 1271.741015625 3003.8 1252.2 2935.375 1230.1275390625 2891.3 1172.65
L 2869.05 1142.75
Q 2749.8357421875 1056.0439453125 2707.75 1213.55
L 2564.3 1350.35
Q 2419.928515625 1417.238671875 2435.3 1376.8 2586.52578125 1159.1521484375 2544.8 1159.8 2451.744921875 1165.38203125 2479.45 1140.2 2538.92890625 1128.1294921875 2565.05 1094.9 2572.47109375 1032.6720703125 2621.85 1009.75
M 1770.75 1033.6
Q 1769.776171875 1033.94765625 1769.15 1034.6 1766.8 1036.95 1764.9 1040.55 1764.15 1042.05 1762.9 1043.3
L 1762.9 1060.75
Q 1780.85 1063.25 1790.6 1077.95 1812.60703125 1111.09140625 1835.8 1143.45 1841.9005859375 1146.6494140625 1848.05 1149.7
L 1860 1142.9 1862.5 1130.45
Q 1860 1129.2 1858.1 1127.35 1856.25 1125.5 1855.4 1122.9 1855.05 1121.75 1855.05 1120.5 1846.6 1117.85 1836.95 1111.6 1821.35 1101.55 1812.7 1088.1
L 1812.7 1068.2 1827.65 1045.8 1845.05 1043.3
Q 1856.65 1049.75 1862.35 1057.65 1876.45 1077.1 1884.9 1108.05
L 1889.9 1113 1889.9 1145.4
Q 1896.7 1152.8 1898.6 1160.65 1900.8 1169.6 1907.3 1175.25
L 1907.45 1175.95
Q 1918.46875 1180.248046875 1929.75 1184.25
L 1929.75 1157.85
Q 1925.3 1149.1 1919.85 1141.15 1914.7 1133.65 1912.3 1123 1921.05 1123.1 1928.5 1120 1932.45 1118.35 1937.2 1118 1937.2 1105.4 1938.65 1093.3 1940 1082.2 1942.2 1070.7
L 1964.6 1068.2
Q 1962.8 1081.9 1967.35 1093 1974.65 1110.65 1979.55 1130.45 1978.45 1136.85 1969.85 1137.85 1955 1139.8 1947.15 1150.35 1948.75 1162.15 1959.05 1168.65 1968.8 1174.8 1987 1172.8
L 1992 1167.8
Q 2001.7 1168.9 2009.75 1167.6 2014.85 1166.9 2014.4 1162.8
L 2014.4 1135.45 2004.45 1115.5
Q 2005.55 1104.4 2010 1094.75 2014.6 1084.65 2021.85 1078.15
L 2041.8 1088.1 2046.75 1098.1 2046.75 1125.45 2039.3 1137.9 2051.75 1162.8
Q 2060.978125 1165.5921875 2065.7 1170.4 2078.0943359375 1169.4287109375 2090.55 1168.7 2095.8130859375 1166.877734375 2096.55 1162.8 2096.55 1161.55 2096.4 1160.35 2095.2 1151.5 2100.45 1148.4 2101.55 1147.85 2101.55 1145.4
L 2109 1142.9
Q 2110.4 1140.45 2111.85 1138.15 2114.3 1134.35 2119 1135.15 2120.2 1135.45 2121.45 1135.45
L 2131.4 1125.45
Q 2131.4 1122.95 2132 1120.65 2132.65 1118 2134.15 1115.7 2135.15 1114.25 2136.4 1113
L 2136.4 1098.1
Q 2140.9 1093.8 2145.15 1089.35 2168.9 1064.7 2208.6 1073.2 2210.15 1082.65 2216.45 1090.25 2222.45 1097.5 2226.05 1108.05
L 2240.95 1118 2248.45 1130.45
Q 2247.8 1142.2 2252.25 1148.7 2258.5 1157.85 2263.4 1167.8
L 2278.3 1170.3
Q 2281.6 1163.65 2288.65 1161.45 2297.35 1158.65 2303.2 1150.35
L 2318.15 1095.6
Q 2324.95 1092.6 2328.9 1084.8 2329.6 1083.45 2328.1 1078.15 2336.65 1072.9 2342.95 1065.15 2344.45 1063.25 2348.05 1063.2 2356.8 1062.35 2360.15 1069.75 2361.7 1073.15 2365.45 1075.65 2371.45 1092.6 2369.4 1108.55 2362 1165.4 2313.2 1187.7 2307.55 1187.6 2302.65 1183.35 2295.75 1177.3 2290.75 1170.3
L 2278.3 1170.3
Q 2277.05 1172.75 2276.1 1172.65 2180.9611328125 1163.637890625 2090.55 1168.7 2090.4447265625 1168.7677734375 2090.35 1168.8 2081.25 1172.15 2071.65 1172.8 2067.85 1172.75 2066.25 1170.95 2065.995703125 1170.6716796875 2065.7 1170.4 2001.5037109375 1175.4435546875 1939.7 1187.7 1934.69765625 1185.9994140625 1929.75 1184.25
L 1929.75 1187.7 1909.8 1185.25 1907.45 1175.95
Q 1876.6146484375 1163.948828125 1848.05 1149.7
L 1842.6 1152.85
Q 1839.204296875 1148.1681640625 1835.8 1143.45 1798.575390625 1123.948828125 1765.4 1100.55 1755.95 1102.7 1747.4 1106.95 1733.2 1114.1 1715.6 1118 1664.891015625 1093.3658203125 1615.05 1066.35
L 1613.5 1075.65
Q 1611.4587890625 1068.55 1604.85 1060.8 1571.63046875 1042.634375 1538.8 1023.4 1527.9408203125 1029.83359375 1516.2 1033.2 1516.3015625 1033.2767578125 1516.4 1033.35
L 1515.4 1033.4
Q 1495.925390625 1038.834375 1474.05 1035.85 1471.96484375 1031.761328125 1469.9 1027.7
L 1464.1 1023.4 1456.65 1010.95 1455.85 1001
Q 1446.1619140625 982.840234375 1436.7 966.1 1427.95 966 1419.9 968.3 1418.05 968.7 1416.8 971.1 1356.75 984.2 1294.8 991
L 1279.85 983.55
Q 1245.45 921.65 1182.75 881.45
L 1147.9 881.45
Q 1120.3 895.95 1095.6 916.3 1084.45 919.15 1075.55 915.5 1032.1 897.95 978.55 886.45
L 971.15 891.35 970.45 892.05
Q 969.5568359375 893.023046875 968.75 894.05 958.55 907.1 941.2 916.3
L 941.2 911.35
Q 941.2 910.1 941.75 909.75 946.6 906.75 948.1 901.25 948.7 898.9 948.7 896.4
L 958.65 903.85 970.45 892.05
Q 970.7669921875 891.7330078125 971.1 891.4
L 971.15 891.35 986.05 876.5 1008.45 869 1025.85 874 1035.85 893.9 1050.75 898.9
Q 1058.05 898.6 1062 895.55 1076.1 884.7 1090.6 876.5
L 1098.1 866.5 1123 851.6
Q 1124.1 846.5 1126.95 843.2 1138.8 829.55 1157.85 821.7 1166.05 821.75 1172.4 826.05 1192.55 839.8 1220.1 849.1 1221.8 856.6 1230.15 863.95 1256.45 887.25 1272.4 921.3
L 1272.4 931.25 1277.35 936.25
Q 1277.4 946.2 1280.3 955.2 1281.95 960.25 1282.35 968.6 1287.95 975.35 1293.3 979.8 1294.8 981.05 1297.3 981.05
L 1357.05 976.1 1384.4 961.15 1389.4 943.7 1406.85 928.75 1419.3 928.75
Q 1421.75 931.25 1424.75 932.75 1426.75 933.75 1429.25 933.75 1430.5 933.75 1431.75 933.75
L 1451.65 946.2 1455.85 1001
Q 1462.8255859375 1014.0060546875 1469.9 1027.7
L 1474.05 1030.85 1484 1035.85 1515.4 1033.4
Q 1515.796875 1033.3158203125 1516.2 1033.2 1509.439453125 1028.2033203125 1501.85 1025 1493.35 1021.3 1486.5 1013.45
L 1486.5 998.5
Q 1510.65 982.55 1546.25 986.05 1555.25 991 1559.8 997.05 1565.7 1004.8 1568.7 1010.95 1577.15 1012.35 1581.4 1022.2 1586.4 1033.7 1588.6 1045.8 1597.05 1052.35 1603.1 1058.85 1604.0111328125 1059.83984375 1604.85 1060.8 1609.9451171875 1063.6099609375 1615.05 1066.35
L 1620.95 1030.85 1630.95 1020.9 1650.85 1030.85 1650.85 1048.3 1663.3 1073.2 1680.75 1083.15 1685.7 1095.6 1703.15 1100.55
Q 1712.238671875 1042.1369140625 1770.75 1033.6
M 3677.3 725.35
L 3672.35 725.35
Q 3624.3484375 769.480859375 3613.8 793.6 3490.1076171875 884.4978515625 3394 1003.35 3378.4958984375 1022.519921875 3363.95 1042.55 3254.8896484375 1156.873828125 3392.35 1159.8 3408.652734375 1164.4345703125 3440.05 1078.15 3484.4671875 946.2677734375 3560.65 871.85 3497.19921875 1028.55234375 3512 1163.85 3507.6453125 1216.01875 3440.05 1078.15 3408.652734375 1164.4345703125 3392.35 1159.8 3254.8896484375 1156.873828125 3363.95 1042.55 3378.4958984375 1022.519921875 3394 1003.35 3266.741796875 776.7787109375 3227.65 811.85 3190.9396484375 817.3548828125 3128.25 881.1 3093.165625 893.824609375 3104.2 852.65 3116.2046875 731.224609375 3073.05 735.85 3037.5271484375 817.5828125 2987.05 812.15 2906.4642578125 803.891015625 2912.15 735.85 2892.025 760.8150390625 2871.9 750.1 2863.0876953125 718.3998046875 2839.45 716.35
L 2808.3 716.35
Q 2794.7326171875 721.25390625 2831.65 751.4 2791.7033203125 821.5365234375 2748.25 839.1 2757.958203125 935.257421875 2704.65 933.4 2736.1009765625 963.890625 2769.75 1009.2
L 2869.05 1142.75 2891.3 1172.65
Q 2935.375 1230.1275390625 3003.8 1252.2 3060.3076171875 1271.741015625 3129.9 1252.2
L 3270.5 1193.7
Q 3421.6783203125 1241.8927734375 3566.95 1255.2 3510.8626953125 1191.6478515625 3630 1157.45 3630.6849609375 1098.9875 3637.5 1064.6 3645.38984375 1024.51484375 3649.9 1007 3653.6845703125 992.18828125 3740.4 790 3752.7947265625 721.9970703125 3677.3 725.35
M 2998.8 1077.4
L 3018.65 1077.4 3048.45 1052.55 3117.95 1047.6
Q 3129.2 1054.9 3138.15 1067.2 3145.45 1077.2 3162.65 1077.4
L 3212.3 997.95 3207.3 983.05 3247.05 1002.9
Q 3247.05 1005.4 3246.95 1007.9 3246.55 1016.05 3257.1 1015.4 3259.45 1015.3 3261.95 1017.8 3261.9 1027.7 3262.25 1037.65 3262.95 1056.55 3271.85 1067.45
L 3286.75 1082.35
Q 3315.3 1084.45 3309.8 1122.5 3306.65 1144.45 3306.6 1166.75 3305 1175.05 3293.55 1178.35 3276 1183.1 3252 1171.7 3252 1166.75 3249.7 1163.35 3247 1159.3 3241.8 1157.65 3239.55 1156.85 3237.1 1156.85
L 3232.15 1146.9 3212.3 1146.9
Q 3202.15 1141.95 3192 1138 3174.85 1131.5 3167.6 1117.1 3167.6 1122.05 3165.1 1124.35 3158.5 1130.5 3147.65 1141.85 3145.25 1144.4 3142.75 1146.9 3085.25 1151.55 3033.6 1136.8 3005.3 1128.75 2988.85 1117.1
L 2978.95 1136.95 2954.1 1136.95
Q 2949.15 1132 2944.75 1126.6 2938.4849609375 1118.9068359375 2926.4 1117.3 2932.5234375 1122.340234375 2939.2 1127.05
L 2919.35 1117.1
Q 2921.8 1117.1 2924.3 1117.1 2925.373828125 1117.1904296875 2926.4 1117.3 2846.219140625 1051.6056640625 2862.2 933.7 2862.25 933.4 2864.75 933.4 2949.65 973.75 2982.2 1051.2 2983.85 1055.15 2988.85 1057.55
L 2998.8 1077.4
M 3678.6 760.75
Q 3570.7296875 974.291015625 3596.45 1108.25 3570.7296875 974.291015625 3678.6 760.75 Z"/>

<path fill="#120A04" stroke="none" d="
M 834.85 727.95
Q 917.4833984375 692.733984375 945.8 705.8 992.82265625 724.26171875 988.1 762.25 1021.9736328125 811.9958984375 1068.8 790.5 1106.88125 762.825 1103.05 715.85 1100.4052734375 707.376171875 1097.05 700.05
L 1092.3 700.05
Q 1073 712.55 1055.4 719.4 1044.15 723.9 1042.65 734.8 1032.8 734.85 1022.8 734.8 1009.35 735.8 1007.9 724.9 1000.45 724.9 999.1 722.05 994.15 711.4 988.05 705 1017.8 704.95 1047.25 708.1 1070.9 710.9 1072.45 695.1 1070.8 686.85 1058.65 684.6 1050 682.75 1057.55 670.25
L 1072.65 668.1
Q 1069.0671875 665.359375 1065.15 663.1 1020.3619140625 670.1005859375 963.8 673.15 870.0328125 647.454296875 781.9 632.05 747.8982421875 723.4802734375 834.85 727.95
M 1926.3 848.9
Q 1927.5564453125 851.203125 1928.85 853.65 1945.9037109375 879.899609375 1982.35 845
L 1926.4 849
Q 1926.3455078125 848.9552734375 1926.3 848.9
M 1883.4 826.4
Q 1884.928515625 822.9189453125 1886.65 820.5 1813.3921875 775.1626953125 1723.2 768.6 1724.562109375 780.7328125 1728.05 792.5 1753.6423828125 867.6806640625 1833 866.9 1858.1998046875 866.7642578125 1883.4 826.4
M 1448.65 725.95
Q 1435.0875 740.0216796875 1411.5 747.9 1368.72890625 786.66328125 1453.65 799.95
L 1485.05 799.95
Q 1503.5974609375 803.8322265625 1515.65 827.2 1527.4248046875 847.106640625 1582.6 800.75 1585.6919921875 796.5482421875 1588.9 792.35 1568.078515625 788.6345703125 1549.5 778.65 1546.55 777 1544.1 774.55 1535.1 765.15 1520.55 755.1 1510.7 748.3 1509.35 734.8 1480.060546875 728.69375 1448.65 725.95
M 1366.5 724.35
Q 1361.00859375 724.57578125 1355.45 724.9
L 1335.55 734.8 1300.8 789.45
Q 1268.5384765625 798.6431640625 1240.35 789.65 1259.3794921875 804.8275390625 1285.9 804.9 1338.93046875 783.7541015625 1366.5 724.35
M 2105.75 770.9
Q 2096.8234375 780.521875 2086.25 791.05 2055.68203125 838.6494140625 2204.2 844.7 2305.4169921875 931.7509765625 2335.35 804.95 2337.33125 791.6494140625 2333.7 767.2
L 2298.75 794.4
Q 2190.9904296875 818.6501953125 2105.75 770.9
M 2673.9 1056.3
Q 2651.0490234375 993.818359375 2621.85 1009.75 2572.47109375 1032.6720703125 2565.05 1094.9 2538.92890625 1128.1294921875 2479.45 1140.2 2451.744921875 1165.38203125 2544.8 1159.8 2586.52578125 1159.1521484375 2435.3 1376.8 2419.928515625 1417.238671875 2564.3 1350.35
L 2707.75 1213.55 2673.9 1056.3
M 3457.2 682.6
Q 3507.69140625 682.2021484375 3525.95 755.3 3537.7791015625 766.92265625 3613.8 793.6 3624.3484375 769.480859375 3672.35 725.35
L 3653.65 725.35
Q 3545.62890625 689.8755859375 3508.6 654.4 3480.7857421875 623.666015625 3298.85 569.25 3182.3771484375 537.785546875 3071.8 471.5 3003.1498046875 435.590625 2614.5 376.85 2179.3236328125 502.228515625 1895.4 446.25 1440.09609375 519.35859375 1184.25 627.6 1174.3517578125 633.1193359375 1162.55 638 1173.865234375 639.36171875 1183 642.35 1258.6505859375 631.2990234375 1350.35 641.4 1363.7837890625 642.8943359375 1375.75 642.3 1376.6634765625 611.8095703125 1404.05 591.7 1480.1216796875 574.7732421875 1506.35 599.45
L 1519.25 590.85 1529.2 580.9 1534.15 570.95
Q 1600.2267578125 563.1033203125 1668.05 575.15 1678.815234375 568.0375 1714.8 566.9 1822.234765625 548.558203125 1882.55 566.9 1927.3451171875 593.7501953125 1895.8 620.6 1847.1642578125 619.3271484375 1812.55 625.75 2016.5677734375 709.4435546875 2156.8 582.6 2171.75 569.1 2189.5 556.1
L 2224.3 556.1
Q 2229.25 561.05 2235.25 563.45 2241.6 566.1 2249.1 566
L 2273.95 580.9 2298.75 600.75
Q 2303.6337890625 604.921484375 2308.9 608.95 2332.25078125 555.41875 2454.6 618.8 2484.3861328125 645.524609375 2444.65 706.65 2446.1623046875 708.3400390625 2447.7 710
L 2487.4 710 2492.4 754.65
Q 2489.9 754.65 2487.65 755.45 2482.35 757.1 2478.75 760.85 2477.5 762.1 2477.5 764.6
L 2442.75 769.55
Q 2443.0154296875 771.870703125 2442.95 774 2421.9216796875 766.826171875 2399.9 763.2 2397.809765625 765.5109375 2395.65 767.85 2384.0154296875 787.244921875 2396.65 801.25 2398.087109375 802.80859375 2399.8 804.3 2417.698046875 819.8775390625 2468.5 828.15 2570.94375 849.8091796875 2570.4 795.45 2569.6384765625 789.0900390625 2569.1 782.9 2563.4279296875 752.40390625 2533.2 703.75 2505.8486328125 656.18828125 2534.65 561.75 2539.70078125 545.2759765625 2546.45 527.35 2801.0126953125 347.5408203125 2896.7 609.55 2873.6185546875 614.2216796875 2871.1 635.35 2868.573046875 656.9103515625 2887.45 695.6 2792.8513671875 657.4044921875 2779.75 695.6 2785.7751953125 727.434375 2712.25 776.05 2685.9994140625 781.3076171875 2668.2 786.55 2624.4828125 799.4826171875 2631.8 812.4
L 2698 842.25
Q 2723.68359375 849.0845703125 2748.25 839.1 2791.7033203125 821.5365234375 2831.65 751.4 2794.7326171875 721.25390625 2808.3 716.35
L 2839.45 716.35
Q 2863.0876953125 718.3998046875 2871.9 750.1 2892.025 760.8150390625 2912.15 735.85
L 2943.25 657.95
Q 2957.075 598.225 2995.2 607.35 3027.66328125 684.4798828125 3101.6 661.85 3177.803125 605.6501953125 3206.7 624.2 3222.356640625 676.896875 3299.4 698.9
L 3457.2 682.6 Z"/>

<path fill="#272018" stroke="none" d="
M 2570.4 795.45
Q 2570.3396484375 789.6236328125 2569.1 782.9 2569.6384765625 789.0900390625 2570.4 795.45
M 3440.05 1078.15
Q 3507.6453125 1216.01875 3512 1163.85 3497.19921875 1028.55234375 3560.65 871.85 3484.4671875 946.2677734375 3440.05 1078.15
M 3649.9 1007
Q 3645.38984375 1024.51484375 3637.5 1064.6 3716.2416015625 1093.026171875 3708.95 1120.45 3698.7146484375 1159.1013671875 3630 1157.45 3510.8626953125 1191.6478515625 3566.95 1255.2 3934.622265625 1187.9943359375 3649.9 1007
M 2668.2 786.55
Q 2611.121484375 789.56875 2625.9 648.85 2626.954296875 592.4076171875 2670.5 588 2742.865234375 575.22578125 2784.05 640.7 2806.6689453125 660.5337890625 2810.4 614.35 2810.2125 573.2787109375 2871.1 635.35 2873.6185546875 614.2216796875 2896.7 609.55 2801.0126953125 347.5408203125 2546.45 527.35 2539.70078125 545.2759765625 2534.65 561.75 2628.656640625 579.2978515625 2597.5 646.8 2561.4015625 695.5681640625 2569.1 782.9 2570.3396484375 789.6236328125 2570.4 795.45 2668.9021484375 946.803125 2673.9 1056.3
L 2707.75 1213.55
Q 2749.8357421875 1056.0439453125 2869.05 1142.75
L 2769.75 1009.2
Q 2736.1009765625 963.890625 2704.65 933.4 2677.7728515625 907.3556640625 2652.5 892.15 2677.7728515625 907.3556640625 2704.65 933.4 2757.958203125 935.257421875 2748.25 839.1 2723.68359375 849.0845703125 2698 842.25
L 2631.8 812.4
Q 2624.4828125 799.4826171875 2668.2 786.55 Z"/>

<path fill="#BA7929" stroke="none" d="
M 3637.5 1064.6
Q 3630.6849609375 1098.9875 3630 1157.45 3698.7146484375 1159.1013671875 3708.95 1120.45 3716.2416015625 1093.026171875 3637.5 1064.6 Z"/>

<path fill="#AB8242" stroke="none" d="
M 968.75 894.05
Q 969.5568359375 893.023046875 970.45 892.05
L 958.65 903.85 948.7 896.4
Q 948.7 898.9 948.1 901.25 946.6 906.75 941.75 909.75 941.2 910.1 941.2 911.35
L 941.2 916.3
Q 958.55 907.1 968.75 894.05
M 971.15 891.35
L 971.1 891.4
Q 970.7669921875 891.7330078125 970.45 892.05
L 971.15 891.35
M 2065.7 1170.4
Q 2065.995703125 1170.6716796875 2066.25 1170.95 2067.85 1172.75 2071.65 1172.8 2081.25 1172.15 2090.35 1168.8 2090.4447265625 1168.7677734375 2090.55 1168.7 2078.0943359375 1169.4287109375 2065.7 1170.4
M 2276.1 1172.65
Q 2277.05 1172.75 2278.3 1170.3
L 2263.4 1167.8
Q 2258.5 1157.85 2252.25 1148.7 2247.8 1142.2 2248.45 1130.45
L 2240.95 1118 2226.05 1108.05
Q 2222.45 1097.5 2216.45 1090.25 2210.15 1082.65 2208.6 1073.2 2168.9 1064.7 2145.15 1089.35 2140.9 1093.8 2136.4 1098.1
L 2136.4 1113
Q 2135.15 1114.25 2134.15 1115.7 2132.65 1118 2132 1120.65 2131.4 1122.95 2131.4 1125.45
L 2121.45 1135.45
Q 2120.2 1135.45 2119 1135.15 2114.3 1134.35 2111.85 1138.15 2110.4 1140.45 2109 1142.9
L 2101.55 1145.4
Q 2101.55 1147.85 2100.45 1148.4 2095.2 1151.5 2096.4 1160.35 2096.55 1161.55 2096.55 1162.8 2095.8130859375 1166.877734375 2090.55 1168.7 2180.9611328125 1163.637890625 2276.1 1172.65
M 2365.45 1075.65
Q 2361.7 1073.15 2360.15 1069.75 2356.8 1062.35 2348.05 1063.2 2344.45 1063.25 2342.95 1065.15 2336.65 1072.9 2328.1 1078.15 2329.6 1083.45 2328.9 1084.8 2324.95 1092.6 2318.15 1095.6
L 2303.2 1150.35
Q 2297.35 1158.65 2288.65 1161.45 2281.6 1163.65 2278.3 1170.3
L 2290.75 1170.3
Q 2295.75 1177.3 2302.65 1183.35 2307.55 1187.6 2313.2 1187.7 2362 1165.4 2369.4 1108.55 2371.45 1092.6 2365.45 1075.65
M 1469.9 1027.7
Q 1471.96484375 1031.761328125 1474.05 1035.85 1495.925390625 1038.834375 1515.4 1033.4
L 1484 1035.85 1474.05 1030.85 1469.9 1027.7
M 1515.4 1033.4
L 1516.4 1033.35
Q 1516.3015625 1033.2767578125 1516.2 1033.2 1515.796875 1033.3158203125 1515.4 1033.4
M 1613.5 1075.65
L 1615.05 1066.35
Q 1609.9451171875 1063.6099609375 1604.85 1060.8 1611.4587890625 1068.55 1613.5 1075.65
M 1568.7 1010.95
Q 1565.7 1004.8 1559.8 997.05 1555.25 991 1546.25 986.05 1510.65 982.55 1486.5 998.5
L 1486.5 1013.45
Q 1493.35 1021.3 1501.85 1025 1509.439453125 1028.2033203125 1516.2 1033.2 1527.9408203125 1029.83359375 1538.8 1023.4 1571.63046875 1042.634375 1604.85 1060.8 1604.0111328125 1059.83984375 1603.1 1058.85 1597.05 1052.35 1588.6 1045.8 1586.4 1033.7 1581.4 1022.2 1577.15 1012.35 1568.7 1010.95
M 1455.85 1001
L 1456.65 1010.95 1464.1 1023.4 1469.9 1027.7
Q 1462.8255859375 1014.0060546875 1455.85 1001
M 1357.05 976.1
L 1297.3 981.05
Q 1294.8 981.05 1293.3 979.8 1287.95 975.35 1282.35 968.6 1281.95 960.25 1280.3 955.2 1277.4 946.2 1277.35 936.25
L 1272.4 931.25 1272.4 921.3
Q 1256.45 887.25 1230.15 863.95 1221.8 856.6 1220.1 849.1 1192.55 839.8 1172.4 826.05 1166.05 821.75 1157.85 821.7 1138.8 829.55 1126.95 843.2 1124.1 846.5 1123 851.6
L 1098.1 866.5 1090.6 876.5
Q 1076.1 884.7 1062 895.55 1058.05 898.6 1050.75 898.9
L 1035.85 893.9 1025.85 874 1008.45 869 986.05 876.5 971.15 891.35 978.55 886.45
Q 1032.1 897.95 1075.55 915.5 1084.45 919.15 1095.6 916.3 1120.3 895.95 1147.9 881.45
L 1182.75 881.45
Q 1245.45 921.65 1279.85 983.55
L 1294.8 991
Q 1356.75 984.2 1416.8 971.1 1418.05 968.7 1419.9 968.3 1427.95 966 1436.7 966.1 1446.1619140625 982.840234375 1455.85 1001
L 1451.65 946.2 1431.75 933.75
Q 1430.5 933.75 1429.25 933.75 1426.75 933.75 1424.75 932.75 1421.75 931.25 1419.3 928.75
L 1406.85 928.75 1389.4 943.7 1384.4 961.15 1357.05 976.1
M 1907.45 1175.95
L 1909.8 1185.25 1929.75 1187.7 1929.75 1184.25
Q 1918.46875 1180.248046875 1907.45 1175.95
M 1938.65 1093.3
Q 1937.2 1105.4 1937.2 1118 1932.45 1118.35 1928.5 1120 1921.05 1123.1 1912.3 1123 1914.7 1133.65 1919.85 1141.15 1925.3 1149.1 1929.75 1157.85
L 1929.75 1184.25
Q 1934.69765625 1185.9994140625 1939.7 1187.7 2001.5037109375 1175.4435546875 2065.7 1170.4 2060.978125 1165.5921875 2051.75 1162.8
L 2039.3 1137.9 2046.75 1125.45 2046.75 1098.1 2041.8 1088.1 2021.85 1078.15
Q 2014.6 1084.65 2010 1094.75 2005.55 1104.4 2004.45 1115.5
L 2014.4 1135.45 2014.4 1162.8
Q 2014.85 1166.9 2009.75 1167.6 2001.7 1168.9 1992 1167.8
L 1987 1172.8
Q 1968.8 1174.8 1959.05 1168.65 1948.75 1162.15 1947.15 1150.35 1955 1139.8 1969.85 1137.85 1978.45 1136.85 1979.55 1130.45 1974.65 1110.65 1967.35 1093 1962.8 1081.9 1964.6 1068.2
L 1942.2 1070.7
Q 1940 1082.2 1938.65 1093.3
M 1848.05 1149.7
Q 1841.9005859375 1146.6494140625 1835.8 1143.45 1839.204296875 1148.1681640625 1842.6 1152.85
L 1848.05 1149.7
M 1812.7 1068.2
L 1812.7 1088.1
Q 1821.35 1101.55 1836.95 1111.6 1846.6 1117.85 1855.05 1120.5 1855.05 1121.75 1855.4 1122.9 1856.25 1125.5 1858.1 1127.35 1860 1129.2 1862.5 1130.45
L 1860 1142.9 1848.05 1149.7
Q 1876.6146484375 1163.948828125 1907.45 1175.95
L 1907.3 1175.25
Q 1900.8 1169.6 1898.6 1160.65 1896.7 1152.8 1889.9 1145.4
L 1889.9 1113 1884.9 1108.05
Q 1876.45 1077.1 1862.35 1057.65 1856.65 1049.75 1845.05 1043.3
L 1827.65 1045.8 1812.7 1068.2
M 1769.15 1034.6
Q 1769.776171875 1033.94765625 1770.75 1033.6 1712.238671875 1042.1369140625 1703.15 1100.55
L 1685.7 1095.6 1680.75 1083.15 1663.3 1073.2 1650.85 1048.3 1650.85 1030.85 1630.95 1020.9 1620.95 1030.85 1615.05 1066.35
Q 1664.891015625 1093.3658203125 1715.6 1118 1733.2 1114.1 1747.4 1106.95 1755.95 1102.7 1765.4 1100.55 1798.575390625 1123.948828125 1835.8 1143.45 1812.60703125 1111.09140625 1790.6 1077.95 1780.85 1063.25 1762.9 1060.75
L 1762.9 1043.3
Q 1764.15 1042.05 1764.9 1040.55 1766.8 1036.95 1769.15 1034.6
M 2939.2 1127.05
Q 2932.5234375 1122.340234375 2926.4 1117.3 2925.373828125 1117.1904296875 2924.3 1117.1 2921.8 1117.1 2919.35 1117.1
L 2939.2 1127.05
M 3018.65 1077.4
L 2998.8 1077.4 2988.85 1057.55
Q 2983.85 1055.15 2982.2 1051.2 2949.65 973.75 2864.75 933.4 2862.25 933.4 2862.2 933.7 2846.219140625 1051.6056640625 2926.4 1117.3 2938.4849609375 1118.9068359375 2944.75 1126.6 2949.15 1132 2954.1 1136.95
L 2978.95 1136.95 2988.85 1117.1
Q 3005.3 1128.75 3033.6 1136.8 3085.25 1151.55 3142.75 1146.9 3145.25 1144.4 3147.65 1141.85 3158.5 1130.5 3165.1 1124.35 3167.6 1122.05 3167.6 1117.1 3174.85 1131.5 3192 1138 3202.15 1141.95 3212.3 1146.9
L 3232.15 1146.9 3237.1 1156.85
Q 3239.55 1156.85 3241.8 1157.65 3247 1159.3 3249.7 1163.35 3252 1166.75 3252 1171.7 3276 1183.1 3293.55 1178.35 3305 1175.05 3306.6 1166.75 3306.65 1144.45 3309.8 1122.5 3315.3 1084.45 3286.75 1082.35
L 3271.85 1067.45
Q 3262.95 1056.55 3262.25 1037.65 3261.9 1027.7 3261.95 1017.8 3259.45 1015.3 3257.1 1015.4 3246.55 1016.05 3246.95 1007.9 3247.05 1005.4 3247.05 1002.9
L 3207.3 983.05 3212.3 997.95 3162.65 1077.4
Q 3145.45 1077.2 3138.15 1067.2 3129.2 1054.9 3117.95 1047.6
L 3048.45 1052.55 3018.65 1077.4 Z"/>
</g>

<g id="Layer3_0_FILL">
<path fill="#4B3519" stroke="none" d="
M 3295.55 702.6
Q 3275.9 723.45 3275.9 752.8 3275.9 782.1 3295.55 802.85 3315.35 823.7 3343.1 823.7 3370.9 823.7 3390.55 802.85 3410.35 782.1 3410.35 752.8 3410.35 723.45 3390.55 702.6 3370.9 681.85 3343.1 681.85 3315.35 681.85 3295.55 702.6
M 3294.4 758.85
Q 3294.4 737.7 3309.4 722.6 3324.45 707.65 3345.65 707.65 3366.8 707.65 3381.75 722.6 3396.85 737.7 3396.85 758.85 3396.85 780.05 3381.75 795 3366.8 810.1 3345.65 810.1 3324.45 810.1 3309.4 795 3294.4 780.05 3294.4 758.85 Z"/>

<path fill="#8E4824" stroke="none" d="
M 3309.4 722.6
Q 3294.4 737.7 3294.4 758.85 3294.4 780.05 3309.4 795 3324.45 810.1 3345.65 810.1 3366.8 810.1 3381.75 795 3396.85 780.05 3396.85 758.85 3396.85 737.7 3381.75 722.6 3366.8 707.65 3345.65 707.65 3324.45 707.65 3309.4 722.6
M 3340.3 780.55
Q 3333.65 773.9 3333.65 764.5 3333.65 755.1 3340.3 748.4 3347 741.75 3356.4 741.75 3365.8 741.75 3372.45 748.4 3379.15 755.1 3379.15 764.5 3379.15 773.9 3372.45 780.55 3365.8 787.25 3356.4 787.25 3347 787.25 3340.3 780.55 Z"/>

<path fill="#120A04" stroke="none" d="
M 3333.65 764.5
Q 3333.65 773.9 3340.3 780.55 3347 787.25 3356.4 787.25 3365.8 787.25 3372.45 780.55 3379.15 773.9 3379.15 764.5 3379.15 755.1 3372.45 748.4 3365.8 741.75 3356.4 741.75 3347 741.75 3340.3 748.4 3333.65 755.1 3333.65 764.5 Z"/>
</g>

<g id="Layer2_0_FILL">
<path fill="#4B3519" stroke="none" d="
M 1746.85 320.9
Q 1696.905078125 252.433203125 1651.85 232.3 1618.5056640625 209.4423828125 1601.8 232.3 1532.71015625 206.6220703125 1454.2 255.4 1274.500390625 295.3396484375 1094.8 404.3 1002.9427734375 413.3037109375 949.75 533.95 951.3404296875 567.11796875 993.4 580.15 1028.1068359375 614.29921875 1084.55 622.5 1155.1599609375 616.887109375 1173.3 633.25 1485.8498046875 508.2341796875 1895.4 446.25 1838.68515625 363.787890625 1746.85 320.9
M 2048.6 299.75
Q 2040.3611328125 300.2166015625 2032.15 301.05 2075.1869140625 313.5380859375 2114.05 328.65 2234.955078125 373.386328125 2317.1 445.5
L 2302.5 447.85
Q 2229.125390625 375.83046875 2114.05 328.65 2075.1869140625 313.5380859375 2032.15 301.05 2030.2912109375 301.946875 2043.95 308.35 2085.441015625 355.2494140625 1980.75 380.35 2019.2626953125 386.186328125 2053.4 393.85 2162.047265625 416.271875 2229.15 457.6 2305.7091796875 449.6275390625 2402.6 429.45
L 2379.45 433.45
Q 2323.7501953125 333.350390625 2127.75 236.65 2132.37890625 247.560546875 2141.85 256.05 2170.73125 289.1046875 2048.6 299.75
M 1980.75 380.35
Q 1981.4736328125 384.925 1994.4 389.5 2012.665234375 399.435546875 1995.05 435 1999.2482421875 439.830078125 2006.75 440.2 2095.223828125 445.39296875 2119.3 463.05
L 2129.6 462.75
Q 2158.2439453125 463.119921875 2191.2 460.85 2203.3048828125 460.0564453125 2215.95 458.9 2155.195703125 418.531640625 2053.4 393.85 2019.2626953125 386.186328125 1980.75 380.35
M 2538.15 295.15
Q 2529.1513671875 292.050390625 2521.25 287.25 2488.82734375 243.5978515625 2447.15 229.5 2510.34609375 301.80078125 2546.95 395.25
L 2583.6 385.25
Q 2588.57265625 359.175390625 2538.15 295.15
M 2392.5 264
Q 2341.658984375 235.4853515625 2277.4 218.7 2426.4638671875 298.857421875 2492.95 409.05 2511.3396484375 404.60390625 2530.3 399.8 2537.618359375 349.6345703125 2447.15 229.5 2447.905078125 276.9154296875 2392.5 264
M 2277.4 218.7
Q 2278.5611328125 226.900390625 2282 234.45 2289.531640625 270.311328125 2165.45 245 2147.0619140625 240.617578125 2127.75 236.65 2298.5732421875 315.2845703125 2403.4 429.25 2403.4345703125 429.273046875 2403.45 429.25 2434.9076171875 422.7091796875 2468.5 414.85 2464.256640625 331.285546875 2277.4 218.7
M 2592.05 382.95
L 2614.5 376.85
Q 2588.7806640625 362.78828125 2543.65 295.1 2520.9119140625 260.991015625 2538.15 295.15 2587.0923828125 348.43203125 2590.55 383.35
L 2592.05 382.95
M 2751.3 1058.45
Q 2694.99453125 954.4458984375 2613.3 1188.85 2518.1478515625 1549.74453125 2356.3 1734.6 2366.567578125 1737.941015625 2399.35 1723.2 2646.56015625 1497.677734375 2751.3 1058.45 Z"/>

<path fill="#999900" stroke="none" d="
M 2302.5 447.85
L 2317.1 445.5
Q 2234.955078125 373.386328125 2114.05 328.65 2229.125390625 375.83046875 2302.5 447.85
M 2402.6 429.45
Q 2403.007421875 429.362109375 2403.4 429.25 2298.5732421875 315.2845703125 2127.75 236.65 2323.7501953125 333.350390625 2379.45 433.45
L 2402.6 429.45
M 2491.3 409.45
Q 2492.13359375 409.2525390625 2492.95 409.05 2426.4638671875 298.857421875 2277.4 218.7 2464.256640625 331.285546875 2468.5 414.85 2479.7814453125 412.219921875 2491.3 409.45
M 2215.95 458.9
L 2216 458.9
Q 2222.4958984375 458.28984375 2229.15 457.6 2162.047265625 416.271875 2053.4 393.85 2155.195703125 418.531640625 2215.95 458.9
M 2546.95 395.25
Q 2510.34609375 301.80078125 2447.15 229.5 2537.618359375 349.6345703125 2530.3 399.8
L 2546.95 395.25
M 2583.6 385.25
L 2590.55 383.35
Q 2587.0923828125 348.43203125 2538.15 295.15 2588.57265625 359.175390625 2583.6 385.25 Z"/>
</g>

<g id="Layer1_0_FILL">
<path fill="#999900" stroke="none" d="
M 1352.45 569.3
L 1374.35 562.4
Q 1240.8453125 471.499609375 1107.15 427.7 1265.605078125 489.6939453125 1352.45 569.3
M 1442.1 542.35
L 1461.6 536.9
Q 1338.5228515625 454.0248046875 1178.9 390.75 1349.5109375 463.1443359375 1442.1 542.35
M 1533.85 517.95
L 1555.75 512.05
Q 1436.8755859375 417.9345703125 1279.5 348.25 1436.9015625 424.75390625 1533.85 517.95
M 1760.25 469.6
L 1779.75 465.35
Q 1660.408203125 356.704296875 1508.7 275.5 1653.62890625 360.233984375 1760.25 469.6
M 1638.55 493.35
L 1652.95 490.3
Q 1534.2587890625 386.065625 1382.3 306.65 1525.5357421875 389.8037109375 1638.55 493.35
M 1264.55 598.3
Q 1274.6845703125 594.5693359375 1284.7 590.9 1194.1419921875 525.8966796875 1029.3 482.1 1178.629296875 530.8701171875 1264.55 598.3
M 1200.05 622.75
Q 1207.6083984375 619.8150390625 1215.1 616.9 1147.718359375 559.3279296875 1021.85 558 1161.110546875 568.0609375 1200.05 622.75
M 1841.9 453.7
Q 1848.0439453125 453.1857421875 1854.1 452.7 1732.2111328125 333.119921875 1614.15 252.2 1739.8595703125 343.1025390625 1841.9 453.7 Z"/>

<path fill="#000000" stroke="none" d="
M 399.8 1309.15
Q 512.680859375 1269.9865234375 612.4 1200.45 648.544921875 1175.261328125 682.95 1146.05 684.3859375 1144.8587890625 685.8 1143.65 684.2740234375 1143.9373046875 682.75 1144.2 649.040625 1150.8052734375 616.6 1162.3 499.800390625 1203.7619140625 399.8 1309.15
M 590.9 1108.45
Q 598.596875 1105.0830078125 606.25 1101.55 628.528125 1091.2724609375 650.55 1079.7 599.488671875 1077.813671875 548.8 1087.15 441.0037109375 1107.0521484375 334.95 1177.8 444.943359375 1165.5337890625 549.65 1125.45 570.3919921875 1117.5068359375 590.9 1108.45
M 566.05 1011.05
Q 589.353125 1002.5875 612.5 992.75 567.6376953125 987.3630859375 522.35 990.75 407.503125 999.404296875 289.95 1064.6 430.3935546875 1060.5884765625 566.05 1011.05
M 586.1 913.1
Q 568.623828125 907.487109375 550.8 903.25 413.5193359375 870.9255859375 255.75 922.35 400.439453125 946.0791015625 549.35 920.2 567.7029296875 917.034765625 586.1 913.1
M 595.15 710.85
Q 584.3943359375 707.189453125 573.5 704 561.2822265625 700.3998046875 548.85 697.35 392.0611328125 659.2501953125 210.6 714.85 363.7759765625 742.7296875 522 722.65 548.3666015625 719.299609375 574.85 714.6 585.0001953125 712.832421875 595.15 710.85
M 573.1 811.25
Q 550.553125 803.0361328125 527.3 797.2 395.87578125 764.20078125 242.65 807.5 378.2939453125 835.2931640625 519.5 819 546.1953125 815.9103515625 573.1 811.25 Z"/>
</g>

<path id="Layer5_0_1_STROKES" stroke="#000000" stroke-width="1" stroke-linejoin="round" stroke-linecap="round" fill="none" d="
M 2337.8 1452.85
L 2305.6 1553.15
Q 2315.7365234375 1603.8 2305.6 1654.45 2298.3802734375 1778.4515625 2273.45 1815.25 2254.9142578125 1840.1986328125 2280.05 1834.5 2478.45 1793.7 2627.2 1569.25
L 2722.45 1403
Q 2530.125 1455.4126953125 2337.8 1452.85 Z
M 1262.85 1071.95
Q 1173.88203125 1160.83046875 1112.45 1136.85 1064.903515625 1159.4818359375 1051 1188.25 1111.480859375 1235.896875 1083.8 1302.85 1125.764453125 1353.9685546875 1140.25 1405.5 1185.994921875 1427.16796875 1237.95 1418.15 1316.275 1453.173828125 1394.6 1381.1 1420.805078125 1376.21171875 1432.5 1397.1 1496.2603515625 1360.4701171875 1508.3 1408.9 1606.713671875 1337.2369140625 1605.15 1395.4 1626.8126953125 1391.8349609375 1677.85 1311.2
L 1262.85 1071.95 Z"/>

<path id="Layer4_0_1_STROKES" stroke="#000000" stroke-width="1" stroke-linejoin="round" stroke-linecap="round" fill="none" d="
M 2912.15 735.85
L 2943.25 657.95
Q 2957.075 598.225 2995.2 607.35 3027.66328125 684.4798828125 3101.6 661.85 3177.803125 605.6501953125 3206.7 624.2 3222.356640625 676.896875 3299.4 698.9
L 3457.2 682.6
Q 3507.69140625 682.2021484375 3525.95 755.3 3537.7791015625 766.92265625 3613.8 793.6 3624.3484375 769.480859375 3672.35 725.35
L 3653.65 725.35
Q 3545.62890625 689.8755859375 3508.6 654.4 3480.7857421875 623.666015625 3298.85 569.25 3182.3771484375 537.785546875 3071.8 471.5 3003.1498046875 435.590625 2614.5 376.85 2179.3236328125 502.228515625 1895.4 446.25 1440.09609375 519.35859375 1184.25 627.6 1174.3517578125 633.1193359375 1162.55 638 1173.865234375 639.36171875 1183 642.35
M 1375.775 642.3
Q 1376.6634765625 611.8095703125 1404.05 591.7 1480.1216796875 574.7732421875 1506.35 599.45
M 1668.075 575.175
Q 1678.815234375 568.0375 1714.8 566.9 1822.234765625 548.558203125 1882.55 566.9 1927.3451171875 593.7501953125 1895.8 620.6 1847.1642578125 619.3271484375 1812.55 625.75
M 2308.925 608.95
Q 2332.25078125 555.41875 2454.6 618.8 2484.3861328125 645.524609375 2444.675 706.675
M 2399.9 763.2
Q 2397.809765625 765.5109375 2395.65 767.85 2384.0154296875 787.244921875 2396.675 801.25 2398.087109375 802.80859375 2399.8 804.3 2417.698046875 819.8775390625 2468.5 828.15 2570.94375 849.8091796875 2570.4 795.45 2569.6384765625 789.0900390625 2569.1 782.925 2563.4279296875 752.40390625 2533.2 703.75 2505.8486328125 656.18828125 2534.675 561.775 2539.70078125 545.2759765625 2546.45 527.35 2801.0126953125 347.5408203125 2896.7 609.55 2873.6185546875 614.2216796875 2871.125 635.35 2868.573046875 656.9103515625 2887.45 695.6 2792.8513671875 657.4044921875 2779.75 695.6 2785.7751953125 727.434375 2712.25 776.05 2685.9994140625 781.3076171875 2668.2 786.575 2624.4828125 799.4826171875 2631.8 812.4
L 2698 842.25
Q 2723.68359375 849.0845703125 2748.25 839.125 2791.7033203125 821.5365234375 2831.65 751.4 2794.7326171875 721.25390625 2808.3 716.35
L 2839.45 716.35
Q 2863.0876953125 718.3998046875 2871.9 750.1 2892.025 760.8150390625 2912.15 735.85 2906.4642578125 803.891015625 2987.05 812.15 3037.5271484375 817.5828125 3073.05 735.85 3116.2046875 731.224609375 3104.2 852.65 3093.165625 893.824609375 3128.25 881.1 3190.9396484375 817.3548828125 3227.65 811.85 3266.741796875 776.7787109375 3394 1003.35 3490.1076171875 884.4978515625 3613.8 793.6
M 3672.35 725.35
L 3677.3 725.35
Q 3752.7947265625 721.9970703125 3740.4 790 3653.6845703125 992.18828125 3649.9 1007 3934.622265625 1187.9943359375 3566.95 1255.2 3421.6783203125 1241.8927734375 3270.5 1193.7
L 3129.9 1252.2 3064.3 1279.5
Q 2149.2837890625 1708.333203125 1271.75 1076.35 1030.9689453125 955.108203125 836.75 1076.35 532.27734375 1419.527734375 377.6 1401.3 229.4833984375 1268.8728515625 230.2 1143.65 230.7169921875 1055.742578125 203.5 940.2 157.208203125 820.4333984375 41.05 735.6 325.249609375 564.3126953125 736.475 624.75 759.0029296875 628.046875 781.9 632.05 870.0328125 647.454296875 963.8 673.15 1020.3619140625 670.1005859375 1065.175 663.125 1073.458984375 661.8271484375 1081.35 660.4 1129.43984375 651.7046875 1162.55 638
M 2668.2 786.575
Q 2611.121484375 789.56875 2625.9 648.85 2626.954296875 592.4076171875 2670.5 588 2742.865234375 575.22578125 2784.05 640.7 2806.6689453125 660.5337890625 2810.4 614.35 2810.2125 573.2787109375 2871.125 635.35
M 2652.5 892.15
Q 2677.7728515625 907.3556640625 2704.675 933.425 2757.958203125 935.257421875 2748.25 839.125
M 2704.675 933.425
Q 2736.1009765625 963.890625 2769.75 1009.2
L 2869.05 1142.75 2891.3 1172.65
Q 2935.375 1230.1275390625 3003.8 1252.2 3060.3076171875 1271.741015625 3129.9 1252.2
M 2707.75 1213.55
L 2564.3 1350.35
Q 2419.928515625 1417.238671875 2435.3 1376.8 2586.52578125 1159.1521484375 2544.8 1159.8 2451.744921875 1165.38203125 2479.45 1140.2 2538.92890625 1128.1294921875 2565.05 1094.9 2572.47109375 1032.6720703125 2621.85 1009.75 2651.0490234375 993.818359375 2673.9 1056.3 2668.9021484375 946.803125 2570.4 795.45 2570.3396484375 789.6236328125 2569.1 782.925 2561.4015625 695.5681640625 2597.5 646.8 2628.656640625 579.2978515625 2534.675 561.775
M 2869.05 1142.75
Q 2749.8357421875 1056.0439453125 2707.75 1213.55
L 2673.9 1056.3
M 3649.9 1007
Q 3645.38984375 1024.51484375 3637.5 1064.6 3630.6849609375 1098.9875 3630 1157.45
M 3637.5 1064.6
Q 3716.2416015625 1093.026171875 3708.95 1120.45 3698.7146484375 1159.1013671875 3630 1157.45 3510.8626953125 1191.6478515625 3566.95 1255.2
M 3394 1003.35
Q 3378.4958984375 1022.519921875 3363.95 1042.55 3254.8896484375 1156.873828125 3392.35 1159.8 3408.652734375 1164.4345703125 3440.075 1078.15 3484.4671875 946.2677734375 3560.65 871.85 3497.19921875 1028.55234375 3512 1163.85 3507.6453125 1216.01875 3440.075 1078.15
M 3678.6 760.75
Q 3570.7296875 974.291015625 3596.45 1108.25
M 1982.375 845.025
Q 1945.9037109375 879.899609375 1928.85 853.65 1927.5564453125 851.203125 1926.3 848.9
M 1886.65 820.525
Q 1884.928515625 822.9189453125 1883.4 826.4 1858.1998046875 866.7642578125 1833 866.9 1753.6423828125 867.6806640625 1728.05 792.5 1724.562109375 780.7328125 1723.225 768.6
M 1588.9 792.375
Q 1585.6919921875 796.5482421875 1582.6 800.75 1527.4248046875 847.106640625 1515.65 827.2 1503.5974609375 803.8322265625 1485.05 799.95
L 1453.65 799.95
Q 1368.72890625 786.66328125 1411.5 747.9 1435.0875 740.0216796875 1448.65 725.95
M 1366.5 724.35
Q 1338.93046875 783.7541015625 1285.9 804.9 1259.3794921875 804.8275390625 1240.375 789.65
M 1097.05 700.05
Q 1100.4052734375 707.376171875 1103.05 715.85 1106.88125 762.825 1068.8 790.5 1021.9736328125 811.9958984375 988.1 762.25 992.82265625 724.26171875 945.8 705.8 917.4833984375 692.733984375 834.85 727.95 747.8982421875 723.4802734375 781.9 632.05
M 2105.775 770.9
Q 2096.8234375 780.521875 2086.25 791.05 2055.68203125 838.6494140625 2204.2 844.7 2305.4169921875 931.7509765625 2335.35 804.95 2337.33125 791.6494140625 2333.725 767.2
M 2105.775 770.9
Q 2165.611328125 706.582421875 2153.15 682.6 2109.686328125 639.012890625 2009.85 682.6 1979.2318359375 697.1375 1988.35 722.25 2043.9970703125 766.9158203125 2032.15 782.6 2003.8861328125 824.43828125 1982.375 845.025
M 1886.65 820.525
Q 1900.23203125 801.6736328125 1926.3 848.9
M 1723.225 768.6
Q 1716.8787109375 711.1611328125 1758.6 645.4 1778.9880859375 631.959765625 1812.55 625.75
M 1668.075 575.175
Q 1655.2505859375 583.7060546875 1678.45 600.8 1755.4296875 633.083203125 1705.7 680.1 1635.23671875 732.241796875 1588.9 792.375
M 1448.65 725.95
Q 1468.128125 705.7212890625 1466.9 672.7 1479.8173828125 631.9337890625 1518.1 619.8 1514.835546875 607.4458984375 1506.35 599.45
M 1375.775 642.3
Q 1375.28828125 658.8505859375 1382.6 678.45 1376.090625 703.70234375 1366.5 724.35
M 1240.375 789.65
Q 1228.6599609375 780.31796875 1219.8 765.25 1205.1755859375 746.512109375 1219.8 713.15 1228.9287109375 657.3140625 1183 642.35
M 1097.05 700.05
Q 1087.6498046875 679.609765625 1072.65 668.1 1069.0671875 665.359375 1065.175 663.125
M 2444.675 706.675
Q 2428.246875 731.9857421875 2399.9 763.2
M 2333.725 767.2
Q 2327.3646484375 723.992578125 2303.55 645.95 2302.7013671875 623.2697265625 2308.925 608.95
M 657.775 981.2
Q 649.409375 967.422265625 640.975 951.925 640.0658203125 950.251953125 639.15 948.55 542.4662109375 692.80390625 736.475 624.75
M 836.75 1076.35
Q 751.2236328125 1135.1994140625 657.775 981.2"/>

<path id="Layer3_0_1_STROKES" stroke="#000000" stroke-width="1" stroke-linejoin="round" stroke-linecap="round" fill="none" d="
M 3396.85 758.85
Q 3396.85 780.05 3381.75 795 3366.8 810.1 3345.65 810.1 3324.45 810.1 3309.4 795 3294.4 780.05 3294.4 758.85 3294.4 737.7 3309.4 722.6 3324.45 707.65 3345.65 707.65 3366.8 707.65 3381.75 722.6 3396.85 737.7 3396.85 758.85 Z
M 3410.35 752.8
Q 3410.35 782.1 3390.55 802.85 3370.9 823.7 3343.1 823.7 3315.35 823.7 3295.55 802.85 3275.9 782.1 3275.9 752.8 3275.9 723.45 3295.55 702.6 3315.35 681.85 3343.1 681.85 3370.9 681.85 3390.55 702.6 3410.35 723.45 3410.35 752.8 Z
M 3379.15 764.5
Q 3379.15 773.9 3372.45 780.55 3365.8 787.25 3356.4 787.25 3347 787.25 3340.3 780.55 3333.65 773.9 3333.65 764.5 3333.65 755.1 3340.3 748.4 3347 741.75 3356.4 741.75 3365.8 741.75 3372.45 748.4 3379.15 755.1 3379.15 764.5 Z"/>

<path id="Layer2_0_1_STROKES" stroke="#000000" stroke-width="1" stroke-linejoin="round" stroke-linecap="round" fill="none" d="
M 2590.55 383.375
L 2592.05 382.975 2614.5 376.85
Q 2588.7806640625 362.78828125 2543.65 295.1 2520.9119140625 260.991015625 2538.15 295.15 2587.0923828125 348.43203125 2590.55 383.375
L 2590.575 383.4 2592.05 382.975
M 2751.3 1058.45
Q 2646.56015625 1497.677734375 2399.35 1723.2 2366.567578125 1737.941015625 2356.3 1734.6 2518.1478515625 1549.74453125 2613.3 1188.85 2694.99453125 954.4458984375 2751.3 1058.45 Z
M 2215.975 458.9
Q 2203.3048828125 460.0564453125 2191.225 460.875 2158.2439453125 463.119921875 2129.6 462.75
L 2119.3 463.05
Q 2095.223828125 445.39296875 2006.75 440.2 1999.2482421875 439.830078125 1995.05 435 2012.665234375 399.435546875 1994.4 389.5 1981.4736328125 384.925 1980.75 380.35 2085.441015625 355.2494140625 2043.95 308.35 2030.2912109375 301.946875 2032.15 301.05 2040.3611328125 300.2166015625 2048.625 299.75 2170.73125 289.1046875 2141.85 256.05 2132.37890625 247.560546875 2127.75 236.65 2147.0619140625 240.617578125 2165.45 245.025 2289.531640625 270.311328125 2282 234.45 2278.5611328125 226.900390625 2277.4 218.7 2341.658984375 235.4853515625 2392.5 264 2447.905078125 276.9154296875 2447.15 229.5 2488.82734375 243.5978515625 2521.25 287.25 2529.1513671875 292.050390625 2538.15 295.15 2588.57265625 359.175390625 2583.6 385.275
L 2590.55 383.375
M 2583.6 385.275
L 2546.95 395.275
Q 2510.34609375 301.80078125 2447.15 229.5
M 2546.95 395.275
L 2530.3 399.8
Q 2511.3396484375 404.60390625 2492.975 409.05 2492.13359375 409.2525390625 2491.3 409.45 2479.7814453125 412.219921875 2468.5 414.85 2434.9076171875 422.7091796875 2403.45 429.275 2403.4345703125 429.273046875 2403.425 429.275 2403.007421875 429.362109375 2402.6 429.45 2305.7091796875 449.6275390625 2229.15 457.6 2222.4958984375 458.28984375 2216 458.9
L 2215.975 458.9
Q 2155.195703125 418.531640625 2053.425 393.85 2019.2626953125 386.186328125 1980.75 380.35
M 2032.15 301.05
Q 2075.1869140625 313.5380859375 2114.075 328.675 2234.955078125 373.386328125 2317.1 445.5
L 2302.5 447.85
Q 2229.125390625 375.83046875 2114.075 328.675
M 2403.425 429.275
Q 2298.5732421875 315.2845703125 2127.75 236.65 2323.7501953125 333.350390625 2379.45 433.45
L 2402.6 429.45
M 2053.425 393.85
Q 2162.047265625 416.271875 2229.15 457.6
M 2492.975 409.05
Q 2426.4638671875 298.857421875 2277.4 218.7 2464.256640625 331.285546875 2468.5 414.85
M 2447.15 229.5
Q 2537.618359375 349.6345703125 2530.3 399.8
M 1895.4 446.25
Q 1838.68515625 363.787890625 1746.85 320.9 1696.905078125 252.433203125 1651.85 232.3 1618.5056640625 209.4423828125 1601.8 232.3 1532.71015625 206.6220703125 1454.2 255.4 1274.500390625 295.3396484375 1094.8 404.3 1002.9427734375 413.3037109375 949.75 533.95 951.3404296875 567.11796875 993.4 580.15 1028.1068359375 614.29921875 1084.55 622.5 1155.1599609375 616.887109375 1173.3 633.25 1485.8498046875 508.2341796875 1895.4 446.25 Z"/>

<path id="Layer1_0_1_STROKES" stroke="#000000" stroke-width="1" stroke-linejoin="round" stroke-linecap="round" fill="none" d="
M 1555.75 512.05
Q 1436.8755859375 417.9345703125 1279.5 348.25 1436.9015625 424.75390625 1533.85 517.95
L 1555.75 512.05 Z
M 1107.15 427.7
Q 1265.605078125 489.6939453125 1352.45 569.3
L 1374.35 562.4
Q 1240.8453125 471.499609375 1107.15 427.7 Z
M 1461.6 536.9
Q 1338.5228515625 454.0248046875 1178.9 390.75 1349.5109375 463.1443359375 1442.1 542.35
L 1461.6 536.9 Z
M 1854.1 452.7
Q 1732.2111328125 333.119921875 1614.15 252.2 1739.8595703125 343.1025390625 1841.925 453.725 1848.0439453125 453.1857421875 1854.1 452.7 Z
M 1842.55 454.4
Q 1842.2423828125 454.0662109375 1841.925 453.725
M 1779.75 465.35
Q 1660.408203125 356.704296875 1508.7 275.5 1653.62890625 360.233984375 1760.25 469.6
L 1779.75 465.35 Z
M 1652.95 490.3
Q 1534.2587890625 386.065625 1382.3 306.65 1525.5357421875 389.8037109375 1638.55 493.35
L 1652.95 490.3 Z
M 1215.125 616.925
Q 1240.083984375 607.3443359375 1264.575 598.3 1178.629296875 530.8701171875 1029.3 482.1 1194.1419921875 525.8966796875 1284.725 590.925 1274.6845703125 594.5693359375 1264.575 598.3
M 1021.85 558
Q 1161.110546875 568.0609375 1200.05 622.75 1207.6083984375 619.8150390625 1215.125 616.925 1147.718359375 559.3279296875 1021.85 558 Z
M 210.6 714.85
Q 392.0611328125 659.2501953125 548.875 697.375 561.2822265625 700.3998046875 573.525 704 584.3943359375 707.189453125 595.15 710.85 585.0001953125 712.832421875 574.875 714.625 548.3666015625 719.299609375 522 722.65 363.7759765625 742.7296875 210.6 714.85 Z
M 255.75 922.35
Q 413.5193359375 870.9255859375 550.8 903.275 568.623828125 907.487109375 586.1 913.1 567.7029296875 917.034765625 549.375 920.225 400.439453125 946.0791015625 255.75 922.35 Z
M 242.65 807.5
Q 395.87578125 764.20078125 527.325 797.2 550.553125 803.0361328125 573.1 811.25 546.1953125 815.9103515625 519.5 819 378.2939453125 835.2931640625 242.65 807.5 Z
M 334.95 1177.8
Q 441.0037109375 1107.0521484375 548.825 1087.15 599.488671875 1077.813671875 650.55 1079.7 628.528125 1091.2724609375 606.25 1101.55 598.596875 1105.0830078125 590.925 1108.475 570.3919921875 1117.5068359375 549.65 1125.45 444.943359375 1165.5337890625 334.95 1177.8 Z
M 289.95 1064.6
Q 407.503125 999.404296875 522.35 990.775 567.6376953125 987.3630859375 612.5 992.75 589.353125 1002.5875 566.075 1011.075 430.3935546875 1060.5884765625 289.95 1064.6 Z
M 399.8 1309.15
Q 499.800390625 1203.7619140625 616.625 1162.3 649.040625 1150.8052734375 682.75 1144.225 684.2740234375 1143.9373046875 685.8 1143.65 684.3859375 1144.8587890625 682.975 1146.05 648.544921875 1175.261328125 612.4 1200.475 512.680859375 1269.9865234375 399.8 1309.15 Z"/>
</defs>

<g transform="matrix( 1, 0, 0, 1, 0,0) ">
<use xlink:href="#Layer5_0_FILL"/>

<use xlink:href="#Layer5_0_1_STROKES"/>
</g>

<g transform="matrix( 1, 0, 0, 1, 0,0) ">
<use xlink:href="#Layer4_0_FILL"/>

<use xlink:href="#Layer4_0_1_STROKES"/>
</g>

<g transform="matrix( 1, 0, 0, 1, 0,0) ">
<use xlink:href="#Layer3_0_FILL"/>

<use xlink:href="#Layer3_0_1_STROKES"/>
</g>

<g transform="matrix( 1, 0, 0, 1, 0,0) ">
<use xlink:href="#Layer2_0_FILL"/>

<use xlink:href="#Layer2_0_1_STROKES"/>
</g>

<g transform="matrix( 1, 0, 0, 1, 0,0) ">
<use xlink:href="#Layer1_0_FILL"/>

<use xlink:href="#Layer1_0_1_STROKES"/>
</g>
</svg>
