
<svg xmlns="http://www.w3.org/2000/svg" version="1.1" xmlns:xlink="http://www.w3.org/1999/xlink" preserveAspectRatio="none" x="0px" y="0px" width="3840px" height="1920px" viewBox="0 0 3840 1920">
<defs>
<linearGradient id="Gradient_1" gradientUnits="userSpaceOnUse" x1="0" y1="0" x2="0" y2="0" spreadMethod="repeat">
<stop  offset="0%" stop-color="#50463A"/>

<stop  offset="10.588235294117647%" stop-color="#333333"/>

<stop  offset="21.176470588235293%" stop-color="#323232"/>

<stop  offset="100%" stop-color="#50463A"/>

<stop  offset="100%" stop-color="#000000"/>

<stop  offset="100%" stop-color="#50463A"/>

<stop  offset="100%" stop-color="#524839"/>

<stop  offset="100%" stop-color="#000000"/>

<stop  offset="100%" stop-color="#000000"/>

<stop  offset="100%" stop-color="#000000"/>

<stop  offset="100%" stop-color="#000000"/>

<stop  offset="100%" stop-color="#50463A"/>
</linearGradient>

<linearGradient id="Gradient_2" gradientUnits="userSpaceOnUse" x1="2041.6375" y1="688.2" x2="2164.1625" y2="1679.3" spreadMethod="pad">
<stop  offset="1.9607843137254901%" stop-color="#8A8F4F"/>

<stop  offset="99.2156862745098%" stop-color="#666666"/>
</linearGradient>

<image id="Bitmap_1" x="0" y="0" width="620" height="349" xlink:href="./images/Bitmap_1.png"/>

<g id="Layer2_0_FILL">
<path fill="#50463A" stroke="none" d="
M 1149.3 1167.8
Q 918.06171875 1134.369921875 882.55 1184.85 996.47734375 1203.6212890625 996.65 1263.8 1069.703515625 1217.91875 1298.55 1220.8 1223.7 1194.7890625 1149.3 1167.8
M 371.7 1014.55
Q 351.484375 990.65625 340.75 965.85 174.275 958.038671875 15.95 1040.75 30.4115234375 1091.3296875 18.4 1149.75 183.731640625 1055.725390625 371.7 1014.55
M 445.05 1078.45
Q 425.628125 1065.2037109375 409.45 1051.65 201.7328125 1132.8953125 25.55 1245.7 39.602734375 1282.944921875 36.95 1339.25 249.1615234375 1264.2056640625 411.15 1105.4 424.652734375 1090.2126953125 445.05 1078.45
M 336.65 860.45
Q 345.128125 834.692578125 362.45 808.1 215.5849609375 697.45703125 45 722.05 51.791015625 765.179296875 31.6 808.65 212.6302734375 761.3291015625 336.65 860.45
M 80.75 563.3
Q 98.415625 603.2634765625 60.85 643.5 219.715234375 652.721484375 394.5 766.5 402.1408203125 757.925390625 410.6 749.25 242.3611328125 597.2212890625 80.75 563.3
M 1221.2 587.1
Q 1071.3634765625 610.6123046875 1040.8 574.3 1054.134375 610.29765625 960.05 628.35 979.0091796875 655.5826171875 1096.7 627.95 1159.5078125 606.48515625 1221.2 587.1
M 2362.6 1574.8
Q 2323.323046875 1561.36328125 2328.5 1530.05 2285.00390625 1518.98125 2241.65 1507.6 2227.6990234375 1554.3798828125 2261.95 1585.2 2263.99140625 1547.8015625 2362.6 1574.8
M 2142.1 1481.1
Q 2103.409765625 1470.6505859375 2064.8 1459.95 2008.07890625 1527.5966796875 2025.2 1587 2077.9392578125 1546.4951171875 2140.9 1590.15 2117.1515625 1543.796875 2142.1 1481.1
M 1351.2 1466.95
Q 1432.77421875 1391.066796875 1642.8 1334.95 1566.0849609375 1310.756640625 1489.85 1285.6 1241.9185546875 1301.141015625 1176.8 1367.35 1267.766796875 1373.6267578125 1282.9 1422.05 1349.003515625 1422.7982421875 1351.2 1466.95
M 1710.3 1565.55
Q 1713.8869140625 1484.120703125 1893.2 1411.05 1835.7958984375 1394.255859375 1778.65 1376.95 1573.394140625 1436.5140625 1518.95 1536.4 1672.87265625 1496.530859375 1710.3 1565.55
M 1776.3 451.55
Q 1825.1474609375 443.3361328125 1873.15 436.7 1671.5125 384.1130859375 1628.85 274.75 1609.4107421875 322.1845703125 1527.2 313.05 1621.358984375 418.743359375 1776.3 451.55
M 1320.1 414.55
Q 1407.61640625 479.13203125 1581.1 489.85 1631.205078125 478.6623046875 1680.5 469 1521.976953125 469.8837890625 1422.8 363.85 1461.2841796875 406.6537109375 1320.1 414.55
M 1342.65 550.65
Q 1398.9630859375 534.622265625 1454.3 520.35 1286.329296875 524.137890625 1230.25 471.75 1256.008984375 504.488671875 1126.4 521.55 1183.1671875 564.6439453125 1342.65 550.65
M 1991.15 422.6
Q 2054.121875 416.3462890625 2115.6 412.85 1918.9013671875 360.234375 1849.1 256.8 1868.9884765625 297.96640625 1729.45 258.3 1823.75234375 358.7009765625 1991.15 422.6
M 2115.6 412.85
Q 2163.7853515625 410.1693359375 2211.05 409.15 2038.1896484375 380.3306640625 1999.2 278.4 2003.6806640625 311.0015625 1849.1 256.8 1918.9013671875 360.234375 2115.6 412.85
M 2238.7 317.15
Q 2217.2630859375 342.78359375 2126.65 300.05 2169.0126953125 372.761328125 2296.6 408.8 2339.1328125 409.3271484375 2380.9 411.3 2253.5501953125 376.7484375 2238.7 317.15
M 2466.55 360.25
Q 2459.27421875 389.1517578125 2356.25 337.5 2386.834375 382.56015625 2461.95 416.55 2499.586328125 419.65546875 2536.6 423.95 2465.071875 398.17890625 2466.55 360.25
M 2938.6 1486.05
Q 2887.5328125 1513.407421875 2843.3 1534.25 2837.9779296875 1626.5236328125 2907.8 1566.85 2932.9564453125 1550.7263671875 2938.6 1486.05
M 2998.6 1453.05
Q 2967.518359375 1470.6091796875 2938.6 1486.05 2932.9564453125 1550.7263671875 2907.8 1566.85 2979.121484375 1657.416015625 2998.6 1453.05
M 3015.25 553.6
Q 3024.6115234375 556.971484375 3033.95 560.35 3021.8927734375 543.562109375 3023.5 521.05 3017.3505859375 529.3033203125 2993.75 513.25 2993.386328125 534.505078125 3015.25 553.6
M 2955.45 532.55
Q 2939.7578125 517.988671875 2938.35 501.25 2932.826171875 505.1345703125 2915 497.75 2916.758984375 512.9482421875 2930.85 524.1 2943.1724609375 528.321484375 2955.45 532.55
M 3142.8 557.25
Q 3128.4982421875 559.303125 3114.9 548.25 3119.8134765625 573.1 3135.05 597.95 3145.5005859375 601.950390625 3155.9 605.95 3142.2015625 581.6125 3142.8 557.25
M 3083.35 578.45
Q 3099.4953125 584.4501953125 3115.55 590.5 3095.795703125 565.9625 3093.05 541.4 3080.3564453125 549.58984375 3068.3 533.85 3070.15703125 558.0517578125 3083.35 578.45
M 2896.95 496.2
Q 2893.903125 507.9314453125 2905.5 515.5 2918.19921875 519.7822265625 2930.85 524.1 2916.758984375 512.9482421875 2915 497.75 2906.899609375 500.721484375 2896.95 496.2
M 3265.6 599.4
Q 3267.05546875 625.398046875 3274.85 653.55 3285.3443359375 657.926171875 3295.8 662.3 3285.900390625 635.65 3292.3 609 3280.7029296875 612.8748046875 3265.6 599.4
M 3252.75 644.5
Q 3263.8365234375 649.0216796875 3274.85 653.55 3267.05546875 625.398046875 3265.6 599.4 3249.9669921875 602.2177734375 3241.8 590.95 3240.5658203125 618.658203125 3252.75 644.5
M 3353.05 639.95
Q 3344.5806640625 644.300390625 3330.95 626.95 3337.559765625 658.83046875 3358.1 688.8 3373.2771484375 695.387890625 3388.35 702 3364.1853515625 672.85234375 3353.05 639.95 Z"/>

<path fill="url(#Gradient_1)" stroke="none" d="
M 748.55 1015.35
Q 800.8451171875 1055.05859375 784.25 1091.25 833.166015625 1061.9490234375 983.25 1106.3 914.88515625 1080.394140625 846.9 1053.7 801.6328125 1024.7703125 748.55 1015.35
M 1149.3 1167.8
Q 1065.9943359375 1137.6400390625 983.25 1106.3 833.166015625 1061.9490234375 784.25 1091.25 876.90703125 1122.7658203125 882.55 1184.85 918.06171875 1134.369921875 1149.3 1167.8
M 409.45 1051.65
Q 387.642578125 1033.390625 371.7 1014.55 183.731640625 1055.725390625 18.4 1149.75 35.7326171875 1186.4060546875 25.55 1245.7 201.7328125 1132.8953125 409.45 1051.65
M 328.75 914.4
Q 327.67578125 887.9017578125 336.65 860.45 212.6302734375 761.3291015625 31.6 808.65 43.0638671875 862.7765625 20.65 917.45 186.8802734375 842.4244140625 328.75 914.4
M 340.75 965.85
Q 329.8275390625 940.5955078125 328.75 914.4 186.8802734375 842.4244140625 20.65 917.45 33.855859375 978.75859375 15.95 1040.75 174.275 958.038671875 340.75 965.85
M 60.85 643.5
Q 67.111328125 685.7033203125 45 722.05 215.5849609375 697.45703125 362.45 808.1 375.83671875 787.5509765625 394.5 766.5 219.715234375 652.721484375 60.85 643.5
M 98.5 502.2
Q 99.78125 554.0001953125 80.75 563.3 242.3611328125 597.2212890625 410.6 749.25 424.2484375 735.3662109375 440.15 721.25 398.3041015625 694.9125 360.2 655.75 204.2052734375 487.7333984375 98.5 502.2
M 1126.4 521.55
Q 1154.9517578125 554.3900390625 1040.8 574.3 1071.3634765625 610.6123046875 1221.2 587.1 1282.4607421875 567.85078125 1342.65 550.65 1183.1671875 564.6439453125 1126.4 521.55
M 829.85 728.85
Q 845.4419921875 722.1322265625 861.3 714.45 980.86796875 667.6298828125 1096.7 627.95 979.0091796875 655.5826171875 960.05 628.35 973.3173828125 653.934765625 829.85 728.85
M 2328.5 1530.05
Q 2323.323046875 1561.36328125 2362.6 1574.8 2367.305859375 1551.1712890625 2452.1 1560.85 2390.157421875 1545.736328125 2328.5 1530.05
M 2241.65 1507.6
Q 2191.7876953125 1494.56484375 2142.1 1481.1 2117.1515625 1543.796875 2140.9 1590.15 2160.71328125 1554.390234375 2261.95 1585.2 2227.6990234375 1554.3798828125 2241.65 1507.6
M 2064.8 1459.95
Q 2033.76171875 1451.3421875 2002.8 1442.55 1872.8943359375 1498.626171875 1881 1571.95 1990.4298828125 1526.240234375 2025.2 1587 2008.07890625 1527.5966796875 2064.8 1459.95
M 1853.55 1554
Q 1857.0580078125 1568.4185546875 1881 1571.95 1872.8943359375 1498.626171875 2002.8 1442.55 1947.8875 1427.0466796875 1893.2 1411.05 1713.8869140625 1484.120703125 1710.3 1565.55 1825.7494140625 1530.92421875 1853.55 1554
M 1489.85 1285.6
Q 1393.8298828125 1253.9734375 1298.55 1220.8 1069.703515625 1217.91875 996.65 1263.8 1159.0841796875 1270.6115234375 1176.8 1367.35 1241.9185546875 1301.141015625 1489.85 1285.6
M 1351.2 1466.95
Q 1495.1291015625 1471.0443359375 1518.95 1536.4 1573.394140625 1436.5140625 1778.65 1376.95 1710.5392578125 1356.3177734375 1642.8 1334.95 1432.77421875 1391.066796875 1351.2 1466.95
M 1581.1 489.85
Q 1407.61640625 479.13203125 1320.1 414.55 1352.46640625 463.648046875 1224.3 465.7 1227.915234375 468.797265625 1230.25 471.75 1286.329296875 524.137890625 1454.3 520.35 1518.3447265625 503.9169921875 1581.1 489.85
M 1422.15 363.2
L 1422.8 363.85
Q 1521.976953125 469.8837890625 1680.5 469 1728.7828125 459.530859375 1776.3 451.55 1621.358984375 418.743359375 1527.2 313.05 1557.9150390625 349.9296875 1422.15 363.2
M 1628.85 274.75
L 1628.85 274.75
Q 1671.5125 384.1130859375 1873.15 436.7 1932.7943359375 428.449609375 1991.15 422.6 1823.75234375 358.7009765625 1729.45 258.3 1751.4537109375 298.1685546875 1628.8 274.7
L 1628.85 274.75
M 2380.9 411.3
Q 2421.7787109375 413.2357421875 2461.95 416.55 2386.834375 382.56015625 2356.25 337.5 2369.4958984375 361.0935546875 2238.7 317.15 2253.5501953125 376.7484375 2380.9 411.3
M 2037.2 287.5
Q 2018.0701171875 282.575 1999.2 278.4 2038.1896484375 380.3306640625 2211.05 409.15 2254.2052734375 408.27109375 2296.6 408.8 2169.0126953125 372.761328125 2126.65 300.05 2109.662890625 322.672265625 2037.2 287.5
M 2555.8 383.65
Q 2539.4033203125 402.903515625 2466.55 360.25 2465.071875 398.17890625 2536.6 423.95 2566.7388671875 427.4802734375 2596.45 431.8 2544.884375 413.9166015625 2555.8 383.65
M 3023.5 521.05
Q 3021.8927734375 543.562109375 3033.95 560.35 3045.6212890625 564.5640625 3057.25 568.8 3044.8833984375 548.69296875 3043.9 526.75 3031.6794921875 530.73984375 3023.5 521.05
M 3068.3 533.85
Q 3055.7421875 537.80703125 3043.9 526.75 3044.8833984375 548.69296875 3057.25 568.8 3070.326171875 573.608984375 3083.35 578.45 3070.15703125 558.0517578125 3068.3 533.85
M 2962.9 506.05
Q 2965.8728515625 524.7625 2986.6 543.45 3000.9595703125 548.5078125 3015.25 553.6 2993.386328125 534.505078125 2993.75 513.25 2990.5673828125 520.347265625 2962.9 506.05
M 2986.6 543.45
Q 2965.8728515625 524.7625 2962.9 506.05 2957.937890625 511.332421875 2938.35 501.25 2939.7578125 517.988671875 2955.45 532.55 2971.0615234375 537.9740234375 2986.6 543.45
M 3169.8 566.2
Q 3156.0001953125 572.984375 3142.8 557.25 3142.2015625 581.6125 3155.9 605.95 3169.2787109375 611.16640625 3182.6 616.4 3167.2216796875 595.26953125 3169.8 566.2
M 3219.15 583.05
Q 3209.996484375 587.7669921875 3195.2 574.8 3193.6796875 600.3375 3206.55 625.85 3217.8685546875 630.376953125 3229.15 634.9 3217.9501953125 609.9716796875 3219.15 583.05
M 3195.2 574.8
Q 3185.446484375 581.8890625 3169.8 566.2 3167.2216796875 595.26953125 3182.6 616.4 3194.594921875 621.115234375 3206.55 625.85 3193.6796875 600.3375 3195.2 574.8
M 3114.9 548.25
Q 3102.8810546875 556.49921875 3093.05 541.4 3095.795703125 565.9625 3115.55 590.5 3125.326171875 594.2212890625 3135.05 597.95 3119.8134765625 573.1 3114.9 548.25
M 2653.65 440.95
L 2653.6 440.9
Q 2600.5814453125 428.0025390625 2609.65 402.8 2596.4845703125 420.6283203125 2555.8 383.65 2544.884375 413.9166015625 2596.45 431.8 2615.6162109375 434.5806640625 2653.65 440.95
M 2905.5 515.5
Q 2893.903125 507.9314453125 2896.95 496.2 2884.0701171875 501.0544921875 2874.85 496.85 2875.0384765625 503.4271484375 2882.95 507.95 2894.260546875 511.721875 2905.5 515.5
M 3252.75 644.5
Q 3240.5658203125 618.658203125 3241.8 590.95 3230.3072265625 594.859765625 3219.15 583.05 3217.9501953125 609.9716796875 3229.15 634.9 3240.98671875 639.6859375 3252.75 644.5
M 3353.05 639.95
Q 3364.1853515625 672.85234375 3388.35 702 3409.004296875 711.1169921875 3429.5 720.35 3380.5291015625 678.47109375 3353.05 639.95
M 3312.25 617.6
Q 3297.733984375 622.8068359375 3292.3 609 3285.900390625 635.65 3295.8 662.3 3312.1755859375 669.1435546875 3328.45 676.05 3306.584765625 640.3619140625 3312.25 617.6
M 3328.45 676.05
Q 3343.325 682.4166015625 3358.1 688.8 3337.559765625 658.83046875 3330.95 626.95 3322.823046875 634.8359375 3312.25 617.6 3306.584765625 640.3619140625 3328.45 676.05 Z"/>

<path fill="#EAE2CD" stroke="none" d="
M 1224.3 465.7
Q 1227.098828125 468.821484375 1230.25 471.75 1227.915234375 468.797265625 1224.3 465.7
M 2653.65 440.95
L 2653.65 440.9
Q 2653.6240234375 440.9150390625 2653.6 440.9
L 2653.65 440.95
M 2874.85 496.85
Q 2868.4056640625 502.9447265625 2861.5 500.85 2872.2548828125 504.4126953125 2882.95 507.95 2875.0384765625 503.4271484375 2874.85 496.85 Z"/>

<path fill="#000000" stroke="none" d="
M 3585 1039.45
Q 3588.37421875 1039.8857421875 3586.15 1054.55 3770.0140625 1048.1509765625 3795.35 1010.35 3742.84921875 988.0302734375 3585 1039.45 Z"/>

<path fill="url(#Gradient_2)" stroke="none" d="
M 3358.1 688.8
Q 3343.325 682.4166015625 3328.45 676.05 3312.1755859375 669.1435546875 3295.8 662.3 3285.3443359375 657.926171875 3274.85 653.55 3263.8365234375 649.0216796875 3252.75 644.5 3240.98671875 639.6859375 3229.15 634.9 3217.8685546875 630.376953125 3206.55 625.85 3194.594921875 621.115234375 3182.6 616.4 3169.2787109375 611.16640625 3155.9 605.95 3145.5005859375 601.950390625 3135.05 597.95 3125.326171875 594.2212890625 3115.55 590.5 3099.4953125 584.4501953125 3083.35 578.45 3070.326171875 573.608984375 3057.25 568.8 3045.6212890625 564.5640625 3033.95 560.35 3024.6115234375 556.971484375 3015.25 553.6 3000.9595703125 548.5078125 2986.6 543.45 2971.0615234375 537.9740234375 2955.45 532.55 2943.1724609375 528.321484375 2930.85 524.1 2918.19921875 519.7822265625 2905.5 515.5 2894.260546875 511.721875 2882.95 507.95 2872.2548828125 504.4126953125 2861.5 500.85 2861.384375 500.8353515625 2861.25 500.8 2861.1494140625 500.7658203125 2861 500.7 2860.8900390625 500.6806640625 2860.75 500.6 2778.2140625 473.5349609375 2693.5 448.25 2678.1353515625 445.26015625 2662.65 442.5 2658.619921875 442.8208984375 2653.65 440.9
L 2653.65 440.95
Q 2615.6162109375 434.5806640625 2596.45 431.8 2566.7388671875 427.4802734375 2536.6 423.95 2499.586328125 419.65546875 2461.95 416.55 2421.7787109375 413.2357421875 2380.9 411.3 2339.1328125 409.3271484375 2296.6 408.8 2254.2052734375 408.27109375 2211.05 409.15 2163.7853515625 410.1693359375 2115.6 412.85 2054.121875 416.3462890625 1991.15 422.6 1932.7943359375 428.449609375 1873.15 436.7 1825.1474609375 443.3361328125 1776.3 451.55 1728.7828125 459.530859375 1680.5 469 1631.205078125 478.6623046875 1581.1 489.85 1518.3447265625 503.9169921875 1454.3 520.35 1398.9630859375 534.622265625 1342.65 550.65 1282.4607421875 567.85078125 1221.2 587.1 1159.5078125 606.48515625 1096.7 627.95 980.86796875 667.6298828125 861.3 714.45 845.4419921875 722.1322265625 829.85 728.85 829.73125 728.9119140625 829.6 728.95 605.6134765625 825.38203125 440.15 721.25 424.2484375 735.3662109375 410.6 749.25 402.1408203125 757.925390625 394.5 766.5 375.83671875 787.5509765625 362.45 808.1 345.128125 834.692578125 336.65 860.45 327.67578125 887.9017578125 328.75 914.4 329.8275390625 940.5955078125 340.75 965.85 351.484375 990.65625 371.7 1014.55 387.642578125 1033.390625 409.45 1051.65 425.628125 1065.2037109375 445.05 1078.45 471.5369140625 1063.1857421875 509.65 1053.7 644.1998046875 996.825390625 748.55 1015.35 801.6328125 1024.7703125 846.9 1053.7 914.88515625 1080.394140625 983.25 1106.3 1065.9943359375 1137.6400390625 1149.3 1167.8 1223.7 1194.7890625 1298.55 1220.8 1393.8298828125 1253.9734375 1489.85 1285.6 1566.0849609375 1310.756640625 1642.8 1334.95 1710.5392578125 1356.3177734375 1778.65 1376.95 1835.7958984375 1394.255859375 1893.2 1411.05 1947.8875 1427.0466796875 2002.8 1442.55 2033.76171875 1451.3421875 2064.8 1459.95 2103.409765625 1470.6505859375 2142.1 1481.1 2191.7876953125 1494.56484375 2241.65 1507.6 2285.00390625 1518.98125 2328.5 1530.05 2390.157421875 1545.736328125 2452.1 1560.85 2499.2845703125 1543.437109375 2557.95 1560.85 2666.7138671875 1602.1158203125 2786.15 1560.85 2804.22890625 1552.64765625 2843.3 1534.25 2887.5328125 1513.407421875 2938.6 1486.05 2967.518359375 1470.6091796875 2998.6 1453.05 3123.0423828125 1382.8720703125 3238.4 1300.2 3299.8857421875 1316.37890625 3454.65 1216.2 3501.00078125 1227.9814453125 3811.25 1096.15 3851.217578125 1040.996484375 3795.35 1010.35 3770.0140625 1048.1509765625 3586.15 1054.55 3588.37421875 1039.8857421875 3585 1039.45 3616.38828125 952.8529296875 3700.85 884.25 3738.4125 862.0287109375 3698.3 835.5 3619.0671875 786.187890625 3531.45 751.25 3511.1724609375 757.2150390625 3505.8 743.85 3493.9154296875 708.2755859375 3429.5 720.35 3409.004296875 711.1169921875 3388.35 702 3373.2771484375 695.387890625 3358.1 688.8
M 2921.45 984.2
Q 2931.9384765625 1038.8361328125 2921.45 1114.45 2908.03359375 1213.1896484375 3158.7 1266.9 2908.03359375 1213.1896484375 2921.45 1114.45 2931.9384765625 1038.8361328125 2921.45 984.2 2868.2259765625 904.34296875 2864.95 882.25 2876.173046875 779.3080078125 2995.15 764.15 2876.173046875 779.3080078125 2864.95 882.25 2868.2259765625 904.34296875 2921.45 984.2
M 3501.9 1055.9
Q 3442.2154296875 1116.44609375 3531.2 1144.75 3442.2154296875 1116.44609375 3501.9 1055.9
M 3654.35 860.05
Q 3588.227734375 936.44140625 3557.45 1028.65 3588.227734375 936.44140625 3654.35 860.05
M 3174.85 856
Q 3102.5396484375 1218.0953125 3401.95 1197.2 3102.5396484375 1218.0953125 3174.85 856 Z"/>
</g>

<g id="Layer1_0_FILL">
<path fill="#C5C1C0" stroke="none" d="
M 3565.1 938.8
Q 3580 923.95 3580 902.95 3580 881.95 3565.1 867.05 3550.25 852.2 3529.25 852.2 3508.25 852.2 3493.35 867.05 3478.5 881.95 3478.5 902.95 3478.5 923.95 3493.35 938.8 3508.25 953.7 3529.25 953.7 3550.25 953.7 3565.1 938.8
M 3558.9 931.6
Q 3550.8 939.75 3539.3 939.75 3527.8 939.75 3519.65 931.6 3511.5 923.45 3511.5 911.95 3511.5 900.45 3519.65 892.3 3527.8 884.2 3539.3 884.2 3550.8 884.2 3558.9 892.3 3567.05 900.45 3567.05 911.95 3567.05 923.45 3558.9 931.6 Z"/>

<path fill="#000000" stroke="none" d="
M 3539.3 939.75
Q 3550.8 939.75 3558.9 931.6 3567.05 923.45 3567.05 911.95 3567.05 900.45 3558.9 892.3 3550.8 884.2 3539.3 884.2 3527.8 884.2 3519.65 892.3 3511.5 900.45 3511.5 911.95 3511.5 923.45 3519.65 931.6 3527.8 939.75 3539.3 939.75 Z"/>
</g>

<g id="Layer0_0_FILL">
<path fill="#50463A" stroke="none" d="
M 2664.85 803
L 2750.6 863.2
Q 2711.0447265625 827.3533203125 2664.85 803
M 2757.1 867.8
L 2845.2 929.65
Q 2815.0140625 896.8107421875 2757.1 867.8
M 2869.35 984.65
Q 2871.8658203125 975.996484375 2868.85 964.15
L 2592.85 773.25
Q 2585.1556640625 777.219140625 2578.65 781.4
L 2869.35 984.65
M 2566.45 882.95
Q 2575.5529296875 894.205078125 2588.35 906.15 2615.190234375 922.4103515625 2639.95 936.1
L 2566.45 882.95
M 2723.1 977.4
Q 2751.8064453125 989.782421875 2776.65 997.35
L 2544.35 832.45
Q 2544.370703125 843.176953125 2549.1 854.8
L 2723.1 977.4
M 2776.65 997.35
Q 2797.675 1003.8087890625 2815.95 1006.8
L 2547.75 815
Q 2544.394921875 823.41484375 2544.35 832.45
L 2776.65 997.35
M 2841.05 1005.75
Q 2851.459375 1003.515234375 2858.2 999.15
L 2566.35 790.55
Q 2560.235546875 795.8453125 2555.8 801.45
L 2841.05 1005.75 Z"/>

<path fill="#3D3935" stroke="none" d="
M 2868.85 964.15
Q 2860.6349609375 946.411328125 2845.2 929.65
L 2757.1 867.8
Q 2755.4697265625 866.972265625 2753.8 866.15 2752.2021484375 864.6720703125 2750.6 863.2
L 2664.85 803
Q 2630.6689453125 784.9697265625 2592.85 773.25
L 2868.85 964.15
M 2858.2 999.15
Q 2866.7404296875 993.61796875 2869.35 984.65
L 2578.65 781.4
Q 2571.846875 785.86796875 2566.35 790.55
L 2858.2 999.15
M 2815.95 1006.8
Q 2819.6818359375 1007.4275390625 2823.3 1007.9 2833.211328125 1007.4220703125 2841.05 1005.75
L 2555.8 801.45
Q 2550.6154296875 808.01171875 2547.75 815
L 2815.95 1006.8
M 2639.95 936.1
Q 2684.951953125 960.98125 2723.1 977.4
L 2549.1 854.8
Q 2554.605859375 868.2732421875 2566.45 882.95
L 2566.45 882.95 2639.95 936.1 Z"/>
</g>

<path id="Layer2_0_1_STROKES" stroke="#000000" stroke-width="1" stroke-linejoin="round" stroke-linecap="round" fill="none" d="
M 3330.95 626.95
Q 3344.5806640625 644.300390625 3353.075 639.975 3380.5291015625 678.47109375 3429.5 720.35 3493.9154296875 708.2755859375 3505.8 743.85 3511.1724609375 757.2150390625 3531.45 751.25 3619.0671875 786.187890625 3698.3 835.5 3738.4125 862.0287109375 3700.85 884.25 3616.38828125 952.8529296875 3585 1039.45 3742.84921875 988.0302734375 3795.35 1010.35 3851.217578125 1040.996484375 3811.25 1096.15 3501.00078125 1227.9814453125 3454.65 1216.2 3299.8857421875 1316.37890625 3238.4 1300.2 3123.0423828125 1382.8720703125 2998.6 1453.075 2979.121484375 1657.416015625 2907.8 1566.85 2837.9779296875 1626.5236328125 2843.3 1534.25 2804.22890625 1552.64765625 2786.15 1560.85 2666.7138671875 1602.1158203125 2557.95 1560.85 2499.2845703125 1543.437109375 2452.1 1560.85 2367.305859375 1551.1712890625 2362.6 1574.825 2263.99140625 1547.8015625 2261.95 1585.225 2160.71328125 1554.390234375 2140.9 1590.175 2077.9392578125 1546.4951171875 2025.225 1587 1990.4298828125 1526.240234375 1881 1571.95 1857.0580078125 1568.4185546875 1853.55 1554 1825.7494140625 1530.92421875 1710.3 1565.575 1672.87265625 1496.530859375 1518.95 1536.4 1495.1291015625 1471.0443359375 1351.2 1466.975 1349.003515625 1422.7982421875 1282.9 1422.05 1267.766796875 1373.6267578125 1176.8 1367.35 1159.0841796875 1270.6115234375 996.675 1263.825 996.47734375 1203.6212890625 882.55 1184.85 876.90703125 1122.7658203125 784.275 1091.275 800.8451171875 1055.05859375 748.55 1015.35 644.1998046875 996.825390625 509.65 1053.7 471.5369140625 1063.1857421875 445.05 1078.45 424.652734375 1090.2126953125 411.15 1105.4 249.1615234375 1264.2056640625 36.95 1339.25 39.602734375 1282.944921875 25.575 1245.7 35.7326171875 1186.4060546875 18.425 1149.75 30.4115234375 1091.3296875 15.975 1040.75 33.855859375 978.75859375 20.675 917.45 43.0638671875 862.7765625 31.625 808.65 51.791015625 765.179296875 45.025 722.05 67.111328125 685.7033203125 60.875 643.525 98.415625 603.2634765625 80.775 563.3 99.78125 554.0001953125 98.5 502.2 204.2052734375 487.7333984375 360.2 655.75 398.3041015625 694.9125 440.15 721.25 605.6134765625 825.38203125 829.6 728.975 829.73125 728.9119140625 829.875 728.85 973.3173828125 653.934765625 960.075 628.35 1054.134375 610.29765625 1040.8 574.3 1154.9517578125 554.3900390625 1126.425 521.575 1256.008984375 504.488671875 1230.25 471.775 1227.098828125 468.821484375 1224.3 465.7 1352.46640625 463.648046875 1320.1 414.575 1461.2841796875 406.6537109375 1422.8 363.875
L 1422.175 363.2
Q 1557.9150390625 349.9296875 1527.2 313.075 1609.4107421875 322.1845703125 1628.85 274.775
L 1628.825 274.725
Q 1751.4537109375 298.1685546875 1729.475 258.3 1868.9884765625 297.96640625 1849.1 256.825 2003.6806640625 311.0015625 1999.225 278.4 2018.0701171875 282.575 2037.2 287.5 2109.662890625 322.672265625 2126.65 300.05 2217.2630859375 342.78359375 2238.7 317.175 2369.4958984375 361.0935546875 2356.25 337.525 2459.27421875 389.1517578125 2466.575 360.275 2539.4033203125 402.903515625 2555.825 383.65 2596.4845703125 420.6283203125 2609.675 402.8 2600.5814453125 428.0025390625 2653.6 440.9 2653.6240234375 440.9150390625 2653.65 440.925 2658.16015625 441.6982421875 2662.65 442.5 2678.1353515625 445.26015625 2693.5 448.25 2778.2140625 473.5349609375 2860.75 500.625 2860.8900390625 500.6806640625 2861.025 500.725 2861.1494140625 500.7658203125 2861.275 500.8 2861.384375 500.8353515625 2861.5 500.875 2868.4056640625 502.9447265625 2874.85 496.85 2884.0701171875 501.0544921875 2896.975 496.2 2906.899609375 500.721484375 2915 497.75 2932.826171875 505.1345703125 2938.35 501.25 2957.937890625 511.332421875 2962.925 506.075 2990.5673828125 520.347265625 2993.775 513.275 3017.3505859375 529.3033203125 3023.5 521.05 3031.6794921875 530.73984375 3043.925 526.75 3055.7421875 537.80703125 3068.3 533.875 3080.3564453125 549.58984375 3093.075 541.4 3102.8810546875 556.49921875 3114.9 548.25 3128.4982421875 559.303125 3142.8 557.25 3156.0001953125 572.984375 3169.8 566.2 3185.446484375 581.8890625 3195.225 574.8 3209.996484375 587.7669921875 3219.15 583.05 3230.3072265625 594.859765625 3241.8 590.975 3249.9669921875 602.2177734375 3265.6 599.4 3280.7029296875 612.8748046875 3292.3 609 3297.733984375 622.8068359375 3312.25 617.625 3322.823046875 634.8359375 3330.95 626.95 3337.559765625 658.83046875 3358.125 688.825 3373.2771484375 695.387890625 3388.35 702.025 3364.1853515625 672.85234375 3353.075 639.975
M 3328.45 676.075
Q 3343.325 682.4166015625 3358.125 688.825
M 3252.775 644.5
Q 3263.8365234375 649.0216796875 3274.85 653.575 3267.05546875 625.398046875 3265.6 599.4
M 3292.3 609
Q 3285.900390625 635.65 3295.8 662.3 3285.3443359375 657.926171875 3274.85 653.575
M 3295.8 662.3
Q 3312.1755859375 669.1435546875 3328.45 676.075 3306.584765625 640.3619140625 3312.25 617.625
M 3252.775 644.5
Q 3240.5658203125 618.658203125 3241.8 590.975
M 3388.35 702.025
Q 3409.004296875 711.1169921875 3429.5 720.35
M 2896.975 496.2
Q 2893.903125 507.9314453125 2905.5 515.5 2894.260546875 511.721875 2882.975 507.975
M 2905.5 515.5
Q 2918.19921875 519.7822265625 2930.85 524.1 2916.758984375 512.9482421875 2915 497.75
M 2874.85 496.85
Q 2875.0384765625 503.4271484375 2882.975 507.975 2872.2548828125 504.4126953125 2861.5 500.875
M 2653.65 440.95
L 2653.65 440.925
Q 2658.619921875 442.8208984375 2662.65 442.5
M 2653.6 440.9
L 2653.65 440.95
Q 2615.6162109375 434.5806640625 2596.45 431.8
M 3083.35 578.45
Q 3099.4953125 584.4501953125 3115.55 590.525 3095.795703125 565.9625 3093.075 541.4
M 2986.6 543.45
Q 2965.8728515625 524.7625 2962.925 506.075
M 2938.35 501.25
Q 2939.7578125 517.988671875 2955.45 532.575 2943.1724609375 528.321484375 2930.85 524.1
M 2955.45 532.575
Q 2971.0615234375 537.9740234375 2986.6 543.45 3000.9595703125 548.5078125 3015.25 553.625 2993.386328125 534.505078125 2993.775 513.275
M 3015.25 553.625
Q 3024.6115234375 556.971484375 3033.95 560.35 3021.8927734375 543.562109375 3023.5 521.05
M 3043.925 526.75
Q 3044.8833984375 548.69296875 3057.25 568.825 3045.6212890625 564.5640625 3033.95 560.35
M 3057.25 568.825
Q 3070.326171875 573.608984375 3083.35 578.45 3070.15703125 558.0517578125 3068.3 533.875
M 3206.55 625.875
Q 3217.8685546875 630.376953125 3229.15 634.925 3217.9501953125 609.9716796875 3219.15 583.05
M 3182.6 616.4
Q 3194.594921875 621.115234375 3206.55 625.875 3193.6796875 600.3375 3195.225 574.8
M 3135.075 597.95
Q 3145.5005859375 601.950390625 3155.9 605.975 3142.2015625 581.6125 3142.8 557.25
M 3155.9 605.975
Q 3169.2787109375 611.16640625 3182.6 616.4 3167.2216796875 595.26953125 3169.8 566.2
M 3115.55 590.525
Q 3125.326171875 594.2212890625 3135.075 597.95 3119.8134765625 573.1 3114.9 548.25
M 2995.15 764.15
Q 2876.173046875 779.3080078125 2864.95 882.25 2868.2259765625 904.34296875 2921.45 984.2 2931.9384765625 1038.8361328125 2921.45 1114.45 2908.03359375 1213.1896484375 3158.7 1266.9
M 2843.3 1534.25
Q 2887.5328125 1513.407421875 2938.625 1486.075 2967.518359375 1470.6091796875 2998.6 1453.075
M 2907.8 1566.85
Q 2932.9564453125 1550.7263671875 2938.625 1486.075
M 3585 1039.45
Q 3588.37421875 1039.8857421875 3586.15 1054.55 3770.0140625 1048.1509765625 3795.35 1010.35
M 3501.9 1055.9
Q 3442.2154296875 1116.44609375 3531.2 1144.75
M 3654.35 860.05
Q 3588.227734375 936.44140625 3557.45 1028.65
M 3229.15 634.925
Q 3240.98671875 639.6859375 3252.775 644.5
M 3174.85 856
Q 3102.5396484375 1218.0953125 3401.95 1197.2
M 2115.625 412.875
Q 2163.7853515625 410.1693359375 2211.05 409.175 2038.1896484375 380.3306640625 1999.225 278.4
M 1991.175 422.625
Q 2054.121875 416.3462890625 2115.625 412.875 1918.9013671875 360.234375 1849.1 256.825
M 2461.95 416.55
Q 2499.586328125 419.65546875 2536.6 423.975 2465.071875 398.17890625 2466.575 360.275
M 2296.625 408.8
Q 2339.1328125 409.3271484375 2380.9 411.3 2253.5501953125 376.7484375 2238.7 317.175
M 2380.9 411.3
Q 2421.7787109375 413.2357421875 2461.95 416.55 2386.834375 382.56015625 2356.25 337.525
M 2126.65 300.05
Q 2169.0126953125 372.761328125 2296.625 408.8 2254.2052734375 408.27109375 2211.05 409.175
M 1628.85 274.775
L 1628.85 274.75
M 1342.65 550.675
Q 1398.9630859375 534.622265625 1454.325 520.375 1286.329296875 524.137890625 1230.25 471.775 1227.915234375 468.797265625 1224.3 465.7
M 1320.1 414.575
Q 1407.61640625 479.13203125 1581.1 489.875 1518.3447265625 503.9169921875 1454.325 520.375
M 1581.1 489.875
Q 1631.205078125 478.6623046875 1680.5 469 1521.976953125 469.8837890625 1422.8 363.875
M 1680.5 469
Q 1728.7828125 459.530859375 1776.3 451.55 1621.358984375 418.743359375 1527.2 313.075
M 1776.3 451.55
Q 1825.1474609375 443.3361328125 1873.175 436.7 1671.5125 384.1130859375 1628.85 274.775
M 1298.55 1220.825
Q 1393.8298828125 1253.9734375 1489.85 1285.625 1566.0849609375 1310.756640625 1642.8 1334.95 1710.5392578125 1356.3177734375 1778.65 1376.95 1835.7958984375 1394.255859375 1893.2 1411.05 1947.8875 1427.0466796875 2002.8 1442.575 2033.76171875 1451.3421875 2064.8 1459.95 2103.409765625 1470.6505859375 2142.125 1481.125 2191.7876953125 1494.56484375 2241.65 1507.625 2285.00390625 1518.98125 2328.5 1530.05 2390.157421875 1545.736328125 2452.1 1560.85
M 1893.2 1411.05
Q 1713.8869140625 1484.120703125 1710.3 1565.575
M 1778.65 1376.95
Q 1573.394140625 1436.5140625 1518.95 1536.4
M 1642.8 1334.95
Q 1432.77421875 1391.066796875 1351.2 1466.975
M 2328.5 1530.05
Q 2323.323046875 1561.36328125 2362.6 1574.825
M 2002.8 1442.575
Q 1872.8943359375 1498.626171875 1881 1571.95
M 1729.475 258.3
Q 1823.75234375 358.7009765625 1991.175 422.625 1932.7943359375 428.449609375 1873.175 436.7
M 829.875 728.85
Q 845.4419921875 722.1322265625 861.3 714.45 980.86796875 667.6298828125 1096.725 627.975 979.0091796875 655.5826171875 960.075 628.35
M 1040.8 574.3
Q 1071.3634765625 610.6123046875 1221.2 587.1 1159.5078125 606.48515625 1096.725 627.975
M 1221.2 587.1
Q 1282.4607421875 567.85078125 1342.65 550.675 1183.1671875 564.6439453125 1126.425 521.575
M 440.15 721.25
Q 424.2484375 735.3662109375 410.625 749.275 402.1408203125 757.925390625 394.525 766.5 375.83671875 787.5509765625 362.45 808.1 345.128125 834.692578125 336.675 860.45 327.67578125 887.9017578125 328.75 914.4 329.8275390625 940.5955078125 340.75 965.85 351.484375 990.65625 371.725 1014.575 387.642578125 1033.390625 409.45 1051.65 425.628125 1065.2037109375 445.05 1078.45
M 394.525 766.5
Q 219.715234375 652.721484375 60.875 643.525
M 80.775 563.3
Q 242.3611328125 597.2212890625 410.625 749.275
M 409.45 1051.65
Q 201.7328125 1132.8953125 25.575 1245.7
M 371.725 1014.575
Q 183.731640625 1055.725390625 18.425 1149.75
M 340.75 965.85
Q 174.275 958.038671875 15.975 1040.75
M 328.75 914.4
Q 186.8802734375 842.4244140625 20.675 917.45
M 336.675 860.45
Q 212.6302734375 761.3291015625 31.625 808.65
M 748.55 1015.35
Q 801.6328125 1024.7703125 846.9 1053.7 914.88515625 1080.394140625 983.25 1106.3 1065.9943359375 1137.6400390625 1149.3 1167.825 1223.7 1194.7890625 1298.55 1220.825 1069.703515625 1217.91875 996.675 1263.825
M 1149.3 1167.825
Q 918.06171875 1134.369921875 882.55 1184.85
M 983.25 1106.3
Q 833.166015625 1061.9490234375 784.275 1091.275
M 362.45 808.1
Q 215.5849609375 697.45703125 45.025 722.05
M 2241.65 1507.625
Q 2227.6990234375 1554.3798828125 2261.95 1585.225
M 2142.125 1481.125
Q 2117.1515625 1543.796875 2140.9 1590.175
M 2064.8 1459.95
Q 2008.07890625 1527.5966796875 2025.225 1587
M 1489.85 1285.625
Q 1241.9185546875 1301.141015625 1176.8 1367.35
M 2555.825 383.65
Q 2544.884375 413.9166015625 2596.45 431.8 2566.7388671875 427.4802734375 2536.6 423.975"/>

<path id="Layer1_0_1_STROKES" stroke="#000000" stroke-width="1" stroke-linejoin="round" stroke-linecap="round" fill="none" d="
M 3580 902.95
Q 3580 923.95 3565.1 938.8 3550.25 953.7 3529.25 953.7 3508.25 953.7 3493.35 938.8 3478.5 923.95 3478.5 902.95 3478.5 881.95 3493.35 867.05 3508.25 852.2 3529.25 852.2 3550.25 852.2 3565.1 867.05 3580 881.95 3580 902.95 Z
M 3567.05 911.95
Q 3567.05 923.45 3558.9 931.6 3550.8 939.75 3539.3 939.75 3527.8 939.75 3519.65 931.6 3511.5 923.45 3511.5 911.95 3511.5 900.45 3519.65 892.3 3527.8 884.2 3539.3 884.2 3550.8 884.2 3558.9 892.3 3567.05 900.45 3567.05 911.95 Z"/>

<path id="Layer0_0_1_STROKES" stroke="#000000" stroke-width="1" stroke-linejoin="round" stroke-linecap="round" fill="none" d="
M 2869.35 984.65
Q 2871.8658203125 975.996484375 2868.85 964.15
L 2592.85 773.25
Q 2585.1556640625 777.219140625 2578.675 781.425
L 2869.35 984.65
Q 2866.7404296875 993.61796875 2858.2 999.15 2851.459375 1003.515234375 2841.05 1005.75 2833.211328125 1007.4220703125 2823.3 1007.9 2819.6818359375 1007.4275390625 2815.95 1006.825 2797.675 1003.8087890625 2776.65 997.375 2751.8064453125 989.782421875 2723.125 977.425 2684.951953125 960.98125 2639.975 936.1 2615.190234375 922.4103515625 2588.35 906.15 2575.5529296875 894.205078125 2566.475 882.975
L 2566.45 882.95
Q 2554.605859375 868.2732421875 2549.125 854.825 2544.370703125 843.176953125 2544.375 832.45 2544.394921875 823.41484375 2547.775 815.025 2550.6154296875 808.01171875 2555.8 801.45 2560.235546875 795.8453125 2566.375 790.575 2571.846875 785.86796875 2578.675 781.425
M 2868.85 964.15
Q 2860.6349609375 946.411328125 2845.225 929.675
L 2757.125 867.8
Q 2755.4697265625 866.972265625 2753.8 866.15 2752.2021484375 864.6720703125 2750.6 863.225
L 2664.85 803
Q 2630.6689453125 784.9697265625 2592.85 773.25
M 2845.225 929.675
Q 2815.0140625 896.8107421875 2757.125 867.8
L 2750.6 863.225
Q 2711.0447265625 827.3533203125 2664.85 803
M 2549.125 854.825
L 2723.125 977.425
M 2544.375 832.45
L 2776.65 997.375
M 2547.775 815.025
L 2815.95 1006.825
M 2566.475 882.975
L 2639.975 936.1
M 2841.05 1005.75
L 2555.8 801.45
M 2566.375 790.575
L 2858.2 999.15"/>
</defs>

<g transform="matrix( 6.6439056396484375, 0, 0, 6.6439056396484375, -216,-194) ">
<use xlink:href="#Bitmap_1"/>
</g>

<g transform="matrix( 1, 0, 0, 1, 0,0) ">
<use xlink:href="#Layer2_0_FILL"/>

<use xlink:href="#Layer2_0_1_STROKES"/>
</g>

<g transform="matrix( 1, 0, 0, 1, 0,0) ">
<use xlink:href="#Layer1_0_FILL"/>

<use xlink:href="#Layer1_0_1_STROKES"/>
</g>

<g transform="matrix( 1, 0, 0, 1, 0,0) ">
<use xlink:href="#Layer0_0_FILL"/>

<use xlink:href="#Layer0_0_1_STROKES"/>
</g>
</svg>
