<?xml version="1.0" encoding="UTF-8" standalone="no"?>
<svg
   version="1.1"
   preserveAspectRatio="none"
   x="0px"
   y="0px"
   width="3840px"
   height="1920px"
   viewBox="0 0 3840 1920"
   id="svg276"
   sodipodi:docname="Leopard-Shark-3840-1920.svg"
   inkscape:version="1.1 (c68e22c387, 2021-05-23)"
   xmlns:inkscape="http://www.inkscape.org/namespaces/inkscape"
   xmlns:sodipodi="http://sodipodi.sourceforge.net/DTD/sodipodi-0.dtd"
   xmlns:xlink="http://www.w3.org/1999/xlink"
   xmlns="http://www.w3.org/2000/svg"
   xmlns:svg="http://www.w3.org/2000/svg">
  <sodipodi:namedview
     id="namedview278"
     pagecolor="#ffffff"
     bordercolor="#666666"
     borderopacity="1.0"
     inkscape:pageshadow="2"
     inkscape:pageopacity="0.0"
     inkscape:pagecheckerboard="0"
     showgrid="false"
     inkscape:zoom="0.27552083"
     inkscape:cx="1921.8147"
     inkscape:cy="960"
     inkscape:window-width="1608"
     inkscape:window-height="1081"
     inkscape:window-x="104"
     inkscape:window-y="104"
     inkscape:window-maximized="0"
     inkscape:current-layer="svg276" />
  <defs
     id="defs258">
    <linearGradient
       id="Gradient_1"
       gradientUnits="userSpaceOnUse"
       x1="741.6999999999999"
       y1="898.6375"
       x2="634.9"
       y2="830.3625"
       spreadMethod="pad">
      <stop
         offset="7.8431372549019605%"
         stop-color="#666633"
         id="stop2" />
      <stop
         offset="40%"
         stop-color="#666666"
         id="stop4" />
    </linearGradient>
    <linearGradient
       id="Gradient_2"
       gradientUnits="userSpaceOnUse"
       x1="885.9"
       y1="930.3000000000001"
       x2="807.6"
       y2="883.6"
       spreadMethod="pad">
      <stop
         offset="7.8431372549019605%"
         stop-color="#666633"
         id="stop7" />
      <stop
         offset="40%"
         stop-color="#666666"
         id="stop9" />
    </linearGradient>
    <linearGradient
       id="Gradient_3"
       gradientUnits="userSpaceOnUse"
       x1="935.275"
       y1="890.9"
       x2="925.025"
       y2="1013.6999999999999"
       spreadMethod="pad">
      <stop
         offset="7.8431372549019605%"
         stop-color="#C6BCA9"
         id="stop12" />
      <stop
         offset="99.2156862745098%"
         stop-color="#666666"
         id="stop14" />
    </linearGradient>
    <linearGradient
       id="Gradient_4"
       gradientUnits="userSpaceOnUse"
       x1="938.2500000000001"
       y1="1092.4"
       x2="1295.0500000000002"
       y2="1092.4"
       spreadMethod="pad">
      <stop
         offset="1.9607843137254901%"
         stop-color="#FFFFFF"
         id="stop17" />
      <stop
         offset="99.2156862745098%"
         stop-color="#666666"
         id="stop19" />
    </linearGradient>
    <linearGradient
       id="Gradient_5"
       gradientUnits="userSpaceOnUse"
       x1="1068.2875"
       y1="1085.2875000000001"
       x2="1025.9125"
       y2="1069.0125"
       spreadMethod="pad">
      <stop
         offset="7.8431372549019605%"
         stop-color="#666633"
         id="stop22" />
      <stop
         offset="7.8431372549019605%"
         stop-color="#666666"
         id="stop24" />
      <stop
         offset="94.50980392156863%"
         stop-color="#66FF00"
         id="stop26" />
    </linearGradient>
    <linearGradient
       id="Gradient_6"
       gradientUnits="userSpaceOnUse"
       x1="1059.1625"
       y1="934.0375"
       x2="925.6374999999999"
       y2="869.3625000000001"
       spreadMethod="pad">
      <stop
         offset="7.8431372549019605%"
         stop-color="#666633"
         id="stop29" />
      <stop
         offset="40%"
         stop-color="#666666"
         id="stop31" />
    </linearGradient>
    <linearGradient
       id="Gradient_7"
       gradientUnits="userSpaceOnUse"
       x1="597.6374999999999"
       y1="839.8625"
       x2="547.6625"
       y2="783.1375"
       spreadMethod="pad">
      <stop
         offset="7.8431372549019605%"
         stop-color="#666633"
         id="stop34" />
      <stop
         offset="40%"
         stop-color="#666666"
         id="stop36" />
    </linearGradient>
    <linearGradient
       id="Gradient_8"
       gradientUnits="userSpaceOnUse"
       x1="456.7375"
       y1="783.15"
       x2="396.66249999999997"
       y2="688.15"
       spreadMethod="pad">
      <stop
         offset="7.8431372549019605%"
         stop-color="#666633"
         id="stop39" />
      <stop
         offset="40%"
         stop-color="#666666"
         id="stop41" />
    </linearGradient>
    <linearGradient
       id="Gradient_9"
       gradientUnits="userSpaceOnUse"
       x1="258.25"
       y1="701.875"
       x2="224.85000000000002"
       y2="681.925"
       spreadMethod="pad">
      <stop
         offset="7.8431372549019605%"
         stop-color="#666633"
         id="stop44" />
      <stop
         offset="40%"
         stop-color="#666666"
         id="stop46" />
    </linearGradient>
    <linearGradient
       id="Gradient_10"
       gradientUnits="userSpaceOnUse"
       x1="314.6125"
       y1="721.5500000000001"
       x2="256.28749999999997"
       y2="724.65"
       spreadMethod="pad">
      <stop
         offset="7.8431372549019605%"
         stop-color="#666633"
         id="stop49" />
      <stop
         offset="40%"
         stop-color="#666666"
         id="stop51" />
    </linearGradient>
    <linearGradient
       id="Gradient_11"
       gradientUnits="userSpaceOnUse"
       x1="173.6625"
       y1="675.025"
       x2="93.8375"
       y2="571.475"
       spreadMethod="pad">
      <stop
         offset="7.8431372549019605%"
         stop-color="#666633"
         id="stop54" />
      <stop
         offset="40%"
         stop-color="#666666"
         id="stop56" />
    </linearGradient>
    <linearGradient
       id="Gradient_12"
       gradientUnits="userSpaceOnUse"
       x1="433.6"
       y1="749.4499999999999"
       x2="242.29999999999998"
       y2="1112.35"
       spreadMethod="pad">
      <stop
         offset="7.8431372549019605%"
         stop-color="#C6BCA9"
         id="stop59" />
      <stop
         offset="99.2156862745098%"
         stop-color="#666666"
         id="stop61" />
    </linearGradient>
    <linearGradient
       id="Gradient_13"
       gradientUnits="userSpaceOnUse"
       x1="1256.95"
       y1="807.9250000000001"
       x2="923.15"
       y2="653.475"
       spreadMethod="pad">
      <stop
         offset="7.8431372549019605%"
         stop-color="#666633"
         id="stop64" />
      <stop
         offset="40%"
         stop-color="#666666"
         id="stop66" />
    </linearGradient>
    <linearGradient
       id="Gradient_14"
       gradientUnits="userSpaceOnUse"
       x1="1229.5875"
       y1="1013.1875"
       x2="1232.8125"
       y2="951.6125"
       spreadMethod="pad">
      <stop
         offset="1.9607843137254901%"
         stop-color="#FFFFFF"
         id="stop69" />
      <stop
         offset="99.2156862745098%"
         stop-color="#666666"
         id="stop71" />
    </linearGradient>
    <linearGradient
       id="Gradient_15"
       gradientUnits="userSpaceOnUse"
       x1="1736"
       y1="1132"
       x2="2046.5"
       y2="1132"
       spreadMethod="pad">
      <stop
         offset="1.9607843137254901%"
         stop-color="#FFFFFF"
         id="stop74" />
      <stop
         offset="99.2156862745098%"
         stop-color="#666666"
         id="stop76" />
    </linearGradient>
    <linearGradient
       id="Gradient_16"
       gradientUnits="userSpaceOnUse"
       x1="1962.6375"
       y1="801.6"
       x2="1789.2625"
       y2="774.9"
       spreadMethod="pad">
      <stop
         offset="7.8431372549019605%"
         stop-color="#666633"
         id="stop79" />
      <stop
         offset="40%"
         stop-color="#666666"
         id="stop81" />
    </linearGradient>
    <linearGradient
       id="Gradient_17"
       gradientUnits="userSpaceOnUse"
       x1="1692.1750000000002"
       y1="824.3"
       x2="1552.125"
       y2="807.7"
       spreadMethod="pad">
      <stop
         offset="7.8431372549019605%"
         stop-color="#666633"
         id="stop84" />
      <stop
         offset="40%"
         stop-color="#666666"
         id="stop86" />
    </linearGradient>
    <linearGradient
       id="Gradient_18"
       gradientUnits="userSpaceOnUse"
       x1="1475.8874999999998"
       y1="878.9625"
       x2="1187.3125"
       y2="808.0375"
       spreadMethod="pad">
      <stop
         offset="7.8431372549019605%"
         stop-color="#666633"
         id="stop89" />
      <stop
         offset="40%"
         stop-color="#666666"
         id="stop91" />
    </linearGradient>
    <linearGradient
       id="Gradient_19"
       gradientUnits="userSpaceOnUse"
       x1="2461.525"
       y1="699.9"
       x2="2144.6749999999997"
       y2="734.6999999999999"
       spreadMethod="pad">
      <stop
         offset="7.8431372549019605%"
         stop-color="#666633"
         id="stop94" />
      <stop
         offset="40%"
         stop-color="#666666"
         id="stop96" />
    </linearGradient>
    <linearGradient
       id="Gradient_20"
       gradientUnits="userSpaceOnUse"
       x1="2245.025"
       y1="791.0124999999999"
       x2="1909.775"
       y2="810.2875"
       spreadMethod="pad">
      <stop
         offset="7.8431372549019605%"
         stop-color="#666633"
         id="stop99" />
      <stop
         offset="40%"
         stop-color="#666666"
         id="stop101" />
    </linearGradient>
    <linearGradient
       id="Gradient_21"
       gradientUnits="userSpaceOnUse"
       x1="2152.1875"
       y1="681.2375"
       x2="2062.1125"
       y2="674.8625"
       spreadMethod="pad">
      <stop
         offset="7.8431372549019605%"
         stop-color="#666633"
         id="stop104" />
      <stop
         offset="40%"
         stop-color="#666666"
         id="stop106" />
    </linearGradient>
    <linearGradient
       id="Gradient_22"
       gradientUnits="userSpaceOnUse"
       x1="2224.05"
       y1="538.7"
       x2="1892.0500000000002"
       y2="481.3"
       spreadMethod="pad">
      <stop
         offset="7.8431372549019605%"
         stop-color="#666633"
         id="stop109" />
      <stop
         offset="40%"
         stop-color="#666666"
         id="stop111" />
    </linearGradient>
    <linearGradient
       id="Gradient_23"
       gradientUnits="userSpaceOnUse"
       x1="2835.4625"
       y1="1051.55"
       x2="2816.3375"
       y2="795.55"
       spreadMethod="pad">
      <stop
         offset="1.9607843137254901%"
         stop-color="#FFFFFF"
         id="stop114" />
      <stop
         offset="99.2156862745098%"
         stop-color="#666666"
         id="stop116" />
    </linearGradient>
    <linearGradient
       id="Gradient_24"
       gradientUnits="userSpaceOnUse"
       x1="3190.3374999999996"
       y1="737.4625000000001"
       x2="3008.5625"
       y2="729.4375"
       spreadMethod="pad">
      <stop
         offset="7.8431372549019605%"
         stop-color="#666633"
         id="stop119" />
      <stop
         offset="40%"
         stop-color="#666666"
         id="stop121" />
    </linearGradient>
    <linearGradient
       id="Gradient_25"
       gradientUnits="userSpaceOnUse"
       x1="2973"
       y1="780.725"
       x2="2602.7"
       y2="743.1750000000001"
       spreadMethod="pad">
      <stop
         offset="7.8431372549019605%"
         stop-color="#666633"
         id="stop124" />
      <stop
         offset="40%"
         stop-color="#666666"
         id="stop126" />
    </linearGradient>
    <linearGradient
       id="Gradient_26"
       gradientUnits="userSpaceOnUse"
       x1="2687.3250000000003"
       y1="815.3375000000001"
       x2="2365.475"
       y2="754.0625"
       spreadMethod="pad">
      <stop
         offset="7.8431372549019605%"
         stop-color="#666633"
         id="stop129" />
      <stop
         offset="40%"
         stop-color="#666666"
         id="stop131" />
    </linearGradient>
    <linearGradient
       id="Gradient_27"
       gradientUnits="userSpaceOnUse"
       x1="3527.2875"
       y1="782.3874999999999"
       x2="3495.6124999999997"
       y2="785.7125"
       spreadMethod="pad">
      <stop
         offset="7.8431372549019605%"
         stop-color="#666633"
         id="stop134" />
      <stop
         offset="40%"
         stop-color="#666666"
         id="stop136" />
    </linearGradient>
    <linearGradient
       id="Gradient_28"
       gradientUnits="userSpaceOnUse"
       x1="3453.75"
       y1="764.0124999999999"
       x2="3373.6499999999996"
       y2="759.0875"
       spreadMethod="pad">
      <stop
         offset="7.8431372549019605%"
         stop-color="#666633"
         id="stop139" />
      <stop
         offset="40%"
         stop-color="#666666"
         id="stop141" />
    </linearGradient>
    <linearGradient
       id="Gradient_29"
       gradientUnits="userSpaceOnUse"
       x1="2350.55"
       y1="577.975"
       x2="2381.75"
       y2="1048.025"
       spreadMethod="pad">
      <stop
         offset="49.411764705882355%"
         stop-color="#C6BCA9"
         id="stop144" />
      <stop
         offset="99.2156862745098%"
         stop-color="#666666"
         id="stop146" />
    </linearGradient>
    <linearGradient
       id="Gradient_30"
       gradientUnits="userSpaceOnUse"
       x1="2144.4500000000003"
       y1="947.6625"
       x2="1914.3500000000001"
       y2="934.5375"
       spreadMethod="pad">
      <stop
         offset="7.8431372549019605%"
         stop-color="#666633"
         id="stop149" />
      <stop
         offset="40%"
         stop-color="#666666"
         id="stop151" />
    </linearGradient>
    <linearGradient
       id="Gradient_31"
       gradientUnits="userSpaceOnUse"
       x1="1321.8374999999999"
       y1="938.4875000000001"
       x2="1231.7625"
       y2="933.7125"
       spreadMethod="pad">
      <stop
         offset="7.8431372549019605%"
         stop-color="#666633"
         id="stop154" />
      <stop
         offset="40%"
         stop-color="#666666"
         id="stop156" />
    </linearGradient>
    <linearGradient
       id="Gradient_32"
       gradientUnits="userSpaceOnUse"
       x1="1621.95"
       y1="949"
       x2="1503.45"
       y2="909.2"
       spreadMethod="pad">
      <stop
         offset="7.8431372549019605%"
         stop-color="#666633"
         id="stop159" />
      <stop
         offset="40%"
         stop-color="#666666"
         id="stop161" />
    </linearGradient>
    <linearGradient
       id="Gradient_33"
       gradientUnits="userSpaceOnUse"
       x1="1869.8249999999998"
       y1="945.375"
       x2="1721.375"
       y2="923.825"
       spreadMethod="pad">
      <stop
         offset="7.8431372549019605%"
         stop-color="#666633"
         id="stop164" />
      <stop
         offset="40%"
         stop-color="#666666"
         id="stop166" />
    </linearGradient>
    <linearGradient
       id="Gradient_34"
       gradientUnits="userSpaceOnUse"
       x1="3327.9375"
       y1="742.2625"
       x2="3224.5625"
       y2="747.2375"
       spreadMethod="pad">
      <stop
         offset="7.8431372549019605%"
         stop-color="#666633"
         id="stop169" />
      <stop
         offset="40%"
         stop-color="#666666"
         id="stop171" />
    </linearGradient>
    <linearGradient
       id="Gradient_35"
       gradientUnits="userSpaceOnUse"
       x1="2631.75"
       y1="1209.95"
       x2="3088.6499999999996"
       y2="1209.95"
       spreadMethod="pad">
      <stop
         offset="1.9607843137254901%"
         stop-color="#FFFFFF"
         id="stop174" />
      <stop
         offset="99.2156862745098%"
         stop-color="#666666"
         id="stop176" />
    </linearGradient>
    <image
       id="Bitmap_2"
       x="0"
       y="0"
       width="735"
       height="490"
       xlink:href="images/Bitmap_2.png" />
    <g
       id="Layer2_0_FILL">
      <path
         fill="url(#Gradient_1)"
         stroke="none"
         d=" M 683.85 911.15 Q 689.894140625 920.08984375 698.5 919.15 762.9611328125 909.119140625 787.1 875.9 750.5591796875 854.902734375 710.8 836.05 658.7724609375 871.01015625 683.85 911.15 Z"
         id="path180" />
      <path
         fill="#000000"
         stroke="none"
         d=" M 797.9 882.2 Q 792.5673828125 879.0552734375 787.1 875.9 762.9611328125 909.119140625 698.5 919.15 689.894140625 920.08984375 683.85 911.15 658.7724609375 871.01015625 710.8 836.05 705.662890625 833.6435546875 700.45 831.25 654.415234375 854.41640625 666.55 916.5 672.5935546875 936.9228515625 696.5 931.8 751.0953125 919.451953125 797.9 882.2 M 904.45 873.95 Q 898.0388671875 875.26640625 891.7 876.65 920.60625 964.0373046875 865.15 965.15 809.3587890625 966.464453125 830.9 892.4 823.8373046875 892.9595703125 816.35 890.9 809.899609375 941.7087890625 823.45 964.75 835.5904296875 985.453515625 863.85 983.8 882.337890625 982.8173828125 882.05 982.1 922.362890625 950.3232421875 904.45 873.95 M 1087 1056.65 Q 1077.760546875 1057.43984375 1067.85 1067.25 1057.983984375 1077.0564453125 1046.5 1090.35 1035.0140625 1103.6537109375 1052.05 1112.5 1069.141796875 1121.3498046875 1081.6 1120.95 1094.0658203125 1120.544140625 1083.2 1103.35 1072.3349609375 1086.1564453125 1093.9 1080.6 1115.4548828125 1075.0478515625 1105.85 1065.45 1096.2470703125 1055.8537109375 1087 1056.65 M 1066 1073.8 Q 1072.1947265625 1067.649609375 1085.7 1065.45 1099.2658203125 1063.3005859375 1099.75 1070.5 1100.2841796875 1077.74921875 1084.55 1081.7 1068.8052734375 1085.7001953125 1075.65 1096.5 1082.45625 1107.2998046875 1073.45 1112.1 1064.48125 1116.9005859375 1054.3 1109.1 1044.13125 1101.2994140625 1051.95 1090.6 1059.80625 1079.9501953125 1066 1073.8 M 978.1 950.8 Q 999.5 932.95 982.65 912.45 959.8240234375 896.0140625 978.2 863.25 973.357421875 863.6990234375 968.55 864.2 956.1181640625 888.8548828125 968.55 908.5 981.8333984375 924.6734375 975.8 938.5 959.5728515625 961.707421875 959.55 991.35 953.6431640625 998.6087890625 1025.15 996.5 1047.1744140625 994.2640625 1058.85 986.1 L 1040.95 985.5 Q 938.478125 1001.9265625 978.1 950.8 M 1046.75 824.65 Q 1040.6876953125 827.36796875 1035 830.05 1000.0734375 873.5400390625 1022.2 894.2 1044.3283203125 914.858984375 1051.2 928.85 1077.1126953125 975.8166015625 1040.95 985.5 L 1058.85 986.1 Q 1077.6630859375 972.9580078125 1069.8 944.5 1057.3443359375 912.6796875 1024.45 888.5 1004.8748046875 874.21015625 1046.75 824.65 M 1222.9 870.6 L 1221 862.15 Q 1217.132421875 873.113671875 1222.9 870.6 M 1226.95 888.65 L 1225.1 880.3 Q 1222.214453125 882.2017578125 1220.5 887.85 1216.8458984375 894.82578125 1226.95 888.65 M 1225.1 880.3 L 1226.95 888.65 Q 1227.5861328125 888.2724609375 1228.25 887.85 1234.3458984375 882.5623046875 1229.5 879.5 1227.0326171875 879.0564453125 1225.1 880.3 M 574.1 781.05 Q 564.6212890625 777.8271484375 555 774.7 492.500390625 856.5259765625 553.9 877.85 616.5673828125 886.67578125 656.35 811.95 647.299609375 808.1986328125 638.1 804.55 623.3138671875 873.540625 555.2 865.85 512.275 852.9109375 574.1 781.05 M 420.7 736.05 Q 412.1201171875 733.630859375 403.75 731.2 365.956640625 789.11640625 403.75 803.2 425.06796875 809.13359375 419.95 817.85 413.6505859375 854.809375 517.8 763.15 510.0880859375 760.8580078125 502.25 758.6 436.7421875 833.2236328125 420.7 802.5 369.955859375 784.5201171875 420.7 736.05 M 297.65 697.85 Q 291.5708984375 695.7544921875 285.65 693.65 264.7076171875 703.7935546875 285.65 758.55 296.8486328125 775.7501953125 320.35 759.1 346.781640625 740.36015625 361.25 718.5 351.6939453125 715.5447265625 342.45 712.6 331.6416015625 748.5427734375 300 746.55 276.682421875 745.433984375 297.65 697.85 M 267.9 687.3 Q 263.4365234375 685.677734375 259.05 684.05 271.8673828125 726.24765625 246 712.55 224.9544921875 704.08515625 240.95 677.1 231.7984375 673.50546875 223.2 669.95 208.7146484375 713.8046875 246 731.85 278.8595703125 743.9970703125 267.9 687.3 M 112.95 605.65 L 112.95 613.2 Q 103.463671875 656.40625 142.7 710.55 171.2501953125 739.775 216 666.9 209.133984375 664 202.65 661.1 173.4056640625 714.958984375 148 691.2 114.627734375 660.225390625 122.3 611.95 117.64296875 608.79296875 112.95 605.65 M 1121.5 722.3 Q 1121.4396484375 725.5611328125 1121.4 728.9 1176.20625 763.5158203125 1136.6 796.6 1121.7607421875 810.16875 1136.6 835.5 1148.259765625 858.5484375 1138.85 863.5 1120.876953125 887.73984375 1155.55 950.3 1181.696875 981.384375 1224.4 934.6 1233.6244140625 926.6712890625 1233.4 917.2 1233.23828125 916.2158203125 1233 915.4 1229.675390625 904.3865234375 1211.6 933.65 1184.26171875 967.7826171875 1162.7 938.55 1125.034765625 892.15234375 1142.5 869.55 1159.0478515625 852.713671875 1149.5 841.55 1131.6201171875 823.4763671875 1149.35 798.7 1167.073828125 773.9263671875 1162.25 752.75 1150.1453125 737.525 1121.5 722.3 M 1181.05 592.2 Q 1178.863671875 591.4744140625 1176.8 590.95 1127.303515625 681.9533203125 1166.35 719.95 1224.8 730.3 1221.1 775.95 1212.9 802.35 1228.15 817.15 1244.6 840.85 1221 862.15 L 1222.9 870.6 Q 1226.5458984375 869.0482421875 1234 862.15 1251.7720703125 833.6970703125 1235.3 810 1220.0630859375 795.210546875 1228.25 768.8 1231.94765625 723.14140625 1172.85 711.55 1134.4748046875 674.776953125 1188.3 594.75 1184.653125 593.4025390625 1181.05 592.2 M 1944.15 1110.3 Q 1978.3720703125 1086.405078125 1965.6 1112.05 1947.73359375 1147.86328125 1954.35 1139.6 2002.811328125 1071.151171875 1944.15 1095.4 1924.5484375 1117.30390625 1944.15 1110.3 M 1970.1 1056.55 Q 1998.8046875 1056.3322265625 1979.45 1085.3 2013.046484375 1046.3072265625 1970.1 1056.55 M 1920.05 1155.15 Q 1949.4435546875 1155.27421875 1920.05 1165.75 1898.683984375 1178.340625 1911.15 1183.9 1972.51484375 1138.358203125 1901.8 1155.15 1901.05859375 1161.5951171875 1920.05 1155.15 M 1857.1 716.85 Q 1849.8294921875 717.999609375 1842.55 719.15 1902.7400390625 745.46328125 1892.8 803.5 1884.5076171875 847.16953125 1857 865.35 1806.9400390625 899.1 1910.7 887.35 1997.5412109375 872.828515625 1984.8 832.8 1973.5974609375 802.6232421875 1921.3 766.05 1902.28671875 744.064453125 1946.55 730.2 1974.3125 724.26484375 1926.35 706.05 1916.8359375 707.5171875 1907.35 709 1960.720703125 723.55 1922.95 726.95 1897.85 734.8 1911.9 764.9 1965 814.1 1971.35 831.2 1981.5390625 862.8423828125 1926.7 868.65 1849.05 879.9 1877.45 860.75 1893.05 850.4 1897.6 794.75 1902.35 737.2 1857.1 716.85 M 1644.45 751.7 Q 1639.5466796875 752.5384765625 1634.65 753.35 1565.1697265625 855.8236328125 1684.1 928.4 1718.7625 943.4423828125 1724.75 909.35 1722.3828125 878.43984375 1686.6 872.55 1638.5115234375 860.287109375 1712.75 810.4 1743.20703125 792.1732421875 1758.95 732.6 1755.680078125 733.1408203125 1752.4 733.65 1746.182421875 786.778125 1681 828.2 1632.35 860.85 1687.6 876.55 1720.748828125 885.8521484375 1718.1 909.05 1707.731640625 935.0748046875 1676.7 912.55 1580.326171875 851.9302734375 1644.45 751.7 M 1386.9 744.7 Q 1381.7517578125 739.2572265625 1376.65 734 1410.65 790.19921875 1399.9 831.85 1389.15 873.5521484375 1365.95 892 1322.55546875 934.7609375 1408.05 981.25 1468.4 997.35 1477.65 943.55 1481.7 920.1 1443.1 873.75 1407.654296875 819.906640625 1481.6 777 1476.6677734375 777.2421875 1472.1 777.3 1389.2037109375 824.3076171875 1444.85 888.55 1482.2271484375 922.1115234375 1466.3 955.7 1451.9666015625 997.22421875 1396.9 967.95 1341.87578125 938.726953125 1379.4 886.65 1399.770703125 862.259765625 1405.35 827.9 1410.979296875 793.590234375 1386.9 744.7 M 2465.95 526.3 Q 2459.316015625 519.46796875 2452.65 512.25 2450.1171875 581.96015625 2391.95 597.3 2267.8 615.8 2382.55 743.1 2448.8359375 796.071484375 2417.45 805.1 2376.5501953125 806.421484375 2366.15 824.65 2342.5541015625 895.1326171875 2406.05 888.55 2469.595703125 881.9673828125 2493.25 871.25 2601.3 797.85 2472.35 698 2403.321875 656.379296875 2474.8 657.95 2551.9318359375 655.8599609375 2535.4 587.95 2528.2455078125 582.619921875 2521 576.8 2540.2458984375 649.62578125 2493.45 642.25 2389.7607421875 652.3921875 2424.25 674.3 2537.79296875 766.0896484375 2524.25 812.8 2522.44609375 859.01484375 2431.95 875.6 2358.321484375 889.2171875 2370.4 847.4 2386.2076171875 826.418359375 2431.95 815.35 2453.6984375 794.8640625 2385.8 720.45 2298.5826171875 626.62890625 2385.8 610.2 2451.410546875 610.084765625 2465.95 526.3 M 2118.6 709.55 L 2112.5 711.2 Q 2145.3072265625 752.0365234375 2140.05 790.8 2137.3064453125 810.98125 2124.25 830.6 2113.1392578125 853.8337890625 2184.3 841.05 2206.6015625 842.7728515625 2196.85 859.35 2190.7251953125 869.783203125 2171.9 886.1 2145.2990234375 921.2271484375 2202.6 907 2204.098828125 906.4150390625 2205.55 905.8 2206.1837890625 905.576171875 2206.8 905.3 L 2208.05 904.8 Q 2211.534765625 903.43125 2214.8 902.05 2224.6341796875 897.716015625 2232.55 893.45 2171.75 903.8 2197.45 876.85 2246.2 834.6 2208.95 831.2 2137.8 844 2133.9 834.15 2147.8841796875 813.1462890625 2149.55 790.8 2152.4607421875 752.19140625 2118.6 709.55 M 2111.15 677.35 Q 2093.7646484375 660.5359375 2138.7 652.8 2157.1611328125 651.7109375 2138.7 660.65 2119.9 681.4 2176.5 694.1 L 2183.5 692.25 Q 2129.069921875 678.0109375 2146.25 660.8 2160.9732421875 648.5759765625 2146.25 649.4 2086.739453125 656.70859375 2100.7 672.2 2126.100390625 697.379296875 2122.4 708.55 L 2126.65 707.45 Q 2128.5423828125 694.1720703125 2111.15 677.35 M 2196.45 688.8 L 2187.55 691.15 Q 2227.454296875 695.6673828125 2209.1 712.4 2133.4896484375 746.830078125 2169.3 771.2 2192.0138671875 780.8498046875 2209.35 790.8 2220.04921875 796.918359375 2228.7 803.15 2261.957421875 827.1302734375 2265.3 852.8 2270.3583984375 873.1216796875 2232.55 893.45 2224.6341796875 897.716015625 2214.8 902.05 2289.5626953125 871.9451171875 2284.8 852.8 2281.45 827.15 2248.2 803.15 2239.55 796.9 2228.9 790.8 2211.5 780.85 2188.8 771.2 2153 746.85 2228.6 712.4 2246.9455078125 695.6541015625 2196.45 688.8 M 2152.85 568.65 Q 2151.80703125 573.41875 2150.45 578 2186.15546875 477.6861328125 2225.5 474.8 2348.7140625 488.452734375 2322.15 465.7 2296.696875 449.193359375 2320.85 448.55 2339.2 450.85 2353.4 471.75 2378.1923828125 508.344140625 2259.65 511.75 2203.4021484375 515.0548828125 2223.05 556.9 2242.743359375 598.734765625 2207.9 617.7 2143.36171875 656.8302734375 2139.35 605.7 2134.55859375 614.7556640625 2128.45 622.95 2153.5611328125 664.8359375 2222.95 617.9 2250.0830078125 594.67421875 2230.35 557.45 2210.6068359375 520.216015625 2294.75 515.35 2384.0921875 507.1205078125 2359 466.75 2342.7162109375 440.555859375 2315.25 437.15 2287.8798828125 445.03515625 2315.25 466.65 2339.641796875 483.7435546875 2226.8 466.65 2179.45234375 470.0802734375 2152.85 568.65 M 3182.5 675.7 Q 3178.591796875 675.13046875 3174.65 674.55 3215.5798828125 767.4541015625 3208.75 783.05 3187.119140625 832.41484375 3125.2 766.25 3093.451953125 758.494921875 3109.6 729.3 3120.0521484375 718.82578125 3118.95 667.4 3116.033984375 667.0822265625 3113.1 666.75 3113.25 716.8892578125 3101.6 725.55 3085.4482421875 756.5888671875 3124 771.2 3190.559765625 853.2875 3212 782 3220.862109375 757.203515625 3182.5 675.7 M 2834.15 648.65 Q 2830.06015625 648.5455078125 2825.95 648.45 2774.3228515625 695.6322265625 2787.7 735.65 2805.8818359375 784.65390625 2908.4 827.45 2934.258203125 844.876171875 2878.5 865.6 2827.0828125 887.266015625 2959 912.05 2999.490625 914.4494140625 2994.05 895.55 2983.2357421875 873.791796875 2947.65 870.8 2922.7486328125 867.1267578125 2979.6 827.05 3004.65859375 828.0859375 3010.55 841.9 3028.299609375 876.6357421875 3040.5 814.05 3055.6912109375 779.5267578125 2997.25 768.7 2922.4869140625 755.087109375 3011.6 738.7 3056.5955078125 724.6009765625 3011.6 688.15 L 2976.05 654.8 Q 2970.4849609375 654.4697265625 2964.85 654.1 L 3012.8 699.5 Q 3029.9470703125 722.4609375 3010.45 733 L 2973.5 746.75 Q 2937.43515625 760.0791015625 2974.65 770.15 3025.0107421875 774.1560546875 3032.6 792.1 3040.1775390625 810.0546875 3029.65 831.2 3019.825 851.2919921875 3010 831.2 3001.34453125 816.9720703125 2972.05 821.05 2958.5716796875 824.02109375 2927.05 862.35 2913.043359375 878.315625 2934.3 879.75 2969.41015625 879.0392578125 2979.9 893.5 2995.68828125 911.81171875 2940.6 902.65 2867.3 888.9 2895.85 876.85 2941.103515625 848.991015625 2919.55 826.3 2846.7 795.05 2814.95 759 2777.1056640625 720.8439453125 2834.15 648.65 M 2739.1 647.25 Q 2720.038671875 647.18671875 2700.6 647.25 2635.2 661.2 2646.9 669.6 2762.549609375 713.6994140625 2700.85 723.05 2639.2033203125 732.462109375 2691.75 768.15 2723.95 796.3 2708.8 826.6 2700.1 867.65 2752.55 877.1 2835.876953125 898.201171875 2718.7 892.4 2699.5 889.85 2694 858.65 2667.2 817.6 2641.1 892.3 2570.73203125 1070.9951171875 2620.95 838.25 2627.6 807.05 2640.3 790.65 2669.496484375 740.975 2629.65 705.85 2589.8513671875 670.7666015625 2638.4 640.35 2635.1056640625 639.4638671875 2631.8 638.45 2589.633203125 659.9248046875 2607.75 693.4 2655.8990234375 751.3173828125 2632.2 778.3 2611.97578125 804.46171875 2601.35 854.25 2570.9443359375 1069.5279296875 2633.5 940.45 2675.07734375 821.3208984375 2687.55 865.8 2687.825390625 895.1333984375 2718.4 899.25 2856.4380859375 905.5421875 2772.45 874.8 2703.67890625 863.186328125 2715.85 824.65 2736.178125 787.325 2679.8 750 2666.6265625 735.85 2735.15 721.7 2757.7515625 705.2373046875 2677.25 674.1 2658.668359375 660.6875 2739.1 647.25 M 3522.9 770.2 Q 3519.4822265625 768.691015625 3516 767.15 3512.2458984375 780.9095703125 3501.8 789.35 3480.21953125 802.97265625 3516.65 804.8 3526.9376953125 804.2529296875 3547.2 781.4 3542.5966796875 779.21171875 3537.95 777.05 3532.6251953125 793.9447265625 3519.85 794.7 3492.86015625 801.9888671875 3512.95 786.2 3521.2392578125 779.8232421875 3522.9 770.2 M 3456.85 742.45 Q 3450.9474609375 740.19921875 3444.9 737.95 3476.12734375 775.3306640625 3458.05 784.75 3409.987109375 809.912890625 3414.65 785.2 3419.3748046875 760.474609375 3409.05 725.95 3410.6435546875 726.1421875 3401.8 723.35 3411.500390625 769.980859375 3408.15 787.8 3398.3068359375 821.4236328125 3463.5 787.8 3482.412109375 775.5751953125 3456.85 742.45 M 2126.6 980.55 Q 2124.277734375 983.813671875 2138.15 979.7 2167.1177734375 965.4728515625 2159.85 924.25 2146.905859375 893.4212890625 2120.05 893.05 2073.381640625 903.709765625 2042 936.15 2031.3205078125 963.3705078125 2058.8 982.4 2028.2185546875 938.3611328125 2078.85 918.5 2121.5357421875 894.6259765625 2143.45 918.5 2165.842578125 961.88515625 2126.6 980.55 M 1301.9 956.65 Q 1297.071875 970.1814453125 1310.75 968.8 1340.5 956.45 1338.75 927.2 1326.6 894.45 1278.3 922.65 1272.35 945.6 1293.8 947.3 1301.4712890625 946.4990234375 1301.9 956.65 M 1309.65 958.2 Q 1310.49921875 933.11640625 1296.25 939.6 1283.369140625 942.3734375 1287.45 926.65 1320.511328125 907.36171875 1328.8 929.75 1329.9884765625 949.7443359375 1309.65 958.2 M 1636.15 960.5 Q 1645.7451171875 950.6267578125 1641.5 938.95 1595.934765625 863.8572265625 1559.45 938.95 1553.777734375 957.684765625 1579.5 974.8 1605.273046875 991.9169921875 1636.15 960.5 M 1629.95 939.6 Q 1633 947.95 1626.1 955 1603.95 977.5 1585.55 965.25 1567.1 953 1571.15 939.6 1597.3 885.75 1629.95 939.6 M 1822.15 904.2 Q 1776.9748046875 901.633984375 1798.9 966.3 1809.327734375 983.6771484375 1875.25 949.4 1915.1810546875 929.92109375 1863.65 916.1 1836.71484375 906.2279296875 1822.15 904.2 M 1824.85 910.45 Q 1836.75 912.15 1858.75 920.2 1900.8 931.45 1868.2 947.35 1814.4 975.35 1805.9 961.15 1787.95 908.4 1824.85 910.45 M 3486.2 850.55 Q 3494.9443359375 831.22265625 3483.8 821.9 3466.9548828125 823.8439453125 3457.1 823.75 3442.451171875 831.605859375 3453 850.4 3460.69921875 852.05 3469.9 852.05 3478.7515625 852.05 3486.2 850.55 M 3463.75 833.8 Q 3461.2302734375 827.0953125 3467.45 828.2 3476.565625 840.30703125 3483.7 845.75 3480.2501953125 850.61484375 3476.8 848.45 L 3463.75 833.8 M 3280.15 692.6 Q 3275.33359375 691.610546875 3270.45 690.65 3284.450390625 722.548828125 3280.5 761.2 3281.22578125 773.7 3289 786.2 3311.719140625 815.871484375 3332.1 793.1 3352.1037109375 765.703125 3337.95 734.05 3329.787890625 719.3755859375 3329.1 703.4 3324.8037109375 702.3916015625 3320.45 701.35 3322.1755859375 717.963671875 3329.4 732.45 3346.759765625 762.769921875 3329.4 785.65 3307.6404296875 807.012890625 3293.25 779.25 3289.66796875 772.759375 3287.4 761.2 3289.7103515625 725.3798828125 3280.15 692.6 Z"
         id="path182" />
      <path
         fill="url(#Gradient_2)"
         stroke="none"
         d=" M 836.45 891.6 Q 833.7072265625 892.21875 830.9 892.4 809.3587890625 966.464453125 865.15 965.15 920.60625 964.0373046875 891.7 876.65 863.3939453125 882.9607421875 836.45 891.6 Z"
         id="path184" />
      <path
         fill="url(#Gradient_3)"
         stroke="none"
         d=" M 968.55 864.2 Q 935.6869140625 867.6837890625 904.45 873.95 922.362890625 950.3232421875 882.05 982.1 919.714453125 992.333203125 959.55 991.35 959.5728515625 961.707421875 975.8 938.5 981.8333984375 924.6734375 968.55 908.5 956.1181640625 888.8548828125 968.55 864.2 Z"
         id="path186" />
      <path
         fill="url(#Gradient_4)"
         stroke="none"
         d=" M 1122.95 1020.65 L 1071.85 1007.8 Q 1009.1982421875 1004.39921875 956.7 1012.65 933.8009765625 1016.2908203125 939.35 1021.65 1002.3166015625 1033.529296875 1021.05 1050.65 1037.7744140625 1111.671484375 1039.7 1163.85 1043.0671875 1181.2345703125 1057.9 1177.25 1084.1064453125 1172.0916015625 1134.55 1139.55 1250.86171875 1050.137109375 1295.05 1034.7 L 1122.95 1020.65 M 1067.85 1067.25 Q 1077.760546875 1057.43984375 1087 1056.65 1096.2470703125 1055.8537109375 1105.85 1065.45 1115.4548828125 1075.0478515625 1093.9 1080.6 1072.3349609375 1086.1564453125 1083.2 1103.35 1094.0658203125 1120.544140625 1081.6 1120.95 1069.141796875 1121.3498046875 1052.05 1112.5 1035.0140625 1103.6537109375 1046.5 1090.35 1057.983984375 1077.0564453125 1067.85 1067.25 Z"
         id="path188" />
      <path
         fill="url(#Gradient_5)"
         stroke="none"
         d=" M 1085.7 1065.45 Q 1072.1947265625 1067.649609375 1066 1073.8 1059.80625 1079.9501953125 1051.95 1090.6 1044.13125 1101.2994140625 1054.3 1109.1 1064.48125 1116.9005859375 1073.45 1112.1 1082.45625 1107.2998046875 1075.65 1096.5 1068.8052734375 1085.7001953125 1084.55 1081.7 1100.2841796875 1077.74921875 1099.75 1070.5 1099.2658203125 1063.3005859375 1085.7 1065.45 Z"
         id="path190" />
      <path
         fill="url(#Gradient_6)"
         stroke="none"
         d=" M 1035 830.05 Q 998.237890625 847.3912109375 978.2 863.25 959.8240234375 896.0140625 982.65 912.45 999.5 932.95 978.1 950.8 938.478125 1001.9265625 1040.95 985.5 1077.1126953125 975.8166015625 1051.2 928.85 1044.3283203125 914.858984375 1022.2 894.2 1000.0734375 873.5400390625 1035 830.05 Z"
         id="path192" />
      <path
         fill="url(#Gradient_7)"
         stroke="none"
         d=" M 555.2 865.85 Q 623.3138671875 873.540625 638.1 804.55 606.94921875 792.2138671875 574.1 781.05 512.275 852.9109375 555.2 865.85 Z"
         id="path194" />
      <path
         fill="url(#Gradient_8)"
         stroke="none"
         d=" M 473.6 750.7 Q 446.1578125 743.319140625 420.7 736.05 369.955859375 784.5201171875 420.7 802.5 436.7421875 833.2236328125 502.25 758.6 488.0765625 754.560546875 473.6 750.7 Z"
         id="path196" />
      <path
         fill="url(#Gradient_9)"
         stroke="none"
         d=" M 259.05 684.05 Q 249.7486328125 680.5583984375 240.95 677.1 224.9544921875 704.08515625 246 712.55 271.8673828125 726.24765625 259.05 684.05 Z"
         id="path198" />
      <path
         fill="url(#Gradient_10)"
         stroke="none"
         d=" M 297.65 697.85 Q 276.682421875 745.433984375 300 746.55 331.6416015625 748.5427734375 342.45 712.6 318.95625 705.1671875 297.65 697.85 Z"
         id="path200" />
      <path
         fill="url(#Gradient_11)"
         stroke="none"
         d=" M 122.3 611.95 Q 114.627734375 660.225390625 148 691.2 173.4056640625 714.958984375 202.65 661.1 185.1595703125 653.309765625 170.5 645.7 146.4076171875 628.1978515625 122.3 611.95 Z"
         id="path202" />
      <path
         fill="url(#Gradient_12)"
         stroke="none"
         d=" M 44.1 562.5 Q 25.0544921875 552.8251953125 30.1 570.35 40.536328125 594.5314453125 41.2 649.4 49.8314453125 652.7662109375 41.2 657.65 59.926171875 739.08515625 64.25 827.3 64.4505859375 835.0248046875 69.6 833.05 99.27890625 814.0732421875 156.1 808.75 187.8140625 812.6353515625 168.45 824 156.380859375 828.5607421875 157.7 834.75 293.96875 958.65625 416.75 1008.95 432.7263671875 1015.7333984375 445.55 1029.1 468.0427734375 1069.3294921875 435.3 1179 433.6380859375 1185.0384765625 438.15 1186.4 512.7408203125 1193.38125 682.45 1091.85 701.526953125 1023.0923828125 823.45 964.75 809.899609375 941.7087890625 816.35 890.9 810.7947265625 889.3970703125 805 886.45 801.4841796875 884.3306640625 797.9 882.2 751.0953125 919.451953125 696.5 931.8 672.5935546875 936.9228515625 666.55 916.5 654.415234375 854.41640625 700.45 831.25 678.8720703125 821.2830078125 656.35 811.95 616.5673828125 886.67578125 553.9 877.85 492.500390625 856.5259765625 555 774.7 536.6634765625 768.7458984375 517.8 763.15 413.6505859375 854.809375 419.95 817.85 425.06796875 809.13359375 403.75 803.2 365.956640625 789.11640625 403.75 731.2 381.73125 724.790625 361.25 718.5 346.781640625 740.36015625 320.35 759.1 296.8486328125 775.7501953125 285.65 758.55 264.7076171875 703.7935546875 285.65 693.65 276.566015625 690.4779296875 267.9 687.3 278.8595703125 743.9970703125 246 731.85 208.7146484375 713.8046875 223.2 669.95 219.5658203125 668.4333984375 216 666.9 171.2501953125 739.775 142.7 710.55 103.463671875 656.40625 112.95 613.2 L 112.95 605.65 Q 78.5267578125 582.81171875 44.1 562.5 Z"
         id="path204" />
      <path
         fill="url(#Gradient_13)"
         stroke="none"
         d=" M 1221.1 775.95 Q 1224.8 730.3 1166.35 719.95 1127.303515625 681.9533203125 1176.8 590.95 1158.2486328125 586.426953125 1148.8 599.35 1123.458203125 629.4962890625 1121.5 722.3 1150.1453125 737.525 1162.25 752.75 1167.073828125 773.9263671875 1149.35 798.7 1131.6201171875 823.4763671875 1149.5 841.55 1159.0478515625 852.713671875 1142.5 869.55 1125.034765625 892.15234375 1162.7 938.55 1184.26171875 967.7826171875 1211.6 933.65 1229.675390625 904.3865234375 1233 915.4 L 1226.95 888.65 Q 1216.8458984375 894.82578125 1220.5 887.85 1222.214453125 882.2017578125 1225.1 880.3 L 1222.9 870.6 Q 1217.132421875 873.113671875 1221 862.15 1244.6 840.85 1228.15 817.15 1212.9 802.35 1221.1 775.95 Z"
         id="path206" />
      <path
         fill="url(#Gradient_14)"
         stroke="none"
         d=" M 1770.5 1054.15 Q 1756.8201171875 1038.5947265625 1740.05 1022.75 1727.8517578125 1011.2826171875 1752.35 1008.9 1405.6125 978.650390625 1058.85 986.1 1047.1744140625 994.2640625 1025.15 996.5 953.6431640625 998.6087890625 959.55 991.35 919.714453125 992.333203125 882.05 982.1 882.337890625 982.8173828125 863.85 983.8 835.5904296875 985.453515625 823.45 964.75 701.526953125 1023.0923828125 682.45 1091.85 737.1892578125 1059.1146484375 801.8 1015.1 889.620703125 1000.7798828125 939.35 1021.65 933.8009765625 1016.2908203125 956.7 1012.65 1009.1982421875 1004.39921875 1071.85 1007.8 1097.7220703125 1009.2474609375 1125.3 1012.65 1097.7220703125 1009.2474609375 1071.85 1007.8 L 1122.95 1020.65 1295.05 1034.7 Q 1304.346484375 1031.471875 1310.45 1031.5 L 1770.5 1054.15 Z"
         id="path208" />
      <path
         fill="url(#Gradient_15)"
         stroke="none"
         d=" M 1740.05 1022.75 Q 1756.8201171875 1038.5947265625 1770.5 1054.15 1870.4677734375 1167.7314453125 1807.8 1267.15 1938.0830078125 1266.451171875 2036.3 1089 2040.57890625 1083.24765625 2046.45 1078.75 1990.6828125 1038.9169921875 2007.65 1032.1 2001.7671875 1030.594921875 1993.7 1026.9 1957.6640625 1011.8783203125 1921 1004.4 1910.981640625 1002.3365234375 1900.9 1000.85 1827.830859375 990.051953125 1752.35 1008.9 1727.8517578125 1011.2826171875 1740.05 1022.75 M 1920.05 1165.75 Q 1949.4435546875 1155.27421875 1920.05 1155.15 1901.05859375 1161.5951171875 1901.8 1155.15 1972.51484375 1138.358203125 1911.15 1183.9 1898.683984375 1178.340625 1920.05 1165.75 M 1979.45 1085.3 Q 1998.8046875 1056.3322265625 1970.1 1056.55 2013.046484375 1046.3072265625 1979.45 1085.3 M 1965.6 1112.05 Q 1978.3720703125 1086.405078125 1944.15 1110.3 1924.5484375 1117.30390625 1944.15 1095.4 2002.811328125 1071.151171875 1954.35 1139.6 1947.73359375 1147.86328125 1965.6 1112.05 Z"
         id="path210" />
      <path
         fill="url(#Gradient_16)"
         stroke="none"
         d=" M 1922.95 726.95 Q 1960.720703125 723.55 1907.35 709 1882.1294921875 712.9052734375 1857.1 716.85 1902.35 737.2 1897.6 794.75 1893.05 850.4 1877.45 860.75 1849.05 879.9 1926.7 868.65 1981.5390625 862.8423828125 1971.35 831.2 1965 814.1 1911.9 764.9 1897.85 734.8 1922.95 726.95 Z"
         id="path212" />
      <path
         fill="url(#Gradient_17)"
         stroke="none"
         d=" M 1752.4 733.65 Q 1750.044140625 734.0654296875 1747.7 734.45 1695.6427734375 742.9892578125 1644.45 751.7 1580.326171875 851.9302734375 1676.7 912.55 1707.731640625 935.0748046875 1718.1 909.05 1720.748828125 885.8521484375 1687.6 876.55 1632.35 860.85 1681 828.2 1746.182421875 786.778125 1752.4 733.65 Z"
         id="path214" />
      <path
         fill="url(#Gradient_18)"
         stroke="none"
         d=" M 1435.85 773.05 Q 1413.3857421875 764.812109375 1386.9 744.7 1410.979296875 793.590234375 1405.35 827.9 1399.770703125 862.259765625 1379.4 886.65 1341.87578125 938.726953125 1396.9 967.95 1451.9666015625 997.22421875 1466.3 955.7 1482.2271484375 922.1115234375 1444.85 888.55 1389.2037109375 824.3076171875 1472.1 777.3 1471.6986328125 777.2970703125 1471.3 777.3 1448.646484375 777.4494140625 1435.85 773.05 Z"
         id="path216" />
      <path
         fill="url(#Gradient_19)"
         stroke="none"
         d=" M 2521 576.8 Q 2493.765625 554.9484375 2465.95 526.3 2451.410546875 610.084765625 2385.8 610.2 2298.5826171875 626.62890625 2385.8 720.45 2453.6984375 794.8640625 2431.95 815.35 2386.2076171875 826.418359375 2370.4 847.4 2358.321484375 889.2171875 2431.95 875.6 2522.44609375 859.01484375 2524.25 812.8 2537.79296875 766.0896484375 2424.25 674.3 2389.7607421875 652.3921875 2493.45 642.25 2540.2458984375 649.62578125 2521 576.8 Z"
         id="path218" />
      <path
         fill="url(#Gradient_20)"
         stroke="none"
         d=" M 2126.65 707.45 L 2122.4 708.55 2118.6 709.55 Q 2152.4607421875 752.19140625 2149.55 790.8 2147.8841796875 813.1462890625 2133.9 834.15 2137.8 844 2208.95 831.2 2246.2 834.6 2197.45 876.85 2171.75 903.8 2232.55 893.45 2270.3583984375 873.1216796875 2265.3 852.8 2261.957421875 827.1302734375 2228.7 803.15 2220.04921875 796.918359375 2209.35 790.8 2192.0138671875 780.8498046875 2169.3 771.2 2133.4896484375 746.830078125 2209.1 712.4 2227.454296875 695.6673828125 2187.55 691.15 L 2183.5 692.25 2176.5 694.1 2126.65 707.45 Z"
         id="path220" />
      <path
         fill="url(#Gradient_21)"
         stroke="none"
         d=" M 2138.7 652.8 Q 2093.7646484375 660.5359375 2111.15 677.35 2128.5423828125 694.1720703125 2126.65 707.45 L 2176.5 694.1 Q 2119.9 681.4 2138.7 660.65 2157.1611328125 651.7109375 2138.7 652.8 Z"
         id="path222" />
      <path
         fill="url(#Gradient_22)"
         stroke="none"
         d=" M 2150.35 578.4 Q 2150.2873046875 578.703515625 2150.2 579 2146.0171875 593.1513671875 2139.35 605.7 2143.36171875 656.8302734375 2207.9 617.7 2242.743359375 598.734765625 2223.05 556.9 2203.4021484375 515.0548828125 2259.65 511.75 2378.1923828125 508.344140625 2353.4 471.75 2339.2 450.85 2320.85 448.55 2296.696875 449.193359375 2322.15 465.7 2348.7140625 488.452734375 2225.5 474.8 2186.15546875 477.6861328125 2150.45 578 2150.4236328125 578.215625 2150.35 578.4 Z"
         id="path224" />
      <path
         fill="url(#Gradient_23)"
         stroke="none"
         d=" M 3110.2 936.4 L 3082.7 939.8 Q 3089.8638671875 974.63046875 3098.55 980.55 3089.8638671875 974.63046875 3082.7 939.8 L 3052.55 943.55 Q 3062.1271484375 976.5833984375 3080.6 980.2 3062.1271484375 976.5833984375 3052.55 943.55 2684.01953125 1024.76875 2293.8 1037.65 2150.1052734375 1044.003515625 1921 1004.4 1957.6640625 1011.8783203125 1993.7 1026.9 2001.7671875 1030.594921875 2007.65 1032.1 2013.557421875 1033.66015625 2017.3 1033.05 2013.557421875 1033.66015625 2007.65 1032.1 1990.6828125 1038.9169921875 2046.45 1078.75 2075.50546875 1056.664453125 2143.7 1065.4 2522.4529296875 1130.5923828125 3045.65 1065.4 3478.420703125 1017.2587890625 3521.25 988.5 3531.8841796875 981.2947265625 3528.5 973.35 3526.8033203125 964.4974609375 3513.3 964.5 3647.056640625 950.3568359375 3727.35 882.75 3741.0498046875 865.85234375 3721.55 860.65 3563.08515625 947.9306640625 3137.45 933.05 3145.90703125 969.3208984375 3163.4 980.55 3145.90703125 969.3208984375 3137.45 933.05 L 3110.2 936.4 Q 3118.252734375 974.635546875 3133.55 980.55 3118.252734375 974.635546875 3110.2 936.4 Z"
         id="path226" />
      <path
         fill="url(#Gradient_24)"
         stroke="none"
         d=" M 3109.6 729.3 Q 3093.451953125 758.494921875 3125.2 766.25 3187.119140625 832.41484375 3208.75 783.05 3215.5798828125 767.4541015625 3174.65 674.55 3147.4982421875 670.723828125 3118.95 667.4 3120.0521484375 718.82578125 3109.6 729.3 Z"
         id="path228" />
      <path
         fill="url(#Gradient_25)"
         stroke="none"
         d=" M 2834.15 648.65 Q 2777.1056640625 720.8439453125 2814.95 759 2846.7 795.05 2919.55 826.3 2941.103515625 848.991015625 2895.85 876.85 2867.3 888.9 2940.6 902.65 2995.68828125 911.81171875 2979.9 893.5 2969.41015625 879.0392578125 2934.3 879.75 2913.043359375 878.315625 2927.05 862.35 2958.5716796875 824.02109375 2972.05 821.05 3001.34453125 816.9720703125 3010 831.2 3019.825 851.2919921875 3029.65 831.2 3040.1775390625 810.0546875 3032.6 792.1 3025.0107421875 774.1560546875 2974.65 770.15 2937.43515625 760.0791015625 2973.5 746.75 L 3010.45 733 Q 3029.9470703125 722.4609375 3012.8 699.5 L 2964.85 654.1 Q 2902.159375 650.3619140625 2834.15 648.65 Z"
         id="path230" />
      <path
         fill="url(#Gradient_26)"
         stroke="none"
         d=" M 2629.65 705.85 Q 2669.496484375 740.975 2640.3 790.65 2627.6 807.05 2620.95 838.25 2570.73203125 1070.9951171875 2641.1 892.3 2667.2 817.6 2694 858.65 2699.5 889.85 2718.7 892.4 2835.876953125 898.201171875 2752.55 877.1 2700.1 867.65 2708.8 826.6 2723.95 796.3 2691.75 768.15 2639.2033203125 732.462109375 2700.85 723.05 2762.549609375 713.6994140625 2646.9 669.6 2635.2 661.2 2700.6 647.25 2669.9076171875 648.755859375 2638.4 640.35 2589.8513671875 670.7666015625 2629.65 705.85 Z"
         id="path232" />
      <path
         fill="url(#Gradient_27)"
         stroke="none"
         d=" M 3522.9 770.2 Q 3521.2392578125 779.8232421875 3512.95 786.2 3492.86015625 801.9888671875 3519.85 794.7 3532.6251953125 793.9447265625 3537.95 777.05 3530.471484375 773.598046875 3522.9 770.2 Z"
         id="path234" />
      <path
         fill="url(#Gradient_28)"
         stroke="none"
         d=" M 3444.9 737.95 Q 3432.362109375 733.365625 3409.05 725.95 3419.3748046875 760.474609375 3414.65 785.2 3409.987109375 809.912890625 3458.05 784.75 3476.12734375 775.3306640625 3444.9 737.95 Z"
         id="path236" />
      <path
         fill="url(#Gradient_29)"
         stroke="none"
         d=" M 3289 786.2 Q 3281.22578125 773.7 3280.5 761.2 3284.450390625 722.548828125 3270.45 690.65 3228.4998046875 682.3865234375 3182.5 675.7 3220.862109375 757.203515625 3212 782 3190.559765625 853.2875 3124 771.2 3085.4482421875 756.5888671875 3101.6 725.55 3113.25 716.8892578125 3113.1 666.75 3048.148828125 659.4111328125 2976.05 654.8 L 3011.6 688.15 Q 3056.5955078125 724.6009765625 3011.6 738.7 2922.4869140625 755.087109375 2997.25 768.7 3055.6912109375 779.5267578125 3040.5 814.05 3028.299609375 876.6357421875 3010.55 841.9 3004.65859375 828.0859375 2979.6 827.05 2922.7486328125 867.1267578125 2947.65 870.8 2983.2357421875 873.791796875 2994.05 895.55 2999.490625 914.4494140625 2959 912.05 2827.0828125 887.266015625 2878.5 865.6 2934.258203125 844.876171875 2908.4 827.45 2805.8818359375 784.65390625 2787.7 735.65 2774.3228515625 695.6322265625 2825.95 648.45 2783.5490234375 647.4673828125 2739.1 647.25 2658.668359375 660.6875 2677.25 674.1 2757.7515625 705.2373046875 2735.15 721.7 2666.6265625 735.85 2679.8 750 2736.178125 787.325 2715.85 824.65 2703.67890625 863.186328125 2772.45 874.8 2856.4380859375 905.5421875 2718.4 899.25 2687.825390625 895.1333984375 2687.55 865.8 2675.07734375 821.3208984375 2633.5 940.45 2570.9443359375 1069.5279296875 2601.35 854.25 2611.97578125 804.46171875 2632.2 778.3 2655.8990234375 751.3173828125 2607.75 693.4 2589.633203125 659.9248046875 2631.8 638.45 2584.525 624.3146484375 2535.4 587.95 2551.9318359375 655.8599609375 2474.8 657.95 2403.321875 656.379296875 2472.35 698 2601.3 797.85 2493.25 871.25 2469.595703125 881.9673828125 2406.05 888.55 2342.5541015625 895.1326171875 2366.15 824.65 2376.5501953125 806.421484375 2417.45 805.1 2448.8359375 796.071484375 2382.55 743.1 2267.8 615.8 2391.95 597.3 2450.1171875 581.96015625 2452.65 512.25 2385.2021484375 441.3814453125 2257.35 373.6 2247.2400390625 365.6869140625 2235.2 373.6 L 2209.95 401.95 Q 2173.9072265625 446.3841796875 2155.8 551.45 2154.7310546875 560.3005859375 2152.85 568.65 2179.45234375 470.0802734375 2226.8 466.65 2339.641796875 483.7435546875 2315.25 466.65 2287.8798828125 445.03515625 2315.25 437.15 2342.7162109375 440.555859375 2359 466.75 2384.0921875 507.1205078125 2294.75 515.35 2210.6068359375 520.216015625 2230.35 557.45 2250.0830078125 594.67421875 2222.95 617.9 2153.5611328125 664.8359375 2128.45 622.95 2118.0173828125 637.1388671875 2103.75 648.85 L 2061.75 685.7 2019.75 722.55 Q 2006.3896484375 737.590234375 2019.75 735.95 L 2112.5 711.2 2118.6 709.55 2122.4 708.55 Q 2126.100390625 697.379296875 2100.7 672.2 2086.739453125 656.70859375 2146.25 649.4 2160.9732421875 648.5759765625 2146.25 660.8 2129.069921875 678.0109375 2183.5 692.25 L 2187.55 691.15 2196.45 688.8 2205.3 686.45 2196.45 688.8 Q 2246.9455078125 695.6541015625 2228.6 712.4 2153 746.85 2188.8 771.2 2211.5 780.85 2228.9 790.8 2239.55 796.9 2248.2 803.15 2281.45 827.15 2284.8 852.8 2289.5626953125 871.9451171875 2214.8 902.05 2211.534765625 903.43125 2208.05 904.8 L 2206.8 905.3 Q 2206.1837890625 905.576171875 2205.55 905.8 2204.098828125 906.4150390625 2202.6 907 2145.2990234375 921.2271484375 2171.9 886.1 2190.7251953125 869.783203125 2196.85 859.35 2206.6015625 842.7728515625 2184.3 841.05 2113.1392578125 853.8337890625 2124.25 830.6 2137.3064453125 810.98125 2140.05 790.8 2145.3072265625 752.0365234375 2112.5 711.2 L 2019.75 735.95 Q 2006.3896484375 737.590234375 2019.75 722.55 L 2061.75 685.7 Q 1993.3767578125 695.7412109375 1926.35 706.05 1974.3125 724.26484375 1946.55 730.2 1902.28671875 744.064453125 1921.3 766.05 1973.5974609375 802.6232421875 1984.8 832.8 1997.5412109375 872.828515625 1910.7 887.35 1806.9400390625 899.1 1857 865.35 1884.5076171875 847.16953125 1892.8 803.5 1902.7400390625 745.46328125 1842.55 719.15 1800.5021484375 725.8177734375 1758.95 732.6 1743.20703125 792.1732421875 1712.75 810.4 1638.5115234375 860.287109375 1686.6 872.55 1722.3828125 878.43984375 1724.75 909.35 1718.7625 943.4423828125 1684.1 928.4 1565.1697265625 855.8236328125 1634.65 753.35 1608.8392578125 757.79453125 1583.25 762.25 1520.3974609375 775.198046875 1481.6 777 1407.654296875 819.906640625 1443.1 873.75 1481.7 920.1 1477.65 943.55 1468.4 997.35 1408.05 981.25 1322.55546875 934.7609375 1365.95 892 1389.15 873.5521484375 1399.9 831.85 1410.65 790.19921875 1376.65 734 1371.425390625 728.60234375 1366.25 723.4 1267.51171875 624.1087890625 1188.3 594.75 1134.4748046875 674.776953125 1172.85 711.55 1231.94765625 723.14140625 1228.25 768.8 1220.0630859375 795.210546875 1235.3 810 1251.7720703125 833.6970703125 1234 862.15 1226.5458984375 869.0482421875 1222.9 870.6 L 1225.1 880.3 Q 1227.0326171875 879.0564453125 1229.5 879.5 1234.3458984375 882.5623046875 1228.25 887.85 1227.5861328125 888.2724609375 1226.95 888.65 L 1233 915.4 Q 1233.23828125 916.2158203125 1233.4 917.2 1233.6244140625 926.6712890625 1224.4 934.6 1181.696875 981.384375 1155.55 950.3 1120.876953125 887.73984375 1138.85 863.5 1148.259765625 858.5484375 1136.6 835.5 1121.7607421875 810.16875 1136.6 796.6 1176.20625 763.5158203125 1121.4 728.9 1121.04921875 758.7150390625 1123 794.7 1079.209765625 810.179296875 1046.75 824.65 1004.8748046875 874.21015625 1024.45 888.5 1057.3443359375 912.6796875 1069.8 944.5 1077.6630859375 972.9580078125 1058.85 986.1 1405.6125 978.650390625 1752.35 1008.9 1827.830859375 990.051953125 1900.9 1000.85 1910.981640625 1002.3365234375 1921 1004.4 2150.1052734375 1044.003515625 2293.8 1037.65 2684.01953125 1024.76875 3052.55 943.55 3046.66484375 923.2400390625 3044.15 891.75 3046.66484375 923.2400390625 3052.55 943.55 L 3082.7 939.8 Q 3077.99765625 916.8947265625 3073.95 881.4 3077.99765625 916.8947265625 3082.7 939.8 L 3110.2 936.4 Q 3105.2755859375 912.8146484375 3103.1 876.85 3105.2755859375 912.8146484375 3110.2 936.4 L 3137.45 933.05 Q 3131.980859375 909.34453125 3130.35 874.95 3131.980859375 909.34453125 3137.45 933.05 3563.08515625 947.9306640625 3721.55 860.65 L 3637 828.7 Q 3592.8109375 802.9626953125 3547.2 781.4 3526.9376953125 804.2529296875 3516.65 804.8 3480.21953125 802.97265625 3501.8 789.35 3512.2458984375 780.9095703125 3516 767.15 3502.8759765625 761.4216796875 3489.6 756 3473.80703125 749.0162109375 3456.85 742.45 3482.412109375 775.5751953125 3463.5 787.8 3398.3068359375 821.4236328125 3408.15 787.8 3411.500390625 769.980859375 3401.8 723.35 3367.40390625 712.6455078125 3329.1 703.4 3329.787890625 719.3755859375 3337.95 734.05 3352.1037109375 765.703125 3332.1 793.1 3311.719140625 815.871484375 3289 786.2 M 3497.8 822.5 Q 3500.6177734375 823.7388671875 3502.75 825.1 3508.879296875 836.676171875 3499.05 846.35 3498.44453125 846.66953125 3497.8 846.95 3492.5029296875 849.2888671875 3486.2 850.55 3478.7515625 852.05 3469.9 852.05 3460.69921875 852.05 3453 850.4 3447.022265625 849.180078125 3441.95 846.95 3430.4 841.9 3430.4 834.75 3430.4 827.6 3441.95 822.5 3443.1001953125 821.99921875 3444.3 821.55 3447.1103515625 823.688671875 3457.1 823.75 3466.9548828125 823.8439453125 3483.8 821.9 3488.2533203125 821.4013671875 3493.2 820.75 3495.5880859375 821.5328125 3497.8 822.5 M 1798.9 966.3 Q 1776.9748046875 901.633984375 1822.15 904.2 1836.71484375 906.2279296875 1863.65 916.1 1915.1810546875 929.92109375 1875.25 949.4 1809.327734375 983.6771484375 1798.9 966.3 M 1641.5 938.95 Q 1645.7451171875 950.6267578125 1636.15 960.5 1605.273046875 991.9169921875 1579.5 974.8 1553.777734375 957.684765625 1559.45 938.95 1595.934765625 863.8572265625 1641.5 938.95 M 1310.75 968.8 Q 1297.071875 970.1814453125 1301.9 956.65 1301.4712890625 946.4990234375 1293.8 947.3 1272.35 945.6 1278.3 922.65 1326.6 894.45 1338.75 927.2 1340.5 956.45 1310.75 968.8 M 2138.15 979.7 Q 2124.277734375 983.813671875 2126.6 980.55 L 2058.8 982.4 Q 2031.3205078125 963.3705078125 2042 936.15 2073.381640625 903.709765625 2120.05 893.05 2146.905859375 893.4212890625 2159.85 924.25 2167.1177734375 965.4728515625 2138.15 979.7 Z"
         id="path238" />
      <path
         fill="url(#Gradient_30)"
         stroke="none"
         d=" M 2126.6 980.55 Q 2165.842578125 961.88515625 2143.45 918.5 2121.5357421875 894.6259765625 2078.85 918.5 2028.2185546875 938.3611328125 2058.8 982.4 L 2126.6 980.55 Z"
         id="path240" />
      <path
         fill="url(#Gradient_31)"
         stroke="none"
         d=" M 1296.25 939.6 Q 1310.49921875 933.11640625 1309.65 958.2 1329.9884765625 949.7443359375 1328.8 929.75 1320.511328125 907.36171875 1287.45 926.65 1283.369140625 942.3734375 1296.25 939.6 Z"
         id="path242" />
      <path
         fill="url(#Gradient_32)"
         stroke="none"
         d=" M 1626.1 955 Q 1633 947.95 1629.95 939.6 1597.3 885.75 1571.15 939.6 1567.1 953 1585.55 965.25 1603.95 977.5 1626.1 955 Z"
         id="path244" />
      <path
         fill="url(#Gradient_33)"
         stroke="none"
         d=" M 1858.75 920.2 Q 1836.75 912.15 1824.85 910.45 1787.95 908.4 1805.9 961.15 1814.4 975.35 1868.2 947.35 1900.8 931.45 1858.75 920.2 Z"
         id="path246" />
      <path
         fill="url(#Gradient_34)"
         stroke="none"
         d=" M 3287.4 761.2 Q 3289.66796875 772.759375 3293.25 779.25 3307.6404296875 807.012890625 3329.4 785.65 3346.759765625 762.769921875 3329.4 732.45 3322.1755859375 717.963671875 3320.45 701.35 3300.8126953125 696.790625 3280.15 692.6 3289.7103515625 725.3798828125 3287.4 761.2 Z"
         id="path248" />
    </g>
    <g
       id="Layer0_0_FILL">
      <path
         fill="url(#Gradient_35)"
         stroke="none"
         d=" M 3076.75 1038.75 Q 3129.9912109375 968.02578125 2945.4 966.25 2875.720703125 964.4515625 2828.25 997.75 2796.23203125 1019.539453125 2690.95 1044.35 2639.0736328125 1059.8041015625 2631.75 1083.45 2645.9447265625 1091.176171875 2651.75 1141.2 2647.2015625 1169.51484375 2686.4 1235.55 2720.6931640625 1299.721484375 2695.3 1421.05 2685.677734375 1463.435546875 2735.6 1450.9 2828.6046875 1427.778125 2873.5 1333.95 2900.5490234375 1303.859765625 2933.2 1247.65 2946.5923828125 1237.3328125 2961.45 1208.9 3041.216796875 1051.3203125 3076.75 1038.75 M 2940.7 1002.25 Q 2947.1927734375 998.6390625 2942.5 1016.7 2937.855859375 1034.8025390625 2950.05 1041.75 2962.28359375 1048.7546875 2948.75 1047.8 2935.21640625 1046.8453125 2928.95 1040.8 2922.74453125 1034.8015625 2922.75 1026.8 2922.75 1018.8 2924.95 1013.15 2927.148046875 1007.49609375 2930.65 1006.65 2934.2056640625 1005.8611328125 2940.7 1002.25 M 2844.35 1014.6 Q 2846.45 1016.7 2846.45 1019.65 2846.4505859375 1022.6046875 2839.95 1027.5 2833.49765625 1032.4359375 2825 1036 2816.5021484375 1039.5640625 2824.3 1031.05 2832.14921875 1022.5953125 2832.15 1019.65 2832.15 1016.7 2834.25 1014.6 2836.35 1012.5 2839.3 1012.5 2842.25 1012.5 2844.35 1014.6 M 2787.6 1151.5 Q 2792.8046875 1153.70546875 2790.45 1160.4 2788.1357421875 1167.1333984375 2771.65 1186.55 2755.2140625 1205.96640625 2761.5 1185.15 2767.8451171875 1164.3943359375 2762.65 1162.2 2757.5 1160 2757.5 1156.85 2757.5 1153.7 2762.65 1151.5 2767.85 1149.3 2775.15 1149.3 2782.45 1149.3 2787.6 1151.5 M 2894.9 1125 Q 2914.4603515625 1133.4455078125 2903.25 1132.95 2892.0912109375 1132.4400390625 2885.15 1139.55 2878.2541015625 1146.6640625 2874.45 1137.25 2870.6990234375 1127.84453125 2869.05 1126.2 2867.4 1124.55 2867.4 1122.2 2867.4 1119.85 2869.05 1118.2 2870.7 1116.55 2873.05 1116.55 2875.396484375 1116.553515625 2894.9 1125 Z"
         id="path251" />
      <path
         fill="#000000"
         stroke="none"
         d=" M 2903.25 1132.95 Q 2914.4603515625 1133.4455078125 2894.9 1125 2875.396484375 1116.553515625 2873.05 1116.55 2870.7 1116.55 2869.05 1118.2 2867.4 1119.85 2867.4 1122.2 2867.4 1124.55 2869.05 1126.2 2870.6990234375 1127.84453125 2874.45 1137.25 2878.2541015625 1146.6640625 2885.15 1139.55 2892.0912109375 1132.4400390625 2903.25 1132.95 M 2790.45 1160.4 Q 2792.8046875 1153.70546875 2787.6 1151.5 2782.45 1149.3 2775.15 1149.3 2767.85 1149.3 2762.65 1151.5 2757.5 1153.7 2757.5 1156.85 2757.5 1160 2762.65 1162.2 2767.8451171875 1164.3943359375 2761.5 1185.15 2755.2140625 1205.96640625 2771.65 1186.55 2788.1357421875 1167.1333984375 2790.45 1160.4 M 2846.45 1019.65 Q 2846.45 1016.7 2844.35 1014.6 2842.25 1012.5 2839.3 1012.5 2836.35 1012.5 2834.25 1014.6 2832.15 1016.7 2832.15 1019.65 2832.14921875 1022.5953125 2824.3 1031.05 2816.5021484375 1039.5640625 2825 1036 2833.49765625 1032.4359375 2839.95 1027.5 2846.4505859375 1022.6046875 2846.45 1019.65 M 2942.5 1016.7 Q 2947.1927734375 998.6390625 2940.7 1002.25 2934.2056640625 1005.8611328125 2930.65 1006.65 2927.148046875 1007.49609375 2924.95 1013.15 2922.75 1018.8 2922.75 1026.8 2922.74453125 1034.8015625 2928.95 1040.8 2935.21640625 1046.8453125 2948.75 1047.8 2962.28359375 1048.7546875 2950.05 1041.75 2937.855859375 1034.8025390625 2942.5 1016.7 Z"
         id="path253" />
    </g>
    <path
       id="Layer2_0_1_STROKES"
       stroke="#000000"
       stroke-width="1"
       stroke-linejoin="round"
       stroke-linecap="round"
       fill="none"
       d=" M 3280.15 692.6 Q 3275.33359375 691.610546875 3270.45 690.65 3284.450390625 722.548828125 3280.5 761.2 3281.22578125 773.7 3289 786.2 3311.719140625 815.871484375 3332.1 793.1 3352.1037109375 765.703125 3337.95 734.05 3329.787890625 719.3755859375 3329.1 703.425 3324.8037109375 702.3916015625 3320.45 701.375 3322.1755859375 717.963671875 3329.4 732.45 3346.759765625 762.769921875 3329.4 785.65 3307.6404296875 807.012890625 3293.25 779.25 3289.66796875 772.759375 3287.4 761.2 3289.7103515625 725.3798828125 3280.15 692.6 3300.8126953125 696.790625 3320.45 701.375 M 3401.8 723.375 Q 3367.40390625 712.6455078125 3329.1 703.425 M 3456.85 742.475 Q 3450.9474609375 740.19921875 3444.9 737.975 3476.12734375 775.3306640625 3458.05 784.75 3409.987109375 809.912890625 3414.675 785.2 3419.3748046875 760.474609375 3409.05 725.95 3410.6435546875 726.1421875 3401.8 723.375 3411.500390625 769.980859375 3408.15 787.8 3398.3068359375 821.4236328125 3463.5 787.8 3482.412109375 775.5751953125 3456.85 742.475 3473.80703125 749.0162109375 3489.6 756 3502.8759765625 761.4216796875 3516.025 767.175 3519.4822265625 768.691015625 3522.925 770.225 3530.471484375 773.598046875 3537.975 777.075 3542.5966796875 779.21171875 3547.2 781.4 3592.8109375 802.9626953125 3637 828.7 L 3721.55 860.65 Q 3741.0498046875 865.85234375 3727.35 882.75 3647.056640625 950.3568359375 3513.3 964.5 3526.8033203125 964.4974609375 3528.5 973.35 3531.8841796875 981.2947265625 3521.25 988.5 3478.420703125 1017.2587890625 3045.65 1065.4 2522.4529296875 1130.5923828125 2143.7 1065.4 2075.50546875 1056.664453125 2046.475 1078.775 2040.57890625 1083.24765625 2036.3 1089 1938.0830078125 1266.451171875 1807.8 1267.15 1870.4677734375 1167.7314453125 1770.525 1054.175 L 1310.45 1031.5 Q 1304.346484375 1031.471875 1295.05 1034.725 1250.86171875 1050.137109375 1134.55 1139.55 1084.1064453125 1172.0916015625 1057.9 1177.25 1043.0671875 1181.2345703125 1039.7 1163.85 1037.7744140625 1111.671484375 1021.05 1050.65 1002.3166015625 1033.529296875 939.35 1021.65 889.620703125 1000.7798828125 801.8 1015.1 737.1892578125 1059.1146484375 682.475 1091.85 512.7408203125 1193.38125 438.15 1186.4 433.6380859375 1185.0384765625 435.3 1179 468.0427734375 1069.3294921875 445.55 1029.1 432.7263671875 1015.7333984375 416.75 1008.95 293.96875 958.65625 157.7 834.75 156.380859375 828.5607421875 168.45 824 187.8140625 812.6353515625 156.1 808.75 99.27890625 814.0732421875 69.6 833.05 64.4505859375 835.0248046875 64.25 827.3 59.926171875 739.08515625 41.2 657.65 49.8314453125 652.7662109375 41.2 649.4 40.536328125 594.5314453125 30.1 570.35 25.0544921875 552.8251953125 44.1 562.5 78.5267578125 582.81171875 112.95 605.675 117.64296875 608.79296875 122.325 611.95 146.4076171875 628.1978515625 170.5 645.7 185.1595703125 653.309765625 202.65 661.1 209.133984375 664 216 666.925 219.5658203125 668.4333984375 223.225 669.95 231.7984375 673.50546875 240.95 677.1 249.7486328125 680.5583984375 259.075 684.05 263.4365234375 685.677734375 267.925 687.325 276.566015625 690.4779296875 285.65 693.675 291.5708984375 695.7544921875 297.675 697.85 318.95625 705.1671875 342.475 712.625 351.6939453125 715.5447265625 361.25 718.5 381.73125 724.790625 403.775 731.2 412.1201171875 733.630859375 420.7 736.075 446.1578125 743.319140625 473.6 750.7 488.0765625 754.560546875 502.275 758.625 510.0880859375 760.8580078125 517.825 763.15 536.6634765625 768.7458984375 555 774.7 564.6212890625 777.8271484375 574.1 781.05 606.94921875 792.2138671875 638.1 804.55 647.299609375 808.1986328125 656.35 811.95 678.8720703125 821.2830078125 700.475 831.25 705.662890625 833.6435546875 710.8 836.075 750.5591796875 854.902734375 787.125 875.925 792.5673828125 879.0552734375 797.925 882.225 801.4841796875 884.3306640625 805 886.45 810.7947265625 889.3970703125 816.35 890.925 823.8373046875 892.9595703125 830.9 892.425 833.7072265625 892.21875 836.45 891.6 863.3939453125 882.9607421875 891.7 876.675 898.0388671875 875.26640625 904.45 873.975 935.6869140625 867.6837890625 968.55 864.2 973.357421875 863.6990234375 978.2 863.25 998.237890625 847.3912109375 1035 830.05 1040.6876953125 827.36796875 1046.775 824.65 1079.209765625 810.179296875 1123 794.7 1121.04921875 758.7150390625 1121.4 728.9 1121.4396484375 725.5611328125 1121.5 722.3 1123.458203125 629.4962890625 1148.8 599.35 1158.2486328125 586.426953125 1176.8 590.975 1178.863671875 591.4744140625 1181.05 592.2 1184.653125 593.4025390625 1188.3 594.75 1267.51171875 624.1087890625 1366.25 723.4 1371.425390625 728.60234375 1376.65 734 1381.7517578125 739.2572265625 1386.9 744.7 1413.3857421875 764.812109375 1435.85 773.05 1448.646484375 777.4494140625 1471.3 777.3 1471.6986328125 777.2970703125 1472.1 777.3 1476.6677734375 777.2421875 1481.625 777 1520.3974609375 775.198046875 1583.25 762.25 1608.8392578125 757.79453125 1634.65 753.375 1639.5466796875 752.5384765625 1644.45 751.7 1695.6427734375 742.9892578125 1747.7 734.45 1750.044140625 734.0654296875 1752.4 733.675 1755.680078125 733.1408203125 1758.975 732.6 1800.5021484375 725.8177734375 1842.575 719.15 1849.8294921875 717.999609375 1857.1 716.85 1882.1294921875 712.9052734375 1907.35 709 1916.8359375 707.5171875 1926.35 706.05 1993.3767578125 695.7412109375 2061.75 685.7 L 2103.75 648.85 Q 2118.0173828125 637.1388671875 2128.475 622.975 2134.55859375 614.7556640625 2139.35 605.7 2146.0171875 593.1513671875 2150.2 579 2150.2873046875 578.703515625 2150.375 578.4 2150.4236328125 578.215625 2150.475 578.025 2151.80703125 573.41875 2152.875 568.65 2154.7310546875 560.3005859375 2155.8 551.45 2173.9072265625 446.3841796875 2209.95 401.95 L 2235.2 373.6 Q 2247.2400390625 365.6869140625 2257.35 373.6 2385.2021484375 441.3814453125 2452.65 512.25 2459.316015625 519.46796875 2465.95 526.3 2493.765625 554.9484375 2521.025 576.825 2528.2455078125 582.619921875 2535.425 587.95 2534.8728515625 585.66171875 2534.25 583.3 M 3444.9 737.975 Q 3432.362109375 733.365625 3409.05 725.95 M 3522.925 770.225 Q 3521.2392578125 779.8232421875 3512.95 786.2 3492.86015625 801.9888671875 3519.85 794.7 3532.6251953125 793.9447265625 3537.975 777.075 M 3516.025 767.175 Q 3512.2458984375 780.9095703125 3501.8 789.35 3480.21953125 802.97265625 3516.65 804.8 3526.9376953125 804.2529296875 3547.2 781.4 M 2739.1 647.275 Q 2720.038671875 647.18671875 2700.6 647.25 2635.2 661.2 2646.9 669.6 2762.549609375 713.6994140625 2700.875 723.075 2639.2033203125 732.462109375 2691.75 768.15 2723.95 796.3 2708.8 826.6 2700.1 867.65 2752.55 877.1 2835.876953125 898.201171875 2718.7 892.4 2699.5 889.85 2694 858.65 2667.2 817.6 2641.1 892.3 2570.73203125 1070.9951171875 2620.95 838.25 2627.6 807.05 2640.3 790.65 2669.496484375 740.975 2629.675 705.875 2589.8513671875 670.7666015625 2638.4 640.35 2635.1056640625 639.4638671875 2631.8 638.475 2589.633203125 659.9248046875 2607.75 693.4 2655.8990234375 751.3173828125 2632.2 778.3 2611.97578125 804.46171875 2601.35 854.25 2570.9443359375 1069.5279296875 2633.5 940.45 2675.07734375 821.3208984375 2687.55 865.8 2687.825390625 895.1333984375 2718.4 899.25 2856.4380859375 905.5421875 2772.45 874.8 2703.67890625 863.186328125 2715.85 824.65 2736.178125 787.325 2679.8 750 2666.6265625 735.85 2735.15 721.7 2757.7515625 705.2373046875 2677.25 674.1 2658.668359375 660.6875 2739.1 647.275 2783.5490234375 647.4673828125 2825.95 648.45 2830.06015625 648.5455078125 2834.15 648.65 2902.159375 650.3619140625 2964.85 654.125 2970.4849609375 654.4697265625 2976.075 654.825 3048.148828125 659.4111328125 3113.1 666.75 3116.033984375 667.0822265625 3118.95 667.425 3147.4982421875 670.723828125 3174.65 674.575 3178.591796875 675.13046875 3182.5 675.7 3228.4998046875 682.3865234375 3270.45 690.65 M 2700.6 647.25 Q 2669.9076171875 648.755859375 2638.4 640.35 M 2834.15 648.65 Q 2777.1056640625 720.8439453125 2814.95 759 2846.7 795.05 2919.55 826.3 2941.103515625 848.991015625 2895.85 876.85 2867.3 888.9 2940.6 902.65 2995.68828125 911.81171875 2979.9 893.5 2969.41015625 879.0392578125 2934.3 879.75 2913.043359375 878.315625 2927.05 862.35 2958.5716796875 824.02109375 2972.05 821.05 3001.34453125 816.9720703125 3010 831.2 3019.825 851.2919921875 3029.65 831.2 3040.1775390625 810.0546875 3032.6 792.1 3025.0107421875 774.1560546875 2974.65 770.15 2937.43515625 760.0791015625 2973.5 746.75 L 3010.45 733 Q 3029.9470703125 722.4609375 3012.8 699.5 L 2964.85 654.125 M 2825.95 648.45 Q 2774.3228515625 695.6322265625 2787.7 735.65 2805.8818359375 784.65390625 2908.4 827.45 2934.258203125 844.876171875 2878.5 865.6 2827.0828125 887.266015625 2959 912.05 2999.490625 914.4494140625 2994.05 895.55 2983.2357421875 873.791796875 2947.65 870.8 2922.7486328125 867.1267578125 2979.6 827.05 3004.65859375 828.0859375 3010.55 841.9 3028.299609375 876.6357421875 3040.5 814.05 3055.6912109375 779.5267578125 2997.25 768.7 2922.4869140625 755.087109375 3011.6 738.7 3056.5955078125 724.6009765625 3011.6 688.15 L 2976.075 654.825 M 3118.95 667.425 Q 3120.0521484375 718.82578125 3109.6 729.3 3093.451953125 758.494921875 3125.2 766.25 3187.119140625 832.41484375 3208.75 783.05 3215.5798828125 767.4541015625 3174.65 674.575 M 3113.1 666.75 Q 3113.25 716.8892578125 3101.6 725.55 3085.4482421875 756.5888671875 3124 771.2 3190.559765625 853.2875 3212 782 3220.862109375 757.203515625 3182.5 675.7 M 3082.725 939.825 Q 3089.8638671875 974.63046875 3098.55 980.55 M 3133.55 980.55 Q 3118.252734375 974.635546875 3110.225 936.425 3105.2755859375 912.8146484375 3103.1 876.85 M 3163.4 980.55 Q 3145.90703125 969.3208984375 3137.475 933.05 3131.980859375 909.34453125 3130.35 874.95 M 3044.15 891.75 Q 3046.66484375 923.2400390625 3052.55 943.575 M 3073.95 881.4 Q 3077.99765625 916.8947265625 3082.725 939.825 M 3052.55 943.575 Q 3062.1271484375 976.5833984375 3080.6 980.2 M 3483.8 821.925 Q 3488.2533203125 821.4013671875 3493.2 820.75 3495.5880859375 821.5328125 3497.8 822.5 3500.6177734375 823.7388671875 3502.75 825.1 3508.879296875 836.676171875 3499.05 846.375 3498.44453125 846.66953125 3497.8 846.95 3492.5029296875 849.2888671875 3486.2 850.55 3478.7515625 852.05 3469.9 852.05 3460.69921875 852.05 3453 850.425 3447.022265625 849.180078125 3441.95 846.95 3430.4 841.9 3430.4 834.75 3430.4 827.6 3441.95 822.5 3443.1001953125 821.99921875 3444.3 821.55 3447.1103515625 823.688671875 3457.1 823.775 3466.9548828125 823.8439453125 3483.8 821.925 3494.9443359375 831.22265625 3486.2 850.55 M 3467.45 828.2 Q 3476.565625 840.30703125 3483.7 845.75 3480.2501953125 850.61484375 3476.8 848.45 L 3463.75 833.8 Q 3461.2302734375 827.0953125 3467.45 828.2 Z M 3457.1 823.775 Q 3442.451171875 831.605859375 3453 850.425 M 2150.475 578.025 Q 2186.15546875 477.6861328125 2225.5 474.8 2348.7140625 488.452734375 2322.15 465.7 2296.696875 449.193359375 2320.85 448.55 2339.2 450.85 2353.4 471.75 2378.1923828125 508.344140625 2259.65 511.75 2203.4021484375 515.0548828125 2223.075 556.9 2242.743359375 598.734765625 2207.9 617.7 2143.36171875 656.8302734375 2139.35 605.7 M 2152.875 568.65 Q 2179.45234375 470.0802734375 2226.8 466.65 2339.641796875 483.7435546875 2315.25 466.65 2287.8798828125 445.03515625 2315.25 437.15 2342.7162109375 440.555859375 2359 466.75 2384.0921875 507.1205078125 2294.75 515.35 2210.6068359375 520.216015625 2230.35 557.45 2250.0830078125 594.67421875 2222.95 617.9 2153.5611328125 664.8359375 2128.475 622.975 M 2112.5 711.2 L 2019.75 735.95 Q 2006.3896484375 737.590234375 2019.75 722.55 L 2061.75 685.7 M 2214.825 902.05 Q 2289.5626953125 871.9451171875 2284.8 852.8 2281.45 827.15 2248.2 803.15 2239.55 796.9 2228.9 790.8 2211.5 780.85 2188.8 771.2 2153 746.85 2228.6 712.4 2246.9455078125 695.6541015625 2196.475 688.8 L 2187.575 691.175 Q 2227.454296875 695.6673828125 2209.1 712.4 2133.4896484375 746.830078125 2169.3 771.2 2192.0138671875 780.8498046875 2209.375 790.8 2220.04921875 796.918359375 2228.7 803.15 2261.957421875 827.1302734375 2265.3 852.8 2270.3583984375 873.1216796875 2232.575 893.45 2224.6341796875 897.716015625 2214.825 902.05 2211.534765625 903.43125 2208.05 904.825 L 2206.8 905.325 Q 2206.1837890625 905.576171875 2205.55 905.825 2204.098828125 906.4150390625 2202.6 907 2145.2990234375 921.2271484375 2171.9 886.1 2190.7251953125 869.783203125 2196.85 859.35 2206.6015625 842.7728515625 2184.3 841.05 2113.1392578125 853.8337890625 2124.25 830.6 2137.3064453125 810.98125 2140.05 790.8 2145.3072265625 752.0365234375 2112.5 711.2 L 2118.625 709.575 2122.4 708.575 Q 2126.100390625 697.379296875 2100.7 672.2 2086.739453125 656.70859375 2146.25 649.4 2160.9732421875 648.5759765625 2146.25 660.8 2129.069921875 678.0109375 2183.5 692.25 L 2187.575 691.175 M 2205.3 686.45 L 2196.475 688.8 M 2126.65 707.45 Q 2128.5423828125 694.1720703125 2111.15 677.35 2093.7646484375 660.5359375 2138.7 652.8 2157.1611328125 651.7109375 2138.7 660.65 2119.9 681.4 2176.5 694.125 L 2183.5 692.25 M 2126.65 707.45 L 2122.4 708.575 M 2118.625 709.575 Q 2152.4607421875 752.19140625 2149.55 790.8 2147.8841796875 813.1462890625 2133.9 834.15 2137.8 844 2208.95 831.2 2246.2 834.6 2197.45 876.85 2171.75 903.8 2232.575 893.45 M 2176.5 694.125 L 2126.65 707.45 M 2465.95 526.3 Q 2451.410546875 610.084765625 2385.8 610.2 2298.5826171875 626.62890625 2385.8 720.45 2453.6984375 794.8640625 2431.95 815.35 2386.2076171875 826.418359375 2370.4 847.4 2358.321484375 889.2171875 2431.95 875.6 2522.44609375 859.01484375 2524.25 812.8 2537.79296875 766.0896484375 2424.25 674.3 2389.7607421875 652.3921875 2493.45 642.25 2540.2458984375 649.62578125 2521.025 576.825 M 2452.65 512.25 Q 2450.1171875 581.96015625 2391.95 597.3 2267.8 615.8 2382.55 743.1 2448.8359375 796.071484375 2417.45 805.1 2376.5501953125 806.421484375 2366.15 824.65 2342.5541015625 895.1326171875 2406.075 888.55 2469.595703125 881.9673828125 2493.25 871.25 2601.3 797.85 2472.35 698 2403.321875 656.379296875 2474.8 657.95 2551.9318359375 655.8599609375 2535.425 587.95 2584.525 624.3146484375 2631.8 638.475 M 1857.1 716.85 Q 1902.35 737.2 1897.6 794.75 1893.05 850.4 1877.45 860.75 1849.05 879.9 1926.7 868.65 1981.5390625 862.8423828125 1971.35 831.2 1965 814.1 1911.9 764.9 1897.85 734.8 1922.95 726.95 1960.720703125 723.55 1907.35 709 M 1824.85 910.45 Q 1787.95 908.4 1805.9 961.15 1814.4 975.35 1868.2 947.35 1900.8 931.45 1858.75 920.2 1836.75 912.15 1824.85 910.45 Z M 1822.15 904.2 Q 1776.9748046875 901.633984375 1798.9 966.3 1809.327734375 983.6771484375 1875.25 949.4 1915.1810546875 929.92109375 1863.65 916.1 1836.71484375 906.2279296875 1822.15 904.2 Z M 1842.575 719.15 Q 1902.7400390625 745.46328125 1892.8 803.5 1884.5076171875 847.16953125 1857 865.35 1806.9400390625 899.1 1910.7 887.35 1997.5412109375 872.828515625 1984.8 832.8 1973.5974609375 802.6232421875 1921.3 766.05 1902.28671875 744.064453125 1946.55 730.2 1974.3125 724.26484375 1926.35 706.05 M 1644.45 751.7 Q 1580.326171875 851.9302734375 1676.7 912.55 1707.731640625 935.0748046875 1718.1 909.05 1720.748828125 885.8521484375 1687.6 876.55 1632.35 860.85 1681 828.2 1746.182421875 786.778125 1752.4 733.675 M 1571.15 939.6 Q 1597.3 885.75 1629.95 939.6 1633 947.95 1626.1 955 1603.95 977.5 1585.55 965.25 1567.1 953 1571.15 939.6 Z M 1559.45 938.95 Q 1595.934765625 863.8572265625 1641.5 938.95 1645.7451171875 950.6267578125 1636.15 960.5 1605.273046875 991.9169921875 1579.525 974.8 1553.777734375 957.684765625 1559.45 938.95 Z M 1634.65 753.375 Q 1565.1697265625 855.8236328125 1684.1 928.4 1718.7625 943.4423828125 1724.75 909.35 1722.3828125 878.43984375 1686.6 872.55 1638.5115234375 860.287109375 1712.75 810.4 1743.20703125 792.1732421875 1758.975 732.6 M 1752.35 1008.9 Q 1727.8517578125 1011.2826171875 1740.05 1022.75 1756.8201171875 1038.5947265625 1770.525 1054.175 M 1921.025 1004.4 Q 1910.981640625 1002.3365234375 1900.9 1000.85 1827.830859375 990.051953125 1752.35 1008.9 M 1058.875 986.1 Q 1047.1744140625 994.2640625 1025.15 996.5 953.6431640625 998.6087890625 959.55 991.35 M 882.05 982.1 Q 882.337890625 982.8173828125 863.85 983.8 835.5904296875 985.453515625 823.45 964.75 M 1901.8 1155.15 Q 1972.51484375 1138.358203125 1911.15 1183.9 1898.683984375 1178.340625 1920.05 1165.75 1949.4435546875 1155.27421875 1920.05 1155.15 1901.05859375 1161.5951171875 1901.8 1155.15 Z M 1386.9 744.7 Q 1410.979296875 793.590234375 1405.375 827.925 1399.770703125 862.259765625 1379.4 886.65 1341.87578125 938.726953125 1396.925 967.975 1451.9666015625 997.22421875 1466.3 955.7 1482.2271484375 922.1115234375 1444.85 888.55 1389.2037109375 824.3076171875 1472.1 777.3 M 1278.3 922.65 Q 1326.6 894.45 1338.75 927.2 1340.5 956.45 1310.75 968.8 1297.071875 970.1814453125 1301.9 956.65 1301.4712890625 946.4990234375 1293.8 947.3 1272.35 945.6 1278.3 922.65 Z M 1287.45 926.65 Q 1320.511328125 907.36171875 1328.8 929.75 1329.9884765625 949.7443359375 1309.65 958.2 1310.49921875 933.11640625 1296.25 939.6 1283.369140625 942.3734375 1287.45 926.65 Z M 1376.65 734 Q 1410.65 790.19921875 1399.9 831.875 1389.15 873.5521484375 1365.95 892 1322.55546875 934.7609375 1408.05 981.25 1468.4 997.35 1477.65 943.55 1481.7 920.1 1443.1 873.75 1407.654296875 819.906640625 1481.625 777 M 2058.8 982.4 Q 2031.3205078125 963.3705078125 2042 936.15 2073.381640625 903.709765625 2120.05 893.05 2146.905859375 893.4212890625 2159.85 924.25 2167.1177734375 965.4728515625 2138.15 979.7 2124.277734375 983.813671875 2126.6 980.55 M 2058.8 982.4 Q 2028.2185546875 938.3611328125 2078.85 918.5 2121.5357421875 894.6259765625 2143.45 918.5 2165.842578125 961.88515625 2126.6 980.55 M 2007.675 1032.125 Q 2001.7671875 1030.594921875 1993.7 1026.9 1957.6640625 1011.8783203125 1921.025 1004.4 M 2017.3 1033.05 Q 2013.557421875 1033.66015625 2007.675 1032.125 M 1979.45 1085.3 Q 2013.046484375 1046.3072265625 1970.1 1056.55 1998.8046875 1056.3322265625 1979.45 1085.3 Z M 1944.15 1095.4 Q 2002.811328125 1071.151171875 1954.35 1139.6 1947.73359375 1147.86328125 1965.6 1112.05 1978.3720703125 1086.405078125 1944.15 1110.3 1924.5484375 1117.30390625 1944.15 1095.4 Z M 1188.3 594.75 Q 1134.4748046875 674.776953125 1172.85 711.55 1231.94765625 723.14140625 1228.25 768.8 1220.0630859375 795.210546875 1235.3 810 1251.7720703125 833.6970703125 1234 862.15 1226.5458984375 869.0482421875 1222.9 870.625 L 1225.1 880.325 Q 1227.0326171875 879.0564453125 1229.5 879.5 1234.3458984375 882.5623046875 1228.25 887.85 1227.5861328125 888.2724609375 1226.975 888.65 L 1233 915.425 Q 1233.23828125 916.2158203125 1233.4 917.2 1233.6244140625 926.6712890625 1224.4 934.6 1181.696875 981.384375 1155.55 950.3 1120.876953125 887.73984375 1138.85 863.5 1148.259765625 858.5484375 1136.6 835.5 1121.7607421875 810.16875 1136.6 796.6 1176.20625 763.5158203125 1121.4 728.9 M 1176.8 590.975 Q 1127.303515625 681.9533203125 1166.35 719.95 1224.8 730.3 1221.1 775.95 1212.9 802.35 1228.15 817.15 1244.6 840.85 1221 862.15 L 1222.9 870.625 Q 1217.132421875 873.113671875 1221 862.15 M 1121.5 722.3 Q 1150.1453125 737.525 1162.25 752.75 1167.073828125 773.9263671875 1149.35 798.7 1131.6201171875 823.4763671875 1149.5 841.55 1159.0478515625 852.713671875 1142.5 869.55 1125.034765625 892.15234375 1162.7 938.55 1184.26171875 967.7826171875 1211.6 933.65 1229.675390625 904.3865234375 1233 915.425 M 112.95 605.675 L 112.95 613.2 Q 103.463671875 656.40625 142.7 710.55 171.2501953125 739.775 216 666.925 M 202.65 661.1 Q 173.4056640625 714.958984375 148 691.2 114.627734375 660.225390625 122.325 611.95 M 285.65 693.675 Q 264.7076171875 703.7935546875 285.65 758.55 296.8486328125 775.7501953125 320.35 759.1 346.781640625 740.36015625 361.25 718.5 M 342.475 712.625 Q 331.6416015625 748.5427734375 300 746.55 276.682421875 745.433984375 297.675 697.85 M 259.075 684.05 Q 271.8673828125 726.24765625 246 712.55 224.9544921875 704.08515625 240.95 677.1 M 267.925 687.325 Q 278.8595703125 743.9970703125 246 731.85 208.7146484375 713.8046875 223.225 669.95 M 574.1 781.05 Q 512.275 852.9109375 555.2 865.85 623.3138671875 873.540625 638.1 804.55 M 403.775 731.2 Q 365.956640625 789.11640625 403.75 803.2 425.06796875 809.13359375 419.95 817.85 413.6505859375 854.809375 517.825 763.15 M 1225.1 880.325 L 1226.975 888.65 Q 1216.8458984375 894.82578125 1220.5 887.85 1222.214453125 882.2017578125 1225.1 880.325 Z M 1058.875 986.1 Q 1077.6630859375 972.9580078125 1069.8 944.5 1057.3443359375 912.6796875 1024.45 888.5 1004.8748046875 874.21015625 1046.775 824.65 M 978.2 863.25 Q 959.8240234375 896.0140625 982.65 912.45 999.5 932.95 978.1 950.8 938.478125 1001.9265625 1040.95 985.5 1077.1126953125 975.8166015625 1051.2 928.85 1044.3283203125 914.858984375 1022.2 894.2 1000.0734375 873.5400390625 1035 830.05 M 1058.875 986.1 L 1040.95 985.5 M 1084.55 1081.725 Q 1068.8052734375 1085.7001953125 1075.65 1096.5 1082.45625 1107.2998046875 1073.475 1112.1 1064.48125 1116.9005859375 1054.3 1109.1 1044.13125 1101.2994140625 1051.975 1090.625 1059.80625 1079.9501953125 1066 1073.8 1072.1947265625 1067.649609375 1085.725 1065.475 1099.2658203125 1063.3005859375 1099.775 1070.525 1100.2841796875 1077.74921875 1084.55 1081.725 Z M 1093.9 1080.6 Q 1072.3349609375 1086.1564453125 1083.2 1103.35 1094.0658203125 1120.544140625 1081.6 1120.95 1069.141796875 1121.3498046875 1052.075 1112.5 1035.0140625 1103.6537109375 1046.5 1090.35 1057.983984375 1077.0564453125 1067.875 1067.25 1077.760546875 1057.43984375 1087 1056.65 1096.2470703125 1055.8537109375 1105.85 1065.45 1115.4548828125 1075.0478515625 1093.9 1080.6 Z M 1071.875 1007.825 Q 1009.1982421875 1004.39921875 956.7 1012.65 933.8009765625 1016.2908203125 939.35 1021.65 M 1071.875 1007.825 Q 1097.7220703125 1009.2474609375 1125.3 1012.65 M 891.7 876.675 Q 920.60625 964.0373046875 865.15 965.15 809.3587890625 966.464453125 830.9 892.425 M 882.05 982.1 Q 922.362890625 950.3232421875 904.45 873.975 M 816.35 890.925 Q 809.899609375 941.7087890625 823.45 964.75 M 968.55 864.2 Q 956.1181640625 888.8548828125 968.55 908.5 981.8333984375 924.6734375 975.8 938.5 959.5728515625 961.707421875 959.55 991.35 M 710.8 836.075 Q 658.7724609375 871.01015625 683.85 911.15 689.894140625 920.08984375 698.5 919.15 762.9611328125 909.119140625 787.125 875.925 M 797.925 882.225 Q 751.0953125 919.451953125 696.5 931.8 672.5935546875 936.9228515625 666.55 916.5 654.415234375 854.41640625 700.475 831.25 M 420.7 736.075 Q 369.955859375 784.5201171875 420.7 802.5 436.7421875 833.2236328125 502.275 758.625 M 656.35 811.95 Q 616.5673828125 886.67578125 553.9 877.85 492.500390625 856.5259765625 555 774.7" />
    <path
       id="Layer0_0_1_STROKES"
       stroke="#000000"
       stroke-width="1"
       stroke-linejoin="round"
       stroke-linecap="round"
       fill="none"
       d=" M 2942.525 1016.725 Q 2937.855859375 1034.8025390625 2950.075 1041.775 2962.28359375 1048.7546875 2948.75 1047.8 2935.21640625 1046.8453125 2928.975 1040.825 2922.74453125 1034.8015625 2922.75 1026.8 2922.75 1018.8 2924.95 1013.15 2927.148046875 1007.49609375 2930.675 1006.675 2934.2056640625 1005.8611328125 2940.7 1002.25 2947.1927734375 998.6390625 2942.525 1016.725 Z M 2945.4 966.25 Q 3129.9912109375 968.02578125 3076.75 1038.75 3041.216796875 1051.3203125 2961.45 1208.9 2946.5923828125 1237.3328125 2933.2 1247.65 2900.5490234375 1303.859765625 2873.5 1333.95 2828.6046875 1427.778125 2735.6 1450.9 2685.677734375 1463.435546875 2695.3 1421.05 2720.6931640625 1299.721484375 2686.4 1235.55 2647.2015625 1169.51484375 2651.75 1141.2 2645.9447265625 1091.176171875 2631.75 1083.45 2639.0736328125 1059.8041015625 2690.95 1044.35 2796.23203125 1019.539453125 2828.25 997.75 2875.720703125 964.4515625 2945.4 966.25 Z M 2846.45 1019.65 Q 2846.4505859375 1022.6046875 2839.975 1027.525 2833.49765625 1032.4359375 2825 1036 2816.5021484375 1039.5640625 2824.325 1031.075 2832.14921875 1022.5953125 2832.15 1019.65 2832.15 1016.7 2834.25 1014.6 2836.35 1012.5 2839.3 1012.5 2842.25 1012.5 2844.35 1014.6 2846.45 1016.7 2846.45 1019.65 Z M 2790.475 1160.425 Q 2788.1357421875 1167.1333984375 2771.675 1186.55 2755.2140625 1205.96640625 2761.525 1185.175 2767.8451171875 1164.3943359375 2762.65 1162.2 2757.5 1160 2757.5 1156.85 2757.5 1153.7 2762.65 1151.5 2767.85 1149.3 2775.15 1149.3 2782.45 1149.3 2787.6 1151.5 2792.8046875 1153.70546875 2790.475 1160.425 Z M 2903.275 1132.95 Q 2892.0912109375 1132.4400390625 2885.175 1139.55 2878.2541015625 1146.6640625 2874.475 1137.25 2870.6990234375 1127.84453125 2869.05 1126.2 2867.4 1124.55 2867.4 1122.2 2867.4 1119.85 2869.05 1118.2 2870.7 1116.55 2873.05 1116.55 2875.396484375 1116.553515625 2894.925 1125 2914.4603515625 1133.4455078125 2903.275 1132.95 Z" />
  </defs>
  <g
     transform="matrix( 1, 0, 0, 1, 0,0) "
     id="g264">
    <use
       xlink:href="#Layer2_0_FILL"
       id="use260" />
    <use
       xlink:href="#Layer2_0_1_STROKES"
       id="use262" />
  </g>
  <g
     transform="matrix( 1, 0, 0, 1, 0,0) "
     id="g274">
    <use
       xlink:href="#Layer0_0_FILL"
       id="use270" />
    <use
       xlink:href="#Layer0_0_1_STROKES"
       id="use272" />
  </g>
</svg>
