
<svg xmlns="http://www.w3.org/2000/svg" version="1.1" xmlns:xlink="http://www.w3.org/1999/xlink" preserveAspectRatio="none" x="0px" y="0px" width="3840px" height="1920px" viewBox="0 0 3840 1920">
<defs>
<g id="Layer3_0_FILL">
<path fill="#5B472B" stroke="none" d="
M 1394.6 1381.1
Q 1420.805078125 1376.21171875 1432.5 1397.1 1496.2603515625 1360.4701171875 1508.3 1408.9 1606.713671875 1337.2369140625 1605.15 1395.4 1626.8126953125 1391.8349609375 1677.85 1311.2
L 1262.85 1071.95
Q 1173.88203125 1160.83046875 1112.45 1136.85 1064.903515625 1159.4818359375 1051 1188.25 1111.480859375 1235.896875 1083.8 1302.85 1125.764453125 1353.9685546875 1140.25 1405.5 1185.994921875 1427.16796875 1237.95 1418.15 1316.275 1453.173828125 1394.6 1381.1 Z"/>

<path fill="#4B3519" stroke="none" d="
M 2627.2 1569.25
L 2722.45 1403
Q 2530.125 1455.4126953125 2337.8 1452.85
L 2305.6 1553.15
Q 2315.7365234375 1603.8 2305.6 1654.45 2298.3802734375 1778.4515625 2273.45 1815.25 2254.9142578125 1840.1986328125 2280.05 1834.5 2478.45 1793.7 2627.2 1569.25 Z"/>
</g>

<g id="Layer2_0_FILL">
<path fill="#4D3D29" stroke="none" d="
M 3677.3 725.35
L 3672.35 725.35
Q 3624.3484375 769.480859375 3613.8 793.6 3490.1076171875 884.4978515625 3394 1003.35 3378.4958984375 1022.519921875 3363.95 1042.55 3254.8896484375 1156.873828125 3392.35 1159.8 3408.652734375 1164.4345703125 3440.05 1078.15 3484.4671875 946.2677734375 3560.65 871.85 3497.19921875 1028.55234375 3512 1163.85 3507.6453125 1216.01875 3440.05 1078.15 3408.652734375 1164.4345703125 3392.35 1159.8 3254.8896484375 1156.873828125 3363.95 1042.55 3378.4958984375 1022.519921875 3394 1003.35 3266.741796875 776.7787109375 3227.65 811.85 3190.9396484375 817.3548828125 3128.25 881.1 3093.165625 893.824609375 3104.2 852.65 3116.2046875 731.224609375 3073.05 735.85 3037.5271484375 817.5828125 2987.05 812.15 2906.4642578125 803.891015625 2912.15 735.85 2892.025 760.8150390625 2871.9 750.1 2863.0876953125 718.3998046875 2839.45 716.35
L 2808.3 716.35
Q 2794.7326171875 721.25390625 2831.65 751.4 2791.7033203125 821.5365234375 2748.25 839.1 2757.958203125 935.257421875 2704.65 933.4 2736.1009765625 963.890625 2769.75 1009.2
L 2869.05 1142.75 2891.3 1172.65
Q 2935.375 1230.1275390625 3003.8 1252.2 3060.3076171875 1271.741015625 3129.9 1252.2
L 3270.5 1193.7
Q 3421.6783203125 1241.8927734375 3566.95 1255.2 3510.8626953125 1191.6478515625 3630 1157.45 3630.6849609375 1098.9875 3637.5 1064.6 3645.38984375 1024.51484375 3649.9 1007 3653.6845703125 992.18828125 3740.4 790 3752.7947265625 721.9970703125 3677.3 725.35
M 3678.6 760.75
Q 3570.7296875 974.291015625 3596.45 1108.25 3570.7296875 974.291015625 3678.6 760.75
M 2625.9 648.85
Q 2611.121484375 789.56875 2668.2 786.55 2685.9994140625 781.3076171875 2712.25 776.05 2785.7751953125 727.434375 2779.75 695.6 2792.8513671875 657.4044921875 2887.45 695.6 2868.573046875 656.9103515625 2871.1 635.35 2810.2125 573.2787109375 2810.4 614.35 2806.6689453125 660.5337890625 2784.05 640.7 2742.865234375 575.22578125 2670.5 588 2626.954296875 592.4076171875 2625.9 648.85
M 2533.2 703.75
Q 2563.4279296875 752.40390625 2569.1 782.9 2561.4015625 695.5681640625 2597.5 646.8 2628.656640625 579.2978515625 2534.65 561.75 2505.8486328125 656.18828125 2533.2 703.75
M 2621.85 1009.75
Q 2651.0490234375 993.818359375 2673.9 1056.3 2668.9021484375 946.803125 2570.4 795.45 2570.94375 849.8091796875 2468.5 828.15 2369.179296875 811.9767578125 2395.65 767.85 2497.62890625 657.4060546875 2454.6 618.8 2299.528515625 538.467578125 2303.55 645.95 2340.8341796875 768.1333984375 2335.35 804.95 2305.4169921875 931.7509765625 2204.2 844.7 2055.68203125 838.6494140625 2086.25 791.05 2167.476171875 710.171484375 2153.15 682.6 2109.686328125 639.012890625 2009.85 682.6 1979.2318359375 697.1375 1988.35 722.25 2043.9970703125 766.9158203125 2032.15 782.6 1955.961328125 895.38046875 1928.85 853.65 1897.4857421875 794.3228515625 1883.4 826.4 1858.1998046875 866.7642578125 1833 866.9 1753.6423828125 867.6806640625 1728.05 792.5 1708.0603515625 725.060546875 1758.6 645.4 1800.022265625 618.0935546875 1895.8 620.6 1927.3451171875 593.7501953125 1882.55 566.9 1822.234765625 548.558203125 1714.8 566.9 1635.8294921875 569.39609375 1678.45 600.8 1755.4296875 633.083203125 1705.7 680.1 1630.358984375 735.8513671875 1582.6 800.75 1527.4248046875 847.106640625 1515.65 827.2 1503.5974609375 803.8322265625 1485.05 799.95
L 1453.65 799.95
Q 1368.72890625 786.66328125 1411.5 747.9 1468.9828125 728.700390625 1466.9 672.7 1479.8173828125 631.9337890625 1518.1 619.8 1504.7537109375 569.2923828125 1404.05 591.7 1361.8083984375 622.7173828125 1382.6 678.45 1357.3486328125 776.4099609375 1285.9 804.9 1243.0455078125 804.7830078125 1219.8 765.25 1205.1755859375 746.512109375 1219.8 713.15 1230.7447265625 646.206640625 1162.55 638 1129.43984375 651.7046875 1081.35 660.4 1073.458984375 661.8271484375 1065.15 663.1 1091.2697265625 678.1052734375 1103.05 715.85 1106.88125 762.825 1068.8 790.5 1021.9736328125 811.9958984375 988.1 762.25 992.82265625 724.26171875 945.8 705.8 917.4833984375 692.733984375 834.85 727.95 747.8982421875 723.4802734375 781.9 632.05 759.0029296875 628.046875 736.45 624.75 542.4662109375 692.80390625 639.15 948.55 742.7369140625 1141.0388671875 836.75 1076.35 1030.9689453125 955.108203125 1271.75 1076.35 2149.2837890625 1708.333203125 3064.3 1279.5
L 3129.9 1252.2
Q 3060.3076171875 1271.741015625 3003.8 1252.2 2935.375 1230.1275390625 2891.3 1172.65
L 2869.05 1142.75
Q 2749.8357421875 1056.0439453125 2707.75 1213.55
L 2564.3 1350.35
Q 2419.928515625 1417.238671875 2435.3 1376.8 2586.52578125 1159.1521484375 2544.8 1159.8 2451.744921875 1165.38203125 2479.45 1140.2 2538.92890625 1128.1294921875 2565.05 1094.9 2572.47109375 1032.6720703125 2621.85 1009.75 Z"/>

<path fill="#272018" stroke="none" d="
M 3525.95 755.3
Q 3507.69140625 682.2021484375 3457.2 682.6
L 3299.4 698.9
Q 3222.356640625 676.896875 3206.7 624.2 3177.803125 605.6501953125 3101.6 661.85 3027.66328125 684.4798828125 2995.2 607.35 2957.075 598.225 2943.25 657.95
L 2912.15 735.85
Q 2906.4642578125 803.891015625 2987.05 812.15 3037.5271484375 817.5828125 3073.05 735.85 3116.2046875 731.224609375 3104.2 852.65 3093.165625 893.824609375 3128.25 881.1 3190.9396484375 817.3548828125 3227.65 811.85 3266.741796875 776.7787109375 3394 1003.35 3490.1076171875 884.4978515625 3613.8 793.6 3537.7791015625 766.92265625 3525.95 755.3
M 2668.2 786.55
Q 2611.121484375 789.56875 2625.9 648.85 2626.954296875 592.4076171875 2670.5 588 2742.865234375 575.22578125 2784.05 640.7 2806.6689453125 660.5337890625 2810.4 614.35 2810.2125 573.2787109375 2871.1 635.35 2873.6185546875 614.2216796875 2896.7 609.55 2801.0126953125 347.5408203125 2546.45 527.35 2539.70078125 545.2759765625 2534.65 561.75 2628.656640625 579.2978515625 2597.5 646.8 2561.4015625 695.5681640625 2569.1 782.9 2570.3396484375 789.6236328125 2570.4 795.45 2668.9021484375 946.803125 2673.9 1056.3
L 2707.75 1213.55
Q 2749.8357421875 1056.0439453125 2869.05 1142.75
L 2769.75 1009.2
Q 2736.1009765625 963.890625 2704.65 933.4 2677.7728515625 907.3556640625 2652.5 892.15 2677.7728515625 907.3556640625 2704.65 933.4 2757.958203125 935.257421875 2748.25 839.1 2723.68359375 849.0845703125 2698 842.25
L 2631.8 812.4
Q 2624.4828125 799.4826171875 2668.2 786.55
M 2569.1 782.9
Q 2569.6384765625 789.0900390625 2570.4 795.45 2570.3396484375 789.6236328125 2569.1 782.9
M 3440.05 1078.15
Q 3507.6453125 1216.01875 3512 1163.85 3497.19921875 1028.55234375 3560.65 871.85 3484.4671875 946.2677734375 3440.05 1078.15
M 3708.95 1120.45
Q 3698.7146484375 1159.1013671875 3630 1157.45 3510.8626953125 1191.6478515625 3566.95 1255.2 3934.622265625 1187.9943359375 3649.9 1007 3645.38984375 1024.51484375 3637.5 1064.6 3716.2416015625 1093.026171875 3708.95 1120.45 Z"/>

<path fill="#120A04" stroke="none" d="
M 3457.2 682.6
Q 3507.69140625 682.2021484375 3525.95 755.3 3537.7791015625 766.92265625 3613.8 793.6 3624.3484375 769.480859375 3672.35 725.35
L 3653.65 725.35
Q 3545.62890625 689.8755859375 3508.6 654.4 3480.7857421875 623.666015625 3298.85 569.25 3182.3771484375 537.785546875 3071.8 471.5 3003.1498046875 435.590625 2614.5 376.85 2179.3236328125 502.228515625 1895.4 446.25 1440.09609375 519.35859375 1184.25 627.6 1174.3517578125 633.1193359375 1162.55 638 1230.7447265625 646.206640625 1219.8 713.15 1205.1755859375 746.512109375 1219.8 765.25 1243.0455078125 804.7830078125 1285.9 804.9 1357.3486328125 776.4099609375 1382.6 678.45 1361.8083984375 622.7173828125 1404.05 591.7 1504.7537109375 569.2923828125 1518.1 619.8 1479.8173828125 631.9337890625 1466.9 672.7 1468.9828125 728.700390625 1411.5 747.9 1368.72890625 786.66328125 1453.65 799.95
L 1485.05 799.95
Q 1503.5974609375 803.8322265625 1515.65 827.2 1527.4248046875 847.106640625 1582.6 800.75 1630.358984375 735.8513671875 1705.7 680.1 1755.4296875 633.083203125 1678.45 600.8 1635.8294921875 569.39609375 1714.8 566.9 1822.234765625 548.558203125 1882.55 566.9 1927.3451171875 593.7501953125 1895.8 620.6 1800.022265625 618.0935546875 1758.6 645.4 1708.0603515625 725.060546875 1728.05 792.5 1753.6423828125 867.6806640625 1833 866.9 1858.1998046875 866.7642578125 1883.4 826.4 1897.4857421875 794.3228515625 1928.85 853.65 1955.961328125 895.38046875 2032.15 782.6 2043.9970703125 766.9158203125 1988.35 722.25 1979.2318359375 697.1375 2009.85 682.6 2109.686328125 639.012890625 2153.15 682.6 2167.476171875 710.171484375 2086.25 791.05 2055.68203125 838.6494140625 2204.2 844.7 2305.4169921875 931.7509765625 2335.35 804.95 2340.8341796875 768.1333984375 2303.55 645.95 2299.528515625 538.467578125 2454.6 618.8 2497.62890625 657.4060546875 2395.65 767.85 2369.179296875 811.9767578125 2468.5 828.15 2570.94375 849.8091796875 2570.4 795.45 2569.6384765625 789.0900390625 2569.1 782.9 2563.4279296875 752.40390625 2533.2 703.75 2505.8486328125 656.18828125 2534.65 561.75 2539.70078125 545.2759765625 2546.45 527.35 2801.0126953125 347.5408203125 2896.7 609.55 2873.6185546875 614.2216796875 2871.1 635.35 2868.573046875 656.9103515625 2887.45 695.6 2792.8513671875 657.4044921875 2779.75 695.6 2785.7751953125 727.434375 2712.25 776.05 2685.9994140625 781.3076171875 2668.2 786.55 2624.4828125 799.4826171875 2631.8 812.4
L 2698 842.25
Q 2723.68359375 849.0845703125 2748.25 839.1 2791.7033203125 821.5365234375 2831.65 751.4 2794.7326171875 721.25390625 2808.3 716.35
L 2839.45 716.35
Q 2863.0876953125 718.3998046875 2871.9 750.1 2892.025 760.8150390625 2912.15 735.85
L 2943.25 657.95
Q 2957.075 598.225 2995.2 607.35 3027.66328125 684.4798828125 3101.6 661.85 3177.803125 605.6501953125 3206.7 624.2 3222.356640625 676.896875 3299.4 698.9
L 3457.2 682.6
M 2673.9 1056.3
Q 2651.0490234375 993.818359375 2621.85 1009.75 2572.47109375 1032.6720703125 2565.05 1094.9 2538.92890625 1128.1294921875 2479.45 1140.2 2451.744921875 1165.38203125 2544.8 1159.8 2586.52578125 1159.1521484375 2435.3 1376.8 2419.928515625 1417.238671875 2564.3 1350.35
L 2707.75 1213.55 2673.9 1056.3
M 834.85 727.95
Q 917.4833984375 692.733984375 945.8 705.8 992.82265625 724.26171875 988.1 762.25 1021.9736328125 811.9958984375 1068.8 790.5 1106.88125 762.825 1103.05 715.85 1091.2697265625 678.1052734375 1065.15 663.1 1020.3619140625 670.1005859375 963.8 673.15 870.0328125 647.454296875 781.9 632.05 747.8982421875 723.4802734375 834.85 727.95 Z"/>

<path fill="#4B3519" stroke="none" d="
M 203.5 940.2
Q 230.7169921875 1055.742578125 230.2 1143.65 229.4833984375 1268.8728515625 377.6 1401.3 532.27734375 1419.527734375 836.75 1076.35 742.7369140625 1141.0388671875 639.15 948.55 542.4662109375 692.80390625 736.45 624.75 325.249609375 564.3126953125 41.05 735.6 157.208203125 820.4333984375 203.5 940.2 Z"/>

<path fill="#BA7929" stroke="none" d="
M 3637.5 1064.6
Q 3630.6849609375 1098.9875 3630 1157.45 3698.7146484375 1159.1013671875 3708.95 1120.45 3716.2416015625 1093.026171875 3637.5 1064.6 Z"/>
</g>

<g id="Layer1_0_FILL">
<path fill="#4B3519" stroke="none" d="
M 3295.55 702.6
Q 3275.9 723.45 3275.9 752.8 3275.9 782.1 3295.55 802.85 3315.35 823.7 3343.1 823.7 3370.9 823.7 3390.55 802.85 3410.35 782.1 3410.35 752.8 3410.35 723.45 3390.55 702.6 3370.9 681.85 3343.1 681.85 3315.35 681.85 3295.55 702.6
M 3294.4 758.85
Q 3294.4 737.7 3309.4 722.6 3324.45 707.65 3345.65 707.65 3366.8 707.65 3381.75 722.6 3396.85 737.7 3396.85 758.85 3396.85 780.05 3381.75 795 3366.8 810.1 3345.65 810.1 3324.45 810.1 3309.4 795 3294.4 780.05 3294.4 758.85 Z"/>

<path fill="#120A04" stroke="none" d="
M 3340.3 748.4
Q 3333.65 755.1 3333.65 764.5 3333.65 773.9 3340.3 780.55 3347 787.25 3356.4 787.25 3365.8 787.25 3372.45 780.55 3379.15 773.9 3379.15 764.5 3379.15 755.1 3372.45 748.4 3365.8 741.75 3356.4 741.75 3347 741.75 3340.3 748.4 Z"/>
</g>

<g id="Layer0_0_FILL">
<path fill="#4B3519" stroke="none" d="
M 1746.85 320.9
Q 1696.905078125 252.433203125 1651.85 232.3 1618.5056640625 209.4423828125 1601.8 232.3 1532.71015625 206.6220703125 1454.2 255.4 1274.500390625 295.3396484375 1094.8 404.3 1002.9427734375 413.3037109375 949.75 533.95 951.3404296875 567.11796875 993.4 580.15 1028.1068359375 614.29921875 1084.55 622.5 1155.1599609375 616.887109375 1173.3 633.25 1485.8498046875 508.2341796875 1895.4 446.25 1838.68515625 363.787890625 1746.85 320.9
M 2277.4 218.7
Q 2278.5611328125 226.900390625 2282 234.45 2289.531640625 270.311328125 2165.45 245 2340.28671875 286.878125 2431.4 368 2340.28671875 286.878125 2165.45 245 2147.0619140625 240.617578125 2127.75 236.65 2132.37890625 247.560546875 2141.85 256.05 2170.73125 289.1046875 2048.6 299.75 2199.8046875 291.440234375 2369.65 409.65 2199.8046875 291.440234375 2048.6 299.75 2040.3611328125 300.2166015625 2032.15 301.05 2030.2912109375 301.946875 2043.95 308.35 2085.441015625 355.2494140625 1980.75 380.35 2184.41171875 346.5166015625 2277.95 425.25 2184.41171875 346.5166015625 1980.75 380.35 1981.4736328125 384.925 1994.4 389.5 2012.665234375 399.435546875 1995.05 435 2127.550390625 402.109765625 2129.6 462.75 2274.4640625 464.620703125 2530.3 399.8 2477.719921875 311.83828125 2392.5 264 2341.658984375 235.4853515625 2277.4 218.7
M 2514.15 266.55
Q 2553.809375 307.0310546875 2521.25 287.25 2488.82734375 243.5978515625 2447.15 229.5 2447.905078125 276.9154296875 2392.5 264 2477.719921875 311.83828125 2530.3 399.8
L 2614.5 376.85
Q 2588.7806640625 362.78828125 2540.5 282.65 2520.9119140625 260.991015625 2514.15 266.55
M 2751.3 1058.45
Q 2694.99453125 954.4458984375 2613.3 1188.85 2518.1478515625 1549.74453125 2356.3 1734.6 2366.567578125 1737.941015625 2399.35 1723.2 2646.56015625 1497.677734375 2751.3 1058.45 Z"/>
</g>

<path id="Layer3_0_1_STROKES" stroke="#FF0000" stroke-width="1" stroke-linejoin="round" stroke-linecap="round" fill="none" d="
M 2337.8 1452.85
L 2305.6 1553.15
Q 2315.7365234375 1603.8 2305.6 1654.45 2298.3802734375 1778.4515625 2273.45 1815.25 2254.9142578125 1840.1986328125 2280.05 1834.5 2478.45 1793.7 2627.2 1569.25
L 2722.45 1403
Q 2530.125 1455.4126953125 2337.8 1452.85 Z"/>

<path id="Layer3_0_2_STROKES" stroke="#0000FF" stroke-width="1" stroke-linejoin="round" stroke-linecap="round" fill="none" d="
M 1262.85 1071.95
Q 1173.88203125 1160.83046875 1112.45 1136.85 1064.903515625 1159.4818359375 1051 1188.25 1111.480859375 1235.896875 1083.8 1302.85 1125.764453125 1353.9685546875 1140.25 1405.5 1185.994921875 1427.16796875 1237.95 1418.15 1316.275 1453.173828125 1394.6 1381.1 1420.805078125 1376.21171875 1432.5 1397.1 1496.2603515625 1360.4701171875 1508.3 1408.9 1606.713671875 1337.2369140625 1605.15 1395.4 1626.8126953125 1391.8349609375 1677.85 1311.2
L 1262.85 1071.95 Z"/>

<path id="Layer2_0_1_STROKES" stroke="#FFFF00" stroke-width="1" stroke-linejoin="round" stroke-linecap="round" fill="none" d="
M 3672.35 725.35
L 3653.65 725.35
Q 3545.62890625 689.8755859375 3508.6 654.4 3480.7857421875 623.666015625 3298.85 569.25 3182.3771484375 537.785546875 3071.8 471.5 3003.1498046875 435.590625 2614.5 376.85 2179.3236328125 502.228515625 1895.4 446.25 1440.09609375 519.35859375 1184.25 627.6 1174.3517578125 633.1193359375 1162.55 638
M 3613.8 793.6
Q 3490.1076171875 884.4978515625 3394 1003.35
M 3649.9 1007
Q 3653.6845703125 992.18828125 3740.4 790 3752.7947265625 721.9970703125 3677.3 725.35
L 3672.35 725.35
M 2704.675 933.425
Q 2736.1009765625 963.890625 2769.75 1009.2
L 2869.05 1142.75 2891.3 1172.65
Q 2935.375 1230.1275390625 3003.8 1252.2 3060.3076171875 1271.741015625 3129.9 1252.2
L 3270.5 1193.7
Q 3421.6783203125 1241.8927734375 3566.95 1255.2
M 3630 1157.45
Q 3630.6849609375 1098.9875 3637.5 1064.6 3645.38984375 1024.51484375 3649.9 1007 3934.622265625 1187.9943359375 3566.95 1255.2
M 2704.675 933.425
Q 2677.7728515625 907.3556640625 2652.5 892.15
M 836.75 1076.35
Q 1030.9689453125 955.108203125 1271.75 1076.35 2149.2837890625 1708.333203125 3064.3 1279.5
L 3129.9 1252.2
M 3630 1157.45
Q 3698.7146484375 1159.1013671875 3708.95 1120.45 3716.2416015625 1093.026171875 3637.5 1064.6
M 3394 1003.35
Q 3378.4958984375 1022.519921875 3363.95 1042.55
M 3678.6 760.75
Q 3570.7296875 974.291015625 3596.45 1108.25
M 736.475 624.75
Q 759.0029296875 628.046875 781.9 632.05 870.0328125 647.454296875 963.8 673.15 1020.3619140625 670.1005859375 1065.175 663.125 1073.458984375 661.8271484375 1081.35 660.4 1129.43984375 651.7046875 1162.55 638
M 736.475 624.75
Q 325.249609375 564.3126953125 41.05 735.6 157.208203125 820.4333984375 203.5 940.2 230.7169921875 1055.742578125 230.2 1143.65 229.4833984375 1268.8728515625 377.6 1401.3 532.27734375 1419.527734375 836.75 1076.35"/>

<path id="Layer2_0_2_STROKES" stroke="#0000FF" stroke-width="1" stroke-linejoin="round" stroke-linecap="round" fill="none" d="
M 2912.15 735.85
L 2943.25 657.95
Q 2957.075 598.225 2995.2 607.35 3027.66328125 684.4798828125 3101.6 661.85 3177.803125 605.6501953125 3206.7 624.2 3222.356640625 676.896875 3299.4 698.9
L 3457.2 682.6
Q 3507.69140625 682.2021484375 3525.95 755.3 3537.7791015625 766.92265625 3613.8 793.6 3624.3484375 769.480859375 3672.35 725.35
M 1162.55 638
Q 1230.7447265625 646.206640625 1219.8 713.15 1205.1755859375 746.512109375 1219.8 765.25 1243.0455078125 804.7830078125 1285.9 804.9 1357.3486328125 776.4099609375 1382.6 678.45 1361.8083984375 622.7173828125 1404.05 591.7 1504.7537109375 569.2923828125 1518.1 619.8 1479.8173828125 631.9337890625 1466.9 672.7 1468.9828125 728.700390625 1411.5 747.9 1368.72890625 786.66328125 1453.65 799.95
L 1485.05 799.95
Q 1503.5974609375 803.8322265625 1515.65 827.2 1527.4248046875 847.106640625 1582.6 800.75 1630.358984375 735.8513671875 1705.7 680.1 1755.4296875 633.083203125 1678.45 600.8 1635.8294921875 569.39609375 1714.8 566.9 1822.234765625 548.558203125 1882.55 566.9 1927.3451171875 593.7501953125 1895.8 620.6 1800.022265625 618.0935546875 1758.6 645.4 1708.0603515625 725.060546875 1728.05 792.5 1753.6423828125 867.6806640625 1833 866.9 1858.1998046875 866.7642578125 1883.4 826.4 1897.4857421875 794.3228515625 1928.85 853.65 1955.961328125 895.38046875 2032.15 782.6 2043.9970703125 766.9158203125 1988.35 722.25 1979.2318359375 697.1375 2009.85 682.6 2109.686328125 639.012890625 2153.15 682.6 2167.476171875 710.171484375 2086.25 791.05 2055.68203125 838.6494140625 2204.2 844.7 2305.4169921875 931.7509765625 2335.35 804.95 2340.8341796875 768.1333984375 2303.55 645.95 2299.528515625 538.467578125 2454.6 618.8 2497.62890625 657.4060546875 2395.65 767.85 2369.179296875 811.9767578125 2468.5 828.15 2570.94375 849.8091796875 2570.4 795.45 2569.6384765625 789.0900390625 2569.1 782.925 2563.4279296875 752.40390625 2533.2 703.75 2505.8486328125 656.18828125 2534.675 561.775 2539.70078125 545.2759765625 2546.45 527.35 2801.0126953125 347.5408203125 2896.7 609.55 2873.6185546875 614.2216796875 2871.125 635.35 2868.573046875 656.9103515625 2887.45 695.6 2792.8513671875 657.4044921875 2779.75 695.6 2785.7751953125 727.434375 2712.25 776.05 2685.9994140625 781.3076171875 2668.2 786.575 2624.4828125 799.4826171875 2631.8 812.4
L 2698 842.25
Q 2723.68359375 849.0845703125 2748.25 839.125 2791.7033203125 821.5365234375 2831.65 751.4 2794.7326171875 721.25390625 2808.3 716.35
L 2839.45 716.35
Q 2863.0876953125 718.3998046875 2871.9 750.1 2892.025 760.8150390625 2912.15 735.85 2906.4642578125 803.891015625 2987.05 812.15 3037.5271484375 817.5828125 3073.05 735.85 3116.2046875 731.224609375 3104.2 852.65 3093.165625 893.824609375 3128.25 881.1 3190.9396484375 817.3548828125 3227.65 811.85 3266.741796875 776.7787109375 3394 1003.35
M 2668.2 786.575
Q 2611.121484375 789.56875 2625.9 648.85 2626.954296875 592.4076171875 2670.5 588 2742.865234375 575.22578125 2784.05 640.7 2806.6689453125 660.5337890625 2810.4 614.35 2810.2125 573.2787109375 2871.125 635.35
M 2748.25 839.125
Q 2757.958203125 935.257421875 2704.675 933.425
M 3630 1157.45
Q 3510.8626953125 1191.6478515625 3566.95 1255.2
M 2707.75 1213.55
L 2564.3 1350.35
Q 2419.928515625 1417.238671875 2435.3 1376.8 2586.52578125 1159.1521484375 2544.8 1159.8 2451.744921875 1165.38203125 2479.45 1140.2 2538.92890625 1128.1294921875 2565.05 1094.9 2572.47109375 1032.6720703125 2621.85 1009.75 2651.0490234375 993.818359375 2673.9 1056.3 2668.9021484375 946.803125 2570.4 795.45 2570.3396484375 789.6236328125 2569.1 782.925 2561.4015625 695.5681640625 2597.5 646.8 2628.656640625 579.2978515625 2534.675 561.775
M 2869.05 1142.75
Q 2749.8357421875 1056.0439453125 2707.75 1213.55
L 2673.9 1056.3
M 3363.95 1042.55
Q 3254.8896484375 1156.873828125 3392.35 1159.8 3408.652734375 1164.4345703125 3440.075 1078.15 3484.4671875 946.2677734375 3560.65 871.85 3497.19921875 1028.55234375 3512 1163.85 3507.6453125 1216.01875 3440.075 1078.15
M 781.9 632.05
Q 747.8982421875 723.4802734375 834.85 727.95 917.4833984375 692.733984375 945.8 705.8 992.82265625 724.26171875 988.1 762.25 1021.9736328125 811.9958984375 1068.8 790.5 1106.88125 762.825 1103.05 715.85 1091.2697265625 678.1052734375 1065.175 663.125
M 836.75 1076.35
Q 742.7369140625 1141.0388671875 639.15 948.55 542.4662109375 692.80390625 736.475 624.75"/>

<path id="Layer1_0_1_STROKES" stroke="#FFFF00" stroke-width="1" stroke-linejoin="round" stroke-linecap="round" fill="none" d="
M 3410.35 752.8
Q 3410.35 782.1 3390.55 802.85 3370.9 823.7 3343.1 823.7 3315.35 823.7 3295.55 802.85 3275.9 782.1 3275.9 752.8 3275.9 723.45 3295.55 702.6 3315.35 681.85 3343.1 681.85 3370.9 681.85 3390.55 702.6 3410.35 723.45 3410.35 752.8 Z
M 3396.85 758.85
Q 3396.85 780.05 3381.75 795 3366.8 810.1 3345.65 810.1 3324.45 810.1 3309.4 795 3294.4 780.05 3294.4 758.85 3294.4 737.7 3309.4 722.6 3324.45 707.65 3345.65 707.65 3366.8 707.65 3381.75 722.6 3396.85 737.7 3396.85 758.85 Z
M 3379.15 764.5
Q 3379.15 773.9 3372.45 780.55 3365.8 787.25 3356.4 787.25 3347 787.25 3340.3 780.55 3333.65 773.9 3333.65 764.5 3333.65 755.1 3340.3 748.4 3347 741.75 3356.4 741.75 3365.8 741.75 3372.45 748.4 3379.15 755.1 3379.15 764.5 Z"/>

<path id="Layer0_0_1_STROKES" stroke="#00FF00" stroke-width="1" stroke-linejoin="round" stroke-linecap="round" fill="none" d="
M 2751.3 1058.45
Q 2646.56015625 1497.677734375 2399.35 1723.2 2366.567578125 1737.941015625 2356.3 1734.6 2518.1478515625 1549.74453125 2613.3 1188.85 2694.99453125 954.4458984375 2751.3 1058.45 Z
M 1995.05 435
Q 2012.665234375 399.435546875 1994.4 389.5 1981.4736328125 384.925 1980.75 380.35 2085.441015625 355.2494140625 2043.95 308.35 2030.2912109375 301.946875 2032.15 301.05 2040.3611328125 300.2166015625 2048.625 299.75 2170.73125 289.1046875 2141.85 256.05 2132.37890625 247.560546875 2127.75 236.65 2147.0619140625 240.617578125 2165.45 245.025 2289.531640625 270.311328125 2282 234.45 2278.5611328125 226.900390625 2277.4 218.7 2341.658984375 235.4853515625 2392.5 264 2447.905078125 276.9154296875 2447.15 229.5 2488.82734375 243.5978515625 2521.25 287.25 2553.809375 307.0310546875 2514.15 266.55 2520.9119140625 260.991015625 2540.5 282.65 2588.7806640625 362.78828125 2614.5 376.85
L 2530.3 399.8
Q 2274.4640625 464.620703125 2129.6 462.75
L 2119.3 463.05
Q 2095.223828125 445.39296875 2006.75 440.2 1999.2482421875 439.830078125 1995.05 435 2127.550390625 402.109765625 2129.6 462.75
M 2530.3 399.8
Q 2477.719921875 311.83828125 2392.5 264
M 1980.75 380.35
Q 2184.41171875 346.5166015625 2277.95 425.25
M 2165.45 245.025
Q 2340.28671875 286.878125 2431.4 368
M 2048.625 299.75
Q 2199.8046875 291.440234375 2369.65 409.65
M 1895.4 446.25
Q 1838.68515625 363.787890625 1746.85 320.9 1696.905078125 252.433203125 1651.85 232.3 1618.5056640625 209.4423828125 1601.8 232.3 1532.71015625 206.6220703125 1454.2 255.4 1274.500390625 295.3396484375 1094.8 404.3 1002.9427734375 413.3037109375 949.75 533.95 951.3404296875 567.11796875 993.4 580.15 1028.1068359375 614.29921875 1084.55 622.5 1155.1599609375 616.887109375 1173.3 633.25 1485.8498046875 508.2341796875 1895.4 446.25 Z"/>
</defs>

<g transform="matrix( 1, 0, 0, 1, 0,0) ">
<use xlink:href="#Layer3_0_FILL"/>

<use xlink:href="#Layer3_0_1_STROKES"/>

<use xlink:href="#Layer3_0_2_STROKES"/>
</g>

<g transform="matrix( 1, 0, 0, 1, 0,0) ">
<use xlink:href="#Layer2_0_FILL"/>

<use xlink:href="#Layer2_0_1_STROKES"/>

<use xlink:href="#Layer2_0_2_STROKES"/>
</g>

<g transform="matrix( 1, 0, 0, 1, 0,0) ">
<use xlink:href="#Layer1_0_FILL"/>

<use xlink:href="#Layer1_0_1_STROKES"/>
</g>

<g transform="matrix( 1, 0, 0, 1, 0,0) ">
<use xlink:href="#Layer0_0_FILL"/>

<use xlink:href="#Layer0_0_1_STROKES"/>
</g>
</svg>
