
<svg xmlns="http://www.w3.org/2000/svg" version="1.1" xmlns:xlink="http://www.w3.org/1999/xlink" preserveAspectRatio="none" x="0px" y="0px" width="3840px" height="1920px" viewBox="0 0 3840 1920">
<defs>
<linearGradient id="Gradient_1" gradientUnits="userSpaceOnUse" x1="1896.6125" y1="461.3625" x2="1972.7875000000001" y2="685.3375000000001" spreadMethod="pad">
<stop  offset="0%" stop-color="#C35E0C"/>

<stop  offset="100%" stop-color="#D48774"/>
</linearGradient>

<linearGradient id="Gradient_2" gradientUnits="userSpaceOnUse" x1="3134.2625000000003" y1="956.5749999999999" x2="2876.8375" y2="858.725" spreadMethod="pad">
<stop  offset="0%" stop-color="#C35E0C"/>

<stop  offset="100%" stop-color="#D48774"/>
</linearGradient>

<linearGradient id="Gradient_3" gradientUnits="userSpaceOnUse" x1="224.6625" y1="1101.55" x2="522.9375" y2="1097.6499999999999" spreadMethod="pad">
<stop  offset="0%" stop-color="#C35E0C"/>

<stop  offset="100%" stop-color="#D48774"/>
</linearGradient>

<linearGradient id="Gradient_4" gradientUnits="userSpaceOnUse" x1="1720.9125" y1="925.4000000000001" x2="1709.1875" y2="1299.4" spreadMethod="pad">
<stop  offset="0%" stop-color="#C35E0C"/>

<stop  offset="100%" stop-color="#D48774"/>
</linearGradient>

<linearGradient id="Gradient_5" gradientUnits="userSpaceOnUse" x1="2967.375" y1="1340.8" x2="2753.825" y2="1319.1000000000001" spreadMethod="pad">
<stop  offset="0%" stop-color="#C35E0C"/>

<stop  offset="100%" stop-color="#D48774"/>
</linearGradient>

<linearGradient id="Gradient_6" gradientUnits="userSpaceOnUse" x1="2710.9625" y1="998.95" x2="2682.2374999999997" y2="1008.45" spreadMethod="pad">
<stop  offset="0%" stop-color="#C35E0C"/>

<stop  offset="100%" stop-color="#D48774"/>
</linearGradient>

<linearGradient id="Gradient_7" gradientUnits="userSpaceOnUse" x1="3256.0625" y1="677.725" x2="3316.7375" y2="792.775" spreadMethod="pad">
<stop  offset="0%" stop-color="#C35E0C"/>

<stop  offset="100%" stop-color="#D48774"/>
</linearGradient>

<linearGradient id="Gradient_8" gradientUnits="userSpaceOnUse" x1="3224.7875" y1="759.45" x2="3304.6124999999997" y2="708.45" spreadMethod="pad">
<stop  offset="0%" stop-color="#C35E0C"/>

<stop  offset="100%" stop-color="#D48774"/>
</linearGradient>

<linearGradient id="Gradient_9" gradientUnits="userSpaceOnUse" x1="2029.6875" y1="1825.8" x2="2167.1125" y2="1653.7" spreadMethod="pad">
<stop  offset="0%" stop-color="#C35E0C"/>

<stop  offset="100%" stop-color="#D48774"/>
</linearGradient>

<linearGradient id="Gradient_10" gradientUnits="userSpaceOnUse" x1="1615.5625" y1="401.45" x2="1677.5375" y2="441.05" spreadMethod="pad">
<stop  offset="0%" stop-color="#C35E0C"/>

<stop  offset="100%" stop-color="#D48774"/>
</linearGradient>

<linearGradient id="Gradient_11" gradientUnits="userSpaceOnUse" x1="1638.0375" y1="452.46250000000003" x2="1606.1625" y2="439.7375" spreadMethod="pad">
<stop  offset="0%" stop-color="#C35E0C"/>

<stop  offset="100%" stop-color="#D48774"/>
</linearGradient>

<linearGradient id="Gradient_12" gradientUnits="userSpaceOnUse" x1="1748.7875000000001" y1="430.875" x2="1718.5125" y2="419.82500000000005" spreadMethod="pad">
<stop  offset="0%" stop-color="#C35E0C"/>

<stop  offset="100%" stop-color="#D48774"/>
</linearGradient>

<linearGradient id="Gradient_13" gradientUnits="userSpaceOnUse" x1="2553.75" y1="275.7125" x2="2620.6499999999996" y2="295.2875" spreadMethod="pad">
<stop  offset="0%" stop-color="#C35E0C"/>

<stop  offset="100%" stop-color="#D48774"/>
</linearGradient>

<linearGradient id="Gradient_14" gradientUnits="userSpaceOnUse" x1="2533.2625" y1="338.275" x2="2526.9375" y2="320.725" spreadMethod="pad">
<stop  offset="0%" stop-color="#C35E0C"/>

<stop  offset="100%" stop-color="#D48774"/>
</linearGradient>

<linearGradient id="Gradient_15" gradientUnits="userSpaceOnUse" x1="1961.1875" y1="389.9125" x2="1918.1125000000002" y2="361.2875" spreadMethod="pad">
<stop  offset="0%" stop-color="#C35E0C"/>

<stop  offset="100%" stop-color="#D48774"/>
</linearGradient>

<linearGradient id="Gradient_16" gradientUnits="userSpaceOnUse" x1="1833.0875" y1="274.6" x2="1941.9125" y2="361.4" spreadMethod="pad">
<stop  offset="0%" stop-color="#C35E0C"/>

<stop  offset="100%" stop-color="#D48774"/>
</linearGradient>

<linearGradient id="Gradient_17" gradientUnits="userSpaceOnUse" x1="2036.9250000000002" y1="375.97499999999997" x2="2003.375" y2="348.925" spreadMethod="pad">
<stop  offset="0%" stop-color="#C35E0C"/>

<stop  offset="100%" stop-color="#D48774"/>
</linearGradient>

<linearGradient id="Gradient_18" gradientUnits="userSpaceOnUse" x1="1993.6" y1="183.1375" x2="2134.6" y2="307.1625" spreadMethod="pad">
<stop  offset="0%" stop-color="#C35E0C"/>

<stop  offset="100%" stop-color="#D48774"/>
</linearGradient>

<linearGradient id="Gradient_19" gradientUnits="userSpaceOnUse" x1="2227.5625" y1="354.16249999999997" x2="2210.0375000000004" y2="336.6375" spreadMethod="pad">
<stop  offset="0%" stop-color="#C35E0C"/>

<stop  offset="100%" stop-color="#D48774"/>
</linearGradient>

<linearGradient id="Gradient_20" gradientUnits="userSpaceOnUse" x1="1703.6875" y1="376.91249999999997" x2="1745.9125" y2="416.4875" spreadMethod="pad">
<stop  offset="0%" stop-color="#C35E0C"/>

<stop  offset="100%" stop-color="#D48774"/>
</linearGradient>

<linearGradient id="Gradient_21" gradientUnits="userSpaceOnUse" x1="1825" y1="416.4625" x2="1804.3000000000002" y2="400.5375" spreadMethod="pad">
<stop  offset="0%" stop-color="#C35E0C"/>

<stop  offset="100%" stop-color="#D48774"/>
</linearGradient>

<linearGradient id="Gradient_22" gradientUnits="userSpaceOnUse" x1="1785.375" y1="336.78749999999997" x2="1844.8249999999998" y2="374.0125" spreadMethod="pad">
<stop  offset="0%" stop-color="#C35E0C"/>

<stop  offset="100%" stop-color="#D48774"/>
</linearGradient>

<linearGradient id="Gradient_23" gradientUnits="userSpaceOnUse" x1="2126.1625" y1="359.6875" x2="2108.6375000000003" y2="345.3125" spreadMethod="pad">
<stop  offset="0%" stop-color="#C35E0C"/>

<stop  offset="100%" stop-color="#D48774"/>
</linearGradient>

<linearGradient id="Gradient_24" gradientUnits="userSpaceOnUse" x1="1889.9624999999999" y1="207.2625" x2="2023.7375" y2="316.03749999999997" spreadMethod="pad">
<stop  offset="0%" stop-color="#C35E0C"/>

<stop  offset="100%" stop-color="#D48774"/>
</linearGradient>

<linearGradient id="Gradient_25" gradientUnits="userSpaceOnUse" x1="988.925" y1="505.6875" x2="1315.7749999999999" y2="689.1125" spreadMethod="pad">
<stop  offset="0%" stop-color="#C35E0C"/>

<stop  offset="100%" stop-color="#D48774"/>
</linearGradient>

<linearGradient id="Gradient_26" gradientUnits="userSpaceOnUse" x1="2084.3500000000004" y1="154.825" x2="2245.25" y2="276.375" spreadMethod="pad">
<stop  offset="0%" stop-color="#C35E0C"/>

<stop  offset="100%" stop-color="#D48774"/>
</linearGradient>

<linearGradient id="Gradient_27" gradientUnits="userSpaceOnUse" x1="2443.1375000000003" y1="216.8625" x2="2495.1625" y2="266.4375" spreadMethod="pad">
<stop  offset="0%" stop-color="#C35E0C"/>

<stop  offset="100%" stop-color="#D48774"/>
</linearGradient>

<linearGradient id="Gradient_28" gradientUnits="userSpaceOnUse" x1="2222.2625000000003" y1="174.42499999999998" x2="2365.8375" y2="300.775" spreadMethod="pad">
<stop  offset="0%" stop-color="#C35E0C"/>

<stop  offset="100%" stop-color="#D48774"/>
</linearGradient>

<linearGradient id="Gradient_29" gradientUnits="userSpaceOnUse" x1="2354.175" y1="197.075" x2="2435.825" y2="268.925" spreadMethod="pad">
<stop  offset="0%" stop-color="#C35E0C"/>

<stop  offset="100%" stop-color="#D48774"/>
</linearGradient>

<linearGradient id="Gradient_30" gradientUnits="userSpaceOnUse" x1="2530.5375" y1="328.2625" x2="2509.7625000000003" y2="309.1375" spreadMethod="pad">
<stop  offset="0%" stop-color="#C35E0C"/>

<stop  offset="100%" stop-color="#D48774"/>
</linearGradient>

<linearGradient id="Gradient_31" gradientUnits="userSpaceOnUse" x1="2452.675" y1="337.6125" x2="2430.325" y2="316.8875" spreadMethod="pad">
<stop  offset="0%" stop-color="#C35E0C"/>

<stop  offset="100%" stop-color="#D48774"/>
</linearGradient>

<linearGradient id="Gradient_32" gradientUnits="userSpaceOnUse" x1="2331.1125" y1="347.6375" x2="2307.1875" y2="318.96250000000003" spreadMethod="pad">
<stop  offset="0%" stop-color="#C35E0C"/>

<stop  offset="100%" stop-color="#D48774"/>
</linearGradient>

<linearGradient id="Gradient_33" gradientUnits="userSpaceOnUse" x1="1858.6125000000002" y1="1140.6875" x2="2442.4875" y2="1151.3125" spreadMethod="pad">
<stop  offset="0%" stop-color="#C35E0C"/>

<stop  offset="100%" stop-color="#D48774"/>
</linearGradient>

<linearGradient id="Gradient_34" gradientUnits="userSpaceOnUse" x1="1079.9625" y1="1479.4" x2="1320.3375" y2="1418.1" spreadMethod="pad">
<stop  offset="0%" stop-color="#C35E0C"/>

<stop  offset="100%" stop-color="#D48774"/>
</linearGradient>

<linearGradient id="Gradient_35" gradientUnits="userSpaceOnUse" x1="2036.9" y1="1571.4750000000001" x2="2344.1" y2="1490.325" spreadMethod="pad">
<stop  offset="0%" stop-color="#C35E0C"/>

<stop  offset="100%" stop-color="#D48774"/>
</linearGradient>

<image id="Bitmap_3" x="0" y="0" width="800" height="403" xlink:href="./images/Bitmap_3.png"/>

<g id="Layer3_0_FILL">
<path fill="url(#Gradient_1)" stroke="none" d="
M 2645.55 807.3
Q 2653.3 818.510546875 2660.6 829.85 2760.29921875 984.4662109375 2778.05 1162.6 2779.2671875 1174.845703125 2780.1 1187.2 2825.6765625 1409.1400390625 3217.85 1414.5 3224.261328125 1414.4544921875 3230.65 1414.65 3263.4064453125 1427.1765625 3306.9 1414.65 3330.975 1405.60390625 3355.05 1414.65 3388.725 1423.4171875 3422.4 1385.55 3596.8875 1338.925390625 3633.75 1315.1 3667.2955078125 1306.0447265625 3697.3 1312.35 3729.957421875 1319.174609375 3752.75 1296.3 3799.423046875 1241.321875 3751.15 1211.75 3613.067578125 1156.13359375 3578.95 1114.7 3597.4443359375 983.6525390625 3661.95 864.2 3691.692578125 785.8779296875 3616.1 794.75 2778.42109375 293.3927734375 2472.9 348.5 1369.01484375 392.0068359375 915.75 878.35 800.3873046875 1002.212109375 605.25 877.3 454.1287109375 1009.7513671875 481.95 1158.5 1028.8626953125 1094.0033203125 1666.5 830.2 2042.0365234375 651.16875 2523.35 648.55 2635.0984375 654.19765625 2645.55 807.3
M 2921.75 1001.35
Q 3050.8728515625 1043.883203125 2960.85 1081.8 3112.0138671875 1102.3658203125 3075.1 1143.45 3174.65 1125.7 3187.2 1179.35 3256 1151.55 3301.45 1138.5 3264.4658203125 1168.53828125 3181.15 1190.95 3169.75546875 1138.43828125 3054.65 1153.95 3112.8146484375 1115.287109375 2943.55 1082.95 3044.4396484375 1044.752734375 2897.25 999.65 3045.216796875 978.63359375 2927.3 895.95 3011.99921875 855.5267578125 3002.15 678.75 3027.145703125 854.05390625 2937.3 897.2 3046.327734375 976.493359375 2921.75 1001.35 Z"/>

<path fill="url(#Gradient_2)" stroke="none" d="
M 2960.85 1081.8
Q 3050.8728515625 1043.883203125 2921.75 1001.35 3046.327734375 976.493359375 2937.3 897.2 3027.145703125 854.05390625 3002.15 678.75 3011.99921875 855.5267578125 2927.3 895.95 3045.216796875 978.63359375 2897.25 999.65 3044.4396484375 1044.752734375 2943.55 1082.95 3112.8146484375 1115.287109375 3054.65 1153.95 3169.75546875 1138.43828125 3181.15 1190.95 3264.4658203125 1168.53828125 3301.45 1138.5 3256 1151.55 3187.2 1179.35 3174.65 1125.7 3075.1 1143.45 3112.0138671875 1102.3658203125 2960.85 1081.8 Z"/>

<path fill="url(#Gradient_3)" stroke="none" d="
M 82.55 629.7
Q 37.5607421875 612.2072265625 51.7 671.6 58.1083984375 980.738671875 178.5 1001.95 100.822265625 1032.7677734375 131.55 1258.75 63.9578125 1462.0859375 86.15 1540.55 91.387109375 1609.29765625 183.2 1560.9 403.16171875 1483.305078125 585.55 1349.55 540.4232421875 1297.9626953125 514.15 1248.1 490.1990234375 1202.5814453125 481.95 1158.5 454.1287109375 1009.7513671875 605.25 877.3 317.687109375 711.473046875 82.55 629.7 Z"/>

<path fill="url(#Gradient_4)" stroke="none" d="
M 2660.6 829.85
Q 2653.3 818.510546875 2645.55 807.3 2635.0984375 654.19765625 2523.35 648.55 2042.0365234375 651.16875 1666.5 830.2 1028.8626953125 1094.0033203125 481.95 1158.5 490.1990234375 1202.5814453125 514.15 1248.1 540.4232421875 1297.9626953125 585.55 1349.55 794.182421875 1195.2060546875 1142.9 1274.4 1604.6271484375 1435.37734375 2014.95 1443.45 2388.3837890625 1515.3103515625 2696.7 1492.95 2766.9013671875 1487.8666015625 2833.7 1477.9 2869.48046875 1462.8435546875 2935.65 1469.45 2810.6935546875 1302.5904296875 2716.8 1290.85 2611.3220703125 1292.341796875 2780.1 1187.2 2779.2671875 1174.845703125 2778.05 1162.6 2668.209375 1129.8201171875 2660.6 829.85 Z"/>

<path fill="url(#Gradient_5)" stroke="none" d="
M 2935.65 1469.45
Q 2961.4419921875 1472.0314453125 2991.85 1477.9 3038.39453125 1482.0412109375 3073.25 1451.3 3145.561328125 1415.41171875 3217.85 1414.5 2825.6765625 1409.1400390625 2780.1 1187.2 2611.3220703125 1292.341796875 2716.8 1290.85 2810.6935546875 1302.5904296875 2935.65 1469.45 Z"/>

<path fill="url(#Gradient_6)" stroke="none" d="
M 2660.6 829.85
Q 2668.209375 1129.8201171875 2778.05 1162.6 2760.29921875 984.4662109375 2660.6 829.85 Z"/>
</g>

<g id="Layer2_0_FILL">
<path fill="url(#Gradient_7)" stroke="none" d="
M 3385.7 739.75
Q 3383.6482421875 704.894140625 3358.45 679.65 3330.95 652.15 3292.1 652.15 3253.2 652.15 3225.75 679.65 3198.3 707.15 3198.3 746.05 3198.3 784.95 3225.75 812.45 3253.2 839.95 3292.1 839.95 3296.20390625 839.95 3300.15 839.65 3330.2849609375 833.00078125 3353.5 809.75 3382.9576171875 780.2923828125 3385.7 739.75
M 3259.85 714.85
Q 3279.24609375 691.999609375 3303 696.9 3326.8146484375 701.801953125 3349.75 714.3 3372.6751953125 726.8 3369.5 749.45 3366.336328125 772.0955078125 3345.95 788.85 3325.5572265625 805.6060546875 3302.4 807.7 3279.248046875 809.8478515625 3259.85 793.2 3240.450390625 776.6015625 3240.45 757.15 3240.4513671875 737.7490234375 3259.85 714.85 Z"/>

<path fill="#000000" stroke="none" d="
M 3303 696.9
Q 3279.24609375 691.999609375 3259.85 714.85 3240.4513671875 737.7490234375 3240.45 757.15 3240.450390625 776.6015625 3259.85 793.2 3279.248046875 809.8478515625 3302.4 807.7 3325.5572265625 805.6060546875 3345.95 788.85 3366.336328125 772.0955078125 3369.5 749.45 3372.6751953125 726.8 3349.75 714.3 3326.8146484375 701.801953125 3303 696.9 Z"/>

<path fill="url(#Gradient_8)" stroke="none" d="
M 3385.7 739.75
Q 3386 735.55625 3386 731.25 3386 685.25 3353.5 652.75 3321 620.2 3275 620.2 3229 620.2 3196.5 652.75 3163.95 685.25 3163.95 731.25 3163.95 777.25 3196.5 809.75 3229 842.3 3275 842.3 3288.141796875 842.3 3300.15 839.65 3296.20390625 839.95 3292.1 839.95 3253.2 839.95 3225.75 812.45 3198.3 784.95 3198.3 746.05 3198.3 707.15 3225.75 679.65 3253.2 652.15 3292.1 652.15 3330.95 652.15 3358.45 679.65 3383.6482421875 704.894140625 3385.7 739.75 Z"/>
</g>

<g id="Layer1_0_FILL">
<path fill="url(#Gradient_9)" stroke="none" d="
M 2145.45 1770.1
Q 2161.5095703125 1746.84296875 2242 1697.95 2280.5693359375 1676.1224609375 2296.8 1646.75
L 1980.8 1729.65
Q 1981.3072265625 1751.125 1949.5 1772.6 1914.545703125 1888.624609375 1936.3 1903.35 1950.2787109375 1910.491015625 1983.3 1903.35 2037.271875 1899.8451171875 2145.45 1770.1 Z"/>
</g>

<g id="Layer0_0_FILL">
<path fill="url(#Gradient_10)" stroke="none" d="
M 1630.3 445.35
Q 1655.9607421875 466.727734375 1654.25 468.3 1698.26328125 455.23984375 1743.7 443.65 1699.644140625 402.225 1596.2 360.8 1629.6845703125 414.4111328125 1525.6 388.25 1604.2830078125 423.70859375 1630.3 445.35
M 1654.2 468.35
L 1654.2 468.3 1654.15 468.3 1654.2 468.35 Z"/>

<path fill="url(#Gradient_11)" stroke="none" d="
M 1654.2 468.3
Q 1654.226953125 468.3169921875 1654.25 468.3 1655.9607421875 466.727734375 1630.3 445.35 1604.2830078125 423.70859375 1525.6 388.25 1604.725390625 428.0181640625 1639.95 472.6 1647.0451171875 470.4423828125 1654.15 468.3
L 1654.2 468.3 Z"/>

<path fill="url(#Gradient_12)" stroke="none" d="
M 1743.7 443.65
Q 1753.598828125 441.13203125 1763.55 438.65 1694.8169921875 394.7283203125 1596.2 360.8 1699.644140625 402.225 1743.7 443.65 Z"/>

<path fill="url(#Gradient_13)" stroke="none" d="
M 2572.8 233.35
Q 2588.47890625 284.562109375 2553.15 262.8
L 2437.45 170.6
Q 2523.4029296875 257.857421875 2574.1 352.85 2614.2376953125 353.14609375 2654.35 354.85 2645.87109375 311.97890625 2572.8 233.35 Z"/>

<path fill="url(#Gradient_14)" stroke="none" d="
M 2437.45 170.6
Q 2439.131640625 173.27421875 2440.35 175.55 2557.0408203125 313.25 2545.1 352.75
L 2574.1 352.85
Q 2523.4029296875 257.857421875 2437.45 170.6 Z"/>

<path fill="url(#Gradient_15)" stroke="none" d="
M 1956.6 398.8
Q 1969.8462890625 396.5560546875 1983.15 394.4 1877.1943359375 315.69375 1700.15 227.45 1839.3380859375 313.125 1956.6 398.8 Z"/>

<path fill="url(#Gradient_16)" stroke="none" d="
M 1983.15 394.4
Q 2008.18203125 390.4376953125 2033.55 386.8 1968.0791015625 312.7171875 1770.45 176.05 1768.6625 174.825 1766.85 173.6 1765.578125 172.734375 1764.25 171.8 1763.025 170.925 1761.75 170 1758.910546875 167.9734375 1755.95 165.75 1747.1013671875 159.1380859375 1737.4 151 1767.955859375 257.30703125 1700.15 227.45 1877.1943359375 315.69375 1983.15 394.4 Z"/>

<path fill="url(#Gradient_17)" stroke="none" d="
M 2033.55 386.8
Q 2046.0708984375 385.0388671875 2058.65 383.35 1963.005078125 289.8751953125 1783.25 183.8 1782.071875 183.1349609375 1780.85 182.4 1775.86015625 179.5599609375 1770.45 176.05 1968.0791015625 312.7171875 2033.55 386.8 Z"/>

<path fill="url(#Gradient_18)" stroke="none" d="
M 2142.55 373.25
Q 2183.951953125 368.820703125 2226.25 365.35 2100.8580078125 219.6173828125 1941.4 78.05 1939.25 76.175 1937.05 74.25 1929.6546875 67.886328125 1921.75 60.8 1971.741015625 198.40859375 1881.95 136.25 2053.3912109375 272.6123046875 2142.55 373.25 Z"/>

<path fill="url(#Gradient_19)" stroke="none" d="
M 2226.25 365.35
Q 2236.17734375 364.536328125 2246.55 365.35 2138.9619140625 243.9439453125 1969.75 100.8 1956.676953125 90.96015625 1941.4 78.05 2100.8580078125 219.6173828125 2226.25 365.35 Z"/>

<path fill="url(#Gradient_20)" stroke="none" d="
M 1763.55 438.65
Q 1801.733203125 429.2919921875 1840.85 420.9 1771.79140625 364.8802734375 1643.3 303.95 1691.4755859375 377.194140625 1596.2 360.8 1694.8169921875 394.7283203125 1763.55 438.65 Z"/>

<path fill="url(#Gradient_21)" stroke="none" d="
M 1840.85 420.9
Q 1850.8126953125 418.8099609375 1860.8 416.75 1785.2974609375 360.35 1643.3 303.95 1771.79140625 364.8802734375 1840.85 420.9 Z"/>

<path fill="url(#Gradient_22)" stroke="none" d="
M 1700.15 227.45
Q 1773.0509765625 342.5189453125 1643.3 303.95 1785.2974609375 360.35 1860.8 416.75 1908.0169921875 407.0345703125 1956.6 398.8 1839.3380859375 313.125 1700.15 227.45 Z"/>

<path fill="url(#Gradient_23)" stroke="none" d="
M 2117.1 376.05
Q 2129.8060546875 374.617578125 2142.55 373.25 2053.3912109375 272.6123046875 1881.95 136.25 1871.4369140625 129.001953125 1859 118.95 2063.2396484375 289.944921875 2117.1 376.05 Z"/>

<path fill="url(#Gradient_24)" stroke="none" d="
M 2058.65 383.35
Q 2087.664453125 379.46484375 2117.1 376.05 2063.2396484375 289.944921875 1859 118.95 1851.5017578125 112.9427734375 1843.3 105.9 1859.5271484375 225.816796875 1783.25 183.8 1963.005078125 289.8751953125 2058.65 383.35 Z"/>

<path fill="url(#Gradient_25)" stroke="none" d="
M 1525.6 388.25
Q 1543.796484375 412.470703125 1525.6 429.45
L 1284.4 321.6
Q 1122.823828125 210.9103515625 1058.9 321.6 902.1185546875 541.0220703125 845.15 737.35 837.1296875 864.5056640625 915.75 878.35 1208.5486328125 603.745703125 1639.95 472.6 1604.725390625 428.0181640625 1525.6 388.25 Z"/>

<path fill="url(#Gradient_26)" stroke="none" d="
M 2051 44.15
Q 2040.7564453125 35.3453125 2029.6 25.5 2089.2037109375 191.03984375 1969.75 100.8 2138.9619140625 243.9439453125 2246.55 365.35 2288.7271484375 360.5126953125 2332.2 358.2 2265.28515625 234.402734375 2063.2 54.75 2057.1125 49.45 2051 44.15 Z"/>

<path fill="url(#Gradient_27)" stroke="none" d="
M 2545.1 352.75
Q 2557.0408203125 313.25 2440.35 175.55 2467.59609375 225.2974609375 2292.7 93.85 2476.7724609375 237.2966796875 2545.1 352.75 Z"/>

<path fill="url(#Gradient_28)" stroke="none" d="
M 2359.5 356.85
Q 2403.7486328125 354.8751953125 2448.95 353.85 2336.42109375 198.712109375 2143.15 47.95 2141.2841796875 46.5416015625 2139.4 45.1 2211.78828125 171.2912109375 2096.1 81.3 2262.4958984375 225.2392578125 2359.5 356.85 Z"/>

<path fill="url(#Gradient_29)" stroke="none" d="
M 2477.9 353.3
Q 2504.3619140625 352.88125 2531.15 352.8 2428.715625 204.6609375 2260.5 69.6 2254.913671875 65.2490234375 2249.2 60.8 2385.384765625 226.009765625 2154.55 56.5 2343.2248046875 202.5826171875 2477.9 353.3 Z"/>

<path fill="url(#Gradient_30)" stroke="none" d="
M 2531.15 352.8
Q 2538.12890625 352.7736328125 2545.1 352.75 2476.7724609375 237.2966796875 2292.7 93.85 2277.4111328125 82.3927734375 2260.5 69.6 2428.715625 204.6609375 2531.15 352.8 Z"/>

<path fill="url(#Gradient_31)" stroke="none" d="
M 2448.95 353.85
Q 2463.3759765625 353.5224609375 2477.9 353.3 2343.2248046875 202.5826171875 2154.55 56.5
L 2143.15 47.95
Q 2336.42109375 198.712109375 2448.95 353.85 Z"/>

<path fill="url(#Gradient_32)" stroke="none" d="
M 2332.2 358.2
Q 2345.81875 357.50859375 2359.5 356.85 2262.4958984375 225.2392578125 2096.1 81.3 2081.27265625 69.744921875 2063.2 54.75 2265.28515625 234.402734375 2332.2 358.2 Z"/>

<path fill="url(#Gradient_33)" stroke="none" d="
M 2508.6 1305.95
Q 2529.8212890625 1301.7185546875 2553.25 1298.8 2418.6537109375 1240.21796875 2576.65 1021.4 2032.8982421875 866.956640625 1699.8 1122.95 1878.9447265625 1168.9611328125 2046.5 1273.3 2055.766015625 1303.975 2417.75 1334.65 2456.5396484375 1316.2978515625 2508.6 1305.95 Z"/>

<path fill="url(#Gradient_34)" stroke="none" d="
M 1472.75 1518.75
Q 1482.3267578125 1553.8541015625 1570.9 1466.6 1595.0771484375 1421.49375 1724.6 1419.55 1422.072265625 1374.8716796875 1142.9 1274.4 1190.248046875 1294.35859375 1105.2 1299.65 1053.4408203125 1304.9609375 1006.1 1381.2 907.44921875 1643.32734375 963.45 1686 984.6640625 1720.8529296875 1252 1560.6 1287.6265625 1531.3962890625 1308.45 1546.8 1304.729296875 1576.150390625 1286.55 1584.05 1241.900390625 1620.2642578125 1472.75 1518.75 Z"/>

<path fill="url(#Gradient_35)" stroke="none" d="
M 2055.7 1405.25
L 2014.95 1443.45
Q 2009.0177734375 1501.05 1960.55 1558.65 1898.240234375 1646.075 1890 1733.5 2348.3263671875 1728.676171875 2485.25 1454.3 2188.1892578125 1446.2142578125 2055.7 1405.25 Z"/>
</g>

<path id="Layer3_0_1_STROKES" stroke="#000000" stroke-width="1" stroke-linejoin="round" stroke-linecap="round" fill="none" d="
M 2645.55 807.3
Q 2653.3 818.510546875 2660.6 829.85 2760.29921875 984.4662109375 2778.05 1162.6 2779.2671875 1174.845703125 2780.1 1187.2 2825.6765625 1409.1400390625 3217.875 1414.525 3224.261328125 1414.4544921875 3230.65 1414.65 3263.4064453125 1427.1765625 3306.9 1414.65 3330.975 1405.60390625 3355.05 1414.65 3388.725 1423.4171875 3422.4 1385.55 3596.8875 1338.925390625 3633.75 1315.1 3667.2955078125 1306.0447265625 3697.3 1312.35 3729.957421875 1319.174609375 3752.75 1296.3 3799.423046875 1241.321875 3751.15 1211.75 3613.067578125 1156.13359375 3578.95 1114.7 3597.4443359375 983.6525390625 3661.95 864.2 3691.692578125 785.8779296875 3616.1 794.75 2778.42109375 293.3927734375 2472.9 348.5
M 915.75 878.35
Q 800.3873046875 1002.212109375 605.25 877.3
M 2696.725 1492.95
Q 2696.5431640625 1493.32734375 2696.35 1493.7
M 585.55 1349.55
Q 794.182421875 1195.2060546875 1142.9 1274.4 1604.6271484375 1435.37734375 2014.95 1443.45 2388.3837890625 1515.3103515625 2696.725 1492.95 2766.9013671875 1487.8666015625 2833.7 1477.9 2869.48046875 1462.8435546875 2935.65 1469.45 2961.4419921875 1472.0314453125 2991.85 1477.9 3038.39453125 1482.0412109375 3073.25 1451.3 3145.561328125 1415.41171875 3217.875 1414.525
M 605.25 877.3
Q 317.687109375 711.473046875 82.55 629.7 37.5607421875 612.2072265625 51.7 671.6 58.1083984375 980.738671875 178.5 1001.95 100.822265625 1032.7677734375 131.55 1258.75 63.9578125 1462.0859375 86.15 1540.55 91.387109375 1609.29765625 183.2 1560.9 403.16171875 1483.305078125 585.55 1349.55"/>

<path id="Layer2_0_1_STROKES" stroke="#000000" stroke-width="1" stroke-linejoin="round" stroke-linecap="round" fill="none" d="
M 3369.5 749.45
Q 3366.336328125 772.0955078125 3345.95 788.85 3325.5572265625 805.6060546875 3302.4 807.725 3279.248046875 809.8478515625 3259.85 793.225 3240.450390625 776.6015625 3240.45 757.175 3240.4513671875 737.7490234375 3259.85 714.875 3279.24609375 691.999609375 3303.025 696.9 3326.8146484375 701.801953125 3349.75 714.3 3372.6751953125 726.8 3369.5 749.45 Z
M 3385.725 739.75
Q 3385.9 742.858984375 3385.9 746.05 3385.9 784.95 3358.45 812.45 3333.855078125 837.044921875 3300.175 839.65
M 3385.725 739.75
Q 3383.6482421875 704.894140625 3358.45 679.65 3330.95 652.15 3292.1 652.15 3253.2 652.15 3225.75 679.65 3198.3 707.15 3198.3 746.05 3198.3 784.95 3225.75 812.45 3253.2 839.95 3292.1 839.95 3296.20390625 839.95 3300.175 839.65"/>

<path id="Layer1_0_1_STROKES" stroke="#000000" stroke-width="1" stroke-linejoin="round" stroke-linecap="round" fill="none" d="
M 1936.3 1903.35
Q 1950.2787109375 1910.491015625 1983.3 1903.35 2037.271875 1899.8451171875 2145.45 1770.1 2161.5095703125 1746.84296875 2242 1697.95 2280.5693359375 1676.1224609375 2296.8 1646.75
L 1980.8 1729.65
Q 1981.3072265625 1751.125 1949.5 1772.6 1914.545703125 1888.624609375 1936.3 1903.35 Z"/>

<path id="Layer0_0_1_STROKES" stroke="#000000" stroke-width="1" stroke-linejoin="round" stroke-linecap="round" fill="none" d="
M 2440.375 175.575
Q 2439.131640625 173.27421875 2437.45 170.6
L 2553.15 262.8
Q 2588.47890625 284.562109375 2572.8 233.35 2645.87109375 311.97890625 2654.35 354.85
M 915.75 878.35
Q 837.1296875 864.5056640625 845.15 737.35 902.1185546875 541.0220703125 1058.9 321.6 1122.823828125 210.9103515625 1284.4 321.6
L 1525.6 429.45
Q 1543.796484375 412.470703125 1525.6 388.25 1629.6845703125 414.4111328125 1596.2 360.8 1691.4755859375 377.194140625 1643.3 303.95 1773.0509765625 342.5189453125 1700.15 227.45 1767.955859375 257.30703125 1737.4 151
L 1780.85 182.425
Q 1782.071875 183.1349609375 1783.275 183.825 1859.5271484375 225.816796875 1843.3 105.9 1863.1228515625 121.3052734375 1881.95 136.275 1971.741015625 198.40859375 1921.75 60.8 1946.3412109375 81.0392578125 1969.75 100.825 2089.2037109375 191.03984375 2029.6 25.5 2064.160546875 53.646484375 2096.125 81.3 2211.78828125 171.2912109375 2139.4 45.1 2141.2841796875 46.5416015625 2143.175 47.975
L 2154.55 56.525
Q 2385.384765625 226.009765625 2249.2 60.8 2254.913671875 65.2490234375 2260.5 69.625 2277.4111328125 82.3927734375 2292.7 93.875 2467.59609375 225.2974609375 2440.375 175.575
M 2029.6 25.5
Q 2040.7564453125 35.3453125 2051 44.15 2057.1125 49.45 2063.225 54.75 2081.27265625 69.744921875 2096.125 81.3
M 1921.75 60.8
Q 1929.6546875 67.886328125 1937.075 74.275 1939.25 76.175 1941.425 78.075 1956.676953125 90.96015625 1969.75 100.825
M 1843.3 105.9
Q 1851.5017578125 112.9427734375 1859 118.975 1871.4369140625 129.001953125 1881.95 136.275
M 1770.475 176.05
Q 1775.86015625 179.5599609375 1780.85 182.425
M 1737.4 151
Q 1747.1013671875 159.1380859375 1755.95 165.75 1758.910546875 167.9734375 1761.775 170.025 1763.025 170.925 1764.275 171.825 1765.578125 172.734375 1766.85 173.6 1768.6625 174.825 1770.475 176.05
M 1654.2 468.325
L 1654.175 468.325
M 1286.575 1584.075
Q 1304.729296875 1576.150390625 1308.45 1546.8 1287.6265625 1531.3962890625 1252 1560.6 984.6640625 1720.8529296875 963.45 1686 907.44921875 1643.32734375 1006.1 1381.2 1053.4408203125 1304.9609375 1105.2 1299.65 1190.248046875 1294.35859375 1142.9 1274.4 1422.072265625 1374.8716796875 1724.6 1419.55 1595.0771484375 1421.49375 1570.9 1466.6 1482.3267578125 1553.8541015625 1472.75 1518.75 1241.900390625 1620.2642578125 1286.575 1584.075
L 1282.1 1585.65
M 2485.25 1454.3
Q 2348.3263671875 1728.676171875 1890 1733.5 1898.240234375 1646.075 1960.55 1558.65 2009.0177734375 1501.05 2014.95 1443.45
L 2055.7 1405.25
Q 2188.1892578125 1446.2142578125 2485.25 1454.3 Z
M 2576.65 1021.425
Q 2032.8982421875 866.956640625 1699.8 1122.95 1878.9447265625 1168.9611328125 2046.5 1273.3 2055.766015625 1303.975 2417.75 1334.65 2456.5396484375 1316.2978515625 2508.6 1305.95 2529.8212890625 1301.7185546875 2553.25 1298.825
M 2598.75 1027.85
Q 2587.6591796875 1024.5556640625 2576.65 1021.425
M 2553.25 1298.825
Q 2573.6412109375 1296.3107421875 2595.7 1294.8"/>
</defs>

<g transform="matrix( -4.6713714599609375, 0, 0, 4.6713714599609375, 3789.1,25) ">
<use xlink:href="#Bitmap_3"/>
</g>

<g transform="matrix( 1, 0, 0, 1, 0,0) ">
<use xlink:href="#Layer3_0_FILL"/>

<use xlink:href="#Layer3_0_1_STROKES"/>
</g>

<g transform="matrix( 1, 0, 0, 1, 0,0) ">
<use xlink:href="#Layer2_0_FILL"/>

<use xlink:href="#Layer2_0_1_STROKES"/>
</g>

<g transform="matrix( 1, 0, 0, 1, 0,0) ">
<use xlink:href="#Layer1_0_FILL"/>

<use xlink:href="#Layer1_0_1_STROKES"/>
</g>

<g transform="matrix( 1, 0, 0, 1, 0,0) ">
<use xlink:href="#Layer0_0_FILL"/>

<use xlink:href="#Layer0_0_1_STROKES"/>
</g>
</svg>
