
<svg xmlns="http://www.w3.org/2000/svg" version="1.1" xmlns:xlink="http://www.w3.org/1999/xlink" preserveAspectRatio="none" x="0px" y="0px" width="3840px" height="1920px" viewBox="0 0 3840 1920">
<defs>
<linearGradient id="Gradient_1" gradientUnits="userSpaceOnUse" x1="1919.7" y1="1258.8375" x2="1903.7" y2="530.0625" spreadMethod="pad">
<stop  offset="1.9607843137254901%" stop-color="#FFFFFF"/>

<stop  offset="99.2156862745098%" stop-color="#666666"/>
</linearGradient>

<linearGradient id="Gradient_2" gradientUnits="userSpaceOnUse" x1="2570.9125" y1="1339.6875" x2="2351.9874999999997" y2="1532.4125" spreadMethod="pad">
<stop  offset="1.9607843137254901%" stop-color="#FFFFFF"/>

<stop  offset="99.2156862745098%" stop-color="#666666"/>
</linearGradient>

<linearGradient id="Gradient_3" gradientUnits="userSpaceOnUse" x1="2560.2625000000003" y1="1339.0875" x2="2358.8375" y2="1516.4125" spreadMethod="pad">
<stop  offset="1.9607843137254901%" stop-color="#FFFFFF"/>

<stop  offset="99.2156862745098%" stop-color="#666666"/>
</linearGradient>

<linearGradient id="Gradient_4" gradientUnits="userSpaceOnUse" x1="2584.4750000000004" y1="1341" x2="2350.125" y2="1547.3000000000002" spreadMethod="pad">
<stop  offset="1.9607843137254901%" stop-color="#FFFFFF"/>

<stop  offset="99.2156862745098%" stop-color="#666666"/>
</linearGradient>

<linearGradient id="Gradient_5" gradientUnits="userSpaceOnUse" x1="2542.25" y1="1345.2375" x2="2409.45" y2="1462.1625000000001" spreadMethod="pad">
<stop  offset="1.9607843137254901%" stop-color="#FFFFFF"/>

<stop  offset="99.2156862745098%" stop-color="#666666"/>
</linearGradient>

<linearGradient id="Gradient_6" gradientUnits="userSpaceOnUse" x1="2547.1499999999996" y1="1342.7875" x2="2372.75" y2="1496.3125" spreadMethod="pad">
<stop  offset="1.9607843137254901%" stop-color="#FFFFFF"/>

<stop  offset="99.2156862745098%" stop-color="#666666"/>
</linearGradient>

<linearGradient id="Gradient_7" gradientUnits="userSpaceOnUse" x1="2713.4875" y1="1538.6125000000002" x2="2619.1125" y2="1621.6875" spreadMethod="pad">
<stop  offset="1.9607843137254901%" stop-color="#FFFFFF"/>

<stop  offset="99.2156862745098%" stop-color="#666666"/>
</linearGradient>

<linearGradient id="Gradient_8" gradientUnits="userSpaceOnUse" x1="2639.1375" y1="1674.1125" x2="2500.2625" y2="1796.3875" spreadMethod="pad">
<stop  offset="1.9607843137254901%" stop-color="#FFFFFF"/>

<stop  offset="99.2156862745098%" stop-color="#666666"/>
</linearGradient>

<linearGradient id="Gradient_9" gradientUnits="userSpaceOnUse" x1="2762.85" y1="1437.8125" x2="2431.65" y2="1729.3874999999998" spreadMethod="pad">
<stop  offset="1.9607843137254901%" stop-color="#FFFFFF"/>

<stop  offset="99.2156862745098%" stop-color="#666666"/>
</linearGradient>

<linearGradient id="Gradient_10" gradientUnits="userSpaceOnUse" x1="2730.65" y1="1499.8000000000002" x2="2606.0499999999997" y2="1609.5" spreadMethod="pad">
<stop  offset="1.9607843137254901%" stop-color="#FFFFFF"/>

<stop  offset="99.2156862745098%" stop-color="#666666"/>
</linearGradient>

<linearGradient id="Gradient_11" gradientUnits="userSpaceOnUse" x1="2757.3375" y1="1493.2749999999999" x2="2459.6625" y2="1755.325" spreadMethod="pad">
<stop  offset="1.9607843137254901%" stop-color="#FFFFFF"/>

<stop  offset="99.2156862745098%" stop-color="#666666"/>
</linearGradient>

<linearGradient id="Gradient_12" gradientUnits="userSpaceOnUse" x1="2761.3" y1="1465.0375" x2="2445.5" y2="1743.0625" spreadMethod="pad">
<stop  offset="1.9607843137254901%" stop-color="#FFFFFF"/>

<stop  offset="99.2156862745098%" stop-color="#666666"/>
</linearGradient>

<linearGradient id="Gradient_13" gradientUnits="userSpaceOnUse" x1="2700.125" y1="1390.25" x2="2386.375" y2="1666.4499999999998" spreadMethod="pad">
<stop  offset="1.9607843137254901%" stop-color="#FFFFFF"/>

<stop  offset="99.2156862745098%" stop-color="#666666"/>
</linearGradient>

<linearGradient id="Gradient_14" gradientUnits="userSpaceOnUse" x1="2752.7125" y1="1426.2124999999999" x2="2421.3875000000003" y2="1717.8875" spreadMethod="pad">
<stop  offset="1.9607843137254901%" stop-color="#FFFFFF"/>

<stop  offset="99.2156862745098%" stop-color="#666666"/>
</linearGradient>

<linearGradient id="Gradient_15" gradientUnits="userSpaceOnUse" x1="2739.525" y1="1415.95" x2="2410.6749999999997" y2="1705.45" spreadMethod="pad">
<stop  offset="1.9607843137254901%" stop-color="#FFFFFF"/>

<stop  offset="99.2156862745098%" stop-color="#666666"/>
</linearGradient>

<linearGradient id="Gradient_16" gradientUnits="userSpaceOnUse" x1="2727.3999999999996" y1="1408.3249999999998" x2="2402.5" y2="1694.375" spreadMethod="pad">
<stop  offset="1.9607843137254901%" stop-color="#FFFFFF"/>

<stop  offset="99.2156862745098%" stop-color="#666666"/>
</linearGradient>

<linearGradient id="Gradient_17" gradientUnits="userSpaceOnUse" x1="2714.1875" y1="1399.2124999999999" x2="2394.1125" y2="1680.9875" spreadMethod="pad">
<stop  offset="1.9607843137254901%" stop-color="#FFFFFF"/>

<stop  offset="99.2156862745098%" stop-color="#666666"/>
</linearGradient>

<linearGradient id="Gradient_18" gradientUnits="userSpaceOnUse" x1="2632.3875000000003" y1="1357.5" x2="2360.9125" y2="1596.5" spreadMethod="pad">
<stop  offset="1.9607843137254901%" stop-color="#FFFFFF"/>

<stop  offset="99.2156862745098%" stop-color="#666666"/>
</linearGradient>

<linearGradient id="Gradient_19" gradientUnits="userSpaceOnUse" x1="2686.0625" y1="1382.2125" x2="2379.8374999999996" y2="1651.7875" spreadMethod="pad">
<stop  offset="1.9607843137254901%" stop-color="#FFFFFF"/>

<stop  offset="99.2156862745098%" stop-color="#666666"/>
</linearGradient>

<linearGradient id="Gradient_20" gradientUnits="userSpaceOnUse" x1="2670.675" y1="1373.5875" x2="2373.825" y2="1634.9125" spreadMethod="pad">
<stop  offset="1.9607843137254901%" stop-color="#FFFFFF"/>

<stop  offset="99.2156862745098%" stop-color="#666666"/>
</linearGradient>

<linearGradient id="Gradient_21" gradientUnits="userSpaceOnUse" x1="2657.9750000000004" y1="1367.925" x2="2369.625" y2="1621.7749999999999" spreadMethod="pad">
<stop  offset="1.9607843137254901%" stop-color="#FFFFFF"/>

<stop  offset="99.2156862745098%" stop-color="#666666"/>
</linearGradient>

<linearGradient id="Gradient_22" gradientUnits="userSpaceOnUse" x1="2646.5125" y1="1363.8625" x2="2366.1875" y2="1610.6375" spreadMethod="pad">
<stop  offset="1.9607843137254901%" stop-color="#FFFFFF"/>

<stop  offset="99.2156862745098%" stop-color="#666666"/>
</linearGradient>

<linearGradient id="Gradient_23" gradientUnits="userSpaceOnUse" x1="2620.675" y1="1352.9625" x2="2357.625" y2="1584.5375" spreadMethod="pad">
<stop  offset="1.9607843137254901%" stop-color="#FFFFFF"/>

<stop  offset="99.2156862745098%" stop-color="#666666"/>
</linearGradient>

<linearGradient id="Gradient_24" gradientUnits="userSpaceOnUse" x1="2608.6375" y1="1349.7" x2="2354.7625" y2="1573.2" spreadMethod="pad">
<stop  offset="1.9607843137254901%" stop-color="#FFFFFF"/>

<stop  offset="99.2156862745098%" stop-color="#666666"/>
</linearGradient>

<linearGradient id="Gradient_25" gradientUnits="userSpaceOnUse" x1="2596.7749999999996" y1="1344.9499999999998" x2="2351.625" y2="1560.75" spreadMethod="pad">
<stop  offset="1.9607843137254901%" stop-color="#FFFFFF"/>

<stop  offset="99.2156862745098%" stop-color="#666666"/>
</linearGradient>

<linearGradient id="Gradient_26" gradientUnits="userSpaceOnUse" x1="2552.85" y1="443.725" x2="2552.85" y2="503.475" spreadMethod="pad">
<stop  offset="1.9607843137254901%" stop-color="#FFFFFF"/>

<stop  offset="99.2156862745098%" stop-color="#666666"/>
</linearGradient>

<linearGradient id="Gradient_27" gradientUnits="userSpaceOnUse" x1="2537.8250000000003" y1="420.71250000000003" x2="2520.775" y2="343.8875" spreadMethod="pad">
<stop  offset="1.9607843137254901%" stop-color="#FFFFFF"/>

<stop  offset="99.2156862745098%" stop-color="#666666"/>
</linearGradient>

<linearGradient id="Gradient_28" gradientUnits="userSpaceOnUse" x1="2380.1375" y1="371.55" x2="2247.8625" y2="158.34999999999997" spreadMethod="pad">
<stop  offset="1.9607843137254901%" stop-color="#FFFFFF"/>

<stop  offset="99.2156862745098%" stop-color="#666666"/>
</linearGradient>

<linearGradient id="Gradient_29" gradientUnits="userSpaceOnUse" x1="2236.25" y1="403.83750000000003" x2="2317.45" y2="510.3625" spreadMethod="pad">
<stop  offset="1.9607843137254901%" stop-color="#FFFFFF"/>

<stop  offset="99.2156862745098%" stop-color="#666666"/>
</linearGradient>

<linearGradient id="Gradient_30" gradientUnits="userSpaceOnUse" x1="2318.9249999999997" y1="380.3875" x2="2382.775" y2="516.9125" spreadMethod="pad">
<stop  offset="1.9607843137254901%" stop-color="#FFFFFF"/>

<stop  offset="99.2156862745098%" stop-color="#666666"/>
</linearGradient>

<linearGradient id="Gradient_31" gradientUnits="userSpaceOnUse" x1="2411.5875" y1="386.41249999999997" x2="2445.5125000000003" y2="488.8875" spreadMethod="pad">
<stop  offset="1.9607843137254901%" stop-color="#FFFFFF"/>

<stop  offset="99.2156862745098%" stop-color="#666666"/>
</linearGradient>

<linearGradient id="Gradient_32" gradientUnits="userSpaceOnUse" x1="2585.3375" y1="502.2125" x2="2566.1625" y2="415.7875" spreadMethod="pad">
<stop  offset="1.9607843137254901%" stop-color="#FFFFFF"/>

<stop  offset="99.2156862745098%" stop-color="#666666"/>
</linearGradient>

<linearGradient id="Gradient_33" gradientUnits="userSpaceOnUse" x1="2125.3250000000003" y1="440.6375" x2="1984.4750000000001" y2="376.96250000000003" spreadMethod="pad">
<stop  offset="1.9607843137254901%" stop-color="#FFFFFF"/>

<stop  offset="99.2156862745098%" stop-color="#666666"/>
</linearGradient>

<linearGradient id="Gradient_34" gradientUnits="userSpaceOnUse" x1="2015.5875" y1="486.125" x2="1947.3125" y2="464.875" spreadMethod="pad">
<stop  offset="1.9607843137254901%" stop-color="#FFFFFF"/>

<stop  offset="99.2156862745098%" stop-color="#666666"/>
</linearGradient>

<linearGradient id="Gradient_35" gradientUnits="userSpaceOnUse" x1="2052.0375" y1="478.3" x2="2094.6625" y2="499.59999999999997" spreadMethod="pad">
<stop  offset="1.9607843137254901%" stop-color="#FFFFFF"/>

<stop  offset="99.2156862745098%" stop-color="#666666"/>
</linearGradient>

<linearGradient id="Gradient_36" gradientUnits="userSpaceOnUse" x1="2152.1125" y1="450.0625" x2="2220.3875" y2="505.5375" spreadMethod="pad">
<stop  offset="1.9607843137254901%" stop-color="#FFFFFF"/>

<stop  offset="99.2156862745098%" stop-color="#666666"/>
</linearGradient>

<linearGradient id="Gradient_37" gradientUnits="userSpaceOnUse" x1="2297.2" y1="450.07500000000005" x2="2126.7" y2="155.62500000000003" spreadMethod="pad">
<stop  offset="1.9607843137254901%" stop-color="#FFFFFF"/>

<stop  offset="99.2156862745098%" stop-color="#666666"/>
</linearGradient>

<linearGradient id="Gradient_38" gradientUnits="userSpaceOnUse" x1="2207.1" y1="412.4625" x2="2087.6" y2="310.0375" spreadMethod="pad">
<stop  offset="1.9607843137254901%" stop-color="#FFFFFF"/>

<stop  offset="99.2156862745098%" stop-color="#666666"/>
</linearGradient>

<linearGradient id="Gradient_39" gradientUnits="userSpaceOnUse" x1="2474.4" y1="411.6875" x2="2478.6" y2="480.01250000000005" spreadMethod="pad">
<stop  offset="1.9607843137254901%" stop-color="#FFFFFF"/>

<stop  offset="99.2156862745098%" stop-color="#666666"/>
</linearGradient>

<linearGradient id="Gradient_40" gradientUnits="userSpaceOnUse" x1="2434.9500000000003" y1="293.15" x2="2345.35" y2="126.74999999999999" spreadMethod="pad">
<stop  offset="1.9607843137254901%" stop-color="#FFFFFF"/>

<stop  offset="99.2156862745098%" stop-color="#666666"/>
</linearGradient>

<linearGradient id="Gradient_41" gradientUnits="userSpaceOnUse" x1="1705.9" y1="693.9875" x2="1294.6999999999998" y2="407.8125" spreadMethod="pad">
<stop  offset="1.9607843137254901%" stop-color="#FFFFFF"/>

<stop  offset="99.2156862745098%" stop-color="#333333"/>
</linearGradient>

<linearGradient id="Gradient_42" gradientUnits="userSpaceOnUse" x1="2735.5874999999996" y1="1165.1" x2="2244.8125" y2="1076.1" spreadMethod="pad">
<stop  offset="1.9607843137254901%" stop-color="#FFFFFF"/>

<stop  offset="99.2156862745098%" stop-color="#666666"/>
</linearGradient>

<linearGradient id="Gradient_43" gradientUnits="userSpaceOnUse" x1="1497.1" y1="1205.2124999999999" x2="1176.1" y2="1487.8875" spreadMethod="pad">
<stop  offset="1.9607843137254901%" stop-color="#FFFFFF"/>

<stop  offset="99.2156862745098%" stop-color="#333333"/>
</linearGradient>

<image id="Bitmap_10" x="0" y="0" width="474" height="331" xlink:href="./images/Bitmap_10.png"/>

<g id="Layer2_0_FILL">
<path fill="#999999" stroke="none" d="
M 3734.25 962.85
Q 3733.9 955.3412109375 3730.7 949.95 3707.77109375 925.8830078125 3537.95 1038.4 3537.757421875 1038.5720703125 3537.55 1038.7 3487.5546875 1076.983203125 3456.55 1121.1 3625.5009765625 1012.855078125 3734.25 962.85 Z"/>

<path fill="url(#Gradient_1)" stroke="none" d="
M 2863.4 1098.65
Q 2822.7494140625 1016.6009765625 2814.8 1026.85 2822.7494140625 1016.6009765625 2863.4 1098.65 2938.63984375 1262.44296875 3247.65 1252.1 3580.7294921875 1147.0953125 3721.25 1008.1 3732.1359375 989.431640625 3733.9 970.75 3734.420703125 966.5458984375 3734.25 962.85 3625.5009765625 1012.855078125 3456.55 1121.1 3444.4578125 1138.412890625 3435.25 1156.6 3382.491796875 1173.7482421875 3349.7 1050.95 3382.491796875 1173.7482421875 3435.25 1156.6 3444.4578125 1138.412890625 3456.55 1121.1 3487.5546875 1076.983203125 3537.55 1038.7 3537.757421875 1038.5720703125 3537.95 1038.4 3566.656640625 1016.52421875 3601.6 996.55 3693.528515625 945.3943359375 3690.15 936.9 3694.09765625 893.121484375 3493.85 800.85 2765.1908203125 327.0361328125 1583.35 568.55 1044.5435546875 886.0458984375 669.45 687.7
L 183.45 455.45
Q 49.4876953125 400.1572265625 91.75 525.75 235.4333984375 1035.770703125 128.45 1378.55 87.230859375 1542.4732421875 238.45 1473.35 455.8712890625 1382.3984375 684.75 1222.7 774.366796875 1103.8107421875 1290 1161.55 1962.84453125 1518.7140625 2726.65 1375.5 3028.7330078125 1321.1470703125 3247.65 1252.1 2938.63984375 1262.44296875 2863.4 1098.65
M 2622.85 586.75
Q 2680.3966796875 577.6595703125 2741.65 586.75 2821.229296875 598.51171875 2790.2 602.25 2704.839453125 592.908203125 2645.6 602.25 2600.533984375 594.5 2622.85 586.75
M 2693.85 676.35
Q 2665.3443359375 677.76171875 2681.45 662.9 2728.65 651.75 2789.9 660.85 2869.5 672.6 2849.8 685.65 2753.1 667 2693.85 676.35
M 2610.35 683.75
Q 2699.538671875 693.5943359375 2620.95 710.5 2150.3197265625 702.784765625 1710.2 805.35 1103.95703125 904.584765625 737.45 879.6 675.3599609375 868.0556640625 732.7 860.65 1043.13125 884.794140625 1629.7 780.1 2158.7912109375 677.06015625 2463.5 683.95 2517.10859375 685.14296875 2610.35 683.75
M 2663.2 760.05
Q 2933.74375 787.43828125 2772.2 791.2 2249.1880859375 786.6703125 1806.65 862.8 1386.53671875 943.0283203125 783 968.55 609.65390625 961.222265625 719.55 943.8 1289.5751953125 933.0732421875 1859.6 825.45 2204.7220703125 766.5453125 2663.2 760.05
M 2658.75 929
Q 2799.244140625 949.084765625 2654.75 959.1 2382.483984375 944.569921875 2088.85 987.2 1685.2142578125 1059.7990234375 1464.8 1073.5 1377.707421875 1067.0837890625 1456.8 1053.45 1780.85 1020.85625 2104.9 957.1 2356.7078125 921.0623046875 2658.75 929
M 2634.9 849.95
Q 2905.8263671875 869.88984375 2663.7 878.8 2282.330078125 860.4685546875 1940.1 931.6 1614.1013671875 1014.8576171875 745.95 1042.05 600.64765625 1039.1650390625 741.15 1024.45 1543.9642578125 995.3931640625 1933.7 896.4 2281.7154296875 834.406640625 2634.9 849.95
M 3637.75 949.45
Q 3461.3013671875 1031.8560546875 3429 1128.35 3461.3013671875 1031.8560546875 3637.75 949.45
M 2572.15 571.35
Q 2298.6615234375 561.075 1991.7 599.65
L 1606.05 662.2
Q 1511.9568359375 673.790234375 1556.6 648.05
L 1930.1 586.45
Q 2214.8341796875 537.6666015625 2466.65 547.35 2718.525390625 557.087890625 2572.15 571.35
M 2565.35 636.6
Q 2357.324609375 628.2513671875 2112.15 657.55 1788.231640625 712.1345703125 1461 753.3 1082.1623046875 842.3576171875 747 809.8 677.5359375 797.8619140625 736 792.5 995.584375 833.6310546875 1462.6 725.05 1763.1015625 691.43671875 2088.8 634.05 2359.6896484375 600.2517578125 2592.55 615.2 2644.7080078125 631.941015625 2565.35 636.6
M 1666.55 1121.8
Q 1578.546484375 1123.48046875 1634.35 1107.3 1858.9357421875 1087.1822265625 2077.6 1049.3 2311.63984375 1015.243359375 2503.1 1013.85 2549.078515625 1029.765625 2482.15 1029.95 2299.2669921875 1029.758203125 1990.55 1079.9 1801.5376953125 1115.8462890625 1666.55 1121.8
M 201.7 498.3
Q 264.0095703125 527.043359375 317.7 557.55 258.1708984375 535.8 201.7 498.3
M 143.05 645.9
Q 238.425390625 671.5123046875 317.7 709.2 230.65 693.05 143.05 645.9
M 124.25 509.2
Q 215.3775390625 550.7103515625 301.5 595.7 233.7744140625 573.962109375 124.25 509.2
M 162.15 721
Q 266.24453125 741.99765625 355.85 774.85 245.65625 753.1806640625 162.15 721
M 131.65 581.85
Q 234.7443359375 617.219921875 333.55 660.85 237.080859375 636.5697265625 131.65 581.85
M 583.05 780.35
Q 499.0044921875 778.1638671875 154.6 619.25 367.4853515625 683.61953125 583.05 780.35
M 581.45 745
Q 506.8775390625 736.4275390625 129.1 540.3 347.9810546875 624.2416015625 581.45 745
M 572.35 704.65
Q 515.648828125 702.38203125 123.5 482.8 350.65 578.45 572.35 704.65
M 608.15 694.25
Q 587.4359375 699.8888671875 213.7 486 423.937109375 578.45234375 608.15 694.25
M 570.45 912.3
Q 570.6462890625 912.213671875 570.85 912.1 570.6462890625 912.213671875 570.45 912.3 570.6462890625 912.36328125 570.85 912.4 570.6462890625 912.36328125 570.45 912.3 494.8677734375 931.723046875 212.75 889.3 445.6703125 889.946875 570.45 912.3
M 570.85 944.1
Q 571.1509765625 944.13359375 571.45 944.15 571.1509765625 944.13359375 570.85 944.1 497.1 985.3 190 958.15 399.157421875 934.785546875 570.85 944.1
M 583.05 984.7
Q 509.312890625 1025.85625 201.6 1030.55 407.1125 993.098828125 583.05 984.7
M 626.65 1179.25
Q 447.9611328125 1372.3365234375 207.05 1469.35 366.5 1380.805078125 626.65 1179.25
M 207.05 1149.85
Q 299.9572265625 1117.2119140625 399.3 1095.3 311.825390625 1128.9306640625 207.05 1149.85
M 175.9 1307.45
Q 288.666796875 1247.9001953125 403.6 1201.15 294.815625 1268.6767578125 175.9 1307.45
M 592.9 1117.2
Q 503.0974609375 1223.7970703125 166.9 1345.55 335.55 1259.55 592.9 1117.2
M 178.6 1455.35
L 426.75 1308.8
Q 315.355859375 1401.096875 178.6 1455.35
M 153.5 1399.5
Q 260.727734375 1332.8904296875 376.4 1278.85 275.8380859375 1344.952734375 153.5 1399.5
M 190 1259.1
Q 363.967578125 1174.1572265625 581 1087 472.1705078125 1170.2865234375 190 1259.1
M 182.05 1225.65
Q 295.919140625 1178.6076171875 407.05 1141.15 297.6083984375 1199.2193359375 182.05 1225.65
M 192.25 853.25
Q 294.2 861.1763671875 396.15 878.5 271.7033203125 878.503125 192.25 853.25
M 205.65 924.2
Q 311.7 923.170703125 417.75 931.05 289.1 939.8248046875 205.65 924.2
M 196.8 994.75
Q 301.4982421875 985.380078125 408.85 987.95 289.1080078125 1004.0701171875 196.8 994.75
M 201.6 1072.1
Q 298.376171875 1051.3345703125 399.3 1040.75 291.7904296875 1069.116015625 201.6 1072.1
M 576.75 1054.1
Q 499.316796875 1113.85 190 1181.7 381.3123046875 1109.9302734375 576.75 1054.1
M 607.55 1150.7
Q 501.9076171875 1268.6841796875 150.75 1432.1
L 607.55 1150.7
M 575.15 1020.15
Q 514.1828125 1067.6765625 208.55 1108.5 394.841796875 1050.397265625 575.15 1020.15
M 564 877.3
Q 488.4 891.439453125 190.55 821.9 418.477734375 837.9943359375 564 877.3
M 158.9 682.4
Q 378.632421875 731.3923828125 582.85 815.15 489.7 823.3 158.9 682.4
M 191.55 787.8
Q 291.1671875 803.2619140625 383.2 830.1 271.7001953125 816.570703125 191.55 787.8
M 564.35 844.15
Q 489.7244140625 853.9423828125 178.65 751.15 395.7115234375 786.438671875 564.35 844.15 Z"/>

<path fill="#616F61" stroke="none" d="
M 178.65 751.15
Q 489.7244140625 853.9423828125 564.35 844.15 395.7115234375 786.438671875 178.65 751.15
M 383.2 830.1
Q 291.1671875 803.2619140625 191.55 787.8 271.7001953125 816.570703125 383.2 830.1
M 582.85 815.15
Q 378.632421875 731.3923828125 158.9 682.4 489.7 823.3 582.85 815.15
M 190.55 821.9
Q 488.4 891.439453125 564 877.3 418.477734375 837.9943359375 190.55 821.9
M 208.55 1108.5
Q 514.1828125 1067.6765625 575.15 1020.15 394.841796875 1050.397265625 208.55 1108.5
M 150.75 1432.1
Q 501.9076171875 1268.6841796875 607.55 1150.7
L 150.75 1432.1
M 190 1181.7
Q 499.316796875 1113.85 576.75 1054.1 381.3123046875 1109.9302734375 190 1181.7
M 399.3 1040.75
Q 298.376171875 1051.3345703125 201.6 1072.1 291.7904296875 1069.116015625 399.3 1040.75
M 408.85 987.95
Q 301.4982421875 985.380078125 196.8 994.75 289.1080078125 1004.0701171875 408.85 987.95
M 417.75 931.05
Q 311.7 923.170703125 205.65 924.2 289.1 939.8248046875 417.75 931.05
M 396.15 878.5
Q 294.2 861.1763671875 192.25 853.25 271.7033203125 878.503125 396.15 878.5
M 407.05 1141.15
Q 295.919140625 1178.6076171875 182.05 1225.65 297.6083984375 1199.2193359375 407.05 1141.15
M 581 1087
Q 363.967578125 1174.1572265625 190 1259.1 472.1705078125 1170.2865234375 581 1087
M 376.4 1278.85
Q 260.727734375 1332.8904296875 153.5 1399.5 275.8380859375 1344.952734375 376.4 1278.85
M 426.75 1308.8
L 178.6 1455.35
Q 315.355859375 1401.096875 426.75 1308.8
M 166.9 1345.55
Q 503.0974609375 1223.7970703125 592.9 1117.2 335.55 1259.55 166.9 1345.55
M 403.6 1201.15
Q 288.666796875 1247.9001953125 175.9 1307.45 294.815625 1268.6767578125 403.6 1201.15
M 399.3 1095.3
Q 299.9572265625 1117.2119140625 207.05 1149.85 311.825390625 1128.9306640625 399.3 1095.3
M 207.05 1469.35
Q 447.9611328125 1372.3365234375 626.65 1179.25 366.5 1380.805078125 207.05 1469.35
M 201.6 1030.55
Q 509.312890625 1025.85625 583.05 984.7 407.1125 993.098828125 201.6 1030.55
M 570.85 944.1
Q 399.157421875 934.785546875 190 958.15 497.1 985.3 570.85 944.1
M 212.75 889.3
Q 494.8677734375 931.723046875 570.45 912.3 445.6703125 889.946875 212.75 889.3
M 213.7 486
Q 587.4359375 699.8888671875 608.15 694.25 423.937109375 578.45234375 213.7 486
M 123.5 482.8
Q 515.648828125 702.38203125 572.35 704.65 350.65 578.45 123.5 482.8
M 129.1 540.3
Q 506.8775390625 736.4275390625 581.45 745 347.9810546875 624.2416015625 129.1 540.3
M 154.6 619.25
Q 499.0044921875 778.1638671875 583.05 780.35 367.4853515625 683.61953125 154.6 619.25
M 333.55 660.85
Q 234.7443359375 617.219921875 131.65 581.85 237.080859375 636.5697265625 333.55 660.85
M 355.85 774.85
Q 266.24453125 741.99765625 162.15 721 245.65625 753.1806640625 355.85 774.85
M 301.5 595.7
Q 215.3775390625 550.7103515625 124.25 509.2 233.7744140625 573.962109375 301.5 595.7
M 317.7 709.2
Q 238.425390625 671.5123046875 143.05 645.9 230.65 693.05 317.7 709.2
M 317.7 557.55
Q 264.0095703125 527.043359375 201.7 498.3 258.1708984375 535.8 317.7 557.55 Z"/>

<path fill="#333333" stroke="none" d="
M 1634.35 1107.3
Q 1578.546484375 1123.48046875 1666.55 1121.8 1801.5376953125 1115.8462890625 1990.55 1079.9 2299.2669921875 1029.758203125 2482.15 1029.95 2549.078515625 1029.765625 2503.1 1013.85 2311.63984375 1015.243359375 2077.6 1049.3 1858.9357421875 1087.1822265625 1634.35 1107.3
M 2112.15 657.55
Q 2357.324609375 628.2513671875 2565.35 636.6 2644.7080078125 631.941015625 2592.55 615.2 2359.6896484375 600.2517578125 2088.8 634.05 1763.1015625 691.43671875 1462.6 725.05 995.584375 833.6310546875 736 792.5 677.5359375 797.8619140625 747 809.8 1082.1623046875 842.3576171875 1461 753.3 1788.231640625 712.1345703125 2112.15 657.55
M 1991.7 599.65
Q 2298.6615234375 561.075 2572.15 571.35 2718.525390625 557.087890625 2466.65 547.35 2214.8341796875 537.6666015625 1930.1 586.45
L 1556.6 648.05
Q 1511.9568359375 673.790234375 1606.05 662.2
L 1991.7 599.65
M 2663.7 878.8
Q 2905.8263671875 869.88984375 2634.9 849.95 2281.7154296875 834.406640625 1933.7 896.4 1543.9642578125 995.3931640625 741.15 1024.45 600.64765625 1039.1650390625 745.95 1042.05 1614.1013671875 1014.8576171875 1940.1 931.6 2282.330078125 860.4685546875 2663.7 878.8
M 2654.75 959.1
Q 2799.244140625 949.084765625 2658.75 929 2356.7078125 921.0623046875 2104.9 957.1 1780.85 1020.85625 1456.8 1053.45 1377.707421875 1067.0837890625 1464.8 1073.5 1685.2142578125 1059.7990234375 2088.85 987.2 2382.483984375 944.569921875 2654.75 959.1
M 2772.2 791.2
Q 2933.74375 787.43828125 2663.2 760.05 2204.7220703125 766.5453125 1859.6 825.45 1289.5751953125 933.0732421875 719.55 943.8 609.65390625 961.222265625 783 968.55 1386.53671875 943.0283203125 1806.65 862.8 2249.1880859375 786.6703125 2772.2 791.2
M 2620.95 710.5
Q 2699.538671875 693.5943359375 2610.35 683.75 2517.10859375 685.14296875 2463.5 683.95 2158.7912109375 677.06015625 1629.7 780.1 1043.13125 884.794140625 732.7 860.65 675.3599609375 868.0556640625 737.45 879.6 1103.95703125 904.584765625 1710.2 805.35 2150.3197265625 702.784765625 2620.95 710.5
M 2681.45 662.9
Q 2665.3443359375 677.76171875 2693.85 676.35 2753.1 667 2849.8 685.65 2869.5 672.6 2789.9 660.85 2728.65 651.75 2681.45 662.9
M 2741.65 586.75
Q 2680.3966796875 577.6595703125 2622.85 586.75 2600.533984375 594.5 2645.6 602.25 2704.839453125 592.908203125 2790.2 602.25 2821.229296875 598.51171875 2741.65 586.75 Z"/>
</g>

<g id="Layer1_0_FILL">
<path fill="#BEA47A" stroke="none" d="
M 3399.85 889.85
Q 3399.85 863.55 3381.3 845.05 3362.7 826.5 3336.45 826.5 3310.15 826.5 3291.65 845.05 3273.1 863.55 3273.1 889.85 3273.1 916.1 3291.65 934.7 3310.15 953.25 3336.45 953.25 3341.541796875 953.25 3346.35 952.55 3364.10703125 947.2744140625 3378.2 933.15 3396.212890625 915.1771484375 3399.8 891.25 3399.85 890.546875 3399.85 889.85
M 3336.4 861.95
Q 3349.2 861.95 3358.3 871 3367.35 880.05 3367.35 892.9 3367.35 905.7 3358.3 914.8 3349.2 923.85 3336.4 923.85 3323.55 923.85 3314.5 914.8 3305.45 905.7 3305.45 892.9 3305.45 880.05 3314.5 871 3323.55 861.95 3336.4 861.95 Z"/>

<path fill="#000000" stroke="none" d="
M 3358.3 871
Q 3349.2 861.95 3336.4 861.95 3323.55 861.95 3314.5 871 3305.45 880.05 3305.45 892.9 3305.45 905.7 3314.5 914.8 3323.55 923.85 3336.4 923.85 3349.2 923.85 3358.3 914.8 3367.35 905.7 3367.35 892.9 3367.35 880.05 3358.3 871
M 3399.8 891.25
Q 3396.212890625 915.1771484375 3378.2 933.15 3364.10703125 947.2744140625 3346.35 952.55 3366.3078125 949.651953125 3381.3 934.7 3399.357421875 916.59375 3399.8 891.25 Z"/>

<path fill="#333333" stroke="none" d="
M 3381.3 845.05
Q 3399.85 863.55 3399.85 889.85 3399.85 890.546875 3399.8 891.25 3400.75 885.208203125 3400.75 878.8 3400.75 846.95 3378.2 824.4 3355.7 801.9 3323.85 801.9 3292.0005859375 801.9025390625 3273.6 827 3255.2478515625 852.1421875 3259.5 886.65 3263.751953125 921.1576171875 3277.85 938.4 3291.99921875 955.697265625 3323.85 955.7 3335.7505859375 955.7 3346.35 952.55 3341.541796875 953.25 3336.45 953.25 3310.15 953.25 3291.65 934.7 3273.1 916.1 3273.1 889.85 3273.1 863.55 3291.65 845.05 3310.15 826.5 3336.45 826.5 3362.7 826.5 3381.3 845.05 Z"/>
</g>

<g id="Layer0_0_FILL">
<path fill="url(#Gradient_2)" stroke="none" d="
M 2581.35 1363
L 2581.3 1363
Q 2454.086328125 1421.0107421875 2344.1 1499.65 2340.93046875 1509.635546875 2340.85 1519.8 2453.7373046875 1434.110546875 2590.5 1362.05 2586.0001953125 1362.4744140625 2581.35 1363 Z"/>

<path fill="url(#Gradient_3)" stroke="none" d="
M 2581.3 1363
Q 2574.138671875 1363.8185546875 2566.65 1364.85 2452.684765625 1415.74140625 2355.7 1476.85 2347.8271484375 1488.1330078125 2344.1 1499.65 2454.086328125 1421.0107421875 2581.3 1363 Z"/>

<path fill="url(#Gradient_4)" stroke="none" d="
M 2340.85 1519.8
Q 2340.7572265625 1529.75234375 2343.65 1539.9 2459.223046875 1441.908203125 2602.25 1361.1 2596.4970703125 1361.4880859375 2590.5 1362.05 2453.7373046875 1434.110546875 2340.85 1519.8 Z"/>

<path fill="url(#Gradient_5)" stroke="none" d="
M 2560.3 1365.8
Q 2555.22421875 1366.5728515625 2550 1367.45 2443.6751953125 1402.7736328125 2391.4 1441.7 2472.91640625 1397.7712890625 2560.3 1365.8 Z"/>

<path fill="url(#Gradient_6)" stroke="none" d="
M 2566.65 1364.85
Q 2563.5083984375 1365.3173828125 2560.3 1365.8 2472.91640625 1397.7712890625 2391.4 1441.7 2368.251171875 1458.9341796875 2355.7 1476.85 2452.684765625 1415.74140625 2566.65 1364.85 Z"/>

<path fill="url(#Gradient_7)" stroke="none" d="
M 2639.3 1644.6
Q 2665.70546875 1649.5033203125 2690.65 1512.65
L 2639.3 1644.6 Z"/>

<path fill="url(#Gradient_8)" stroke="none" d="
M 2602.35 1678.5
Q 2607.681640625 1656.25390625 2613.5 1645
L 2516.05 1814.35
Q 2522.173046875 1818.97734375 2528.45 1823.25 2572.1333984375 1775.504296875 2602.35 1678.5 Z"/>

<path fill="url(#Gradient_9)" stroke="none" d="
M 2707.35 1403.75
Q 2709.019921875 1391.401171875 2710.65 1378.4 2597.51015625 1590.3203125 2469.1 1771.9 2476.8861328125 1780.2671875 2484.95 1787.95 2600.8439453125 1614.4982421875 2707.35 1403.75 Z"/>

<path fill="url(#Gradient_10)" stroke="none" d="
M 2690.65 1512.65
Q 2694.7705078125 1490.06171875 2698.85 1463.6
L 2627.3 1633.65
Q 2633.1076171875 1634.7021484375 2639.3 1644.6
L 2690.65 1512.65 Z"/>

<path fill="url(#Gradient_11)" stroke="none" d="
M 2698.85 1463.6
Q 2701.184765625 1448.50625 2703.5 1432.15 2615.9359375 1630.9236328125 2501.3 1802.6 2508.561328125 1808.7466796875 2516.05 1814.35
L 2613.5 1645
Q 2614.4986328125 1643.1560546875 2615.45 1641.6 2621.166796875 1632.59296875 2627.3 1633.65
L 2698.85 1463.6 Z"/>

<path fill="url(#Gradient_12)" stroke="none" d="
M 2703.5 1432.15
Q 2705.4396484375 1418.4025390625 2707.35 1403.75 2600.8439453125 1614.4982421875 2484.95 1787.95 2492.980859375 1795.617578125 2501.3 1802.6 2615.9359375 1630.9236328125 2703.5 1432.15 Z"/>

<path fill="url(#Gradient_13)" stroke="none" d="
M 2678.6 1365.75
Q 2674.40234375 1364.7345703125 2669.95 1363.9
L 2400.65 1675.4
Q 2406.5759765625 1686.1759765625 2412.7 1696.35
L 2678.6 1365.75 Z"/>

<path fill="url(#Gradient_14)" stroke="none" d="
M 2710.65 1378.4
Q 2706.9134765625 1376.17421875 2702.8 1374.2 2582.45234375 1580.4169921875 2453 1753.5 2460.908984375 1763.090625 2469.1 1771.9 2597.51015625 1590.3203125 2710.65 1378.4 Z"/>

<path fill="url(#Gradient_15)" stroke="none" d="
M 2702.8 1374.2
Q 2698.693359375 1372.2451171875 2694.2 1370.55
L 2440.35 1737.4
Q 2446.5732421875 1745.7080078125 2453 1753.5 2582.45234375 1580.4169921875 2702.8 1374.2 Z"/>

<path fill="url(#Gradient_16)" stroke="none" d="
M 2694.2 1370.55
Q 2690.5388671875 1369.167578125 2686.65 1367.95
L 2426.25 1717.55
Q 2433.1623046875 1727.8150390625 2440.35 1737.4
L 2694.2 1370.55 Z"/>

<path fill="url(#Gradient_17)" stroke="none" d="
M 2686.65 1367.95
Q 2682.7392578125 1366.76328125 2678.6 1365.75
L 2412.7 1696.35
Q 2419.3451171875 1707.29140625 2426.25 1717.55
L 2686.65 1367.95 Z"/>

<path fill="url(#Gradient_18)" stroke="none" d="
M 2635 1360.35
Q 2631.11171875 1360.255859375 2627.1 1360.25 2485.2576171875 1472.292578125 2360.5 1587.85 2363.3837890625 1595.320703125 2366.3 1602.55
L 2635 1360.35 Z"/>

<path fill="url(#Gradient_19)" stroke="none" d="
M 2669.95 1363.9
Q 2665.5384765625 1363.0646484375 2660.85 1362.4
L 2387.95 1650.95
Q 2394.1556640625 1663.5298828125 2400.65 1675.4
L 2669.95 1363.9 Z"/>

<path fill="url(#Gradient_20)" stroke="none" d="
M 2660.85 1362.4
Q 2656.6875 1361.846484375 2652.3 1361.4
L 2379.4 1632.9
Q 2383.6015625 1642.1041015625 2387.95 1650.95
L 2660.85 1362.4 Z"/>

<path fill="url(#Gradient_21)" stroke="none" d="
M 2652.3 1361.4
Q 2648.1314453125 1361.0126953125 2643.8 1360.75 2515.0755859375 1491.19140625 2372.9 1618.3 2376.1201171875 1625.7267578125 2379.4 1632.9
L 2652.3 1361.4 Z"/>

<path fill="url(#Gradient_22)" stroke="none" d="
M 2643.8 1360.75
Q 2639.48203125 1360.498828125 2635 1360.35
L 2366.3 1602.55
Q 2369.5677734375 1610.5611328125 2372.9 1618.3 2515.0755859375 1491.19140625 2643.8 1360.75 Z"/>

<path fill="url(#Gradient_23)" stroke="none" d="
M 2627.1 1360.25
Q 2622.6576171875 1360.231640625 2618.05 1360.35 2476.244921875 1467.0375 2355.2 1573.7 2357.8341796875 1580.887109375 2360.5 1587.85 2485.2576171875 1472.292578125 2627.1 1360.25 Z"/>

<path fill="url(#Gradient_24)" stroke="none" d="
M 2618.05 1360.35
Q 2614.3708984375 1360.4505859375 2610.6 1360.6 2468.3140625 1451.18203125 2350 1558.95 2352.575390625 1566.437109375 2355.2 1573.7 2476.244921875 1467.0375 2618.05 1360.35 Z"/>

<path fill="url(#Gradient_25)" stroke="none" d="
M 2610.6 1360.6
Q 2606.4791015625 1360.8154296875 2602.25 1361.1 2459.223046875 1441.908203125 2343.65 1539.9 2346.7658203125 1549.569921875 2350 1558.95 2468.3140625 1451.18203125 2610.6 1360.6 Z"/>

<path fill="url(#Gradient_26)" stroke="none" d="
M 2555.1 496.5
Q 2563.0375 497.088671875 2570.95 497.7 2569.785546875 439.0287109375 2564.7 425.65 2553.1671875 405.6255859375 2534.7 318.05 2556.1216796875 430.11484375 2555.1 496.5 Z"/>

<path fill="url(#Gradient_27)" stroke="none" d="
M 2534.7 318.05
Q 2526.8763671875 387.5607421875 2504.45 336 2528.15546875 405.34296875 2534.8 495.1 2544.9654296875 495.7888671875 2555.1 496.5 2556.1216796875 430.11484375 2534.7 318.05 Z"/>

<path fill="url(#Gradient_28)" stroke="none" d="
M 2398.9 489
Q 2427.7923828125 489.6978515625 2456.7 490.9 2420.921484375 327.998046875 2273.65 91.8 2332.4998046875 266.3267578125 2173.95 147.15 2343.951953125 309.929296875 2398.9 489 Z"/>

<path fill="url(#Gradient_29)" stroke="none" d="
M 2279.65 488.3
Q 2294.781640625 488.1119140625 2309.9 488.05 2247.3556640625 366.348828125 2102.75 240.5 2211.517578125 357.07265625 2279.65 488.3 Z"/>

<path fill="url(#Gradient_30)" stroke="none" d="
M 2366.45 488.35
Q 2382.6859375 488.60546875 2398.9 489 2343.951953125 309.929296875 2173.95 147.15 2312.224609375 309.0388671875 2366.45 488.35 Z"/>

<path fill="url(#Gradient_31)" stroke="none" d="
M 2456.7 490.9
Q 2471.6357421875 491.5275390625 2486.55 492.3 2413.4828125 251.973828125 2273.65 91.8 2420.921484375 327.998046875 2456.7 490.9 Z"/>

<path fill="url(#Gradient_32)" stroke="none" d="
M 2579 412.95
Q 2574.1921875 442.102734375 2564.7 425.65 2569.785546875 439.0287109375 2570.95 497.7 2583.7490234375 498.66875 2596.55 499.75
L 2579 412.95 Z"/>

<path fill="url(#Gradient_33)" stroke="none" d="
M 1961.95 419.3
Q 2040.6478515625 453.77734375 2091.45 496.2 2132.409375 493.2923828125 2173.45 491.4 2126.348046875 421.468359375 2028.4 325.95 2076.818359375 440.446875 1961.95 419.3 Z"/>

<path fill="url(#Gradient_34)" stroke="none" d="
M 2062.05 498.45
Q 2046.297265625 472.57734375 1961.95 419.3 2027.7361328125 512.973046875 1911.3 493.7 1944.984765625 508.64296875 1935.2 511.25 1998.5189453125 503.590234375 2062.05 498.45 Z"/>

<path fill="url(#Gradient_35)" stroke="none" d="
M 2062.05 498.45
Q 2076.7443359375 497.2638671875 2091.45 496.2 2040.6478515625 453.77734375 1961.95 419.3 2046.297265625 472.57734375 2062.05 498.45 Z"/>

<path fill="url(#Gradient_36)" stroke="none" d="
M 2173.45 491.4
Q 2187.6251953125 490.75234375 2201.8 490.2 2131.0970703125 405.774609375 2028.4 325.95 2126.348046875 421.468359375 2173.45 491.4 Z"/>

<path fill="url(#Gradient_37)" stroke="none" d="
M 2173.95 147.15
Q 2212.8140625 280.6341796875 2102.75 240.5 2247.3556640625 366.348828125 2309.9 488.05 2338.154296875 487.9748046875 2366.45 488.35 2312.224609375 309.0388671875 2173.95 147.15 Z"/>

<path fill="url(#Gradient_38)" stroke="none" d="
M 2102.75 240.5
Q 2147.99375 350.3953125 2028.4 325.95 2131.0970703125 405.774609375 2201.8 490.2 2240.6931640625 488.7970703125 2279.65 488.3 2211.517578125 357.07265625 2102.75 240.5 Z"/>

<path fill="url(#Gradient_39)" stroke="none" d="
M 2504.45 336
Q 2495.5359375 315.447265625 2484.05 278.5 2451.6013671875 197.4802734375 2401.8 128.15 2493.1212890625 306.844140625 2514.1 493.8 2524.4515625 494.4400390625 2534.8 495.1 2528.15546875 405.34296875 2504.45 336 Z"/>

<path fill="url(#Gradient_40)" stroke="none" d="
M 2401.8 128.15
Q 2378.6134765625 200.9814453125 2273.65 91.8 2413.4828125 251.973828125 2486.55 492.3 2500.3375 493.0013671875 2514.1 493.8 2493.1212890625 306.844140625 2401.8 128.15 Z"/>

<path fill="#000000" stroke="none" d="
M 3243.75 803.35
L 3292.95 727.55
Q 3266.9310546875 762.3814453125 3074.55 764.85 2971.928125 622.241796875 2754.05 950.55 2996.81796875 603.61953125 3081.45 803.35 3157.3796875 727.6068359375 3243.75 803.35
M 2811.4 1074.85
Q 2808.438671875 1067.8056640625 2800.5 1060.05 2787.228125 1054.0826171875 2774.15 1048.6 2585.6185546875 969.98515625 2437.5 997.8 2590.0875 986.4630859375 2739.45 1043.4 2762.601953125 1052.20859375 2785.65 1062.65 2798.5369140625 1068.4962890625 2811.4 1074.85 Z"/>

<path fill="#616F61" stroke="none" d="
M 1822.6 526.4
Q 1852.6451171875 522.0509765625 1883 517.85 1858.70546875 515.5109375 1839.3 500.95
L 1635.65 301.65
Q 1785.4130859375 461.27421875 1822.6 526.4
M 1321 595.8
Q 1310.2 585.3 1274.55 586.3 1302.35 598.1 1321 595.8
M 1286.35 636.3
Q 1267.7 628.05 1239.9 629.6 1259.85 640.85 1286.35 636.3
M 1477.95 405.55
Q 1447.05 372.1 1405.85 350.25 1439 387.35 1477.95 405.55
M 1347.95 442.8
Q 1379.24375 482.447265625 1422.85 489.2 1392.5099609375 462.9919921875 1347.95 442.8
M 1384.65 524.75
Q 1364.35 508.6 1333.2 502.35 1356.4970703125 521.3771484375 1384.65 524.75
M 1366.35 397.55
Q 1410.6595703125 438.0138671875 1455.2 455.1 1418.7 422.75 1366.35 397.55
M 1308 546.5
Q 1334.65 562.75 1360.55 561.05 1342.5 549.95 1308 546.5
M 1529.65 300.85
Q 1497.6 265.7 1443.55 227.65 1489.55 280.95 1529.65 300.85
M 1506.1 349.65
Q 1475.2 320.1 1426.75 287.6 1467.15 335.35 1506.1 349.65
M 1477.95 199.3
Q 1520.125 221.894140625 1562.3 265.8 1536.6931640625 215.912109375 1477.95 199.3
M 1684.4 549.3
Q 1698.33203125 546.783984375 1712 544.4 1512.9294921875 351.4041015625 1437.3 335.55 1495 410.55 1684.4 549.3
M 1739.1 539.75
Q 1753.459375 537.3775390625 1767.95 535.05 1614.5998046875 359.171875 1467.3 283.45 1529.1 370.75 1739.1 539.75
M 1628 559.65
Q 1644.0658203125 556.6287109375 1659.95 553.75 1521.623046875 431.128515625 1401.75 394.15 1466.3 458.2 1628 559.65
M 1801.25 529.8
Q 1812.0060546875 528.1453125 1822.6 526.4 1631.46171875 319.4525390625 1528.4 268.05 1580.4134765625 343.270703125 1801.25 529.8
M 1483.6 625.1
Q 1393.733203125 587.1162109375 1314.4 573.05 1342.1 600.7 1455.4 639.3 1469.5072265625 632.4087890625 1483.6 625.1
M 1560.85 582.2
Q 1461.8359375 506.8427734375 1359 481.25 1397.5947265625 526.19453125 1534.65 597.4 1547.74921875 589.981640625 1560.85 582.2
M 1498.2 617.45
Q 1509.9330078125 611.2349609375 1521.65 604.7 1440.4205078125 555.4626953125 1340.75 530.4 1369.8 560.3419921875 1498.2 617.45
M 1357.85 682.1
Q 1374.24765625 675.7291015625 1390.65 668.8 1323.1982421875 645.62734375 1241.4 654.8 1270.4349609375 672.87890625 1357.85 682.1
M 1407.9 661.35
Q 1421.4462890625 655.3916015625 1434.95 649.05 1344.817578125 615.73125 1277.2 609.75 1296.697265625 633.2966796875 1407.9 661.35
M 1584.6 569.8
Q 1594.0134765625 566.383984375 1604.1 564.4 1508.8880859375 484.530859375 1396.2 446.8 1432.1 486.3 1571.75 575.65 1577.5484375 572.133203125 1584.6 569.8
M 2763.15 1070.5
Q 2661.3693359375 1035.1669921875 2580.5 1032.55
L 2763.15 1070.5
M 2753.45 1086.35
Q 2642.417578125 1059.3794921875 2544.3 1056.35 2637.532421875 1073.828515625 2753.45 1086.35
M 2746.4 1099.6
Q 2650.65546875 1084.7232421875 2551.35 1088.15 2645.5736328125 1100.4791015625 2746.4 1099.6
M 2740.2 1115.5
Q 2647.5 1101.675390625 2551.35 1115.5
L 2740.2 1115.5
M 2733.15 1128.7
Q 2638.3474609375 1120.2978515625 2571.65 1140.2
L 2733.15 1128.7
M 2734.05 1142.85
Q 2664.0345703125 1144.356640625 2600.8 1162.25 2666.9359375 1156.3146484375 2734.05 1142.85
M 2740.1 1176.65
Q 2730.3541015625 1178.139453125 2698.4 1184.8 2666.43984375 1191.505078125 2631.55 1205.6 2687.2513671875 1195.8578125 2740.1 1176.65
M 2671.2 1165.95
Q 2643.95859375 1171.537109375 2617.55 1180.8
L 2737.55 1157.85
Q 2703.7759765625 1159.2814453125 2671.2 1165.95
M 1280.75 1380.1
Q 1314.8 1372.35 1337.55 1335.3
L 1280.75 1380.1
M 1253.7 1346.25
Q 1278.38046875 1346.18671875 1301.9 1316.05
L 1253.7 1346.25
M 1593.65 1283.4
L 1418.6 1598.1
Q 1522.5474609375 1493.612890625 1593.65 1283.4
M 1278.5 1355.6
Q 1394.4 1293.1 1429.1 1216 1352.5 1283.4 1278.5 1355.6
M 1257 1321
Q 1363.2 1271.4 1394.7 1201.8 1321.3 1261.7 1257 1321
M 1220.7 1286.2
Q 1325.8 1264.55 1353.25 1193.95 1271.9515625 1244.8466796875 1220.7 1286.2
M 1181.2 1259.25
Q 1285.4435546875 1237.9736328125 1319.1 1177.75
L 1181.2 1259.25
M 1275.7 1182.5
Q 1170.4478515625 1202.5126953125 1155.4 1212.6 1211.0236328125 1222.6833984375 1275.7 1182.5
M 1120.75 1192.1
Q 1141.5 1203.6 1181 1190.3 1138.4173828125 1186.168359375 1120.75 1192.1
M 1268.9 1285.85
Q 1244.8 1293.1712890625 1222.45 1310.85 1243.7435546875 1309.276953125 1268.9 1285.85
M 1237.9 1253.85
Q 1213.8 1261.15 1193.2 1272.8 1212.75 1277.3 1237.9 1253.85
M 1207.7 1225.65
Q 1183.6 1227.44921875 1154.35 1239.45 1173.358203125 1241.49921875 1207.7 1225.65
M 1368.55 1368.9
Q 1326.4470703125 1404.9685546875 1318.6 1418.9 1345.784765625 1405.95546875 1368.55 1368.9
M 1605.65 1358.6
Q 1551.7572265625 1424.766015625 1558.4 1478.9 1584.06640625 1450.05078125 1605.65 1358.6
M 1556.6 1270
L 1383.7 1549.25
Q 1485.5 1473.75 1556.6 1270
M 1364 1497.2
Q 1446.45 1450.7 1525.1 1251.25
L 1364 1497.2
M 1311.35 1394.15
Q 1418.65 1319.8 1449.05 1238.4 1376.75 1310.1 1311.35 1394.15
M 1350 1416.65
Q 1455.1611328125 1336.9611328125 1486.45 1241.6 1413.25859375 1327.2673828125 1350 1416.65
M 1347 1476.15
Q 1382.7732421875 1445.04453125 1405.55 1394.35 1365.49453125 1443.6705078125 1347 1476.15
M 1417.6 1467.55
Q 1389.6474609375 1484.123828125 1373.7 1521.75 1403.0498046875 1494.6501953125 1417.6 1467.55
M 1451.15 1508
Q 1410.8791015625 1539.2935546875 1393.5 1583.75 1428.3224609375 1548.9171875 1451.15 1508 Z"/>

<path fill="url(#Gradient_41)" stroke="none" d="
M 1562.15 229.7
Q 1450.8294921875 138.640234375 1425.5 229.7 1335.2783203125 475.6435546875 1207.7 631.6 1110.1125 742.175 1339.95 688.95 1348.905859375 685.6173828125 1357.85 682.1 1270.4349609375 672.87890625 1241.4 654.8 1323.1982421875 645.62734375 1390.65 668.8 1399.2857421875 665.1458984375 1407.9 661.35 1296.697265625 633.2966796875 1277.2 609.75 1344.817578125 615.73125 1434.95 649.05 1445.189453125 644.2935546875 1455.4 639.3 1342.1 600.7 1314.4 573.05 1393.733203125 587.1162109375 1483.6 625.1 1490.90546875 621.348828125 1498.2 617.45 1369.8 560.3419921875 1340.75 530.4 1440.4205078125 555.4626953125 1521.65 604.7 1528.155078125 601.1162109375 1534.65 597.4 1397.5947265625 526.19453125 1359 481.25 1461.8359375 506.8427734375 1560.85 582.2 1566.2984375 578.954296875 1571.75 575.65 1432.1 486.3 1396.2 446.8 1508.8880859375 484.530859375 1604.1 564.4 1616.2451171875 561.98125 1628 559.65 1466.3 458.2 1401.75 394.15 1521.623046875 431.128515625 1659.95 553.75 1673.1521484375 551.2595703125 1684.4 549.3 1495 410.55 1437.3 335.55 1512.9294921875 351.4041015625 1712 544.4 1725.682421875 542.0212890625 1739.1 539.75 1529.1 370.75 1467.3 283.45 1614.5998046875 359.171875 1767.95 535.05 1784.5181640625 532.38203125 1801.25 529.8 1580.4134765625 343.270703125 1528.4 268.05 1631.46171875 319.4525390625 1822.6 526.4 1785.4130859375 461.27421875 1635.65 301.65
L 1562.15 229.7
M 1562.3 265.8
Q 1520.125 221.894140625 1477.95 199.3 1536.6931640625 215.912109375 1562.3 265.8
M 1426.75 287.6
Q 1475.2 320.1 1506.1 349.65 1467.15 335.35 1426.75 287.6
M 1443.55 227.65
Q 1497.6 265.7 1529.65 300.85 1489.55 280.95 1443.55 227.65
M 1360.55 561.05
Q 1334.65 562.75 1308 546.5 1342.5 549.95 1360.55 561.05
M 1455.2 455.1
Q 1410.6595703125 438.0138671875 1366.35 397.55 1418.7 422.75 1455.2 455.1
M 1333.2 502.35
Q 1364.35 508.6 1384.65 524.75 1356.4970703125 521.3771484375 1333.2 502.35
M 1422.85 489.2
Q 1379.24375 482.447265625 1347.95 442.8 1392.5099609375 462.9919921875 1422.85 489.2
M 1405.85 350.25
Q 1447.05 372.1 1477.95 405.55 1439 387.35 1405.85 350.25
M 1239.9 629.6
Q 1267.7 628.05 1286.35 636.3 1259.85 640.85 1239.9 629.6
M 1274.55 586.3
Q 1310.2 585.3 1321 595.8 1302.35 598.1 1274.55 586.3 Z"/>

<path fill="url(#Gradient_42)" stroke="none" d="
M 2813.1 1084.75
Q 2813.5771484375 1079.994140625 2811.4 1074.85 2798.5369140625 1068.4962890625 2785.65 1062.65 2762.601953125 1052.20859375 2739.45 1043.4 2590.0875 986.4630859375 2437.5 997.8 2419.3447265625 1001.2390625 2401.8 1006.25 2321.2162109375 1027.3494140625 2335.35 1093.25 2552.226171875 1365.884375 2769.1 1234 2776.0822265625 1229.7515625 2783.05 1225.05 2790.2072265625 1220.311328125 2797.35 1215.1 2788.7201171875 1208.284765625 2781.7 1201.75 2771.7859375 1192.44375 2765.15 1183.7 2764.730078125 1183.1109375 2764.3 1182.5 2758.0328125 1173.971875 2754.95 1165.95 2754.9421875 1165.8375 2754.9 1165.7 2751.418359375 1156.478515625 2752.2 1147.95 2752.85859375 1141.2515625 2756.15 1135 2759.673828125 1128.2744140625 2766.25 1122.05 2772.725 1115.9658203125 2782.15 1110.35 2791.6146484375 1104.7265625 2804.05 1099.6 2812.2892578125 1092.713671875 2813.1 1084.75
M 2617.55 1180.8
Q 2643.95859375 1171.537109375 2671.2 1165.95 2703.7759765625 1159.2814453125 2737.55 1157.85
L 2617.55 1180.8
M 2698.4 1184.8
Q 2730.3541015625 1178.139453125 2740.1 1176.65 2687.2513671875 1195.8578125 2631.55 1205.6 2666.43984375 1191.505078125 2698.4 1184.8
M 2600.8 1162.25
Q 2664.0345703125 1144.356640625 2734.05 1142.85 2666.9359375 1156.3146484375 2600.8 1162.25
M 2571.65 1140.2
Q 2638.3474609375 1120.2978515625 2733.15 1128.7
L 2571.65 1140.2
M 2551.35 1115.5
Q 2647.5 1101.675390625 2740.2 1115.5
L 2551.35 1115.5
M 2551.35 1088.15
Q 2650.65546875 1084.7232421875 2746.4 1099.6 2645.5736328125 1100.4791015625 2551.35 1088.15
M 2544.3 1056.35
Q 2642.417578125 1059.3794921875 2753.45 1086.35 2637.532421875 1073.828515625 2544.3 1056.35
M 2580.5 1032.55
Q 2661.3693359375 1035.1669921875 2763.15 1070.5
L 2580.5 1032.55 Z"/>

<path fill="url(#Gradient_43)" stroke="none" d="
M 1290 1161.55
Q 1249.8333984375 1173.1302734375 1134.8 1170.6 1064.2529296875 1172.7369140625 1104.85 1219.75 1274.099609375 1365.2134765625 1355.1 1584.9 1374.8732421875 1686.3255859375 1475.4 1603.25 1608.4068359375 1475.666015625 1705.75 1331.9 1531.1306640625 1213.5640625 1290 1161.55
M 1393.5 1583.75
Q 1410.8791015625 1539.2935546875 1451.15 1508 1428.3224609375 1548.9171875 1393.5 1583.75
M 1373.7 1521.75
Q 1389.6474609375 1484.123828125 1417.6 1467.55 1403.0498046875 1494.6501953125 1373.7 1521.75
M 1405.55 1394.35
Q 1382.7732421875 1445.04453125 1347 1476.15 1365.49453125 1443.6705078125 1405.55 1394.35
M 1486.45 1241.6
Q 1455.1611328125 1336.9611328125 1350 1416.65 1413.25859375 1327.2673828125 1486.45 1241.6
M 1449.05 1238.4
Q 1418.65 1319.8 1311.35 1394.15 1376.75 1310.1 1449.05 1238.4
M 1525.1 1251.25
Q 1446.45 1450.7 1364 1497.2
L 1525.1 1251.25
M 1383.7 1549.25
L 1556.6 1270
Q 1485.5 1473.75 1383.7 1549.25
M 1558.4 1478.9
Q 1551.7572265625 1424.766015625 1605.65 1358.6 1584.06640625 1450.05078125 1558.4 1478.9
M 1318.6 1418.9
Q 1326.4470703125 1404.9685546875 1368.55 1368.9 1345.784765625 1405.95546875 1318.6 1418.9
M 1154.35 1239.45
Q 1183.6 1227.44921875 1207.7 1225.65 1173.358203125 1241.49921875 1154.35 1239.45
M 1193.2 1272.8
Q 1213.8 1261.15 1237.9 1253.85 1212.75 1277.3 1193.2 1272.8
M 1222.45 1310.85
Q 1244.8 1293.1712890625 1268.9 1285.85 1243.7435546875 1309.276953125 1222.45 1310.85
M 1181 1190.3
Q 1141.5 1203.6 1120.75 1192.1 1138.4173828125 1186.168359375 1181 1190.3
M 1155.4 1212.6
Q 1170.4478515625 1202.5126953125 1275.7 1182.5 1211.0236328125 1222.6833984375 1155.4 1212.6
M 1319.1 1177.75
Q 1285.4435546875 1237.9736328125 1181.2 1259.25
L 1319.1 1177.75
M 1353.25 1193.95
Q 1325.8 1264.55 1220.7 1286.2 1271.9515625 1244.8466796875 1353.25 1193.95
M 1394.7 1201.8
Q 1363.2 1271.4 1257 1321 1321.3 1261.7 1394.7 1201.8
M 1429.1 1216
Q 1394.4 1293.1 1278.5 1355.6 1352.5 1283.4 1429.1 1216
M 1418.6 1598.1
L 1593.65 1283.4
Q 1522.5474609375 1493.612890625 1418.6 1598.1
M 1301.9 1316.05
Q 1278.38046875 1346.18671875 1253.7 1346.25
L 1301.9 1316.05
M 1337.55 1335.3
Q 1314.8 1372.35 1280.75 1380.1
L 1337.55 1335.3 Z"/>
</g>

<path id="Layer2_0_1_STROKES" stroke="#333333" stroke-width="1" stroke-linejoin="round" stroke-linecap="round" fill="none" d="
M 2622.85 586.75
Q 2680.3966796875 577.6595703125 2741.65 586.75 2821.229296875 598.51171875 2790.2 602.25 2704.839453125 592.908203125 2645.6 602.25 2600.533984375 594.5 2622.85 586.75 Z
M 2681.45 662.9
Q 2728.65 651.75 2789.9 660.85 2869.5 672.6 2849.8 685.65 2753.1 667 2693.85 676.35 2665.3443359375 677.76171875 2681.45 662.9 Z
M 1629.7 780.1
Q 1043.13125 884.794140625 732.7 860.65 675.3599609375 868.0556640625 737.45 879.6 1103.95703125 904.584765625 1710.2 805.35 2150.3197265625 702.784765625 2620.95 710.5 2699.538671875 693.5943359375 2610.35 683.75 2517.10859375 685.14296875 2463.5 683.95 2158.7912109375 677.06015625 1629.7 780.1 Z
M 719.55 943.8
Q 1289.5751953125 933.0732421875 1859.6 825.45 2204.7220703125 766.5453125 2663.2 760.05 2933.74375 787.43828125 2772.2 791.2 2249.1880859375 786.6703125 1806.65 862.8 1386.53671875 943.0283203125 783 968.55 609.65390625 961.222265625 719.55 943.8 Z
M 2104.9 957.1
Q 1780.85 1020.85625 1456.8 1053.45 1377.707421875 1067.0837890625 1464.8 1073.5 1685.2142578125 1059.7990234375 2088.85 987.2 2382.483984375 944.569921875 2654.75 959.1 2799.244140625 949.084765625 2658.75 929 2356.7078125 921.0623046875 2104.9 957.1 Z
M 3247.65 1252.125
Q 2938.63984375 1262.44296875 2863.4 1098.65 2822.7494140625 1016.6009765625 2814.8 1026.85
M 741.15 1024.45
Q 1543.9642578125 995.3931640625 1933.7 896.4 2281.7154296875 834.406640625 2634.9 849.95 2905.8263671875 869.88984375 2663.7 878.8 2282.330078125 860.4685546875 1940.1 931.6 1614.1013671875 1014.8576171875 745.95 1042.05 600.64765625 1039.1650390625 741.15 1024.45 Z
M 3734.25 962.85
Q 3734.420703125 966.5458984375 3733.9 970.775 3732.1359375 989.431640625 3721.25 1008.1 3580.7294921875 1147.0953125 3247.65 1252.125 3028.7330078125 1321.1470703125 2726.65 1375.5 1962.84453125 1518.7140625 1290 1161.55 774.366796875 1103.8107421875 684.75 1222.7 455.8712890625 1382.3984375 238.45 1473.35 87.230859375 1542.4732421875 128.45 1378.55 235.4333984375 1035.770703125 91.75 525.75 49.4876953125 400.1572265625 183.45 455.45
L 669.45 687.7
Q 1044.5435546875 886.0458984375 1583.35 568.55 2765.1908203125 327.0361328125 3493.85 800.85 3694.09765625 893.121484375 3690.15 936.9 3693.528515625 945.3943359375 3601.6 996.55 3566.656640625 1016.52421875 3537.95 1038.425 3707.77109375 925.8830078125 3730.725 949.975 3734.8033203125 954.263671875 3734.25 962.85 Z
M 3537.95 1038.425
Q 3537.757421875 1038.5720703125 3537.575 1038.725 3487.5546875 1076.983203125 3456.575 1121.125 3625.5009765625 1012.855078125 3734.25 962.85
M 3456.575 1121.125
Q 3444.4578125 1138.412890625 3435.25 1156.6 3382.491796875 1173.7482421875 3349.7 1050.95
M 3637.75 949.45
Q 3461.3013671875 1031.8560546875 3429 1128.35
M 1991.7 599.65
Q 2298.6615234375 561.075 2572.15 571.35 2718.525390625 557.087890625 2466.675 547.375 2214.8341796875 537.6666015625 1930.1 586.45
L 1556.6 648.05
Q 1511.9568359375 673.790234375 1606.05 662.2
L 1991.7 599.65 Z
M 736 792.5
Q 995.584375 833.6310546875 1462.6 725.05 1763.1015625 691.43671875 2088.8 634.05 2359.6896484375 600.2517578125 2592.55 615.2 2644.7080078125 631.941015625 2565.35 636.6 2357.324609375 628.2513671875 2112.15 657.55 1788.231640625 712.1345703125 1461 753.3 1082.1623046875 842.3576171875 747 809.8 677.5359375 797.8619140625 736 792.5 Z
M 2077.6 1049.3
Q 1858.9357421875 1087.1822265625 1634.35 1107.3 1578.546484375 1123.48046875 1666.55 1121.8 1801.5376953125 1115.8462890625 1990.55 1079.9 2299.2669921875 1029.758203125 2482.15 1029.95 2549.078515625 1029.765625 2503.1 1013.85 2311.63984375 1015.243359375 2077.6 1049.3 Z
M 317.7 557.55
Q 258.1708984375 535.8 201.7 498.3 264.0095703125 527.043359375 317.7 557.55 Z
M 317.7 709.2
Q 230.65 693.05 143.05 645.9 238.425390625 671.5123046875 317.7 709.2 Z
M 301.5 595.7
Q 233.7744140625 573.962109375 124.25 509.2 215.3775390625 550.7103515625 301.5 595.7 Z
M 355.85 774.85
Q 245.65625 753.1806640625 162.15 721 266.24453125 741.99765625 355.85 774.85 Z
M 333.55 660.85
Q 237.080859375 636.5697265625 131.65 581.85 234.7443359375 617.219921875 333.55 660.85 Z
M 583.05 780.35
Q 367.4853515625 683.61953125 154.6 619.25 499.0044921875 778.1638671875 583.05 780.35 Z
M 581.45 745
Q 347.9810546875 624.2416015625 129.1 540.3 506.8775390625 736.4275390625 581.45 745 Z
M 572.35 704.65
Q 350.65 578.45 123.5 482.8 515.648828125 702.38203125 572.35 704.65 Z
M 608.15 694.25
Q 423.937109375 578.45234375 213.7 486 587.4359375 699.8888671875 608.15 694.25 Z
M 570.85 912.1
Q 570.6462890625 912.213671875 570.45 912.325 570.6462890625 912.36328125 570.85 912.4
M 571.45 944.15
Q 571.1509765625 944.13359375 570.85 944.125 497.1 985.3 190 958.15 399.157421875 934.785546875 570.85 944.125
M 583.05 984.7
Q 407.1125 993.098828125 201.6 1030.55 509.312890625 1025.85625 583.05 984.7 Z
M 626.65 1179.25
Q 366.5 1380.805078125 207.05 1469.35 447.9611328125 1372.3365234375 626.65 1179.25 Z
M 399.3 1095.3
Q 311.825390625 1128.9306640625 207.05 1149.85 299.9572265625 1117.2119140625 399.3 1095.3 Z
M 403.6 1201.15
Q 294.815625 1268.6767578125 175.9 1307.45 288.666796875 1247.9001953125 403.6 1201.15 Z
M 592.9 1117.2
Q 335.55 1259.55 166.9 1345.55 503.0974609375 1223.7970703125 592.9 1117.2 Z
M 426.75 1308.8
Q 315.355859375 1401.096875 178.6 1455.35
L 426.75 1308.8 Z
M 376.4 1278.85
Q 275.8380859375 1344.952734375 153.5 1399.5 260.727734375 1332.8904296875 376.4 1278.85 Z
M 581 1087
Q 363.967578125 1174.1572265625 190 1259.1 472.1705078125 1170.2865234375 581 1087 Z
M 407.05 1141.15
Q 297.6083984375 1199.2193359375 182.05 1225.65 295.919140625 1178.6076171875 407.05 1141.15 Z
M 396.15 878.5
Q 271.7033203125 878.503125 192.25 853.25 294.2 861.1763671875 396.15 878.5 Z
M 417.75 931.05
Q 289.1 939.8248046875 205.65 924.2 311.7 923.170703125 417.75 931.05 Z
M 408.85 987.95
Q 289.1080078125 1004.0701171875 196.8 994.75 301.4982421875 985.380078125 408.85 987.95 Z
M 399.3 1040.75
Q 291.7904296875 1069.116015625 201.6 1072.1 298.376171875 1051.3345703125 399.3 1040.75 Z
M 576.75 1054.1
Q 381.3123046875 1109.9302734375 190 1181.7 499.316796875 1113.85 576.75 1054.1 Z
M 607.55 1150.7
L 150.75 1432.1
Q 501.9076171875 1268.6841796875 607.55 1150.7 Z
M 575.15 1020.15
Q 394.841796875 1050.397265625 208.55 1108.5 514.1828125 1067.6765625 575.15 1020.15 Z
M 564 877.3
Q 418.477734375 837.9943359375 190.55 821.9 488.4 891.439453125 564 877.3 Z
M 570.45 912.325
Q 445.6703125 889.946875 212.75 889.3 494.8677734375 931.723046875 570.45 912.325 Z
M 582.85 815.15
Q 378.632421875 731.3923828125 158.9 682.4 489.7 823.3 582.85 815.15 Z
M 383.2 830.1
Q 271.7001953125 816.570703125 191.55 787.8 291.1671875 803.2619140625 383.2 830.1 Z
M 564.35 844.15
Q 395.7115234375 786.438671875 178.65 751.15 489.7244140625 853.9423828125 564.35 844.15 Z"/>

<path id="Layer1_0_1_STROKES" stroke="#333333" stroke-width="1" stroke-linejoin="round" stroke-linecap="round" fill="none" d="
M 3367.35 892.9
Q 3367.35 905.7 3358.3 914.8 3349.2 923.85 3336.4 923.85 3323.55 923.85 3314.5 914.8 3305.45 905.7 3305.45 892.9 3305.45 880.05 3314.5 871 3323.55 861.95 3336.4 861.95 3349.2 861.95 3358.3 871 3367.35 880.05 3367.35 892.9 Z
M 3346.35 952.55
Q 3341.541796875 953.25 3336.45 953.25 3310.15 953.25 3291.65 934.7 3273.1 916.1 3273.1 889.85 3273.1 863.55 3291.65 845.05 3310.15 826.5 3336.45 826.5 3362.7 826.5 3381.3 845.05 3399.85 863.55 3399.85 889.85 3399.85 890.546875 3399.825 891.25 3400.75 885.208203125 3400.75 878.8 3400.75 846.95 3378.2 824.4 3355.7 801.9 3323.85 801.9 3292.0005859375 801.9025390625 3273.625 827.025 3255.2478515625 852.1421875 3259.5 886.65 3263.751953125 921.1576171875 3277.875 938.425 3291.99921875 955.697265625 3323.85 955.7 3335.7505859375 955.7 3346.35 952.55 3364.10703125 947.2744140625 3378.2 933.15 3396.212890625 915.1771484375 3399.825 891.25 3399.357421875 916.59375 3381.3 934.7 3366.3078125 949.651953125 3346.35 952.55 Z"/>

<path id="Layer0_0_1_STROKES" stroke="#333333" stroke-width="1" stroke-linejoin="round" stroke-linecap="round" fill="none" d="
M 3292.975 727.55
Q 3293.920703125 726.2662109375 3294.65 724.95
M 2737.55 1157.85
Q 2703.7759765625 1159.2814453125 2671.225 1165.95 2643.95859375 1171.537109375 2617.55 1180.8
L 2737.55 1157.85 Z
M 2698.4 1184.825
Q 2666.43984375 1191.505078125 2631.55 1205.6 2687.2513671875 1195.8578125 2740.1 1176.65 2730.3541015625 1178.139453125 2698.4 1184.825 Z
M 2600.8 1162.25
Q 2664.0345703125 1144.356640625 2734.05 1142.85 2666.9359375 1156.3146484375 2600.8 1162.25 Z
M 2437.5 997.825
Q 2419.3447265625 1001.2390625 2401.8 1006.25 2321.2162109375 1027.3494140625 2335.35 1093.25 2552.226171875 1365.884375 2769.1 1234 2776.0822265625 1229.7515625 2783.075 1225.075 2790.2072265625 1220.311328125 2797.35 1215.1 2788.7201171875 1208.284765625 2781.725 1201.75 2771.7859375 1192.44375 2765.175 1183.7 2764.730078125 1183.1109375 2764.3 1182.525 2758.0328125 1173.971875 2754.975 1165.95 2754.9421875 1165.8375 2754.9 1165.725 2751.418359375 1156.478515625 2752.225 1147.95 2752.85859375 1141.2515625 2756.15 1135 2759.673828125 1128.2744140625 2766.25 1122.075 2772.725 1115.9658203125 2782.15 1110.35 2791.6146484375 1104.7265625 2804.05 1099.6 2812.2892578125 1092.713671875 2813.1 1084.75 2813.5771484375 1079.994140625 2811.4 1074.85 2798.5369140625 1068.4962890625 2785.65 1062.65 2762.601953125 1052.20859375 2739.475 1043.4 2590.0875 986.4630859375 2437.5 997.825 2585.6185546875 969.98515625 2774.15 1048.625 2787.228125 1054.0826171875 2800.5 1060.05 2808.438671875 1067.8056640625 2811.4 1074.85
M 2602.25 1361.1
Q 2606.4791015625 1360.8154296875 2610.6 1360.625 2614.3708984375 1360.4505859375 2618.05 1360.35 2622.6576171875 1360.231640625 2627.1 1360.25 2631.11171875 1360.255859375 2635 1360.375 2639.48203125 1360.498828125 2643.8 1360.75 2648.1314453125 1361.0126953125 2652.3 1361.425 2656.6875 1361.846484375 2660.875 1362.425 2665.5384765625 1363.0646484375 2669.95 1363.9 2674.40234375 1364.7345703125 2678.6 1365.75 2682.7392578125 1366.76328125 2686.65 1367.975 2690.5388671875 1369.167578125 2694.2 1370.55 2698.693359375 1372.2451171875 2702.825 1374.225 2706.9134765625 1376.17421875 2710.65 1378.4 2709.019921875 1391.401171875 2707.375 1403.775 2705.4396484375 1418.4025390625 2703.5 1432.15 2701.184765625 1448.50625 2698.85 1463.6 2694.7705078125 1490.06171875 2690.65 1512.65 2665.70546875 1649.5033203125 2639.3 1644.6 2633.1076171875 1634.7021484375 2627.325 1633.675 2621.166796875 1632.59296875 2615.475 1641.6 2614.4986328125 1643.1560546875 2613.525 1645.025 2607.681640625 1656.25390625 2602.35 1678.5 2572.1333984375 1775.504296875 2528.45 1823.25 2522.173046875 1818.97734375 2516.05 1814.375 2508.561328125 1808.7466796875 2501.3 1802.625 2492.980859375 1795.617578125 2484.95 1787.95 2476.8861328125 1780.2671875 2469.125 1771.925 2460.908984375 1763.090625 2453.025 1753.525 2446.5732421875 1745.7080078125 2440.35 1737.4 2433.1623046875 1727.8150390625 2426.275 1717.575 2419.3451171875 1707.29140625 2412.725 1696.35 2406.5759765625 1686.1759765625 2400.675 1675.425 2394.1556640625 1663.5298828125 2387.95 1650.95 2383.6015625 1642.1041015625 2379.4 1632.925 2376.1201171875 1625.7267578125 2372.925 1618.325 2369.5677734375 1610.5611328125 2366.325 1602.575 2363.3837890625 1595.320703125 2360.525 1587.875 2357.8341796875 1580.887109375 2355.225 1573.725 2352.575390625 1566.437109375 2350 1558.975 2346.7658203125 1549.569921875 2343.65 1539.9 2340.7572265625 1529.75234375 2340.85 1519.8 2340.93046875 1509.635546875 2344.125 1499.675 2347.8271484375 1488.1330078125 2355.7 1476.875 2368.251171875 1458.9341796875 2391.4 1441.7 2443.6751953125 1402.7736328125 2550 1367.45 2555.22421875 1366.5728515625 2560.325 1365.8 2563.5083984375 1365.3173828125 2566.65 1364.875 2574.138671875 1363.8185546875 2581.325 1363
L 2581.35 1363
Q 2586.0001953125 1362.4744140625 2590.525 1362.05 2596.4970703125 1361.4880859375 2602.25 1361.1 2459.223046875 1441.908203125 2343.65 1539.9
M 2754.05 950.55
Q 2996.81796875 603.61953125 3081.45 803.35 3157.3796875 727.6068359375 3243.75 803.35
L 3292.975 727.55
Q 3266.9310546875 762.3814453125 3074.55 764.85 2971.928125 622.241796875 2754.05 950.55 Z
M 3081.45 803.35
Q 3004.1658203125 1201.0966796875 3309.8 1173.4
M 2639.3 1644.6
L 2690.65 1512.65
M 2627.325 1633.675
L 2698.85 1463.6
M 2401.8 128.15
Q 2378.6134765625 200.9814453125 2273.65 91.8 2413.4828125 251.973828125 2486.575 492.3 2500.3375 493.0013671875 2514.1 493.825 2493.1212890625 306.844140625 2401.8 128.15 2451.6013671875 197.4802734375 2484.05 278.5 2495.5359375 315.447265625 2504.475 336 2526.8763671875 387.5607421875 2534.7 318.05 2553.1671875 405.6255859375 2564.7 425.65 2574.1921875 442.102734375 2579 412.95
L 2596.55 499.75
Q 2583.7490234375 498.66875 2570.95 497.7 2563.0375 497.088671875 2555.125 496.525 2544.9654296875 495.7888671875 2534.8 495.125 2524.4515625 494.4400390625 2514.1 493.825
M 2102.75 240.5
Q 2147.99375 350.3953125 2028.4 325.95 2131.0970703125 405.774609375 2201.8 490.225 2240.6931640625 488.7970703125 2279.675 488.3 2211.517578125 357.07265625 2102.75 240.5 2212.8140625 280.6341796875 2173.95 147.15 2332.4998046875 266.3267578125 2273.65 91.8 2420.921484375 327.998046875 2456.7 490.9 2471.6357421875 491.5275390625 2486.575 492.3
M 2173.45 491.4
Q 2187.6251953125 490.75234375 2201.8 490.225
M 2062.05 498.45
Q 2076.7443359375 497.2638671875 2091.45 496.225 2040.6478515625 453.77734375 1961.95 419.3 2046.297265625 472.57734375 2062.05 498.45 1998.5189453125 503.590234375 1935.2 511.25 1944.984765625 508.64296875 1911.3 493.7 2027.7361328125 512.973046875 1961.95 419.3 2076.818359375 440.446875 2028.4 325.95 2126.348046875 421.468359375 2173.45 491.4 2132.409375 493.2923828125 2091.45 496.225
M 2564.7 425.65
Q 2569.785546875 439.0287109375 2570.95 497.7
M 2366.45 488.375
Q 2382.6859375 488.60546875 2398.925 489 2343.951953125 309.929296875 2173.95 147.15 2312.224609375 309.0388671875 2366.45 488.375 2338.154296875 487.9748046875 2309.9 488.075 2294.781640625 488.1119140625 2279.675 488.3
M 2398.925 489
Q 2427.7923828125 489.6978515625 2456.7 490.9
M 2534.7 318.05
Q 2556.1216796875 430.11484375 2555.125 496.525
M 2102.75 240.5
Q 2247.3556640625 366.348828125 2309.9 488.075
M 2504.475 336
Q 2528.15546875 405.34296875 2534.8 495.125
M 1477.95 199.3
Q 1520.125 221.894140625 1562.3 265.8 1536.6931640625 215.912109375 1477.95 199.3 Z
M 1635.675 301.65
L 1562.15 229.7
Q 1450.8294921875 138.640234375 1425.5 229.7 1335.2783203125 475.6435546875 1207.7 631.6 1110.1125 742.175 1339.95 688.95 1348.905859375 685.6173828125 1357.85 682.125 1270.4349609375 672.87890625 1241.4 654.8 1323.1982421875 645.62734375 1390.65 668.8 1399.2857421875 665.1458984375 1407.925 661.35 1296.697265625 633.2966796875 1277.2 609.75 1344.817578125 615.73125 1434.975 649.075 1445.189453125 644.2935546875 1455.4 639.3 1342.1 600.7 1314.4 573.05 1393.733203125 587.1162109375 1483.6 625.125 1490.90546875 621.348828125 1498.2 617.475 1369.8 560.3419921875 1340.75 530.4 1440.4205078125 555.4626953125 1521.65 604.725 1528.155078125 601.1162109375 1534.65 597.425 1397.5947265625 526.19453125 1359 481.25 1461.8359375 506.8427734375 1560.85 582.2 1566.2984375 578.954296875 1571.75 575.65 1432.1 486.3 1396.2 446.8 1508.8880859375 484.530859375 1604.1 564.4 1616.2451171875 561.98125 1628 559.65 1466.3 458.2 1401.75 394.15 1521.623046875 431.128515625 1659.95 553.75 1673.1521484375 551.2595703125 1684.4 549.3 1495 410.55 1437.3 335.55 1512.9294921875 351.4041015625 1712 544.4 1725.682421875 542.0212890625 1739.1 539.775 1529.1 370.75 1467.3 283.45 1614.5998046875 359.171875 1767.95 535.05 1784.5181640625 532.38203125 1801.25 529.8 1580.4134765625 343.270703125 1528.4 268.05 1631.46171875 319.4525390625 1822.6 526.4 1785.4130859375 461.27421875 1635.675 301.65
L 1839.3 500.95
Q 1858.70546875 515.5109375 1883 517.85 1852.6451171875 522.0509765625 1822.6 526.4 1812.0060546875 528.1453125 1801.25 529.8
M 1426.75 287.6
Q 1467.15 335.35 1506.1 349.65 1475.2 320.1 1426.75 287.6 Z
M 1443.55 227.65
Q 1489.55 280.95 1529.65 300.85 1497.6 265.7 1443.55 227.65 Z
M 1571.75 575.65
Q 1577.5484375 572.133203125 1584.6 569.8 1594.0134765625 566.383984375 1604.1 564.4
M 1308 546.5
Q 1334.65 562.75 1360.55 561.05 1342.5 549.95 1308 546.5 Z
M 1366.35 397.55
Q 1410.6595703125 438.0138671875 1455.2 455.1 1418.7 422.75 1366.35 397.55 Z
M 1333.2 502.35
Q 1356.4970703125 521.3771484375 1384.65 524.75 1364.35 508.6 1333.2 502.35 Z
M 1347.95 442.8
Q 1379.24375 482.447265625 1422.85 489.2 1392.5099609375 462.9919921875 1347.95 442.8 Z
M 1407.925 661.35
Q 1421.4462890625 655.3916015625 1434.975 649.075
M 1357.85 682.125
Q 1374.24765625 675.7291015625 1390.65 668.8
M 1498.2 617.475
Q 1509.9330078125 611.2349609375 1521.65 604.725
M 1534.65 597.425
Q 1547.74921875 589.981640625 1560.85 582.2
M 1455.4 639.3
Q 1469.5072265625 632.4087890625 1483.6 625.125
M 1628 559.65
Q 1644.0658203125 556.6287109375 1659.95 553.75
M 1739.1 539.775
Q 1753.459375 537.3775390625 1767.95 535.05
M 1684.4 549.3
Q 1698.33203125 546.783984375 1712 544.4
M 1405.85 350.25
Q 1439 387.35 1477.95 405.55 1447.05 372.1 1405.85 350.25 Z
M 1393.5 1583.75
Q 1410.8791015625 1539.2935546875 1451.15 1508 1428.3224609375 1548.9171875 1393.5 1583.75 Z
M 1373.7 1521.75
Q 1389.6474609375 1484.123828125 1417.6 1467.55 1403.0498046875 1494.6501953125 1373.7 1521.75 Z
M 1347 1476.15
Q 1382.7732421875 1445.04453125 1405.55 1394.35 1365.49453125 1443.6705078125 1347 1476.15 Z
M 1350 1416.65
Q 1413.25859375 1327.2673828125 1486.45 1241.6 1455.1611328125 1336.9611328125 1350 1416.65 Z
M 1311.35 1394.15
Q 1376.75 1310.1 1449.05 1238.4 1418.65 1319.8 1311.35 1394.15 Z
M 1364 1497.2
L 1525.1 1251.25
Q 1446.45 1450.7 1364 1497.2 Z
M 1383.7 1549.25
L 1556.6 1270
Q 1485.5 1473.75 1383.7 1549.25 Z
M 1558.4 1478.9
Q 1551.7572265625 1424.766015625 1605.65 1358.6 1584.06640625 1450.05078125 1558.4 1478.9 Z
M 1318.6 1418.9
Q 1345.784765625 1405.95546875 1368.55 1368.9 1326.4470703125 1404.9685546875 1318.6 1418.9 Z
M 2344.125 1499.675
Q 2454.086328125 1421.0107421875 2581.325 1363
M 2340.85 1519.8
Q 2453.7373046875 1434.110546875 2590.525 1362.05
M 2391.4 1441.7
Q 2472.91640625 1397.7712890625 2560.325 1365.8
M 2355.7 1476.875
Q 2452.684765625 1415.74140625 2566.65 1364.875
M 1239.9 629.6
Q 1259.85 640.85 1286.35 636.3 1267.7 628.05 1239.9 629.6 Z
M 1290 1161.55
Q 1249.8333984375 1173.1302734375 1134.8 1170.6 1064.2529296875 1172.7369140625 1104.85 1219.75 1274.099609375 1365.2134765625 1355.1 1584.9 1374.8732421875 1686.3255859375 1475.4 1603.25 1608.4068359375 1475.666015625 1705.75 1331.9 1531.1306640625 1213.5640625 1290 1161.55 Z
M 1154.35 1239.45
Q 1173.358203125 1241.49921875 1207.7 1225.65 1183.6 1227.44921875 1154.35 1239.45 Z
M 1193.2 1272.8
Q 1212.75 1277.3 1237.9 1253.85 1213.8 1261.15 1193.2 1272.8 Z
M 1222.45 1310.85
Q 1243.7435546875 1309.276953125 1268.9 1285.85 1244.8 1293.1712890625 1222.45 1310.85 Z
M 1120.75 1192.1
Q 1141.5 1203.6 1181 1190.3 1138.4173828125 1186.168359375 1120.75 1192.1 Z
M 1155.4 1212.6
Q 1170.4478515625 1202.5126953125 1275.7 1182.5 1211.0236328125 1222.6833984375 1155.4 1212.6 Z
M 1274.55 586.3
Q 1302.35 598.1 1321 595.8 1310.2 585.3 1274.55 586.3 Z
M 1181.2 1259.25
L 1319.1 1177.75
Q 1285.4435546875 1237.9736328125 1181.2 1259.25 Z
M 1220.7 1286.2
Q 1271.9515625 1244.8466796875 1353.25 1193.95 1325.8 1264.55 1220.7 1286.2 Z
M 1257 1321
Q 1321.3 1261.7 1394.7 1201.8 1363.2 1271.4 1257 1321 Z
M 1278.5 1355.6
Q 1352.5 1283.4 1429.1 1216 1394.4 1293.1 1278.5 1355.6 Z
M 1418.6 1598.1
L 1593.65 1283.4
Q 1522.5474609375 1493.612890625 1418.6 1598.1 Z
M 1253.7 1346.25
Q 1278.38046875 1346.18671875 1301.9 1316.05
L 1253.7 1346.25 Z
M 1280.75 1380.1
Q 1314.8 1372.35 1337.55 1335.3
L 1280.75 1380.1 Z
M 2469.125 1771.925
Q 2597.51015625 1590.3203125 2710.65 1378.4
M 2453.025 1753.525
Q 2582.45234375 1580.4169921875 2702.825 1374.225
M 2440.35 1737.4
L 2694.2 1370.55
M 2426.275 1717.575
L 2686.65 1367.975
M 2412.725 1696.35
L 2678.6 1365.75
M 2400.675 1675.425
L 2669.95 1363.9
M 2387.95 1650.95
L 2660.875 1362.425
M 2379.4 1632.925
L 2652.3 1361.425
M 2372.925 1618.325
Q 2515.0755859375 1491.19140625 2643.8 1360.75
M 2366.325 1602.575
L 2635 1360.375
M 2360.525 1587.875
Q 2485.2576171875 1472.292578125 2627.1 1360.25
M 2355.225 1573.725
Q 2476.244921875 1467.0375 2618.05 1360.35
M 2350 1558.975
Q 2468.3140625 1451.18203125 2610.6 1360.625
M 2516.05 1814.375
L 2613.525 1645.025
M 2501.3 1802.625
Q 2615.9359375 1630.9236328125 2703.5 1432.15
M 2484.95 1787.95
Q 2600.8439453125 1614.4982421875 2707.375 1403.775
M 2571.65 1140.2
Q 2638.3474609375 1120.2978515625 2733.15 1128.7
L 2571.65 1140.2 Z
M 2551.35 1115.5
L 2740.2 1115.5
Q 2647.5 1101.675390625 2551.35 1115.5 Z
M 2551.35 1088.15
Q 2645.5736328125 1100.4791015625 2746.4 1099.6 2650.65546875 1084.7232421875 2551.35 1088.15 Z
M 2544.3 1056.35
Q 2637.532421875 1073.828515625 2753.45 1086.35 2642.417578125 1059.3794921875 2544.3 1056.35 Z
M 2580.5 1032.55
Q 2661.3693359375 1035.1669921875 2763.15 1070.5
L 2580.5 1032.55 Z"/>
</defs>

<g transform="matrix( -7.9383392333984375, 0, 0, 7.9383392333984375, 3824.75,-360) ">
<use xlink:href="#Bitmap_10"/>
</g>

<g transform="matrix( 1, 0, 0, 1, 0,0) ">
<use xlink:href="#Layer2_0_FILL"/>

<use xlink:href="#Layer2_0_1_STROKES"/>
</g>

<g transform="matrix( 1, 0, 0, 1, 0,0) ">
<use xlink:href="#Layer1_0_FILL"/>

<use xlink:href="#Layer1_0_1_STROKES"/>
</g>

<g transform="matrix( 1, 0, 0, 1, 0,0) ">
<use xlink:href="#Layer0_0_FILL"/>

<use xlink:href="#Layer0_0_1_STROKES"/>
</g>
</svg>
