
<svg xmlns="http://www.w3.org/2000/svg" version="1.1" xmlns:xlink="http://www.w3.org/1999/xlink" preserveAspectRatio="none" x="0px" y="0px" width="1024px" height="512px" viewBox="0 0 1024 512">
<defs/>

<g id="Layer_1">
<g>
<g>
<g>
<path fill="#999999" stroke="none" d="
M 983.7 290.75
L 1009.7 277
Q 1016 273.45 1014.8 267.15
L 1009.7 254.55
Q 1006.55 249 999.45 254.55 979.75 262.8 972.3 259.25 891.95 309.25 853.35 288.8 554.5 191.55 245.05 291.15 264.35 289.6 269.85 306.5 275.75 357.7 290.35 405.75 297.4 425.8 315.15 450.2 325.35 466.75 343.1 450.2 378.5 417.15 402.15 380.55 418.3 357.7 459.25 374.25 500.2 390.75 595.1 384.45 582.85 391.55 582.1 405.35 599.8 467.15 636.05 506.15 648.65 516.75 657.3 506.15 689.95 460.45 704.15 378.55 779.35 373.45 848.25 341.15
L 983.7 290.75 Z"/>

<path fill="#669933" stroke="none" d="
M 995.5 239.55
Q 993.95 229.75 986.85 224.2 883.3 184.05 808.1 134.45 772.65 113.6 692.35 102.15
L 680.5 52.15
Q 661.25 66.35 652.15 26.95 628.15 54.9 612.8 1.75 589.95 25.4 580.5 9.25 576.55 47.05 541.9 28.55 531.3 80.1 506.5 84.05 502.95 117.9 490.75 111.6 470.65 86.4 450.6 80.5 433.25 52.55 405.7 26.95 367.1 -7.7 336.4 53.75
L 288.75 180.9
Q 233.25 187.6 215.5 176.2 141.1 110.05 54.85 72.25 4.85 48.6 9.6 93.9 38.35 134.85 44.65 239.2 35.2 342.75 16.3 384.45 8.8 404.15 16.3 417.95 21 426.2 31.25 427.8 45.05 430.95 72.2 398.25 147.8 354.15 212.35 301.4 231.65 291.95 245.05 291.15 554.5 191.55 853.35 288.8 891.95 309.25 972.3 259.25 980.55 245.85 995.5 239.55 Z"/>
</g>
</g>
</g>
</g>
</svg>
