
<svg xmlns="http://www.w3.org/2000/svg" version="1.1" xmlns:xlink="http://www.w3.org/1999/xlink" preserveAspectRatio="none" x="0px" y="0px" width="3840px" height="1920px" viewBox="0 0 3840 1920">
<defs>
<linearGradient id="Gradient_1" gradientUnits="userSpaceOnUse" x1="3259.8875" y1="1127.1" x2="2996.1125" y2="811.1" spreadMethod="pad">
<stop  offset="0%" stop-color="#FFFFFF"/>

<stop  offset="29.019607843137255%" stop-color="#EFF300"/>

<stop  offset="100%" stop-color="#EFF300"/>
</linearGradient>

<linearGradient id="Gradient_2" gradientUnits="userSpaceOnUse" x1="2109.5750000000003" y1="1051.175" x2="2000.2250000000001" y2="2591.425" spreadMethod="pad">
<stop  offset="0%" stop-color="#FFFFFF"/>

<stop  offset="100%" stop-color="#000000"/>
</linearGradient>

<linearGradient id="Gradient_3" gradientUnits="userSpaceOnUse" x1="2643.9875" y1="976.4750000000001" x2="2490.8125" y2="1159.825" spreadMethod="pad">
<stop  offset="0%" stop-color="#003333"/>

<stop  offset="40.78431372549019%" stop-color="#003333"/>

<stop  offset="98.82352941176471%" stop-color="#2F32F8"/>
</linearGradient>

<linearGradient id="Gradient_4" gradientUnits="userSpaceOnUse" x1="3287.8999999999996" y1="1019.9125" x2="3219.5" y2="2560.9875" spreadMethod="pad">
<stop  offset="0%" stop-color="#FFFFFF"/>

<stop  offset="100%" stop-color="#000000"/>
</linearGradient>

<linearGradient id="Gradient_5" gradientUnits="userSpaceOnUse" x1="2154.1375" y1="1090.7" x2="2299.5625" y2="125.09999999999997" spreadMethod="pad">
<stop  offset="0%" stop-color="#FFFFFF"/>

<stop  offset="29.019607843137255%" stop-color="#EFF300"/>

<stop  offset="100%" stop-color="#EFF300"/>
</linearGradient>

<linearGradient id="Gradient_6" gradientUnits="userSpaceOnUse" x1="2082.25" y1="623.675" x2="2082.25" y2="1054.325" spreadMethod="pad">
<stop  offset="0%" stop-color="#003333"/>

<stop  offset="40.78431372549019%" stop-color="#003333"/>

<stop  offset="98.82352941176471%" stop-color="#2F32F8"/>
</linearGradient>

<linearGradient id="Gradient_7" gradientUnits="userSpaceOnUse" x1="3342.2" y1="983.5" x2="3448" y2="983.5" spreadMethod="pad">
<stop  offset="0%" stop-color="#003333"/>

<stop  offset="98.82352941176471%" stop-color="#999900"/>
</linearGradient>

<linearGradient id="Gradient_8" gradientUnits="userSpaceOnUse" x1="566.9875" y1="847.5500000000001" x2="382.41249999999997" y2="729.65" spreadMethod="pad">
<stop  offset="0%" stop-color="#FFF706"/>

<stop  offset="100%" stop-color="#FFCC33"/>
</linearGradient>

<linearGradient id="Gradient_9" gradientUnits="userSpaceOnUse" x1="601.725" y1="1063.675" x2="386.275" y2="1240.425" spreadMethod="pad">
<stop  offset="0%" stop-color="#FFF706"/>

<stop  offset="100%" stop-color="#FFCC33"/>
</linearGradient>

<linearGradient id="Gradient_10" gradientUnits="userSpaceOnUse" x1="401.825" y1="1201.925" x2="-86.92500000000001" y2="713.175" spreadMethod="pad">
<stop  offset="0%" stop-color="#FFFFFF"/>

<stop  offset="100%" stop-color="#FFCC33"/>
</linearGradient>

<linearGradient id="Gradient_11" gradientUnits="userSpaceOnUse" x1="1289.6499999999999" y1="1086.0749999999998" x2="1048.55" y2="1326.125" spreadMethod="pad">
<stop  offset="0%" stop-color="#FFFFFF"/>

<stop  offset="100%" stop-color="#FFCC33"/>
</linearGradient>

<linearGradient id="Gradient_12" gradientUnits="userSpaceOnUse" x1="1376.0874999999999" y1="560.6875" x2="1443.5125" y2="747.9124999999999" spreadMethod="pad">
<stop  offset="0%" stop-color="#FFFF99"/>

<stop  offset="100%" stop-color="#0066CC"/>
</linearGradient>

<linearGradient id="Gradient_13" gradientUnits="userSpaceOnUse" x1="3566.9375" y1="1050.85" x2="3460.1625000000004" y2="922.9499999999999" spreadMethod="pad">
<stop  offset="0%" stop-color="#FFFFFF"/>

<stop  offset="29.019607843137255%" stop-color="#EFF300"/>

<stop  offset="100%" stop-color="#EFF300"/>
</linearGradient>

<linearGradient id="Gradient_14" gradientUnits="userSpaceOnUse" x1="2574.025" y1="1447.45" x2="2430.0750000000003" y2="1703.8500000000001" spreadMethod="pad">
<stop  offset="0%" stop-color="#FFFFFF"/>

<stop  offset="100%" stop-color="#FFCC33"/>
</linearGradient>

<linearGradient id="Gradient_15" gradientUnits="userSpaceOnUse" x1="1803.1000000000001" y1="751.9875" x2="2004.8" y2="2940.6125" spreadMethod="pad">
<stop  offset="0%" stop-color="#00FFFF"/>

<stop  offset="9.411764705882353%" stop-color="#FFFFFF"/>
</linearGradient>

<g id="Layer0_0_FILL">
<path fill="url(#Gradient_1)" stroke="none" d="
M 2877.2 910.45
Q 2867.7712890625 963.644921875 2866.25 1009.85 3046.9640625 1069.1259765625 3141.75 1049 3158.6875 1063.25078125 3373.8 1032.1 3365.033984375 1028.233984375 3357.7 1020.9 3342.2 1005.4 3342.2 983.5 3342.2 961.6 3357.7 946.1 3372.048828125 931.751171875 3391.85 930.65 3362.21484375 916.243359375 3326.3 927.15 3282.5994140625 902.485546875 3209.05 911.35 3048.3490234375 857.3603515625 2877.2 910.45 Z"/>

<path fill="url(#Gradient_2)" stroke="none" d="
M 2799.75 1022.35
Q 2809.7720703125 1027.7505859375 2819.9 1033.5 2652.290234375 1062.51796875 2745.35 1151.15 2657.19453125 1172.6201171875 2590.45 1113.9 2536.0634765625 1058.7189453125 2481.65 1017.9
L 1493.75 1017.95 971 1082.85
Q 1129.8330078125 1164.3849609375 1447.25 1323.7
L 1553 1350.65
Q 1580.2453125 1355.0716796875 1655.5 1387 2083.1625 1541.4216796875 2455.15 1427.6 2599.6919921875 1416.3560546875 2730.35 1400.8 3010.6861328125 1367.524609375 3227.2 1314.5 2866.9392578125 1330.6759765625 2865.95 1028.95 2857.5166015625 1050.3388671875 2799.75 1022.35 Z"/>

<path fill="url(#Gradient_3)" stroke="none" d="
M 2819.9 1033.5
Q 2809.7720703125 1027.7505859375 2799.75 1022.35 2787.7720703125 1015.8646484375 2775.95 1009.85 2599.50703125 920.5171875 2459.05 939.35 2379.9169921875 948.128515625 2439.45 988.4 2460.5634765625 1002.0740234375 2481.65 1017.9 2536.0634765625 1058.7189453125 2590.45 1113.9 2657.19453125 1172.6201171875 2745.35 1151.15 2652.290234375 1062.51796875 2819.9 1033.5 Z"/>

<path fill="url(#Gradient_4)" stroke="none" d="
M 2866.25 1009.85
Q 2868.704296875 1021.9974609375 2865.95 1028.95 2866.9392578125 1330.6759765625 3227.2 1314.5 3525.0818359375 1241.622265625 3702.3 1131.45 3714.427734375 1087.5490234375 3688.55 1070.7 3665.864453125 1088.0140625 3646.95 1094.25 3612.5146484375 1105.6802734375 3590.55 1080.5 3593.920703125 1057.73359375 3617.25 1046.6 3627.0798828125 1041.925 3640.4 1039.3 3699.6966796875 1017.4267578125 3640.4 975.9 3636.61796875 973.3931640625 3632.8 970.9 3655.1724609375 988.1787109375 3619.5 1002.45 3608.9345703125 1001.9712890625 3598.6 1001.8 3496.10234375 1000.373828125 3417.3 1031.7 3407.1701171875 1036.4 3395.1 1036.4 3383.562109375 1036.4 3373.8 1032.1 3158.6875 1063.25078125 3141.75 1049 3046.9640625 1069.1259765625 2866.25 1009.85 Z"/>

<path fill="url(#Gradient_5)" stroke="none" d="
M 2865.95 1028.95
Q 2868.704296875 1021.9974609375 2866.25 1009.85 2865.932421875 1019.5482421875 2865.95 1028.95
M 2877.2 910.45
Q 2879.5771484375 896.9490234375 2882.45 883 2853.0171875 786.36484375 1539.35 917.25 1429.69921875 982.09140625 1493.75 1017.95
L 2481.65 1017.9
Q 2460.5634765625 1002.0740234375 2439.45 988.4 2379.9169921875 948.128515625 2459.05 939.35 2599.50703125 920.5171875 2775.95 1009.85 2787.7720703125 1015.8646484375 2799.75 1022.35 2857.5166015625 1050.3388671875 2865.95 1028.95 2865.932421875 1019.5482421875 2866.25 1009.85 2867.7712890625 963.644921875 2877.2 910.45 Z"/>

<path fill="url(#Gradient_6)" stroke="none" d="
M 2899.45 813
Q 2889.484765625 849.31015625 2882.45 883 2879.5771484375 896.9490234375 2877.2 910.45 3048.3490234375 857.3603515625 3209.05 911.35 3282.5994140625 902.485546875 3326.3 927.15 3362.21484375 916.243359375 3391.85 930.65 3392.0115234375 930.6685546875 3392.15 930.65 3393.6125 930.6 3395.1 930.6 3417 930.6 3432.5 946.1 3485.82578125 984.178125 3624.45 965.45 3139.4380859375 650.1544921875 2508.3 614.4 2498.96640625 613.870703125 2489.6 613.4 2485.503125 613.19453125 2481.4 613 2471.3939453125 612.5294921875 2461.35 612.1 2457.0529296875 611.9591796875 2452.75 611.8 2443.19140625 611.4423828125 2433.6 611.15 2429.049609375 611.0158203125 2423.3 610.85 2410.3439453125 610.5201171875 2391.45 610.75 2365.44296875 609.7826171875 2339.15 609.5 2336.55625 609.8341796875 2326.5 609.85 2318.2669921875 609.8865234375 2296.1 609.55 2289.912890625 609.6388671875 2283.7 609.75 2284.4529296875 610.425390625 2269.55 610.75 2258.2083984375 610.9548828125 2235.55 611.75 2230.10546875 611.9400390625 2224.65 612.15 2210.2095703125 612.7109375 2195.7 613.4 2192.877734375 613.5310546875 2190.05 613.6
L 2184.35 613.95
Q 2163.7845703125 614.98671875 2143.05 616.3 2121.7861328125 617.648046875 2100.35 619.25 1592.79453125 657.8560546875 1003 853.7 905.6134765625 887.697265625 794.2 897.6 756.5787109375 900.9890625 717.35 901.6 634.0998046875 910.509375 576.85 920.25 557.7541015625 923.524609375 541.55 926.85 525.6099609375 983.657421875 673.95 958.3 767.7837890625 934.465625 881.05 921.2 1055.434765625 922.954296875 1808.8 748.85 2265.8904296875 633.6478515625 2737.9 713.2 2990.0681640625 755.505859375 2899.45 813
M 2283.7 609.75
Q 2289.912890625 609.6388671875 2296.1 609.55 2289.668359375 609.4732421875 2282.05 609.35 2283.49921875 609.5662109375 2283.7 609.75
M 2391.45 610.75
Q 2389.4458984375 610.1599609375 2378.45 610.05 2366.891796875 609.880078125 2339.4 609 2340.8119140625 609.3220703125 2339.15 609.5 2365.44296875 609.7826171875 2391.45 610.75 Z"/>

<path fill="url(#Gradient_7)" stroke="none" d="
M 3448 983.5
Q 3448 961.6 3432.5 946.1 3417 930.6 3395.1 930.6 3393.6125 930.6 3392.15 930.65 3392.0115234375 930.6685546875 3391.85 930.65 3372.048828125 931.751171875 3357.7 946.1 3342.2 961.6 3342.2 983.5 3342.2 1005.4 3357.7 1020.9 3365.033984375 1028.233984375 3373.8 1032.1 3383.562109375 1036.4 3395.1 1036.4 3407.1701171875 1036.4 3417.3 1031.7 3425.5427734375 1027.8572265625 3432.5 1020.9 3448 1005.4 3448 983.5
M 3414.3 968.15
Q 3420.7 974.5 3420.7 983.55 3420.7 992.55 3414.3 998.95 3407.9 1005.35 3398.9 1005.35 3389.85 1005.35 3383.5 998.95 3377.1 992.55 3377.1 983.55 3377.1 974.5 3383.5 968.15 3389.85 961.75 3398.9 961.75 3407.9 961.75 3414.3 968.15 Z"/>

<path fill="#000000" stroke="none" d="
M 3420.7 983.55
Q 3420.7 974.5 3414.3 968.15 3407.9 961.75 3398.9 961.75 3389.85 961.75 3383.5 968.15 3377.1 974.5 3377.1 983.55 3377.1 992.55 3383.5 998.95 3389.85 1005.35 3398.9 1005.35 3407.9 1005.35 3414.3 998.95 3420.7 992.55 3420.7 983.55
M 3646.95 1094.25
Q 3665.864453125 1088.0140625 3688.55 1070.7 3658.8212890625 1064.0962890625 3590.55 1080.5 3612.5146484375 1105.6802734375 3646.95 1094.25 Z"/>

<path fill="url(#Gradient_8)" stroke="none" d="
M 717.35 901.6
Q 440.096484375 688.6681640625 275.55 600.15
L 576.85 920.25
Q 634.0998046875 910.509375 717.35 901.6 Z"/>

<path fill="url(#Gradient_9)" stroke="none" d="
M 284.8 1308.2
Q 410.84921875 1242.238671875 576.95 1126.2 618.6166015625 1097.1044921875 662.8 1064.85 675.8115234375 1053.6732421875 693.25 1046.25 628.003125 1034.5916015625 580.3 1023.45
L 284.8 1308.2 Z"/>

<path fill="url(#Gradient_10)" stroke="none" d="
M 108.3 537.6
Q 51.0154296875 533.664453125 108.3 606 587.599609375 970.06875 129.45 1294.3 23.6966796875 1403.725390625 180.4 1357.05 228.6240234375 1337.59921875 284.8 1308.2
L 580.3 1023.45
Q 437.35078125 990.1763671875 452.15 962 462.0349609375 943.3095703125 541.55 926.85 557.7541015625 923.524609375 576.85 920.25
L 275.55 600.15
Q 167.7203125 542.1572265625 108.3 537.6 Z"/>

<path fill="url(#Gradient_11)" stroke="none" d="
M 1480.55 1380.5
Q 1514.2919921875 1344.371484375 1553 1350.65
L 1447.25 1323.7
Q 1129.8330078125 1164.3849609375 971 1082.85 931.6275390625 1062.633203125 902 1047.2 860.7927734375 1038.241796875 825.7 1034.5 778.82890625 1048.021484375 800.1 1076.6 1031.807421875 1154.01171875 1290.35 1313.85 1363.9283203125 1377.02578125 1332.35 1473 1331.4619140625 1475.6990234375 1330.5 1478.4 1330.392578125 1479.846484375 1331 1480.7 1334.784765625 1485.934375 1364.85 1470.7 1426.4328125 1444.3595703125 1480.55 1380.5 Z"/>

<path fill="url(#Gradient_12)" stroke="none" d="
M 1796.25 353
Q 1832.0341796875 545.07890625 1647.25 609.9
L 804.05 849.15
Q 829.1755859375 870.4375 794.2 897.6 905.6134765625 887.697265625 1003 853.7 1592.79453125 657.8560546875 2100.35 619.25 1965.8681640625 443.3615234375 1796.25 353 Z"/>

<path fill="url(#Gradient_13)" stroke="none" d="
M 3632.8 970.9
Q 3628.644140625 968.166015625 3624.45 965.45 3485.82578125 984.178125 3432.5 946.1 3448 961.6 3448 983.5 3448 1005.4 3432.5 1020.9 3425.5427734375 1027.8572265625 3417.3 1031.7 3496.10234375 1000.373828125 3598.6 1001.8 3608.9345703125 1001.9712890625 3619.5 1002.45 3655.1724609375 988.1787109375 3632.8 970.9 Z"/>

<path fill="url(#Gradient_14)" stroke="none" d="
M 2643.9 1514.85
Q 2681.51484375 1429.53671875 2730.35 1400.8 2599.6919921875 1416.3560546875 2455.15 1427.6 2470.212890625 1551.2765625 2426.9 1638.4 2393.379296875 1702.02734375 2477.15 1665.5 2588.9197265625 1607.509765625 2643.9 1514.85 Z"/>

<path fill="url(#Gradient_15)" stroke="none" d="
M 2882.45 883
Q 2889.484765625 849.31015625 2899.45 813 2990.0681640625 755.505859375 2737.9 713.2 2265.8904296875 633.6478515625 1808.8 748.85 1055.434765625 922.954296875 881.05 921.2 767.7837890625 934.465625 673.95 958.3 525.6099609375 983.657421875 541.55 926.85 462.0349609375 943.3095703125 452.15 962 437.35078125 990.1763671875 580.3 1023.45 628.003125 1034.5916015625 693.25 1046.25 742.0970703125 1025.5791015625 825.7 1034.5 860.7927734375 1038.241796875 902 1047.2 931.6275390625 1062.633203125 971 1082.85
L 1493.75 1017.95
Q 1429.69921875 982.09140625 1539.35 917.25 2853.0171875 786.36484375 2882.45 883 Z"/>
</g>

<path id="Layer0_0_1_STROKES" stroke="#000000" stroke-width="1" stroke-linejoin="round" stroke-linecap="round" fill="none" d="
M 541.55 926.875
Q 525.6099609375 983.657421875 673.95 958.3 767.7837890625 934.465625 881.05 921.2 1055.434765625 922.954296875 1808.8 748.85 2265.8904296875 633.6478515625 2737.9 713.2 2990.0681640625 755.505859375 2899.45 813 2889.484765625 849.31015625 2882.475 883 2879.5771484375 896.9490234375 2877.2 910.45
M 3391.875 930.675
Q 3392.0115234375 930.6685546875 3392.15 930.675 3393.6125 930.6 3395.1 930.6 3417 930.6 3432.5 946.1
M 3624.45 965.45
Q 3139.4380859375 650.1544921875 2508.3 614.4 2498.96640625 613.870703125 2489.6 613.4 2485.503125 613.19453125 2481.4 613 2471.3939453125 612.5294921875 2461.35 612.125 2457.0529296875 611.9591796875 2452.75 611.8 2443.19140625 611.4423828125 2433.6 611.15 2429.049609375 611.0158203125 2423.3 610.85 2410.3439453125 610.5201171875 2391.45 610.75 2365.44296875 609.7826171875 2339.15 609.525
M 2283.7 609.75
Q 2289.912890625 609.6388671875 2296.1 609.575
M 2190.05 613.625
L 2184.375 613.95
Q 2163.7845703125 614.98671875 2143.05 616.3 2121.7861328125 617.648046875 2100.375 619.275 1592.79453125 657.8560546875 1003 853.7 905.6134765625 887.697265625 794.2 897.625 756.5787109375 900.9890625 717.35 901.6 634.0998046875 910.509375 576.85 920.275 557.7541015625 923.524609375 541.55 926.875
M 693.25 1046.275
Q 742.0970703125 1025.5791015625 825.7 1034.5 860.7927734375 1038.241796875 902 1047.2 931.6275390625 1062.633203125 971 1082.85
M 2866.25 1009.85
Q 2868.704296875 1021.9974609375 2865.975 1028.95 2865.932421875 1019.5482421875 2866.25 1009.85 Z
M 2865.975 1028.95
Q 2866.9392578125 1330.6759765625 3227.225 1314.525 3525.0818359375 1241.622265625 3702.3 1131.45 3714.427734375 1087.5490234375 3688.55 1070.7 3665.864453125 1088.0140625 3646.95 1094.275 3612.5146484375 1105.6802734375 3590.55 1080.5 3593.920703125 1057.73359375 3617.275 1046.6 3627.0798828125 1041.925 3640.4 1039.3 3699.6966796875 1017.4267578125 3640.4 975.9 3636.61796875 973.3931640625 3632.825 970.9
M 3417.3 1031.7
Q 3407.1701171875 1036.4 3395.1 1036.4 3383.562109375 1036.4 3373.8 1032.1
M 2877.2 910.45
Q 2867.7712890625 963.644921875 2866.25 1009.85
M 2481.675 1017.925
Q 2536.0634765625 1058.7189453125 2590.45 1113.9 2657.19453125 1172.6201171875 2745.35 1151.15 2652.290234375 1062.51796875 2819.9 1033.5 2809.7720703125 1027.7505859375 2799.75 1022.35 2787.7720703125 1015.8646484375 2775.95 1009.875 2599.50703125 920.5171875 2459.05 939.35 2379.9169921875 948.128515625 2439.45 988.4 2460.5634765625 1002.0740234375 2481.675 1017.925 Z
M 2730.375 1400.825
Q 2681.51484375 1429.53671875 2643.9 1514.85 2588.9197265625 1607.509765625 2477.15 1665.5 2393.379296875 1702.02734375 2426.9 1638.4 2470.212890625 1551.2765625 2455.15 1427.6 2083.1625 1541.4216796875 1655.5 1387 1580.2453125 1355.0716796875 1553 1350.65 1514.2919921875 1344.371484375 1480.55 1380.5 1426.4328125 1444.3595703125 1364.85 1470.7 1334.784765625 1485.934375 1331.025 1480.725 1330.392578125 1479.846484375 1330.5 1478.4 1330.6509765625 1476.31015625 1332.35 1473.025 1363.9283203125 1377.02578125 1290.35 1313.85 1031.807421875 1154.01171875 800.1 1076.6 778.82890625 1048.021484375 825.7 1034.5
M 2730.375 1400.825
Q 3010.6861328125 1367.524609375 3227.225 1314.525
M 3624.45 965.45
Q 3628.644140625 968.166015625 3632.825 970.9
M 3688.55 1070.7
Q 3658.8212890625 1064.0962890625 3590.55 1080.5
M 3420.7 983.55
Q 3420.7 992.55 3414.3 998.95 3407.9 1005.35 3398.9 1005.35 3389.85 1005.35 3383.5 998.95 3377.1 992.55 3377.1 983.55 3377.1 974.5 3383.5 968.15 3389.85 961.75 3398.9 961.75 3407.9 961.75 3414.3 968.15 3420.7 974.5 3420.7 983.55 Z
M 3432.5 946.1
Q 3448 961.6 3448 983.5 3448 1005.4 3432.5 1020.9 3425.5427734375 1027.8572265625 3417.3 1031.7
M 3373.8 1032.1
Q 3365.033984375 1028.233984375 3357.7 1020.9 3342.2 1005.4 3342.2 983.5 3342.2 961.6 3357.7 946.1 3372.048828125 931.751171875 3391.875 930.675
M 2296.1 609.575
Q 2317.728125 609.3125 2339.15 609.525
M 2190.05 613.625
Q 2237.31640625 610.5935546875 2283.7 609.75
M 794.2 897.625
Q 829.1755859375 870.4375 804.05 849.15
L 1647.25 609.9
Q 1832.0341796875 545.07890625 1796.25 353 1965.8681640625 443.3615234375 2100.375 619.275
M 1332.35 1473.025
Q 1331.4619140625 1475.6990234375 1330.5 1478.4
M 275.55 600.175
Q 167.7203125 542.1572265625 108.3 537.6 51.0154296875 533.664453125 108.3 606 587.599609375 970.06875 129.45 1294.3 23.6966796875 1403.725390625 180.4 1357.05 228.6240234375 1337.59921875 284.8 1308.2 410.84921875 1242.238671875 576.95 1126.2 618.6166015625 1097.1044921875 662.8 1064.85 675.8115234375 1053.6732421875 693.25 1046.275
M 717.35 901.6
Q 440.096484375 688.6681640625 275.55 600.175
M 971 1082.85
Q 1129.8330078125 1164.3849609375 1447.25 1323.7"/>
</defs>

<g transform="matrix( 1, 0, 0, 1, 0,0) ">
<use xlink:href="#Layer0_0_FILL"/>

<use xlink:href="#Layer0_0_1_STROKES"/>
</g>
</svg>
