
<svg xmlns="http://www.w3.org/2000/svg" version="1.1" xmlns:xlink="http://www.w3.org/1999/xlink" preserveAspectRatio="none" x="0px" y="0px" width="3840px" height="1920px" viewBox="0 0 3840 1920">
<defs>
<linearGradient id="Gradient_1" gradientUnits="userSpaceOnUse" x1="2017.425" y1="1165.4625" x2="2056.275" y2="703.5375" spreadMethod="pad">
<stop  offset="0%" stop-color="#000000"/>

<stop  offset="3.5294117647058822%" stop-color="#FFFF17"/>

<stop  offset="100%" stop-color="#FFFFFF"/>
</linearGradient>

<linearGradient id="Gradient_2" gradientUnits="userSpaceOnUse" x1="2233" y1="1424.6875" x2="2193.3999999999996" y2="787.8125" spreadMethod="pad">
<stop  offset="0%" stop-color="#FFFFFF"/>

<stop  offset="100%" stop-color="#000000"/>
</linearGradient>

<linearGradient id="Gradient_3" gradientUnits="userSpaceOnUse" x1="3322.6" y1="1044.1875" x2="3294.7000000000003" y2="923.7125000000001" spreadMethod="pad">
<stop  offset="0%" stop-color="#000000"/>

<stop  offset="3.5294117647058822%" stop-color="#FFFF17"/>

<stop  offset="100%" stop-color="#FFFFFF"/>
</linearGradient>

<linearGradient id="Gradient_4" gradientUnits="userSpaceOnUse" x1="1615.3875" y1="1186.25" x2="1669.7124999999999" y2="565.45" spreadMethod="pad">
<stop  offset="0%" stop-color="#FFFFFF"/>

<stop  offset="100%" stop-color="#000000"/>
</linearGradient>

<linearGradient id="Gradient_5" gradientUnits="userSpaceOnUse" x1="382.375" y1="1250.4125" x2="210.125" y2="1054.5875" spreadMethod="pad">
<stop  offset="0%" stop-color="#FFFFFF"/>

<stop  offset="100%" stop-color="#000000"/>
</linearGradient>

<linearGradient id="Gradient_6" gradientUnits="userSpaceOnUse" x1="323.6" y1="605.3874999999999" x2="143.5" y2="717.2125" spreadMethod="pad">
<stop  offset="0%" stop-color="#FFFFFF"/>

<stop  offset="100%" stop-color="#000000"/>
</linearGradient>

<radialGradient id="Gradient_7" gradientUnits="userSpaceOnUse" cx="0" cy="0" r="53" fx="0" fy="0" gradientTransform="matrix( 1, 0, 0, 1, 3449.15,979.45) " spreadMethod="pad">
<stop  offset="0%" stop-color="#FFFFFF"/>

<stop  offset="100%" stop-color="#000000"/>
</radialGradient>

<linearGradient id="Gradient_8" gradientUnits="userSpaceOnUse" x1="2816.1875" y1="1529.3" x2="2740.2124999999996" y2="1593.3" spreadMethod="pad">
<stop  offset="0%" stop-color="#FFFFFF"/>

<stop  offset="100%" stop-color="#000000"/>
</linearGradient>

<linearGradient id="Gradient_9" gradientUnits="userSpaceOnUse" x1="2683.1625" y1="1625.5375000000001" x2="2783.8375" y2="1649.3625" spreadMethod="pad">
<stop  offset="0%" stop-color="#000000"/>

<stop  offset="3.5294117647058822%" stop-color="#FFFF17"/>

<stop  offset="100%" stop-color="#FFFFFF"/>
</linearGradient>

<linearGradient id="Gradient_10" gradientUnits="userSpaceOnUse" x1="2525.4125000000004" y1="1137.125" x2="2553.1875" y2="919.7750000000001" spreadMethod="pad">
<stop  offset="0%" stop-color="#000000"/>

<stop  offset="3.5294117647058822%" stop-color="#FFFF17"/>

<stop  offset="100%" stop-color="#FFFFFF"/>
</linearGradient>

<linearGradient id="Gradient_11" gradientUnits="userSpaceOnUse" x1="2743.7000000000003" y1="1105.925" x2="2583.6" y2="1078.2749999999999" spreadMethod="pad">
<stop  offset="0%" stop-color="#FFFFFF"/>

<stop  offset="100%" stop-color="#000000"/>
</linearGradient>

<linearGradient id="Gradient_12" gradientUnits="userSpaceOnUse" x1="2129.0125000000003" y1="648.95" x2="2094.7875" y2="634.55" spreadMethod="pad">
<stop  offset="0%" stop-color="#000000"/>

<stop  offset="3.5294117647058822%" stop-color="#FFFF17"/>

<stop  offset="100%" stop-color="#FFFFFF"/>
</linearGradient>

<linearGradient id="Gradient_13" gradientUnits="userSpaceOnUse" x1="2118.325" y1="606.8" x2="2213.075" y2="606.8" spreadMethod="pad">
<stop  offset="0%" stop-color="#000000"/>

<stop  offset="3.5294117647058822%" stop-color="#FFFF17"/>

<stop  offset="100%" stop-color="#FFFFFF"/>
</linearGradient>

<linearGradient id="Gradient_14" gradientUnits="userSpaceOnUse" x1="2264.0750000000003" y1="602.6625" x2="2191.725" y2="573.7375000000001" spreadMethod="pad">
<stop  offset="0%" stop-color="#000000"/>

<stop  offset="3.5294117647058822%" stop-color="#FFFF17"/>

<stop  offset="100%" stop-color="#FFFFFF"/>
</linearGradient>

<linearGradient id="Gradient_15" gradientUnits="userSpaceOnUse" x1="2332.875" y1="585.5" x2="2239.2250000000004" y2="555.4000000000001" spreadMethod="pad">
<stop  offset="0%" stop-color="#000000"/>

<stop  offset="3.5294117647058822%" stop-color="#FFFF17"/>

<stop  offset="100%" stop-color="#FFFFFF"/>
</linearGradient>

<linearGradient id="Gradient_16" gradientUnits="userSpaceOnUse" x1="1540.5874999999999" y1="384.48749999999995" x2="1492.6125" y2="464.8125" spreadMethod="pad">
<stop  offset="0%" stop-color="#000000"/>

<stop  offset="3.5294117647058822%" stop-color="#FFFF17"/>

<stop  offset="100%" stop-color="#FFFFFF"/>
</linearGradient>

<linearGradient id="Gradient_17" gradientUnits="userSpaceOnUse" x1="2392.2875" y1="578.475" x2="2284.2125" y2="535.225" spreadMethod="pad">
<stop  offset="0%" stop-color="#000000"/>

<stop  offset="3.5294117647058822%" stop-color="#FFFF17"/>

<stop  offset="100%" stop-color="#FFFFFF"/>
</linearGradient>

<linearGradient id="Gradient_18" gradientUnits="userSpaceOnUse" x1="2457.15" y1="571.975" x2="2360.85" y2="524.8249999999999" spreadMethod="pad">
<stop  offset="0%" stop-color="#000000"/>

<stop  offset="3.5294117647058822%" stop-color="#FFFF17"/>

<stop  offset="100%" stop-color="#FFFFFF"/>
</linearGradient>

<linearGradient id="Gradient_19" gradientUnits="userSpaceOnUse" x1="2535.6875" y1="574.375" x2="2434.3125" y2="505.82500000000005" spreadMethod="pad">
<stop  offset="0%" stop-color="#000000"/>

<stop  offset="3.5294117647058822%" stop-color="#FFFF17"/>

<stop  offset="100%" stop-color="#FFFFFF"/>
</linearGradient>

<linearGradient id="Gradient_20" gradientUnits="userSpaceOnUse" x1="2598.8125" y1="548.375" x2="2488.1875" y2="499.625" spreadMethod="pad">
<stop  offset="0%" stop-color="#000000"/>

<stop  offset="3.5294117647058822%" stop-color="#FFFF17"/>

<stop  offset="100%" stop-color="#FFFFFF"/>
</linearGradient>

<linearGradient id="Gradient_21" gradientUnits="userSpaceOnUse" x1="2707.8" y1="484.1" x2="2599.8" y2="484.1" spreadMethod="pad">
<stop  offset="0%" stop-color="#000000"/>

<stop  offset="3.5294117647058822%" stop-color="#FFFF17"/>

<stop  offset="100%" stop-color="#FFFFFF"/>
</linearGradient>

<linearGradient id="Gradient_22" gradientUnits="userSpaceOnUse" x1="2650.5125" y1="504.45" x2="2546.4875" y2="503.45" spreadMethod="pad">
<stop  offset="0%" stop-color="#000000"/>

<stop  offset="3.5294117647058822%" stop-color="#FFFF17"/>

<stop  offset="100%" stop-color="#FFFFFF"/>
</linearGradient>

<linearGradient id="Gradient_23" gradientUnits="userSpaceOnUse" x1="2766.8875000000003" y1="462.125" x2="2699.7125" y2="473.975" spreadMethod="pad">
<stop  offset="0%" stop-color="#000000"/>

<stop  offset="3.5294117647058822%" stop-color="#FFFF17"/>

<stop  offset="100%" stop-color="#FFFFFF"/>
</linearGradient>

<linearGradient id="Gradient_24" gradientUnits="userSpaceOnUse" x1="2735.5125000000003" y1="465.8625" x2="2673.5875" y2="477.6375" spreadMethod="pad">
<stop  offset="0%" stop-color="#000000"/>

<stop  offset="3.5294117647058822%" stop-color="#FFFF17"/>

<stop  offset="100%" stop-color="#FFFFFF"/>
</linearGradient>

<linearGradient id="Gradient_25" gradientUnits="userSpaceOnUse" x1="1404.6000000000001" y1="1716.4375" x2="1316.3" y2="1563.8625000000002" spreadMethod="pad">
<stop  offset="0%" stop-color="#000000"/>

<stop  offset="3.5294117647058822%" stop-color="#FFFF17"/>

<stop  offset="100%" stop-color="#FFFFFF"/>
</linearGradient>

<g id="Layer2_0_FILL">
<path fill="url(#Gradient_1)" stroke="none" d="
M 2932.7 1030.2
Q 2941.55390625 994.1453125 2953.65 954.55
L 2637.5 921.4
Q 2489.812890625 909.6306640625 2336.7 912.25 2254.5359375 947.95859375 2105.8 964.7 1549.334765625 1003.202734375 1107.35 1065.85 1109.933984375 1085.2791015625 1386.15 1132
L 2363.1 1176.65 2572.6 1159.6 2807.1 1028.95 2932.7 1030.2 Z"/>

<path fill="url(#Gradient_2)" stroke="none" d="
M 2921.7 1079.8
Q 2926.3748046875 1055.90078125 2932.7 1030.2
L 2807.1 1028.95 2572.6 1159.6 2363.1 1176.65 2306.85 1181.25
Q 2116.3326171875 1223.890234375 2043.6 1277.25 1953.883203125 1352.262890625 1240.9 1134.6 1069.1029296875 1077.59140625 880.6 1048.4 756.6349609375 1050.09609375 701.25 1036.85 644.8236328125 1039.8109375 608.6 1071.6 640.8587890625 1052.7001953125 734.15 1078.25
L 1862.45 1458.6
Q 2519.106640625 1589.25546875 3083.2 1446.1 2730.1482421875 1321.6546875 2730.85 1235.1 2730.1482421875 1321.6546875 3083.2 1446.1 3243.3416015625 1405.38828125 3410.65 1330.65 3626.48515625 1218.606640625 3793 1173.85 3833.726171875 1139.86953125 3807.85 1125.55 3757.5310546875 1097.5935546875 3617.1 1082.1 3613.1580078125 1048.093359375 3659.1 979.7
L 3620.4 984.15
Q 3455.498828125 1005.1119140625 3336.45 1049
L 3180.85 1100.85
Q 3160.2970703125 1104.8138671875 3140.95 1107.55 3085.5390625 1376.0013671875 3377.35 1276.1 3085.5390625 1376.0013671875 3140.95 1107.55 2997.1412109375 1127.869921875 2921.7 1079.8 2822.571875 1586.8607421875 3462.2 1287.1 2822.571875 1586.8607421875 2921.7 1079.8 Z"/>

<path fill="#00CCFF" stroke="none" d="
M 2953.65 954.55
Q 2940.8103515625 945.30546875 2958.45 924.05 2986.8990234375 892.7185546875 2984.3 878.7 2757.0201171875 847.2009765625 2548.2 846.35 2278.5359375 842.55546875 1893.75 894.55 1854.038671875 899.9373046875 1813.1 905.9 1427.5787109375 946.271875 1065.1 1031.4 1018.0166015625 1039.3505859375 971.5 1043.6 1492.487890625 1021.34140625 1910.15 946 2128.442578125 915.8140625 2336.7 912.25 2489.812890625 909.6306640625 2637.5 921.4
L 2953.65 954.55
M 3127.95 913.6
Q 3101.7751953125 935.5861328125 3089.15 918.8 3059.28125 872.340625 3005 918.8
L 2979.35 936.65
Q 3065.59921875 912.7109375 3100.45 955.65 3253.1005859375 975.3775390625 3367.4 927.85 3343.296484375 912.55 3310.45 927.85 3256.5193359375 940.0431640625 3206.9 913.6 3157.1068359375 882.745703125 3127.95 913.6 Z"/>

<path fill="url(#Gradient_3)" stroke="none" d="
M 2979.35 936.65
L 2953.65 954.55
Q 2941.55390625 994.1453125 2932.7 1030.2 2926.3748046875 1055.90078125 2921.7 1079.8 2997.1412109375 1127.869921875 3140.95 1107.55 3141.2587890625 1106.1763671875 3141.55 1104.8 3141.2587890625 1106.1763671875 3140.95 1107.55 3160.2970703125 1104.8138671875 3180.85 1100.85
L 3336.45 1049
Q 3455.498828125 1005.1119140625 3620.4 984.15
L 3659.1 979.7
Q 3677.2802734375 952.665234375 3703.25 920.25 3637.595703125 949.139453125 3480.5 940.1
L 3430.35 933.05
Q 3389.4716796875 939.9447265625 3367.4 927.85 3253.1005859375 975.3775390625 3100.45 955.65 3065.59921875 912.7109375 2979.35 936.65 Z"/>

<path fill="#000000" stroke="none" d="
M 3089.15 918.8
Q 3101.7751953125 935.5861328125 3127.95 913.6 3157.1068359375 882.745703125 3206.9 913.6 3256.5193359375 940.0431640625 3310.45 927.85 3343.296484375 912.55 3367.4 927.85 3389.4716796875 939.9447265625 3430.35 933.05
L 3480.5 940.1
Q 3637.595703125 949.139453125 3703.25 920.25 3713.161328125 907.892578125 3724.2 894.75 3600.6884765625 849.497265625 3561.35 820.2 2815.0236328125 517.5564453125 2095.35 646.2 1987.1755859375 666.06796875 1873.65 699.3 1723.4580078125 743.25625 1563.9 810.6 982.2349609375 1010.48984375 642.85 968.1 636.43984375 937.08515625 588.85 910 513.15703125 805.403125 448.4 719.3 570.001171875 893.1138671875 518.95 922.75 443.446875 960.6341796875 392.1 838.6 192.9599609375 487.785546875 160.1 463.6 556.27265625 1112.6841796875 18.8 1630.75 80.051953125 1618.9693359375 154.65 1567.6 171.515625 1469.1330078125 421.9 1116.8 500.5400390625 988.6474609375 701.25 1036.85 756.6349609375 1050.09609375 880.6 1048.4 900.9693359375 1048.1490234375 921.45 1047.15 921.6248046875 1047.13359375 921.8 1047.1
L 922.7 1047.05 971.5 1043.6
Q 1018.0166015625 1039.3505859375 1065.1 1031.4 1427.5787109375 946.271875 1813.1 905.9 1854.038671875 899.9373046875 1893.75 894.55 2278.5359375 842.55546875 2548.2 846.35 2757.0201171875 847.2009765625 2984.3 878.7 2986.8990234375 892.7185546875 2958.45 924.05 2940.8103515625 945.30546875 2953.65 954.55 2955.6603515625 947.9966796875 2957.75 941.35 2955.6603515625 947.9966796875 2953.65 954.55
L 2979.35 936.65 3005 918.8
Q 3059.28125 872.340625 3089.15 918.8 Z"/>

<path fill="url(#Gradient_4)" stroke="none" d="
M 2306.85 1181.25
L 2363.1 1176.65 1386.15 1132
Q 1109.933984375 1085.2791015625 1107.35 1065.85 1549.334765625 1003.202734375 2105.8 964.7 2254.5359375 947.95859375 2336.7 912.25 2128.442578125 915.8140625 1910.15 946 1492.487890625 1021.34140625 971.5 1043.6 947.018359375 1045.85390625 922.7 1047.05
L 921.8 1047.1
Q 921.6248046875 1047.13359375 921.45 1047.15 900.9693359375 1048.1490234375 880.6 1048.4 1069.1029296875 1077.59140625 1240.9 1134.6 1953.883203125 1352.262890625 2043.6 1277.25 2116.3326171875 1223.890234375 2306.85 1181.25 Z"/>

<path fill="url(#Gradient_5)" stroke="none" d="
M 595.9 1084.35
Q 598.13984375 1081.3056640625 600.35 1078.25 603.801171875 1074.4412109375 608.6 1071.6 644.8236328125 1039.8109375 701.25 1036.85 500.5400390625 988.6474609375 421.9 1116.8 171.515625 1469.1330078125 154.65 1567.6 330.36953125 1446.612890625 580.15 1106 580.2333984375 1105.8748046875 580.3 1105.75 587.4380859375 1094.06015625 595.9 1084.35 Z"/>

<path fill="url(#Gradient_6)" stroke="none" d="
M 68.85 328.85
Q 88.9203125 355.872265625 107.4 382.65 135.56171875 423.390625 160.1 463.6 192.9599609375 487.785546875 392.1 838.6 443.446875 960.6341796875 518.95 922.75 570.001171875 893.1138671875 448.4 719.3 379.725 630.7125 311 542.1 93.1642578125 271.93984375 68.85 328.85 Z"/>
</g>

<g id="Layer1_0_FILL">
<path fill="url(#Gradient_7)" stroke="none" d="
M 3480.5 940.1
Q 3468.4 927.1 3451.25 927.1 3434.15 927.1 3422.05 940.1 3409.95 953.1 3409.95 971.5 3409.95 989.9 3422.05 1002.9 3434.15 1015.9 3451.25 1015.9 3468.4 1015.9 3480.5 1002.9 3492.6 989.9 3492.6 971.5 3492.6 953.1 3480.5 940.1
M 3431.95 973.25
Q 3431.95 964.4 3437.8 958.1 3443.65 951.8 3451.9 951.8 3460.2 951.8 3466.05 958.1 3471.9 964.4 3471.9 973.25 3471.9 982.15 3466.05 988.45 3460.2 994.75 3451.9 994.75 3443.65 994.75 3437.8 988.45 3431.95 982.15 3431.95 973.25 Z"/>

<path fill="#000000" stroke="none" d="
M 3437.8 958.1
Q 3431.95 964.4 3431.95 973.25 3431.95 982.15 3437.8 988.45 3443.65 994.75 3451.9 994.75 3460.2 994.75 3466.05 988.45 3471.9 982.15 3471.9 973.25 3471.9 964.4 3466.05 958.1 3460.2 951.8 3451.9 951.8 3443.65 951.8 3437.8 958.1 Z"/>
</g>

<g id="Layer0_0_FILL">
<path fill="url(#Gradient_8)" stroke="none" d="
M 2710.85 1510.15
Q 2765.4583984375 1514.7662109375 2707.25 1553.95 2812.1275390625 1495.0255859375 2728.6 1578.35 2805.6076171875 1521.253125 2742.85 1592.6 2819.129296875 1521.70546875 2773.35 1592.6 2832.161328125 1539.4310546875 2803.85 1592.6
L 2741.45 1700.15
Q 2800.5935546875 1639.4912109375 2868.65 1491.35
L 2710.85 1510.15 Z"/>

<path fill="url(#Gradient_9)" stroke="none" d="
M 2710.85 1510.15
L 2677.2 1514.2
Q 2706.48046875 1617.7044921875 2645.1 1739.45 2689.8859375 1753.0841796875 2741.45 1700.15
L 2803.85 1592.6
Q 2832.161328125 1539.4310546875 2773.35 1592.6 2819.129296875 1521.70546875 2742.85 1592.6 2805.6076171875 1521.253125 2728.6 1578.35 2812.1275390625 1495.0255859375 2707.25 1553.95 2765.4583984375 1514.7662109375 2710.85 1510.15 Z"/>

<path fill="url(#Gradient_10)" stroke="none" d="
M 2741.1 1173.7
Q 2619.595703125 1103.3154296875 2660.4 1066.9 2672.941015625 1053.399609375 2856.1 1057.15 2870.121484375 1050.3927734375 2885.7 1044.35 2493.7701171875 956.3818359375 2181.55 1102.5 2564.846875 1115.9912109375 2730.85 1235.1 2731.1880859375 1202.14609375 2741.1 1173.7 Z"/>

<path fill="url(#Gradient_11)" stroke="none" d="
M 2660.4 1066.9
Q 2619.595703125 1103.3154296875 2741.1 1173.7 2766.73203125 1100.4271484375 2856.1 1057.15 2672.941015625 1053.399609375 2660.4 1066.9 Z"/>

<path fill="url(#Gradient_12)" stroke="none" d="
M 2068.4 651.2
Q 2086.0220703125 647.6060546875 2103.75 644.25 2136.995703125 635.834765625 2144.15 630.7 2146.099609375 627.5521484375 2115.85 615.8 2126.5681640625 637.629296875 2068.4 651.2 Z"/>

<path fill="#000000" stroke="none" d="
M 2653.35 333.25
Q 2658.8240234375 338.074609375 2691.95 383.25 2725.07109375 428.48125 2769.7 596.8 2764.224609375 621.507421875 2744.05 597.35 2650.0857421875 392.445703125 2611.85 361.55
L 2643.1 406.65
Q 2686.75 479.1373046875 2714.2 548.7 2728.5740234375 593.519140625 2717.55 603.6 2695.648828125 614.098046875 2682.95 587.6 2636.14375 493.365625 2578.95 406.1 2595.8498046875 437.510546875 2621.05 480.55 2639.3798828125 511.861328125 2664 581.95 2676.665234375 619.0587890625 2616.75 588.1
L 2519.05 451.9 2539.4 485.9
Q 2584.103125 545.621484375 2598.3 590.15 2594.773046875 610.55703125 2555.2 590.15
L 2471.6 480.6 2492.6 520.85 2536.7 589.65
Q 2539.55546875 612.667578125 2483.85 589.65
L 2392.55 504.3 2424.85 542.95 2462.3 589.65
Q 2470.6341796875 612.8556640625 2419.7 589.65
L 2322.25 515.95 2404.85 593.25
Q 2420.48671875 614.1361328125 2357.15 598.9
L 2265.2 530.9 2343.8 599.9
Q 2357.124609375 615.8701171875 2293 605.55
L 2207.4 557.55 2276.55 607.1
Q 2289.9609375 617.8650390625 2238.1 614.8
L 2167 585.45
Q 2218.3701171875 610.4501953125 2212.5 615.6 2210.7111328125 622.291015625 2155.45 628.15
L 2118.3 616.55
Q 2117.0982421875 616.18515625 2115.85 615.8 2146.099609375 627.5521484375 2144.15 630.7 2136.995703125 635.834765625 2103.75 644.25 2443.22890625 580.7595703125 2828.35 626.2 2760.7453125 417.728515625 2673.6 322.05 2759.8662109375 442.2515625 2803.05 600.95 2797.0615234375 628.01953125 2779.45 597.35 2720.1775390625 388.49296875 2653.35 333.25 Z"/>

<path fill="url(#Gradient_13)" stroke="none" d="
M 2118.3 616.55
L 2155.45 628.15
Q 2210.7111328125 622.291015625 2212.5 615.6 2218.3701171875 610.4501953125 2167 585.45 2166.3982421875 630.083984375 2118.3 616.55 Z"/>

<path fill="url(#Gradient_14)" stroke="none" d="
M 2207.4 557.55
Q 2204.77890625 592.3947265625 2167 585.45
L 2238.1 614.8
Q 2289.9609375 617.8650390625 2276.55 607.1
L 2207.4 557.55 Z"/>

<path fill="url(#Gradient_15)" stroke="none" d="
M 2265.2 530.9
Q 2254.01953125 566.7859375 2207.4 557.55
L 2293 605.55
Q 2357.124609375 615.8701171875 2343.8 599.9
L 2265.2 530.9 Z"/>

<path fill="url(#Gradient_16)" stroke="none" d="
M 2062.15 652
Q 2024.254296875 650.7447265625 1975.2 619.75 1500.3955078125 325.85390625 951 259.05 909.5904296875 261.32734375 959.15 271.25 1434.301953125 330.516796875 1717.1 573.6 1739.7529296875 593.049609375 1761.15 613.65 1776.43828125 628.41015625 1791.1 643.75 1822.0474609375 691.7111328125 1785.3 720.65 1778.66640625 725.8708984375 1769.8 730.45 1777.655078125 728.00859375 1785.3 725.6 1988.7392578125 662.0140625 2062.15 652 Z"/>

<path fill="url(#Gradient_17)" stroke="none" d="
M 2404.85 593.25
L 2322.25 515.95
Q 2301.112890625 547.165234375 2265.2 530.9
L 2357.15 598.9
Q 2420.48671875 614.1361328125 2404.85 593.25 Z"/>

<path fill="url(#Gradient_18)" stroke="none" d="
M 2424.85 542.95
L 2392.55 504.3
Q 2373.395703125 532.5767578125 2322.25 515.95
L 2419.7 589.65
Q 2470.6341796875 612.8556640625 2462.3 589.65
L 2424.85 542.95 Z"/>

<path fill="url(#Gradient_19)" stroke="none" d="
M 2536.7 589.65
L 2492.6 520.85 2471.6 480.6
Q 2453.7365234375 518.173046875 2392.55 504.3
L 2483.85 589.65
Q 2539.55546875 612.667578125 2536.7 589.65 Z"/>

<path fill="url(#Gradient_20)" stroke="none" d="
M 2539.4 485.9
L 2519.05 451.9
Q 2507.762109375 493.4611328125 2471.6 480.6
L 2555.2 590.15
Q 2594.773046875 610.55703125 2598.3 590.15 2584.103125 545.621484375 2539.4 485.9 Z"/>

<path fill="url(#Gradient_21)" stroke="none" d="
M 2714.2 548.7
Q 2686.75 479.1373046875 2643.1 406.65
L 2611.85 361.55
Q 2621.2458984375 402.8212890625 2578.95 406.1 2636.14375 493.365625 2682.95 587.6 2695.648828125 614.098046875 2717.55 603.6 2728.5740234375 593.519140625 2714.2 548.7 Z"/>

<path fill="url(#Gradient_22)" stroke="none" d="
M 2664 581.95
Q 2639.3798828125 511.861328125 2621.05 480.55 2595.8498046875 437.510546875 2578.95 406.1 2573.603515625 464.1345703125 2519.05 451.9
L 2616.75 588.1
Q 2676.665234375 619.0587890625 2664 581.95 Z"/>

<path fill="url(#Gradient_23)" stroke="none" d="
M 2673.6 322.05
Q 2671.040625 335.5646484375 2653.35 333.25 2720.1775390625 388.49296875 2779.45 597.35 2797.0615234375 628.01953125 2803.05 600.95 2759.8662109375 442.2515625 2673.6 322.05 Z"/>

<path fill="url(#Gradient_24)" stroke="none" d="
M 2653.35 333.25
Q 2647.9421875 379.710546875 2611.85 361.55 2650.0857421875 392.445703125 2744.05 597.35 2764.224609375 621.507421875 2769.7 596.8 2725.07109375 428.48125 2691.95 383.25 2658.8240234375 338.074609375 2653.35 333.25 Z"/>

<path fill="#FFFF00" stroke="none" d="
M 801.8 942.75
Q 803.9609375 966.79296875 783.8 975.45 819.9560546875 989.3548828125 840.85 973.5 810.8 941.95 801.8 942.75
M 695.6 948.75
Q 698.8 966.7 690.7 972.75 711.9880859375 982.8693359375 731.2 974.95 723.2 950.9 695.6 948.75
M 894.35 969.6
Q 901.446875 981.426171875 925.35 974.3 949.253125 967.223828125 949.65 963.7 911.8 925.3 894.95 933.35 902.1474609375 947.3546875 894.35 969.6
M 999.55 956.9
Q 1014.55 969.146484375 1037.3 963.8 1060.05 958.503515625 1074.35 943.25 1030.6 904.25 1002.65 910.75 1009.898828125 948.4 999.55 956.9
M 1522.25 824.65
Q 1564.1 827.3 1591.9 799.25 1575.35 774.55 1535.3 776.8 1536.8 796.45 1522.25 824.65
M 1670.7 733.15
Q 1672.05 749.85 1660.35 771.65 1705.7 770.9 1719.85 749.6 1695.3 728.25 1670.7 733.15
M 1365.8 818.55
Q 1375.9 847.55 1365.2 873.95 1420.75 874.3 1444.3 850.15 1399.2 812.8 1365.8 818.55
M 1115.35 889.35
Q 1141.087890625 909.42421875 1123.15 934.7 1185.9671875 943.25 1202.45 917.1 1153.2138671875 881.9287109375 1115.35 889.35
M 1245.3 858.55
Q 1247.4 890.05 1239.15 908.15 1294.65 914.25 1313 888.7 1287.7361328125 858.12734375 1245.3 858.55
M 1115.35 948.2
L 1115.35 947.2
Q 1115.153125 947.7076171875 1114.95 948.2 1115.1498046875 948.2109375 1115.35 948.2
M 1115.35 899.8
L 1115.35 899.2
Q 1115.148828125 899.3169921875 1114.95 899.4 1115.1529296875 899.6029296875 1115.35 899.8
M 720.15 1074.8
Q 698.4658203125 1058.5712890625 672 1065.3 693.965234375 1072.269921875 690.75 1090.2 718.326171875 1088.0556640625 720.15 1074.8
M 1614.35 1374.85
Q 1600.2095703125 1353.559765625 1551.8 1353.8 1566.5330078125 1374.6072265625 1565.2 1391.3 1589.775 1396.2052734375 1614.35 1374.85
M 1470.05 1367.8
Q 1510.099609375 1370.05 1526.65 1345.35 1498.8607421875 1317.314453125 1453.4 1320.65 1471.5474609375 1348.1732421875 1470.05 1367.8
M 1405.25 1304.45
Q 1381.6923828125 1280.324609375 1326.75 1278 1336.840234375 1307.025 1326.75 1336.05 1360.1525390625 1341.818359375 1405.25 1304.45
M 1282 1262.95
Q 1263.6263671875 1237.389453125 1202.9 1236.25 1216.4033203125 1261.6 1214.3 1293.1 1253.622265625 1287.265234375 1282 1262.95
M 1081.2 1195.2
Q 1095.45625 1229.7689453125 1081.2 1244 1108.3078125 1255.28125 1175.35 1226.9 1169.7197265625 1190.38046875 1081.2 1195.2
M 971.75 1210.25
Q 1011.2029296875 1214.419140625 1057.65 1187.2 1054.16484375 1156.3671875 971.75 1158.35 985.1095703125 1195.7111328125 971.75 1210.25
M 860.5 1120.85
Q 882.0650390625 1140.76875 863.35 1178.4 891.312109375 1184.912109375 935.05 1145.9 920.728515625 1123.7681640625 909.05 1120.35 875.25 1110.396875 860.5 1120.85
M 765.05 1088.6
Q 780.034765625 1103.6923828125 763.25 1123.5 791.097265625 1138.0078125 820.8 1107.4 815.008203125 1083.8224609375 765.05 1088.6 Z"/>

<path fill="url(#Gradient_25)" stroke="none" d="
M 1651.75 1387.5
Q 1663.344921875 1404.1873046875 1651.75 1436.4 1523.1865234375 1668.2970703125 917.05 1698.05 916.898046875 1698.0677734375 916.75 1698.05 907.99765625 1698.51328125 899.15 1698.9 907.99765625 1698.51328125 916.75 1698.05 774.1599609375 1696.8400390625 795.85 1711.6 1497.0595703125 1758.929296875 1862.45 1458.6
L 1651.75 1387.5 Z"/>
</g>

<path id="Layer2_0_1_STROKES" stroke="#000000" stroke-width="1" stroke-linejoin="round" stroke-linecap="round" fill="none" d="
M 2979.35 936.65
L 3005 918.8
Q 3059.28125 872.340625 3089.15 918.8 3101.7751953125 935.5861328125 3127.95 913.6 3157.1068359375 882.745703125 3206.9 913.6 3256.5193359375 940.0431640625 3310.45 927.85 3343.296484375 912.55 3367.4 927.85 3389.4716796875 939.9447265625 3430.35 933.05
L 3480.5 940.1
Q 3637.595703125 949.139453125 3703.25 920.25 3713.161328125 907.892578125 3724.2 894.75 3600.6884765625 849.497265625 3561.35 820.2 2815.0236328125 517.5564453125 2095.35 646.2 1987.1755859375 666.06796875 1873.65 699.3 1723.4580078125 743.25625 1563.9 810.6 982.2349609375 1010.48984375 642.85 968.1 636.43984375 937.08515625 588.85 910 513.15703125 805.403125 448.425 719.325 570.001171875 893.1138671875 518.95 922.75 443.446875 960.6341796875 392.1 838.6 192.9599609375 487.785546875 160.1 463.6 556.27265625 1112.6841796875 18.8 1630.75 80.051953125 1618.9693359375 154.65 1567.6 171.515625 1469.1330078125 421.9 1116.8 500.5400390625 988.6474609375 701.25 1036.85 756.6349609375 1050.09609375 880.6 1048.425 900.9693359375 1048.1490234375 921.45 1047.15 921.6248046875 1047.13359375 921.8 1047.125
L 922.7 1047.075 971.5 1043.6
Q 1018.0166015625 1039.3505859375 1065.1 1031.4 1427.5787109375 946.271875 1813.1 905.9 1854.038671875 899.9373046875 1893.75 894.575 2278.5359375 842.55546875 2548.2 846.35 2757.0201171875 847.2009765625 2984.3 878.7 2986.8990234375 892.7185546875 2958.45 924.05 2940.8103515625 945.30546875 2953.65 954.55 2955.6603515625 947.9966796875 2957.75 941.35
M 2953.65 954.55
L 2979.35 936.65
Q 3065.59921875 912.7109375 3100.45 955.65 3253.1005859375 975.3775390625 3367.4 927.85
M 2932.7 1030.2
Q 2926.3748046875 1055.90078125 2921.7 1079.8 2997.1412109375 1127.869921875 3140.975 1107.55 3141.2587890625 1106.1763671875 3141.55 1104.8
M 3659.1 979.7
L 3620.4 984.15
Q 3455.498828125 1005.1119140625 3336.45 1049
L 3180.85 1100.85
Q 3160.2970703125 1104.8138671875 3140.975 1107.55 3085.5390625 1376.0013671875 3377.35 1276.1
M 2953.65 954.55
Q 2941.55390625 994.1453125 2932.7 1030.2
L 2807.1 1028.95 2572.6 1159.6 2363.125 1176.675 2306.85 1181.25
Q 2116.3326171875 1223.890234375 2043.6 1277.25 1953.883203125 1352.262890625 1240.9 1134.6 1069.1029296875 1077.59140625 880.6 1048.425
M 2336.7 912.25
Q 2489.812890625 909.6306640625 2637.5 921.4
L 2953.65 954.55
M 2730.85 1235.1
Q 2730.1482421875 1321.6546875 3083.2 1446.1 3243.3416015625 1405.38828125 3410.65 1330.65 3626.48515625 1218.606640625 3793 1173.85 3833.726171875 1139.86953125 3807.85 1125.55 3757.5310546875 1097.5935546875 3617.1 1082.1 3613.1580078125 1048.093359375 3659.1 979.7 3677.2802734375 952.665234375 3703.25 920.25
M 2921.7 1079.8
Q 2822.571875 1586.8607421875 3462.2 1287.1
M 2363.125 1176.675
L 1386.15 1132
Q 1109.933984375 1085.2791015625 1107.35 1065.85 1549.334765625 1003.202734375 2105.8 964.7 2254.5359375 947.95859375 2336.7 912.25 2128.442578125 915.8140625 1910.15 946 1492.487890625 1021.34140625 971.5 1043.6 947.018359375 1045.85390625 922.7 1047.075
M 107.425 382.675
Q 88.9203125 355.872265625 68.85 328.85 93.1642578125 271.93984375 311.025 542.1 379.725 630.7125 448.425 719.325
M 107.425 382.675
Q 135.56171875 423.390625 160.1 463.6
L 107.425 382.675 Z
M 608.6 1071.625
Q 603.801171875 1074.4412109375 600.35 1078.25 598.13984375 1081.3056640625 595.925 1084.35 601.921875 1077.4943359375 608.6 1071.625 644.8236328125 1039.8109375 701.25 1036.85
M 580.325 1105.75
Q 580.2333984375 1105.8748046875 580.15 1106 330.36953125 1446.612890625 154.65 1567.6
M 595.925 1084.35
Q 587.4380859375 1094.06015625 580.325 1105.75 588.0955078125 1095.151953125 595.925 1084.35 Z
M 3083.2 1446.1
Q 2519.106640625 1589.25546875 1862.45 1458.6
L 734.15 1078.25
Q 640.8587890625 1052.7001953125 608.6 1071.625"/>

<path id="Layer1_0_1_STROKES" stroke="#000000" stroke-width="1" stroke-linejoin="round" stroke-linecap="round" fill="none" d="
M 3492.6 971.5
Q 3492.6 989.9 3480.5 1002.9 3468.4 1015.9 3451.25 1015.9 3434.15 1015.9 3422.05 1002.9 3409.95 989.9 3409.95 971.5 3409.95 953.1 3422.05 940.1 3434.15 927.1 3451.25 927.1 3468.4 927.1 3480.5 940.1 3492.6 953.1 3492.6 971.5 Z
M 3471.9 973.25
Q 3471.9 982.15 3466.05 988.45 3460.2 994.75 3451.9 994.75 3443.65 994.75 3437.8 988.45 3431.95 982.15 3431.95 973.25 3431.95 964.4 3437.8 958.1 3443.65 951.8 3451.9 951.8 3460.2 951.8 3466.05 958.1 3471.9 964.4 3471.9 973.25 Z"/>

<path id="Layer0_0_1_STROKES" stroke="#000000" stroke-width="0.1" stroke-linejoin="round" stroke-linecap="round" fill="none" d="
M 2611.85 361.55
Q 2650.0857421875 392.445703125 2744.05 597.35 2764.224609375 621.507421875 2769.7 596.8 2725.07109375 428.48125 2691.95 383.275 2658.8240234375 338.074609375 2653.35 333.25
M 2103.775 644.275
L 2101.05 645.2
M 2578.95 406.1
Q 2595.8498046875 437.510546875 2621.05 480.55 2639.3798828125 511.861328125 2664 581.95 2676.665234375 619.0587890625 2616.75 588.1
L 2519.05 451.9 2539.4 485.9
Q 2584.103125 545.621484375 2598.3 590.15 2594.773046875 610.55703125 2555.2 590.15
L 2471.6 480.6 2492.6 520.85 2536.7 589.65
Q 2539.55546875 612.667578125 2483.85 589.65
L 2392.55 504.3 2424.85 542.95 2462.3 589.65
Q 2470.6341796875 612.8556640625 2419.7 589.65
L 2322.25 515.95 2404.85 593.25
Q 2420.48671875 614.1361328125 2357.15 598.9
L 2265.2 530.9 2343.8 599.9
Q 2357.124609375 615.8701171875 2293 605.55
L 2207.4 557.55 2276.55 607.1
Q 2289.9609375 617.8650390625 2238.1 614.8
L 2167 585.45
Q 2218.3701171875 610.4501953125 2212.5 615.6 2210.7111328125 622.291015625 2155.45 628.15
L 2118.325 616.55
M 2115.85 615.8
Q 2146.099609375 627.5521484375 2144.15 630.7 2136.995703125 635.834765625 2103.775 644.275
M 2611.85 361.55
L 2643.1 406.65
Q 2686.75 479.1373046875 2714.2 548.7 2728.5740234375 593.519140625 2717.55 603.6 2695.648828125 614.098046875 2682.95 587.6 2636.14375 493.365625 2578.95 406.1
M 2653.35 333.25
Q 2720.1775390625 388.49296875 2779.45 597.35 2797.0615234375 628.01953125 2803.05 600.95 2759.8662109375 442.2515625 2673.6 322.05
M 2856.1 1057.175
Q 2672.941015625 1053.399609375 2660.4 1066.9 2619.595703125 1103.3154296875 2741.125 1173.725
M 2741.475 1700.15
L 2803.85 1592.6
Q 2832.161328125 1539.4310546875 2773.35 1592.6 2819.129296875 1521.70546875 2742.85 1592.6 2805.6076171875 1521.253125 2728.6 1578.35 2812.1275390625 1495.0255859375 2707.25 1553.95 2765.4583984375 1514.7662109375 2710.875 1510.175"/>

<path id="Layer0_0_2_STROKES" stroke="#000000" stroke-width="1" stroke-linejoin="round" stroke-linecap="round" fill="none" d="
M 2611.85 361.55
Q 2647.9421875 379.710546875 2653.35 333.25 2671.040625 335.5646484375 2673.6 322.05 2760.7453125 417.728515625 2828.35 626.2 2443.22890625 580.7595703125 2103.775 644.275
M 2118.325 616.55
Q 2117.0982421875 616.18515625 2115.85 615.8
M 2103.775 644.275
Q 2086.0220703125 647.6060546875 2068.4 651.225 2068.3857421875 651.2228515625 2068.375 651.225 2066.4841796875 651.6365234375 2064.55 652.05 2063.3703125 652.03984375 2062.175 652 1988.7392578125 662.0140625 1785.3 725.625 1777.655078125 728.00859375 1769.825 730.475 1778.66640625 725.8708984375 1785.3 720.65 1822.0474609375 691.7111328125 1791.1 643.75 1776.43828125 628.41015625 1761.15 613.675 1739.7529296875 593.049609375 1717.125 573.6 1434.301953125 330.516796875 959.15 271.25 909.5904296875 261.32734375 951 259.05 1500.3955078125 325.85390625 1975.2 619.75 2024.254296875 650.7447265625 2062.175 652 2065.402734375 651.5611328125 2068.375 651.225
M 2611.85 361.55
Q 2621.2458984375 402.8212890625 2578.95 406.1
M 2741.125 1173.725
Q 2766.73203125 1100.4271484375 2856.1 1057.175 2870.121484375 1050.3927734375 2885.7 1044.35 2493.7701171875 956.3818359375 2181.55 1102.5 2564.846875 1115.9912109375 2730.85 1235.1 2731.1880859375 1202.14609375 2741.125 1173.725 Z
M 2741.475 1700.15
Q 2689.8859375 1753.0841796875 2645.1 1739.45 2706.48046875 1617.7044921875 2677.2 1514.2
L 2710.875 1510.175 2868.65 1491.35
Q 2800.5935546875 1639.4912109375 2741.475 1700.15 Z
M 2265.2 530.9
Q 2254.01953125 566.7859375 2207.4 557.55 2204.77890625 592.3947265625 2167 585.45 2166.3982421875 630.083984375 2118.325 616.55
M 2115.85 615.8
Q 2126.5681640625 637.629296875 2068.4 651.225
M 2578.95 406.1
Q 2573.603515625 464.1345703125 2519.05 451.9 2507.762109375 493.4611328125 2471.6 480.6 2453.7365234375 518.173046875 2392.55 504.3 2373.395703125 532.5767578125 2322.25 515.95 2301.112890625 547.165234375 2265.2 530.9
M 1660.35 771.65
Q 1672.05 749.85 1670.7 733.15 1695.3 728.25 1719.85 749.6 1705.7 770.9 1660.35 771.65 Z
M 1522.25 824.65
Q 1536.8 796.45 1535.3 776.8 1575.35 774.55 1591.9 799.25 1564.1 827.3 1522.25 824.65 Z
M 1365.2 873.95
Q 1375.9 847.55 1365.8 818.55 1399.2 812.8 1444.3 850.15 1420.75 874.3 1365.2 873.95 Z
M 1453.4 1320.65
Q 1471.5474609375 1348.1732421875 1470.05 1367.8 1510.099609375 1370.05 1526.65 1345.35 1498.8607421875 1317.314453125 1453.4 1320.65 Z
M 1551.8 1353.8
Q 1566.5330078125 1374.6072265625 1565.2 1391.3 1589.775 1396.2052734375 1614.35 1374.85 1600.2095703125 1353.559765625 1551.8 1353.8 Z
M 1326.75 1278
Q 1336.840234375 1307.025 1326.75 1336.05 1360.1525390625 1341.818359375 1405.25 1304.45 1381.6923828125 1280.324609375 1326.75 1278 Z
M 916.75 1698.075
Q 916.898046875 1698.0677734375 917.05 1698.05 1523.1865234375 1668.2970703125 1651.75 1436.4 1663.344921875 1404.1873046875 1651.75 1387.5
L 1862.45 1458.6
Q 1497.0595703125 1758.929296875 795.85 1711.6 774.1599609375 1696.8400390625 916.75 1698.075 907.99765625 1698.51328125 899.15 1698.9
M 1239.15 908.15
Q 1247.4 890.05 1245.3 858.55 1287.7361328125 858.12734375 1313 888.7 1294.65 914.25 1239.15 908.15 Z
M 999.55 956.9
Q 1009.898828125 948.4 1002.65 910.75 1030.6 904.25 1074.35 943.25 1060.05 958.503515625 1037.3 963.825 1014.55 969.146484375 999.55 956.9 Z
M 1115.35 899.225
Q 1115.148828125 899.3169921875 1114.95 899.4 1115.1529296875 899.6029296875 1115.35 899.8
M 1115.35 947.225
Q 1115.153125 947.7076171875 1114.95 948.2 1115.1498046875 948.2109375 1115.35 948.225
M 1123.15 934.7
Q 1141.087890625 909.42421875 1115.35 889.35 1153.2138671875 881.9287109375 1202.45 917.1 1185.9671875 943.25 1123.15 934.7 Z
M 894.35 969.6
Q 902.1474609375 947.3546875 894.95 933.35 911.8 925.3 949.65 963.7 949.253125 967.223828125 925.35 974.325 901.446875 981.426171875 894.35 969.6 Z
M 695.6 948.75
Q 698.8 966.7 690.7 972.75 711.9880859375 982.8693359375 731.2 974.95 723.2 950.9 695.6 948.75 Z
M 840.85 973.5
Q 810.8 941.95 801.8 942.75 803.9609375 966.79296875 783.8 975.45 819.9560546875 989.3548828125 840.85 973.5 Z
M 690.75 1090.2
Q 693.965234375 1072.269921875 672 1065.3 698.4658203125 1058.5712890625 720.175 1074.8 718.326171875 1088.0556640625 690.75 1090.2 Z
M 820.8 1107.4
Q 791.097265625 1138.0078125 763.25 1123.5 780.034765625 1103.6923828125 765.05 1088.6 815.008203125 1083.8224609375 820.8 1107.4 Z
M 860.5 1120.85
Q 882.0650390625 1140.76875 863.35 1178.4 891.312109375 1184.912109375 935.05 1145.9 920.728515625 1123.7681640625 909.05 1120.35 875.25 1110.396875 860.5 1120.85 Z
M 1202.9 1236.25
Q 1216.4033203125 1261.6 1214.3 1293.1 1253.622265625 1287.265234375 1282 1262.95 1263.6263671875 1237.389453125 1202.9 1236.25 Z
M 1081.2 1195.2
Q 1095.45625 1229.7689453125 1081.2 1244 1108.3078125 1255.28125 1175.35 1226.9 1169.7197265625 1190.38046875 1081.2 1195.2 Z
M 971.75 1158.35
Q 985.1095703125 1195.7111328125 971.75 1210.25 1011.2029296875 1214.419140625 1057.65 1187.2 1054.16484375 1156.3671875 971.75 1158.35 Z"/>
</defs>

<g transform="matrix( 1, 0, 0, 1, 0,0) ">
<use xlink:href="#Layer2_0_FILL"/>

<use xlink:href="#Layer2_0_1_STROKES"/>
</g>

<g transform="matrix( 1, 0, 0, 1, 0,0) ">
<use xlink:href="#Layer1_0_FILL"/>

<use xlink:href="#Layer1_0_1_STROKES"/>
</g>

<g transform="matrix( 1, 0, 0, 1, 0,0) ">
<use xlink:href="#Layer0_0_FILL"/>

<use xlink:href="#Layer0_0_1_STROKES"/>

<use xlink:href="#Layer0_0_2_STROKES"/>
</g>
</svg>
